<svg xmlns="http://www.w3.org/2000/svg" width="60" height="1200" viewBox="0 0 60 1200" preserveAspectRatio="none">
  <defs>
    <filter id="softR" x="-2%" y="-1%" width="104%" height="102%">
      <feTurbulence type="fractalNoise" baseFrequency="0.04" numOctaves="5" result="noise" seed="5"/>
      <feDisplacementMap in="SourceGraphic" in2="noise" scale="4" xChannelSelector="R" yChannelSelector="G"/>
    </filter>
  </defs>
  <path d="M 60 0 L 60 1200 L 20.9 1200 C 18.9 1193.4 19.3 1186.6 21.0 1180.0 C 18.9 1173.4 18.7 1166.6 17.0 1160.0 C 14.7 1153.4 12.6 1146.6 14.1 1140.0 C 11.8 1133.4 16.3 1126.6 14.8 1120.0 C 12.4 1113.4 16.6 1106.6 18.0 1100.0 C 15.7 1093.4 20.3 1086.6 18.9 1080.0 C 16.7 1073.4 14.9 1066.6 16.2 1060.0 C 14.1 1053.4 15.1 1046.6 13.9 1040.0 C 12.0 1033.4 14.4 1026.6 15.5 1020.0 C 13.9 1013.4 19.6 1006.6 18.6 1000.0 C 17.2 993.4 17.6 986.6 18.5 980.0 C 17.5 973.4 16.3 966.6 15.4 960.0 C 14.7 953.4 13.1 946.6 13.9 940.0 C 13.6 933.4 17.0 926.6 16.3 920.0 C 16.4 913.4 18.4 906.6 19.0 900.0 C 19.4 893.4 18.4 886.6 17.9 880.0 C 18.7 873.4 14.3 866.6 14.7 860.0 C 15.9 853.4 14.5 846.6 14.2 840.0 C 15.6 833.4 16.9 826.6 17.1 820.0 C 18.8 813.4 19.3 806.6 19.1 800.0 C 21.1 793.4 17.1 786.6 17.2 780.0 C 19.3 773.4 14.2 766.6 14.2 760.0 C 16.5 753.4 14.8 746.6 14.7 740.0 C 17.1 733.4 17.7 726.6 17.9 720.0 C 20.3 713.4 19.3 706.6 19.0 700.0 C 21.4 693.4 16.0 686.6 16.4 680.0 C 18.6 673.4 14.4 666.6 13.9 660.0 C 16.1 653.4 14.8 646.6 15.4 640.0 C 17.3 633.4 19.2 626.6 18.5 620.0 C 20.2 613.4 17.9 606.6 18.6 600.0 C 20.0 593.4 16.4 586.6 15.6 580.0 C 16.6 573.4 13.0 566.6 13.9 560.0 C 14.6 553.4 17.1 546.6 16.1 540.0 C 16.5 533.4 17.8 526.6 18.9 520.0 C 18.9 513.4 19.2 506.6 18.1 500.0 C 17.7 493.4 13.6 486.6 14.8 480.0 C 14.1 473.4 15.4 466.6 14.1 460.0 C 13.0 453.4 15.6 446.6 17.0 440.0 C 15.6 433.4 20.6 426.6 19.1 420.0 C 17.4 413.4 15.8 406.6 17.3 400.0 C 15.4 393.4 15.9 386.6 14.3 380.0 C 12.2 373.4 12.9 366.6 14.6 360.0 C 12.3 353.4 19.5 346.6 17.7 340.0 C 15.4 333.4 17.2 326.6 19.0 320.0 C 16.6 313.4 18.4 306.6 16.5 300.0 C 14.1 293.4 12.1 286.6 14.0 280.0 C 11.7 273.4 17.2 266.6 15.2 260.0 C 13.1 253.4 16.4 246.6 18.4 240.0 C 16.4 233.4 20.8 226.6 18.7 220.0 C 17.0 213.4 13.6 206.6 15.7 200.0 C 14.3 193.4 16.0 186.6 13.9 180.0 C 12.8 173.4 13.8 166.6 16.0 160.0 C 15.2 153.4 21.1 146.6 18.9 140.0 C 18.5 133.4 15.9 126.6 18.2 120.0 C 18.2 113.4 17.3 106.6 15.0 100.0 C 15.3 93.4 11.7 86.6 14.1 80.0 C 14.8 73.4 19.1 66.6 16.8 60.0 C 17.9 53.4 16.7 46.6 19.1 40.0 C 20.5 33.4 21.4 26.6 19.0 20.0 C 20.7 13.4 11.9 6.6 14.3 0.0 Z" fill="white" filter="url(#softR)"/>
</svg>