<svg xmlns="http://www.w3.org/2000/svg" width="60" height="1200" viewBox="0 0 60 1200" preserveAspectRatio="none">
  <defs>
    <filter id="softL" x="-2%" y="-1%" width="104%" height="102%">
      <feTurbulence type="fractalNoise" baseFrequency="0.04" numOctaves="5" result="noise" seed="2"/>
      <feDisplacementMap in="SourceGraphic" in2="noise" scale="4" xChannelSelector="R" yChannelSelector="G"/>
    </filter>
  </defs>
  <path d="M 0 0 L 0 1200 L 49.9 1200 C 50.9 1193.4 48.7 1186.6 46.4 1180.0 C 46.0 1173.4 40.1 1166.6 42.1 1160.0 C 40.5 1153.4 41.3 1146.6 40.1 1140.0 C 37.8 1133.4 42.3 1126.6 42.4 1120.0 C 40.1 1113.4 45.0 1106.6 46.1 1100.0 C 44.6 1093.4 48.5 1086.6 46.5 1080.0 C 46.2 1073.4 40.7 1066.6 43.1 1060.0 C 44.2 1053.4 42.4 1046.6 40.2 1040.0 C 42.3 1033.4 40.0 1026.6 41.5 1020.0 C 43.9 1013.4 45.8 1006.6 45.3 1000.0 C 47.3 993.4 47.5 986.6 46.8 980.0 C 47.7 973.4 42.4 966.6 44.1 960.0 C 43.7 953.4 42.9 946.6 40.6 940.0 C 39.0 933.4 38.4 926.6 40.8 920.0 C 38.4 913.4 46.2 906.6 44.4 900.0 C 42.1 893.4 46.0 886.6 46.9 880.0 C 45.4 873.4 44.8 866.6 45.1 860.0 C 44.9 853.4 42.7 846.6 41.3 840.0 C 42.4 833.4 38.1 826.6 40.3 820.0 C 42.4 813.4 45.8 806.6 43.4 800.0 C 45.8 793.4 44.5 786.6 46.6 780.0 C 48.5 773.4 47.2 766.6 45.9 760.0 C 46.8 753.4 42.0 746.6 42.2 740.0 C 41.7 733.4 39.1 726.6 40.1 720.0 C 38.4 713.4 44.3 706.6 42.4 700.0 C 40.0 693.4 43.7 686.6 46.1 680.0 C 43.8 673.4 48.8 666.6 46.5 660.0 C 45.1 653.4 41.6 646.6 43.1 640.0 C 43.0 633.4 40.8 626.6 40.2 620.0 C 41.4 613.4 42.1 606.6 41.5 600.0 C 43.6 593.4 43.6 586.6 45.3 580.0 C 47.7 573.4 49.1 566.6 46.8 560.0 C 48.8 553.4 41.8 546.6 44.2 540.0 C 45.0 533.4 42.5 526.6 40.6 520.0 C 40.1 513.4 39.8 506.6 40.7 500.0 C 39.0 493.4 44.1 486.6 44.3 480.0 C 42.0 473.4 48.2 466.6 46.9 460.0 C 44.6 453.4 43.0 446.6 45.1 440.0 C 43.7 433.4 43.7 426.6 41.3 420.0 C 41.2 413.4 38.2 406.6 40.3 400.0 C 41.5 393.4 44.6 386.6 43.3 380.0 C 45.5 373.4 46.4 366.6 46.6 360.0 C 49.0 353.4 45.0 346.6 45.9 340.0 C 47.8 333.4 44.1 326.6 42.2 320.0 C 42.9 313.4 37.7 306.6 40.1 300.0 C 39.5 293.4 44.6 286.6 42.3 280.0 C 40.6 273.4 44.4 266.6 46.0 260.0 C 43.7 253.4 47.1 246.6 46.5 240.0 C 44.3 233.4 43.8 226.6 43.2 220.0 C 41.8 213.4 38.6 206.6 40.2 200.0 C 40.2 193.4 43.7 186.6 41.4 180.0 C 42.7 173.4 42.9 166.6 45.3 160.0 C 47.4 153.4 48.8 146.6 46.9 140.0 C 49.2 133.4 43.2 126.6 44.2 120.0 C 46.0 113.4 40.5 106.6 40.7 100.0 C 41.4 93.4 42.0 86.6 40.7 80.0 C 40.1 73.4 42.2 66.6 44.3 60.0 C 42.5 53.4 49.3 46.6 46.9 40.0 C 44.5 33.4 45.0 26.6 47.1 20.0 C 44.9 13.4 43.9 6.6 42.6 0.0 Z" fill="white" filter="url(#softL)"/>
</svg>