<?xml version="1.0" encoding="utf-8"?>
<!-- Generator: Adobe Illustrator 28.0.0, SVG Export Plug-In . SVG Version: 6.00 Build 0)  -->
<svg version="1.1" id="Layer_1" xmlns="http://www.w3.org/2000/svg" xmlns:xlink="http://www.w3.org/1999/xlink" x="0px" y="0px"
	 viewBox="0 0 434.9 80" style="enable-background:new 0 0 434.9 80;" xml:space="preserve">
<style type="text/css">
	.st0{fill:#A78627;}
</style>
<g>
	<g>
		<g>
			<g>
				<path class="st0" d="M85.2,40.3c-1.6,0.2-3,0.2-4.2,0.5c-9,1.6-16.4,6.2-23.2,12.1c-0.8,0.7-1.4,1.5-1.6,2.5
					c-1.5,5-4.2,9.4-8.3,12.7c-0.3,0.2-0.7,0.6-1,0.7c-0.2,0.1-0.6,0.2-0.8,0.1c-0.3-0.1-0.5-0.5-0.5-0.8c0-0.2,0.1-0.5,0.1-0.6
					c2.1-5.6,5-10.5,9-14.8c0.7-0.8,0.9-1.6,0.9-2.5C56.1,40,53.7,30.5,48,22c-1-1.5-2.4-2.9-3.5-4.3c-0.3-0.5-0.7-0.5-1.1,0
					c-3.1,3.1-5.4,6.6-7.2,10.6c-1.9,4.3-3.2,8.9-3.8,13.7c-0.3,3.1-0.5,6.2-0.1,9.1c0,0.5,0.3,0.8,0.7,1.1c4,4.3,7.1,9.4,9.1,14.9
					c0,0.1,0.1,0.2,0.1,0.3c0.1,0.5,0.2,0.9-0.2,1.1c-0.2,0.1-0.8,0-1-0.2c-3.8-2.6-6.3-6.2-8.1-10.4c-0.5-1.1-0.8-2.4-1.3-3.5
					c-0.1-0.3-0.3-0.8-0.6-1c-6.4-5.7-13.6-10.2-21.9-12.3c-1.9-0.5-3.9-0.6-5.8-0.9c-0.6-0.1-0.7,0.1-0.6,0.7
					c0.9,3.8,2.2,7.4,4.2,10.7c3.1,5.2,6.8,9.8,11.8,13.3c5.1,3.8,10.7,6.2,17.1,7.1c1.7,0.2,3.5,0.2,5.4,0.3c0.2,0,0.5,0,0.7,0.1
					c0,0.1,0,0.1,0,0.2c-0.2,0.1-0.5,0.2-0.7,0.3c-1.8,0.2-3.8,0.6-5.6,0.6c-2.5-0.1-5-0.6-7.3-1.5C17.8,68.2,10,61.5,5,51.5
					c-1.9-3.9-3.3-7.9-4.6-12c-0.2-0.6,0.1-1,0.9-1c1.7,0.1,3.3,0.1,5,0.3c4.2,0.5,8.3,1.7,12.3,3.4c0.2,0.1,0.3,0.1,0.7,0.2
					c-0.1-0.3-0.1-0.7-0.2-0.9c-1.1-3.3-2.1-6.7-2.3-10.3c-0.2-2.3,0-4.6,0-7c0-0.6,0.7-1.1,1.5-1c1.3,0.1,2.4,0.3,3.5,0.7
					c3.8,1.1,7.2,3,10.2,5.6c0.3,0.2,0.7,0.6,1,0.8c0.1-0.3,0.3-0.6,0.5-0.8c2.2-5.4,5.4-10,9.5-14c0.8-0.8,1.3-0.8,2.1,0
					c4.1,3.9,7.2,8.6,9.5,13.8c0.1,0.3,0.2,0.6,0.5,1c0.3-0.2,0.7-0.5,0.9-0.7c3.7-3.1,7.8-5.4,12.5-6.2c0.8-0.1,1.5-0.3,2.3,0
					c0.5,0.2,0.6,0.5,0.7,0.9c0.6,5.8-0.5,11.4-2.3,16.9c-0.1,0.2-0.1,0.6-0.3,1c0.3-0.1,0.7-0.2,0.9-0.3c5.4-2.4,11-3.7,16.8-3.8
					c0.2,0,0.5,0,0.6,0c0.5,0.1,0.8,0.5,0.6,0.9c-1.7,5.5-3.7,11-6.7,15.9c-3,4.9-7,8.9-11.8,12.1c-3.5,2.4-7.3,4.4-11.5,5.5
					c-1.7,0.5-3.4,0.7-5.2,0.9c-1.1,0.1-2.4-0.1-3.5-0.2c-0.6-0.1-1.1-0.1-1.8-0.2c-0.3,0-0.6-0.2-0.8-0.5
					c13.6-0.1,24.1-5.9,32.1-16.5C81.5,51.5,83.9,46.2,85.2,40.3z M57.3,49.9c0.2-0.1,0.3-0.2,0.5-0.2c2.3-2.1,4.7-3.8,7.3-5.2
					c0.2-0.1,0.5-0.5,0.6-0.7c1.3-2.9,2.5-5.8,3.2-9c0.6-2.9,1-5.7,0.5-8.7c-0.1-0.6-0.2-0.7-0.8-0.6c-4.9,1-9,3.4-12.4,7.1
					c-0.2,0.2-0.3,0.7-0.2,1c1.4,4.6,1.9,9.4,1.7,14.1C57.4,48.3,57.4,49,57.3,49.9z M30.2,49.8l0.1-0.1c-0.1-0.8-0.1-1.6-0.2-2.4
					c-0.2-4.7,0.3-9.2,1.8-13.8c0.1-0.5,0.1-0.8-0.2-1c-0.8-0.7-1.6-1.5-2.4-2.2c-3-2.4-6.3-4.1-10-4.8c-0.3-0.1-0.8-0.1-0.8,0.5
					c0,2.2-0.1,4.2,0.1,6.4c0.3,3.8,1.7,7.4,3.3,10.8c0.2,0.6,0.8,1.1,1.4,1.6c2.1,1.6,4.2,3.1,6.4,4.7
					C29.8,49.4,29.9,49.5,30.2,49.8z M47.2,66.8c2.3-0.9,7.3-8.2,7.3-10.7C51.5,59.5,48.8,62.7,47.2,66.8z M40.3,66.9
					c-0.1-1.9-5.8-10.3-7.3-10.6C34.6,60.5,36.9,64,40.3,66.9z"/>
			</g>
			<g>
				<path class="st0" d="M80,35.7c-0.2-0.7-0.5-1.5-0.7-2.2c-2.1-6.2-5.8-11.1-10.7-15.2c-6.7-5.6-14.4-8.8-23-10
					C43.2,8,40.8,8.5,38.4,9c-6.5,1.5-12.5,4.2-17.9,8.3C14.4,22,10,27.9,7.9,35.3c0,0.2-0.1,0.3-0.2,0.6c-0.1,0-0.1,0-0.2,0
					c0.1-0.5,0.1-0.9,0.2-1.3c0.8-4.2,2.7-7.9,5.4-11.2c6-7.9,13.8-13.3,23.4-16.1c2.2-0.6,4.4-0.9,6.7-1c4.9-0.2,9.6,1,14,3.2
					c7.3,3.4,13.3,8.2,18.1,14.7c2.3,3.1,4,6.5,4.8,10.4c0.1,0.5,0.1,0.9,0.2,1.4C80.1,35.7,80,35.7,80,35.7z"/>
			</g>
		</g>
		<g>
			<path class="st0" d="M47.2,66.8c1.6-4.1,4.3-7.4,7.3-10.7C54.5,58.6,49.4,66,47.2,66.8z"/>
		</g>
		<g>
			<path class="st0" d="M40.3,66.9c-3.5-2.9-5.7-6.5-7.3-10.6C34.6,56.7,40.2,64.9,40.3,66.9z"/>
		</g>
	</g>
	<g>
		<path class="st0" d="M112.2,55.7c-1.9,0-3.6-0.4-5.3-1.1c-1.7-0.7-3-1.6-4.1-2.8l-0.7,3.4h-1.8l-1.1-11.4l2.1-0.2
			c0.5,1.7,1.2,3.1,1.9,4.3c0.7,1.2,1.6,2.1,2.5,2.9c0.9,0.7,1.9,1.3,3,1.6c1.1,0.4,2.2,0.5,3.3,0.5c1.4,0,2.6-0.2,3.7-0.7
			c1.1-0.5,2-1.2,2.6-2.2c0.7-1,1-2.3,1-4c0-1.2-0.2-2.3-0.7-3.2s-1.3-1.8-2.5-2.6c-1.2-0.8-2.9-1.5-5.1-2.3c-2-0.7-3.7-1.3-5-2
			s-2.4-1.4-3.2-2.3s-1.4-1.7-1.7-2.8c-0.3-1-0.5-2.2-0.5-3.5c0-1.2,0.2-2.2,0.5-3.2c0.3-1,0.8-1.8,1.5-2.6c0.6-0.8,1.4-1.4,2.3-1.9
			c0.9-0.5,1.8-0.9,2.9-1.2c1-0.3,2.1-0.4,3.3-0.4c1.4,0,2.8,0.3,4.1,0.8c1.3,0.5,2.5,1.2,3.6,2.1l0.7-2.9h1.8l1.1,10.2l-2.2,0.3
			c-0.6-1.9-1.4-3.4-2.2-4.6c-0.9-1.2-1.9-2-3-2.6c-1.1-0.5-2.4-0.8-3.9-0.8c-2,0-3.5,0.5-4.8,1.6c-1.2,1-1.8,2.5-1.8,4.4
			c0,1.2,0.2,2.2,0.7,3.1c0.5,0.9,1.3,1.7,2.5,2.5c1.2,0.7,2.9,1.5,5.1,2.2c2.1,0.7,3.8,1.4,5.1,2.1c1.4,0.8,2.4,1.6,3.2,2.5
			c0.8,0.9,1.3,1.8,1.6,2.8c0.3,1,0.5,2.1,0.5,3.3c0,1.5-0.3,3-0.8,4.2c-0.5,1.3-1.3,2.4-2.2,3.3c-1,0.9-2.1,1.7-3.5,2.2
			C115.4,55.5,113.9,55.7,112.2,55.7z"/>
		<path class="st0" d="M128.1,66.1v-1.9l2.5-0.4c0.5-0.1,0.8-0.3,1.1-0.6c0.2-0.4,0.3-1,0.3-1.8V35.2c0-1.3-0.1-2.2-0.3-2.7
			c-0.2-0.5-0.7-0.8-1.5-1l-2.4-0.3l0.3-2l6.4-0.6L135,29l0.3,4.2h0.1c0.8-1.2,1.6-2.2,2.5-2.9c0.9-0.7,1.9-1.2,3-1.6
			c1.1-0.3,2.2-0.5,3.4-0.5c2.1,0,3.9,0.5,5.4,1.5c1.5,1,2.7,2.5,3.5,4.4s1.2,4.3,1.2,7.1c0,3.1-0.5,5.7-1.4,7.8
			c-1,2.1-2.3,3.8-4.1,4.9s-3.9,1.7-6.3,1.7c-1.3,0-2.5-0.2-3.8-0.5s-2.3-0.8-3.1-1.3v7.4c0,0.8,0.1,1.4,0.3,1.8
			c0.2,0.4,0.7,0.6,1.3,0.7l3.1,0.5v1.9H128.1z M142.4,53c1.6,0,3-0.4,4.3-1.3c1.2-0.9,2.2-2.1,2.9-3.8c0.7-1.7,1-3.8,1-6.3
			c0-2.6-0.3-4.6-0.9-6.2c-0.6-1.5-1.5-2.6-2.6-3.3c-1.1-0.7-2.4-1-3.8-1c-1.5,0-2.8,0.3-4,1c-1.2,0.6-2.1,1.5-2.7,2.7
			c-0.7,1.2-1,2.5-1,4.1v11.9c0.8,0.7,1.8,1.2,3,1.6C139.9,52.8,141.1,53,142.4,53z"/>
		<path class="st0" d="M167.2,55.7c-2.2,0-3.9-0.6-5.3-1.8c-1.3-1.2-2-2.9-2-5.1c0-1.9,0.5-3.5,1.4-4.6c0.9-1.2,2.5-2,4.7-2.6
			c2.2-0.6,5.2-1,8.9-1.1v-3.8c0-1.4-0.2-2.6-0.7-3.5c-0.4-0.9-1.1-1.5-2-2c-0.9-0.4-2-0.6-3.2-0.6c-1.1,0-2.1,0.2-3,0.5
			s-1.7,0.7-2.2,1.2c0.3,0.6,0.6,1.1,0.8,1.4s0.3,0.7,0.4,0.9c0.1,0.2,0.1,0.4,0.1,0.6c0,0.6-0.2,1.1-0.7,1.5
			c-0.5,0.4-1.1,0.6-1.8,0.6c-0.8,0-1.4-0.2-1.8-0.6c-0.5-0.4-0.7-1.1-0.7-1.9c0-1.2,0.5-2.3,1.4-3.3c0.9-1,2.1-1.8,3.5-2.3
			c1.4-0.6,2.9-0.9,4.5-0.9c2.2,0,3.9,0.3,5.2,1c1.3,0.7,2.3,1.7,2.9,3s0.9,3,0.9,4.9v12.9c0,0.9,0.2,1.6,0.6,2.1s1,0.7,1.9,0.7
			c0.4,0,0.8,0,1.2-0.1c0.4-0.1,0.9-0.2,1.4-0.4l0.5,1.6c-0.6,0.5-1.3,0.9-2.1,1.3c-0.8,0.3-1.6,0.5-2.3,0.5c-1.3,0-2.3-0.4-3.1-1.1
			c-0.8-0.8-1.2-1.9-1.4-3.5c-0.7,1-1.4,1.9-2.2,2.6c-0.8,0.7-1.7,1.2-2.7,1.5C169.4,55.5,168.4,55.7,167.2,55.7z M168.5,52.8
			c1.1,0,2.2-0.2,3.2-0.7c1-0.5,1.8-1.2,2.4-2.1c0.6-0.9,0.9-1.9,0.9-3.1v-4.2c-2.6,0-4.8,0.2-6.5,0.6c-1.7,0.4-2.9,1-3.7,1.8
			c-0.8,0.8-1.2,1.8-1.2,3.1c0,1.5,0.4,2.7,1.3,3.4C165.8,52.5,167,52.8,168.5,52.8z"/>
		<path class="st0" d="M197.6,55v-1.9l3-0.5c0.7-0.1,1.1-0.3,1.3-0.7c0.2-0.3,0.3-1,0.3-2V23.8c0-0.9-0.1-1.5-0.4-1.8
			c-0.2-0.3-0.7-0.5-1.4-0.6l-2.8-0.5v-2h12.6c2.7,0,5,0.3,6.9,0.8c1.9,0.5,3.3,1.4,4.3,2.7c1,1.2,1.5,2.9,1.5,4.9
			c0,1.3-0.3,2.5-0.9,3.7c-0.6,1.1-1.5,2.1-2.6,2.9s-2.5,1.4-4.1,1.8v0.2c3.3,0.3,5.7,1.3,7.3,2.8c1.6,1.5,2.4,3.6,2.4,6.2
			c0,2.3-0.6,4.2-1.8,5.7c-1.2,1.5-2.9,2.6-5.1,3.3c-2.2,0.7-4.7,1.1-7.7,1.1H197.6z M209.4,35c1.9,0,3.6-0.3,5-0.9s2.5-1.4,3.2-2.6
			c0.8-1.1,1.1-2.5,1.1-4c0-1.5-0.3-2.7-0.9-3.6c-0.6-0.9-1.6-1.6-2.9-2c-1.3-0.4-3-0.6-5.1-0.6H206v13.6c0.3,0,0.8,0.1,1.3,0.1
			C207.8,35,208.5,35,209.4,35z M210,52.6c2.3,0,4.2-0.3,5.8-0.8c1.6-0.5,2.9-1.4,3.7-2.5c0.9-1.2,1.3-2.7,1.3-4.5
			c0-1.5-0.4-2.9-1.1-4c-0.7-1.1-1.8-2-3.3-2.6c-1.5-0.6-3.5-0.9-5.8-0.9c-2.2,0-3.7,0.1-4.6,0.2v14.8c0.4,0.1,0.9,0.1,1.6,0.2
			C208.3,52.5,209.1,52.6,210,52.6z"/>
		<path class="st0" d="M237.4,55.7c-2.2,0-3.9-0.6-5.3-1.8c-1.3-1.2-2-2.9-2-5.1c0-1.9,0.5-3.5,1.4-4.6c0.9-1.2,2.5-2,4.7-2.6
			c2.2-0.6,5.2-1,8.9-1.1v-3.8c0-1.4-0.2-2.6-0.7-3.5c-0.4-0.9-1.1-1.5-2-2c-0.9-0.4-2-0.6-3.2-0.6c-1.1,0-2.1,0.2-3,0.5
			s-1.7,0.7-2.2,1.2c0.3,0.6,0.6,1.1,0.8,1.4s0.3,0.7,0.4,0.9c0.1,0.2,0.1,0.4,0.1,0.6c0,0.6-0.2,1.1-0.7,1.5
			c-0.5,0.4-1.1,0.6-1.8,0.6c-0.8,0-1.4-0.2-1.8-0.6c-0.5-0.4-0.7-1.1-0.7-1.9c0-1.2,0.5-2.3,1.4-3.3c0.9-1,2.1-1.8,3.5-2.3
			c1.4-0.6,2.9-0.9,4.5-0.9c2.2,0,3.9,0.3,5.2,1c1.3,0.7,2.3,1.7,2.9,3s0.9,3,0.9,4.9v12.9c0,0.9,0.2,1.6,0.6,2.1s1,0.7,1.9,0.7
			c0.4,0,0.8,0,1.2-0.1c0.4-0.1,0.9-0.2,1.4-0.4l0.5,1.6c-0.6,0.5-1.3,0.9-2.1,1.3c-0.8,0.3-1.6,0.5-2.3,0.5c-1.3,0-2.3-0.4-3.1-1.1
			c-0.8-0.8-1.2-1.9-1.4-3.5c-0.7,1-1.4,1.9-2.2,2.6c-0.8,0.7-1.7,1.2-2.7,1.5C239.7,55.5,238.6,55.7,237.4,55.7z M238.7,52.8
			c1.1,0,2.2-0.2,3.2-0.7c1-0.5,1.8-1.2,2.4-2.1c0.6-0.9,0.9-1.9,0.9-3.1v-4.2c-2.6,0-4.8,0.2-6.5,0.6c-1.7,0.4-2.9,1-3.7,1.8
			c-0.8,0.8-1.2,1.8-1.2,3.1c0,1.5,0.4,2.7,1.3,3.4C236.1,52.5,237.3,52.8,238.7,52.8z"/>
		<path class="st0" d="M257,55v-1.9l2.7-0.4c0.6-0.1,1-0.3,1.2-0.6s0.3-1,0.3-1.9v-29c0-1.1-0.1-1.8-0.4-2.2
			c-0.2-0.4-0.8-0.6-1.6-0.7l-2.5-0.4l0.2-2.1l7.3-0.3l0.6,0.6v34.2c0,0.7,0.1,1.3,0.3,1.6s0.6,0.6,1.2,0.7l2.7,0.5V55H257z"/>
		<path class="st0" d="M273.4,55v-1.9l2.7-0.4c0.6-0.1,1-0.3,1.2-0.6s0.3-1,0.3-1.9V34.8c0-1.2-0.1-2.1-0.3-2.5
			c-0.2-0.4-0.7-0.7-1.5-0.8l-2.6-0.4l0.3-2l7.2-0.5l0.6,0.3v21.3c0,0.7,0.1,1.3,0.3,1.6s0.6,0.6,1.2,0.7l2.7,0.5V55H273.4z
			 M278.6,22.7c-0.9,0-1.5-0.3-2-0.8c-0.5-0.5-0.7-1.2-0.7-2c0-0.9,0.2-1.6,0.7-2.1s1.2-0.9,2.1-0.9s1.6,0.3,2.1,0.8
			c0.5,0.5,0.7,1.2,0.7,2.1c0,0.8-0.3,1.5-0.8,2.1C280.2,22.4,279.5,22.7,278.6,22.7z"/>
		<path class="st0" d="M299.8,55v-1.9l3-0.4c0.8-0.1,1.2-0.4,1.3-0.9c0.1-0.5,0.2-1.1,0.3-1.9l1.6-26.1c0.1-0.9,0-1.5-0.3-1.8
			c-0.2-0.3-0.7-0.5-1.3-0.6l-2.9-0.4v-2h10l9.9,27.1l0.2-0.3l10-26.8h10v2l-3.1,0.4c-0.6,0-1,0.2-1.2,0.5c-0.2,0.3-0.3,1-0.3,2.1
			l1.6,26.3c0.1,0.9,0.2,1.5,0.5,1.8c0.2,0.3,0.7,0.5,1.3,0.6l3.1,0.4V55h-13.6v-1.9l3.3-0.4c0.5-0.1,1-0.3,1.3-0.6
			c0.3-0.3,0.4-1,0.3-2l-1.7-27.2v-0.2l-10.4,27h-3.6l-10.2-27.1v0.2l-1.6,27.4c0,0.8,0,1.3,0.2,1.7c0.2,0.4,0.7,0.6,1.5,0.7
			l2.9,0.5V55H299.8z"/>
		<path class="st0" d="M359.6,55.7c-2.5,0-4.7-0.5-6.4-1.6c-1.8-1.1-3.1-2.6-4.1-4.6s-1.4-4.4-1.4-7.1c0-2.9,0.5-5.4,1.5-7.5
			s2.4-3.7,4.3-4.9c1.9-1.2,4.1-1.7,6.8-1.7c2.4,0,4.5,0.5,6.3,1.6c1.7,1.1,3.1,2.6,4,4.6c0.9,2,1.4,4.3,1.4,7c0,3-0.5,5.5-1.5,7.7
			c-1,2.1-2.4,3.8-4.2,4.9C364.4,55.1,362.2,55.7,359.6,55.7z M360.1,53.1c1.7,0,3.1-0.4,4.2-1.2c1.1-0.8,2-2,2.6-3.7
			c0.6-1.6,0.9-3.6,0.9-5.9c0-1.9-0.2-3.5-0.6-4.9c-0.4-1.4-0.9-2.6-1.6-3.6s-1.6-1.7-2.6-2.2c-1-0.5-2.2-0.7-3.6-0.7
			c-1.7,0-3.1,0.4-4.3,1.2c-1.2,0.8-2.1,2-2.7,3.5c-0.6,1.6-0.9,3.5-0.9,5.9c0,2.5,0.3,4.6,1,6.4c0.7,1.7,1.6,3.1,2.9,4
			C356.8,52.6,358.4,53.1,360.1,53.1z"/>
		<path class="st0" d="M388.7,55.7c-2.5,0-4.7-0.5-6.4-1.6c-1.8-1.1-3.1-2.6-4.1-4.6s-1.4-4.4-1.4-7.1c0-2.9,0.5-5.4,1.5-7.5
			s2.4-3.7,4.3-4.9c1.9-1.2,4.1-1.7,6.8-1.7c2.4,0,4.5,0.5,6.3,1.6c1.7,1.1,3.1,2.6,4,4.6c0.9,2,1.4,4.3,1.4,7c0,3-0.5,5.5-1.5,7.7
			c-1,2.1-2.4,3.8-4.2,4.9C393.5,55.1,391.3,55.7,388.7,55.7z M389.3,53.1c1.7,0,3.1-0.4,4.2-1.2c1.1-0.8,2-2,2.6-3.7
			c0.6-1.6,0.9-3.6,0.9-5.9c0-1.9-0.2-3.5-0.6-4.9c-0.4-1.4-0.9-2.6-1.6-3.6s-1.6-1.7-2.6-2.2c-1-0.5-2.2-0.7-3.6-0.7
			c-1.7,0-3.1,0.4-4.3,1.2c-1.2,0.8-2.1,2-2.7,3.5c-0.6,1.6-0.9,3.5-0.9,5.9c0,2.5,0.3,4.6,1,6.4c0.7,1.7,1.6,3.1,2.9,4
			C385.9,52.6,387.5,53.1,389.3,53.1z"/>
		<path class="st0" d="M405.7,55v-1.9l2.5-0.4c0.5-0.1,0.9-0.3,1.1-0.6c0.2-0.3,0.3-1,0.3-1.9V34.7c0-1.2-0.1-2.1-0.3-2.4
			c-0.2-0.4-0.7-0.6-1.4-0.7l-2.5-0.4l0.3-2l6.5-0.6l0.6,0.3l0.3,4.4h0.1c0.9-1.6,2.2-2.9,3.9-3.8c1.6-0.9,3.4-1.3,5.2-1.3
			c1.8,0,3.2,0.3,4.5,1s2.2,1.6,2.8,2.9c0.7,1.3,1,2.9,1,4.8v13.6c0,0.8,0.1,1.3,0.3,1.6s0.6,0.5,1.3,0.6l2.3,0.4V55h-11.5v-1.8
			l2.4-0.4c0.6-0.1,1-0.3,1.2-0.6c0.2-0.3,0.3-0.8,0.3-1.6V38c0-1.6-0.2-2.9-0.6-3.9c-0.4-1-1-1.7-1.8-2.2c-0.8-0.5-1.9-0.7-3.3-0.7
			c-1.5,0-2.9,0.3-4,1c-1.2,0.6-2.1,1.5-2.8,2.7c-0.7,1.2-1,2.5-1,4v11.5c0,0.8,0.1,1.3,0.3,1.6c0.2,0.3,0.5,0.5,1,0.6l2.9,0.5V55
			H405.7z"/>
	</g>
</g>
</svg>
