<?xml version="1.0" encoding="utf-8"?>
<!-- Generator: Adobe Illustrator 16.0.0, SVG Export Plug-In . SVG Version: 6.00 Build 0)  -->
<!DOCTYPE svg PUBLIC "-//W3C//DTD SVG 1.1//EN" "http://www.w3.org/Graphics/SVG/1.1/DTD/svg11.dtd">
<svg version="1.1" id="Layer_1" xmlns="http://www.w3.org/2000/svg" xmlns:xlink="http://www.w3.org/1999/xlink" x="0px" y="0px"
	 width="77px" height="80px" viewBox="0 0 77 80" enable-background="new 0 0 77 80" xml:space="preserve">
<path fill="#A78627" d="M73.313,24.471c-1.225-0.995-2.713-1.696-4.545-2.149c-1.342-0.326-2.776-0.493-4.271-0.493
	c-0.452,0-0.922,0.015-1.394,0.047c-1.48,0.091-2.984,0.325-4.477,0.687c-2.32,0.563-4.604,1.416-6.807,2.531
	c0.168-2.506,0.056-4.949-0.338-7.27c-0.502-2.986-1.375-5.524-2.662-7.755c-1.135-1.97-2.45-3.429-4.014-4.467
	c-1.548-1.025-3.166-1.544-4.814-1.544c-1.16,0-2.346,0.26-3.53,0.769c-1.737,0.747-3.295,1.991-4.766,3.795
	c-1.248,1.533-2.257,3.267-3.087,5.302c-1.572,3.862-2.318,8.063-2.214,12.492c-3.525-1.466-7.146-2.279-10.769-2.421
	c-0.356-0.015-0.71-0.021-1.052-0.021c-2.299,0-4.367,0.298-6.327,0.916c-1.945,0.609-3.52,1.464-4.811,2.617
	c-1.769,1.576-2.758,3.506-2.943,5.733c-0.142,1.738,0.222,3.468,1.107,5.294c0.951,1.959,2.36,3.743,4.299,5.463
	c1.229,1.084,2.618,2.084,4.123,2.963c2.148,1.255,4.47,2.257,6.919,2.991c-1.823,1.834-3.311,3.725-4.536,5.773
	c-1.403,2.346-2.315,4.602-2.779,6.892c-0.412,2.022-0.415,3.835-0.017,5.541c0.533,2.276,1.736,4.054,3.58,5.282
	c1.434,0.951,3.112,1.475,5.128,1.588c0.281,0.018,0.565,0.022,0.844,0.022c1.869,0,3.752-0.341,5.761-1.047
	c1.133-0.397,2.248-0.877,3.307-1.423c4.318-2.225,8.004-5.404,10.957-9.456c0.072,0.112,0.146,0.218,0.221,0.327
	c0.361,0.535,0.738,1.09,1.14,1.621c2.425,3.168,5.315,5.783,8.603,7.768c2.332,1.407,4.594,2.321,6.91,2.789
	c1.03,0.212,1.982,0.313,2.916,0.313c0.902,0,1.783-0.102,2.623-0.301c1.859-0.431,3.396-1.324,4.567-2.654
	c1.407-1.598,2.157-3.586,2.3-6.078c0.117-2.049-0.216-4.195-1.01-6.561c-0.393-1.162-0.908-2.354-1.535-3.541
	c-1.468-2.785-3.395-5.363-5.734-7.672c0.105-0.037,0.217-0.078,0.324-0.119c3.754-1.474,7.078-3.537,9.879-6.132
	c2.062-1.911,3.598-3.895,4.689-6.061c0.85-1.684,1.316-3.278,1.427-4.874C76.723,28.875,75.646,26.358,73.313,24.471z
	 M58.965,73.991L58.965,73.991c-0.885,0-1.798-0.105-2.797-0.327c-1.982-0.438-3.906-1.229-5.886-2.415
	c-3.604-2.159-6.691-5.095-9.173-8.726c-1.305-1.912-2.313-3.902-3.002-5.924c-0.579-1.705-0.907-3.351-0.924-4.645
	c-0.017-1.939,0.238-3.314,0.853-4.59c0.051-0.109,0.121-0.18,0.241-0.248c0.577-0.319,1.227-0.477,1.999-0.477
	c0.017,0,0.031,0,0.041,0c1.011,1.364,2.349,2.393,4.088,3.133c1.873,0.797,3.971,1.188,6.42,1.188c0.094,0,0.193,0,0.291-0.002
	c1.318-0.019,2.703-0.158,4.229-0.438c0.002,0,0.006,0,0.006,0c3.584,2.367,6.428,5.008,8.693,8.067
	c0.615,0.832,1.198,1.65,1.584,2.554c0.205,0.482,0.34,0.993,0.493,1.618c0.334,1.366,0.474,2.704,0.407,3.982
	c-0.104,1.955-0.65,3.518-1.67,4.772c-0.945,1.161-2.194,1.899-3.814,2.252C60.379,73.919,59.682,73.991,58.965,73.991z
	 M28.769,27.532c-0.126-0.068-0.255-0.134-0.383-0.201c-0.056-1.006-0.065-2.007-0.025-3.001
	C28.451,25.388,28.587,26.452,28.769,27.532z M40.667,6.058c1.267,0.139,2.435,0.639,3.569,1.529
	c1.304,1.031,2.382,2.398,3.301,4.195c0.982,1.916,1.656,4.057,2.059,6.541c0.232,1.434,0.346,2.886,0.355,4.701
	c0.007,3.47-0.639,6.996-1.864,10.196c-0.889,2.313-1.993,4.209-3.379,5.796c-1.165,1.33-2.424,2.274-3.845,2.882
	c-0.143,0.062-0.276,0.093-0.412,0.093l0,0c-0.262,0-0.526-0.117-0.82-0.3c0.051-1.229-0.148-2.481-0.592-3.731
	c-0.551-1.549-1.396-3.005-2.594-4.44c-1.448-1.741-3.224-3.287-5.426-4.711c-0.004-0.002-0.014-0.011-0.016-0.016
	c-0.942-4.448-1.084-8.583-0.445-12.654c0.096-0.597,0.237-1.208,0.374-1.797c0.058-0.248,0.118-0.496,0.172-0.746
	c0.222-1.006,0.765-1.887,1.317-2.688c0.97-1.403,1.991-2.488,3.12-3.306C37.233,6.37,38.903,5.871,40.667,6.058z M51.559,27.529
	c0.006-0.029,0.014-0.054,0.017-0.086c0.144-0.079,0.284-0.157,0.43-0.236C51.854,27.314,51.707,27.421,51.559,27.529z
	 M57.889,49.902c0.07-0.021,0.146-0.043,0.215-0.063c0.373,0.343,0.73,0.69,1.071,1.033C58.754,50.543,58.327,50.218,57.889,49.902z
	 M18.754,48.264c-0.037,0.034-0.073,0.067-0.108,0.104c-0.01,0.01-0.02,0.018-0.026,0.021c-0.015,0-0.042-0.008-0.092-0.02
	c-0.355-0.094-0.706-0.193-1.052-0.297C17.895,48.143,18.321,48.206,18.754,48.264z M36.057,36.281
	c0.858,1.362,1.366,2.668,1.558,4.001l0.002,0.017c0.004,0.041,0.009,0.099,0.029,0.167c0.163,0.621-0.108,1.042-0.745,1.699
	c-0.005,0.003-0.009,0.007-0.013,0.01c-0.006,0-0.012-0.003-0.021-0.003c-0.975-0.254-2.007-0.382-3.065-0.382
	c-1.101,0-2.246,0.133-3.495,0.405c-2.29,0.496-4.552,1.394-6.727,2.662c-0.55,0.322-1.086,0.674-1.605,1.009
	c-0.315,0.213-0.641,0.421-0.966,0.624c-0.035,0.023-0.083,0.035-0.093,0.035c-3.779-0.301-7.329-1.131-10.543-2.469
	c-1.112-0.459-2.179-1.002-3.176-1.619c-0.562-0.343-1.022-0.846-1.468-1.334c-1.239-1.351-2.118-2.706-2.687-4.129
	c-0.406-1.018-0.61-2.022-0.623-3.063c0.006-1.937,0.8-3.623,2.369-4.998c1.1-0.966,2.466-1.689,4.168-2.205
	c1.743-0.531,3.582-0.79,5.621-0.79c0.374,0,0.756,0.011,1.139,0.029c3.498,0.16,6.983,0.984,10.358,2.452
	c2.589,1.128,4.787,2.492,6.712,4.166C34.162,33.759,35.231,34.977,36.057,36.281z M22.733,47.672
	c1.912-1.304,3.906-2.316,5.928-3.005c1.77-0.601,3.425-0.903,5.047-0.929c0.875,0.018,1.598,0.047,2.311,0.292
	c0.288,0.096,0.539,0.284,0.792,0.581c0.122,0.14,0.227,0.311,0.335,0.49c-0.998,1.33-1.594,2.885-1.817,4.748
	c-0.25,2.104-0.012,4.305,0.734,6.729c0.119,0.392,0.261,0.774,0.394,1.147c0.094,0.252,0.188,0.506,0.27,0.754
	c-2.156,4.205-4.994,7.852-8.431,10.828c-1.161,1.012-2.417,1.91-3.728,2.664c-0.63,0.365-1.371,0.545-2.082,0.717
	c-1.173,0.277-2.264,0.41-3.335,0.41c-0.213,0-0.424-0.002-0.633-0.014c-1.955-0.1-3.515-0.646-4.774-1.664
	c-1.161-0.951-1.901-2.193-2.258-3.816c-0.326-1.48-0.288-3.076,0.112-4.873c0.435-1.982,1.226-3.91,2.41-5.885
	C16.169,53.24,19.104,50.152,22.733,47.672z M38.077,61.307c-1.049,1.563-2.285,3.041-3.682,4.413
	c1.238-1.569,2.363-3.251,3.369-5.03C37.873,60.893,37.975,61.102,38.077,61.307z M53.318,48.859
	c-0.569,0.064-1.161,0.104-1.732,0.14c-0.26,0.021-0.521,0.035-0.781,0.058c-2.01-0.048-3.63-0.322-5.105-0.859
	c-1.104-0.405-1.985-0.908-2.689-1.54c-0.137-0.12-0.264-0.321-0.35-0.548c-0.352-0.905-0.317-1.877,0.107-2.977
	c1.703-0.971,3.185-2.369,4.526-4.264c1.375-1.95,2.427-4.137,3.216-6.692c0.082-0.27,0.156-0.543,0.227-0.804
	c0.076-0.27,0.152-0.547,0.234-0.812c0.023-0.081,0.066-0.138,0.086-0.156c2.881-2.386,5.756-4.145,8.783-5.377
	c0.758-0.31,1.568-0.565,2.348-0.81c0.238-0.077,0.478-0.155,0.719-0.23c0.457-0.146,0.961-0.214,1.634-0.214
	c0.173,0,0.366,0.005,0.604,0.015c1.931,0.077,3.557,0.417,4.979,1.036c1.801,0.786,3.04,1.898,3.792,3.391
	c0.6,1.2,0.798,2.517,0.607,4.02c-0.209,1.647-0.83,3.283-1.907,5c-1.155,1.846-2.656,3.528-4.58,5.132
	c-2.386,1.989-5.119,3.601-8.115,4.782C57.65,48.046,55.496,48.605,53.318,48.859z"/>
</svg>
