<?xml version="1.0" encoding="utf-8"?>
<!-- Generator: Adobe Illustrator 16.0.0, SVG Export Plug-In . SVG Version: 6.00 Build 0)  -->
<!DOCTYPE svg PUBLIC "-//W3C//DTD SVG 1.1//EN" "http://www.w3.org/Graphics/SVG/1.1/DTD/svg11.dtd">
<svg version="1.1" id="Layer_1" xmlns="http://www.w3.org/2000/svg" xmlns:xlink="http://www.w3.org/1999/xlink" x="0px" y="0px"
	 width="77px" height="80px" viewBox="0 0 77 80" enable-background="new 0 0 77 80" xml:space="preserve">
<g>
	<path fill="#A78627" d="M38.975,29.084c0.123-1.396,0.236-2.764,0.289-4.123c0.084-2.16-0.048-4.039-0.403-5.747
		c-0.313-1.503-0.687-3.105-1.319-4.642c-0.548-1.331-1.23-2.854-2.363-4.132c-1.01-1.141-1.889-1.925-2.855-2.544
		c-0.789-0.509-1.542-0.783-2.308-0.835c-0.434-0.034-0.868-0.043-1.288-0.054c-0.132-0.002-0.264-0.002-0.396-0.01
		c-0.04,0-0.08,0-0.119,0c-1.068,0-2.072,0.36-3.168,1.129c-0.604,0.428-1.059,0.984-1.356,1.656
		c-0.744,0.072-1.404,0.373-1.946,0.621c-0.832,0.381-1.403,0.982-1.707,1.793c-0.163-0.099-0.325-0.197-0.481-0.295
		c-0.66-0.408-1.34-0.828-2.089-1.139c-0.433-0.182-0.851-0.297-1.24-0.352c-0.711-0.1-1.368,0.093-1.861,0.546
		c-0.537,0.493-0.89,1.104-1.048,1.823c-0.103,0.486-0.018,0.932,0.25,1.287c0.03,0.036,0.057,0.078,0.085,0.115
		c0.212,0.286,0.455,0.61,0.782,0.844c0.699,0.5,1.409,0.934,2.197,1.412c0.484,0.291,0.982,0.579,1.463,0.855
		c0.294,0.174,0.595,0.346,0.893,0.52c-0.043,0.271-0.088,0.547-0.135,0.809c-0.007,0.035-0.011,0.067-0.019,0.096
		c-0.061-0.005-0.122-0.014-0.184-0.025c-1.107-0.148-2.252-0.303-3.409-0.311l-0.049-0.002c-0.755,0-1.381,0.171-1.908,0.518
		c-0.911,0.604-1.062,1.551-1.088,2.313c-0.036,0.99,0.437,1.718,1.367,2.104c0.807,0.331,1.627,0.436,2.396,0.515
		c0.636,0.066,1.279,0.125,1.906,0.188l0.034,0.001c-0.056,0.385-0.107,0.756-0.157,1.121c-0.145,0.032-0.288,0.063-0.433,0.095
		c-1.323,0.281-2.688,0.572-3.999,1.064c-0.406,0.154-0.802,0.373-1.144,0.638c-0.636,0.489-0.957,1.158-0.927,1.935
		c0.025,0.582,0.182,1.137,0.465,1.646c0.281,0.498,0.729,0.814,1.294,0.912c0.625,0.104,1.215,0.093,1.755-0.03
		c0.562-0.134,1.125-0.277,1.673-0.42c0.268-0.07,0.54-0.141,0.809-0.207c0.199,0.988,0.74,1.774,1.572,2.279
		c0.46,0.279,0.971,0.412,1.469,0.543c0.061,0.016,0.126,0.035,0.187,0.049c0.206,0.057,0.219,0.08,0.237,0.121
		c0.092,0.211,0.257,0.357,0.371,0.447c0.196,0.157,0.392,0.315,0.582,0.473c0.494,0.402,1.005,0.816,1.552,1.182
		c1.02,0.68,1.808,1.545,2.409,2.648c0.461,0.832,0.741,1.729,0.989,2.576c0.331,1.133,0.31,2.291,0.247,3.273
		c-0.054,0.856-0.2,1.791-0.445,2.842c-0.434,1.863-0.926,3.686-1.346,5.225c-0.346,1.262-0.855,2.506-1.351,3.713
		c-0.088,0.219-0.18,0.441-0.27,0.666c-0.843,2.082-1.884,4.267-3.273,6.877c-0.297,0.562-0.638,1.197-0.781,1.926
		c-0.019,0.095-0.04,0.188-0.063,0.283c-0.099,0.441-0.211,0.947-0.101,1.482c0.263,1.303,0.807,2.465,1.613,3.453
		c1.111,1.365,2.602,2.402,4.56,3.189c0.156,0.063,0.312,0.096,0.456,0.096c0.2,0,0.682-0.068,0.918-0.693
		c0.305-0.816,0.629-1.682,0.933-2.541c0.688-1.941,1.387-3.926,2.14-6.066c0.379-1.088,0.757-2.19,1.126-3.258l0.312-0.908
		c0.268-0.778,0.541-1.559,0.812-2.342c0.649-1.871,1.322-3.813,1.959-5.729c0.637-1.916,1.226-3.855,1.82-5.84
		c0.51-1.701,0.909-3.455,1.292-5.15l0.077-0.342c0.56-2.477,0.981-4.92,1.25-7.275C38.654,32.491,38.813,30.891,38.975,29.084z
		 M21.62,68.521c-0.177-0.347-0.294-0.742-0.42-1.154c-0.034-0.115-0.068-0.23-0.102-0.344c-0.014-0.049,0.003-0.205,0.013-0.269
		c0.092-0.723,0.332-1.437,0.737-2.17c1.324-2.438,2.528-4.985,3.577-7.58c0.585-1.442,1.244-3.131,1.701-4.854l0.054-0.199
		c0.377-1.434,0.769-2.912,1.101-4.389c0.182-0.804,0.291-1.617,0.399-2.408c0.023-0.174,0.05-0.348,0.074-0.521
		c0.055-0.402,0.061-0.801,0.063-1.209c0-0.25,0-0.496,0.004-0.748c0.001-0.953,0.008-1.943-0.024-2.921
		c-0.022-0.649-0.1-1.299-0.176-1.924c-0.017-0.166-0.037-0.328-0.056-0.49l-0.018-0.169c-0.157-1.365-0.316-2.776-0.498-4.167
		c-0.241-1.879-0.38-3.734-0.412-5.502c-0.045-2.618,0.044-4.902,0.273-6.98c0.243-2.203,0.6-3.956,1.126-5.508
		c0.116-0.346,0.229-0.697,0.339-1.037c0.19-0.59,0.39-1.195,0.602-1.786c0.34-0.942,0.894-1.821,1.413-2.61
		c0.58,0.377,1.159,0.854,1.759,1.457c1.283,1.279,2.207,2.911,2.999,5.298c0.806,2.435,1.219,4.864,1.231,7.229
		c0.01,1.792-0.139,3.531-0.285,4.999c-0.034,0.346-0.067,0.691-0.1,1.035c-0.206,2.072-0.419,4.217-0.71,6.307
		c-0.249,1.765-0.623,3.508-1.049,5.437c-0.311,1.398-0.734,3.238-1.276,5.074c-0.686,2.307-1.468,4.77-2.39,7.516
		c-0.905,2.701-1.859,5.437-2.782,8.084c-0.244,0.695-0.485,1.394-0.729,2.09c-0.53,1.527-1.076,3.074-1.607,4.572
		c-0.199,0.563-0.399,1.125-0.595,1.691c-0.186,0.518-0.369,1.031-0.547,1.523C23.561,71.066,22.351,69.959,21.62,68.521z
		 M20.299,31.622c-0.393-0.121-0.654-0.248-0.858-0.533c-0.349-0.486-0.467-1.023-0.379-1.69c0.208-1.551,0.491-3.601,0.819-5.673
		c0.142-0.868,0.307-1.755,0.467-2.611c0.122-0.668,0.252-1.356,0.368-2.035c0.116-0.693,0.227-1.398,0.332-2.081
		c0.101-0.665,0.206-1.36,0.321-2.04c0.109-0.637,0.256-1.308,0.44-2.047c0.074-0.29,0.263-0.525,0.534-0.662
		c0.243-0.123,0.497-0.225,0.769-0.32c-0.045,0.229-0.086,0.459-0.13,0.692c-0.154,0.831-0.313,1.69-0.455,2.542
		c-0.373,2.297-0.684,4.227-0.972,6.178c-0.416,2.839-0.771,5.359-1.076,7.715c-0.02,0.135-0.037,0.264-0.055,0.398
		C20.326,30.152,20.225,30.872,20.299,31.622z M17.421,27.166l-0.057,0.41c-0.052,0.405-0.104,0.82-0.165,1.229l-0.226,0.063
		c-0.807,0.217-1.637,0.439-2.455,0.62c-0.248,0.056-0.531,0.06-0.832,0.067c-0.102,0-0.203,0-0.314,0.002c-0.008,0-0.014,0-0.018,0
		c-0.007-0.01-0.018-0.023-0.03-0.057c-0.01-0.029-0.021-0.061-0.033-0.092c-0.012-0.027-0.026-0.051-0.034-0.082
		c-0.211-0.627-0.171-0.841,0.518-1.16c0.471-0.217,0.996-0.364,1.441-0.48c0.631-0.162,1.281-0.311,1.908-0.452
		C17.224,27.211,17.323,27.188,17.421,27.166z M14.271,21.535c-0.159-0.052-0.195-0.085-0.172-0.28l0.005-0.021
		c0.002-0.037,0.002-0.072,0.005-0.111c0.003-0.059,0.006-0.115,0.015-0.159c0.063-0.383,0.226-0.642,0.817-0.657
		c0.142-0.006,0.281-0.008,0.416-0.008c0.369,0,0.707,0.014,1.031,0.045c0.483,0.047,0.976,0.111,1.452,0.172
		c0.216,0.029,0.434,0.057,0.649,0.084c-0.092,0.496-0.177,0.998-0.267,1.534c-0.293-0.034-0.589-0.062-0.884-0.094
		c-0.684-0.068-1.39-0.139-2.08-0.229c-0.217-0.028-0.45-0.104-0.696-0.184C14.465,21.596,14.372,21.561,14.271,21.535z
		 M15.208,13.112c-0.003-0.002-0.006-0.008-0.01-0.011c0.004-0.009,0.007-0.021,0.014-0.036l0.037-0.086
		c0.045-0.104,0.088-0.205,0.139-0.286c0.217-0.362,0.431-0.408,0.592-0.408c0.135,0,0.294,0.041,0.471,0.118
		c0.483,0.205,0.931,0.429,1.339,0.662c0.368,0.211,0.738,0.443,1.097,0.662c0.225,0.141,0.456,0.283,0.684,0.425
		c-0.081,0.468-0.155,0.94-0.227,1.401c-0.014,0.084-0.026,0.164-0.039,0.244c-0.079-0.047-0.16-0.093-0.235-0.139
		c-0.26-0.152-0.517-0.302-0.771-0.451c-0.748-0.436-1.522-0.887-2.264-1.354c-0.206-0.129-0.396-0.319-0.6-0.522
		C15.357,13.26,15.284,13.184,15.208,13.112z M22.283,30.088c0.119-0.874,0.229-1.756,0.338-2.607
		c0.11-0.862,0.22-1.751,0.345-2.622c0.294-2.099,0.606-4.166,0.903-6.087l0.017-0.11c0.247-1.601,0.502-3.256,0.798-4.874
		c0.177-0.984,0.426-1.984,0.668-2.955l0.016-0.064c0.107-0.436,0.397-0.811,0.938-1.211c0.467-0.348,0.913-0.53,1.401-0.578
		c0.412-0.045,0.781-0.066,1.134-0.066c0.227,0,0.442,0.012,0.655,0.025c-0.839,1.348-1.431,2.658-1.813,4.004
		c-0.115,0.409-0.251,0.83-0.383,1.233c-0.122,0.38-0.248,0.769-0.362,1.158c-0.358,1.243-0.633,2.621-0.828,4.212
		c-0.258,2.064-0.384,4.232-0.39,6.627c-0.003,2.16,0.102,4.136,0.318,6.045c0.057,0.479,0.114,0.959,0.173,1.428
		c0.051,0.408,0.104,0.818,0.151,1.23c0.058,0.493,0.115,0.997,0.17,1.51c-0.196-0.265-0.41-0.523-0.649-0.77
		c-0.488-0.493-1.019-0.936-1.628-1.346c-0.504-0.344-0.995-0.74-1.472-1.127c-0.148-0.118-0.297-0.24-0.444-0.357
		c-0.073-0.06-0.107-0.182-0.113-0.432C22.201,31.606,22.178,30.832,22.283,30.088z"/>
	<path fill="#A78627" d="M65.743,63.324c0.01-1.436,0.021-2.922,0.021-4.381c-0.004-2.849-0.015-5.877-0.045-9.818
		c-0.004-0.934,0-1.877,0.006-2.795c0.012-2.59,0.024-5.271-0.211-7.914c-0.037-0.402-0.068-0.814-0.1-1.213
		c-0.046-0.651-0.096-1.32-0.173-1.982c-0.207-1.803-0.625-3.717-1.312-6.023c-0.113-0.387-0.25-0.762-0.382-1.133
		c-0.138-0.393-0.271-0.763-0.382-1.148c-0.493-1.701-0.988-3.178-1.518-4.51c-0.268-0.667-0.549-1.338-0.822-1.985
		c-0.21-0.497-0.424-1.004-0.626-1.504c-0.245-0.603-0.481-1.216-0.712-1.815c-0.01-0.02-0.018-0.047-0.026-0.07
		c0.276-0.002,0.56-0.002,0.836-0.006c0.581-0.008,1.001-0.383,1.068-0.953c0.026-0.237,0.056-0.52,0.042-0.809l-0.018-0.405
		c-0.051-1.04-0.103-2.116-0.176-3.173c-0.064-0.883-0.15-1.662-0.268-2.395c-0.219-1.371-1.051-2.375-2.402-2.904
		c-0.35-0.137-0.73-0.229-1.102-0.268c-1.911-0.203-3.793-0.23-5.381-0.234h-0.037c-0.859,0-1.805,0.023-2.973,0.074
		c-0.869,0.036-1.6,0.081-2.34,0.172c-1.402,0.172-2.479,0.898-3.109,2.105c-0.344,0.654-0.427,1.344-0.487,2.049
		c-0.116,1.311-0.185,2.638-0.247,3.924l-0.016,0.279c-0.023,0.455-0.02,0.951,0.01,1.563c0.029,0.551,0.451,0.949,1.029,0.973
		c0.049,0,0.101,0.004,0.149,0.004l0.7-0.004c-0.006,0.004-0.006,0.004-0.006,0.006c-0.127,0.318-0.258,0.643-0.385,0.961
		c-0.381,0.941-0.771,1.916-1.146,2.877c-0.474,1.227-1.031,2.68-1.573,4.189c-0.131,0.353-0.232,0.712-0.328,1.062
		c-0.107,0.374-0.205,0.727-0.334,1.067c-0.791,2.107-1.378,4.324-1.797,6.772c-0.211,1.231-0.307,2.493-0.4,3.711l-0.01,0.13
		c-0.107,1.383-0.188,2.818-0.246,4.393c-0.024,0.682-0.021,1.367-0.015,2.035c0.003,0.336,0.005,0.688,0.003,1.035
		c-0.003,0.995-0.01,1.995-0.016,2.993c-0.01,1.892-0.021,3.843-0.021,5.765c0,1.688,0.01,3.405,0.019,5.067
		c0.005,1.099,0.012,2.195,0.018,3.3c0.007,2.11,0.012,4.362,0,6.612c-0.003,0.529,0.126,0.978,0.395,1.375
		c0.51,0.758,1.287,1.213,2.242,1.317c0.941,0.107,1.896,0.121,2.815,0.136h0.073c0.086,0,0.176,0.002,0.261,0.002
		c0.415,0,0.835-0.015,1.241-0.026c0.387-0.009,0.789-0.021,1.184-0.021h0.291c0.854,0,1.73,0.004,2.572,0.012
		c0.843,0.002,1.715,0.008,2.574,0.008c1.125,0,2.271-0.006,3.38-0.008c0.856-0.008,1.716-0.012,2.573-0.012h0.351
		c0.454,0,0.909,0,1.362,0.004c0.813,0,1.625,0.004,2.438-0.004c1.04-0.004,1.878-0.281,2.562-0.844
		c0.574-0.476,0.875-1.031,0.891-1.648c0.02-0.713,0.014-1.43,0.01-2.123c0-0.404-0.006-0.816,0-1.227
		C65.729,65.066,65.734,64.193,65.743,63.324z M40.432,66.625c-0.002-1.355-0.002-2.756-0.011-4.137
		c-0.005-1.383-0.015-2.787-0.024-4.141c-0.008-0.759-0.014-1.517-0.021-2.273c0-0.258,0-0.516,0-0.773h0.045v-2.744
		c0-1.717,0-3.434,0-5.151c0.006-0.57-0.001-1.148-0.007-1.707c-0.01-1.322-0.021-2.688,0.039-4.019
		c0.012-0.313,0.023-0.627,0.04-0.94c0.092-2.146,0.184-4.359,0.569-6.494c0.437-2.422,1.004-4.539,1.734-6.469
		c0.166-0.441,0.292-0.893,0.417-1.328c0.081-0.288,0.165-0.592,0.261-0.877c0.621-1.889,1.401-3.752,2.084-5.352
		c0.233-0.549,0.443-1.115,0.649-1.66c0.108-0.301,0.228-0.609,0.343-0.91c0.077-0.199,0.163-0.399,0.26-0.602
		c0.428,0.004,0.854,0.006,1.282,0.008c0.565,0.006,1.149,0.012,1.724,0.012h0.113c1.776-0.002,3.582-0.012,5.325-0.016
		c0.71-0.004,1.418-0.004,2.124-0.007h0.036c0.283,0.758,0.606,1.589,1.017,2.593c0.233,0.57,0.473,1.146,0.707,1.699
		c0.17,0.41,0.342,0.824,0.514,1.236c0.597,1.446,1.15,3.063,1.699,4.945c0.133,0.453,0.287,0.898,0.438,1.33
		c0.145,0.411,0.29,0.834,0.412,1.255c0.839,2.864,1.296,5.556,1.395,8.237c0.02,0.51,0.057,1.021,0.092,1.519
		c0.047,0.634,0.098,1.289,0.102,1.926c0.02,1.842,0.02,3.717,0.018,5.53c0,1.109,0,2.259,0.002,3.394
		c0.004,0.91,0.012,1.842,0.021,2.737c0.012,1.06,0.021,2.158,0.021,3.234c0.002,1.293-0.011,2.615-0.021,3.887
		c-0.007,0.855-0.018,1.734-0.02,2.605c-0.006,1.076-0.006,2.17-0.006,3.23c-0.004,0.756-0.004,1.518-0.007,2.271
		c0,0.164-0.003,0.334-0.026,0.494c-0.03,0.185-0.129,0.334-0.518,0.513c-0.301,0.135-0.646,0.192-1.12,0.198
		c-0.165,0-0.331,0-0.495,0c-0.705,0-1.424-0.006-2.117-0.008c-0.519-0.002-1.033-0.006-1.553-0.006
		c-1.619-0.007-3.207-0.007-4.719-0.007h-0.465c-2.018,0-4.102,0-6.148,0.007c-0.348,0.004-0.697,0.008-1.037,0.02
		c-0.358,0.009-0.731,0.019-1.097,0.019h-0.122c-0.936-0.008-1.85-0.017-2.771-0.07c-0.236-0.016-0.51-0.123-0.791-0.236
		c-0.19-0.082-0.383-0.223-0.383-0.674C40.432,68.156,40.432,67.393,40.432,66.625z M46.13,8.311
		c0.509-0.266,1.095-0.326,1.703-0.371c1.218-0.094,2.521-0.135,4.104-0.135c0.643,0,1.332,0.004,2.232,0.021
		c0.896,0.015,1.885,0.079,3.02,0.194c0.554,0.056,1.025,0.271,1.408,0.64c0.243,0.236,0.391,0.514,0.467,0.877
		c0.162,0.775,0.217,1.57,0.266,2.455l0.025,0.502c0.045,0.859,0.093,1.749,0.146,2.631c-1.441-0.006-2.884-0.006-4.325-0.006
		h-3.522l0,0h-6.922c0.017-0.232,0.029-0.466,0.041-0.692c0.009-0.161,0.019-0.322,0.028-0.482c0.017-0.312,0.036-0.626,0.052-0.937
		c0.047-0.796,0.088-1.621,0.153-2.428c0.025-0.373,0.093-0.773,0.207-1.218C45.328,8.913,45.63,8.57,46.13,8.311z"/>
</g>
</svg>
