<?xml version="1.0" encoding="utf-8"?>
<!-- Generator: Adobe Illustrator 16.0.0, SVG Export Plug-In . SVG Version: 6.00 Build 0)  -->
<!DOCTYPE svg PUBLIC "-//W3C//DTD SVG 1.1//EN" "http://www.w3.org/Graphics/SVG/1.1/DTD/svg11.dtd">
<svg version="1.1" id="Layer_1" xmlns="http://www.w3.org/2000/svg" xmlns:xlink="http://www.w3.org/1999/xlink" x="0px" y="0px"
	 width="77px" height="80px" viewBox="0 0 77 80" enable-background="new 0 0 77 80" xml:space="preserve">
<g>
	<path fill="#A78627" d="M73.686,38.553c-0.978-4.139-2.734-8.086-5.225-11.73c-1.887-2.758-4.156-5.282-6.758-7.504
		c-0.086-0.071-0.174-0.129-0.253-0.184c-0.067-0.044-0.142-0.091-0.171-0.128c-1.077-1.205-2.445-2.039-4.182-2.552
		c-1.195-0.351-2.464-0.522-3.875-0.522c-0.395,0-0.805,0.016-1.224,0.044c-2.287,0.142-4.687,0.667-7.336,1.596
		c-2.063,0.724-4.095,1.63-6.214,2.771c-3.328,1.787-6.572,3.984-9.645,6.526l-0.524,0.434c-0.599-0.661-1.319-1.119-2.129-1.601
		c-0.229-0.138-0.464-0.277-0.691-0.409c-0.475-0.271-0.964-0.558-1.42-0.862c-0.7-0.464-1.05-1.113-1.069-1.983
		c-0.029-1.388-0.057-2.8-0.083-4.165l-0.011-0.605c1.01-0.15,1.823-0.662,2.422-1.533c0.677-0.979,0.641-2.117-0.097-3.035
		c-0.673-0.846-1.603-1.302-2.688-1.325c-0.367-0.007-0.733-0.002-1.102,0c-0.176,0.005-0.354,0.009-0.531,0.009
		c-0.108,0-0.217,0-0.326,0c0.058-0.301,0.115-0.603,0.173-0.902c0.206-1.069,0.42-2.172,0.616-3.262
		c0.05-0.289,0.039-0.614-0.033-0.994c-0.124-0.65-0.608-1.039-1.296-1.045c-0.484,0-0.972-0.002-1.458-0.002
		c-1.064-0.003-2.128-0.005-3.191-0.005h-0.09c-0.867,0-1.748,0.002-2.601,0.005l-0.777,0.002c-0.496,0.006-0.88,0.232-1.111,0.655
		c-0.217,0.399-0.276,0.856-0.181,1.399c0.201,1.141,0.42,2.294,0.633,3.41l0.031,0.166c0.036,0.191,0.075,0.378,0.117,0.568
		c-0.065,0-0.131,0-0.197,0c-0.54,0-1.099,0-1.647-0.009c-0.862-0.013-1.655,0.277-2.364,0.868
		c-1.042,0.871-1.303,2.238-0.633,3.332c0.59,0.961,1.44,1.535,2.529,1.697l-0.008,0.369c-0.024,1.439-0.051,2.932-0.09,4.391
		c-0.019,0.629-0.165,1.079-0.465,1.41l-0.061,0.066c-0.174,0.194-0.34,0.378-0.516,0.502c-0.302,0.209-0.619,0.397-0.956,0.594
		c-0.111,0.068-0.225,0.129-0.336,0.198c-0.171,0.104-0.344,0.205-0.517,0.304c-0.73,0.425-1.488,0.868-2.15,1.489
		c-0.782,0.73-1.229,1.584-1.368,2.617c-0.14,1.043-0.145,2.098-0.13,3.081c0.023,1.429,0.027,2.88,0.03,4.29
		c0.001,0.508,0.002,1.01,0.005,1.516c0.008,1.921,0.016,3.844,0.023,5.764c0.009,2.362,0.019,4.721,0.028,7.086l0.003,0.748
		c0.021,4.959,0.044,10.088,0.071,15.129v0.145c0.009,1.322,0.015,2.691,0.06,4.043c0.039,1.191,1.021,2.281,2.189,2.434
		c0.497,0.066,1.002,0.068,1.435,0.068h0.434c0.081,0,0.161,0,0.246,0.004c2.077,0.016,4.226,0.033,6.34,0.037h0.489
		c1.53,0,3.084-0.006,4.588-0.014c0.612-0.002,1.222-0.008,1.833-0.008c0.748-0.004,1.495-0.006,2.244-0.013
		c0.612-0.002,1.226-0.004,1.84-0.008h0.112c0.213,0,0.425,0,0.637,0.004c0.216,0.002,0.433,0.004,0.648,0.004
		c0.395,0,0.717-0.008,1.013-0.028c1.347-0.074,2.406-1.129,2.517-2.5c0.008-0.072,0.012-0.146,0.018-0.217
		c3.432,1.508,6.988,2.497,10.579,2.948c1.523,0.188,3.05,0.287,4.539,0.287c3.097,0,6.158-0.416,9.1-1.248
		c3.459-0.979,6.636-2.502,9.438-4.528c3.813-2.765,6.77-6.277,8.787-10.451c1.586-3.287,2.512-6.854,2.748-10.603
		C74.656,44.592,74.393,41.551,73.686,38.553z M35.858,33.654c2.55-2.085,4.955-3.681,7.356-4.884
		c1.527-0.765,2.818-1.246,4.063-1.517c0.563-0.122,1.027-0.179,1.474-0.179c0.181,0,0.362,0.01,0.536,0.031
		c1.229,0.146,1.8,0.787,1.799,2.027c0,0.883-0.206,1.781-0.663,2.922c-0.669,1.678-1.63,3.337-3.112,5.364
		c-1.692,2.322-3.689,4.534-6.106,6.764c-1.956,1.803-3.98,3.404-6.016,4.758c-1.964,1.302-3.668,2.228-5.371,2.904
		c-0.142,0.057-0.283,0.105-0.432,0.162l0.008-2.154c0.014-3.24,0.028-6.592,0.034-9.89c0-0.018,0.009-0.045,0.109-0.158
		C31.467,37.576,33.595,35.506,35.858,33.654z M60.893,29.689c-0.688,2.403-1.793,4.825-3.373,7.401
		c-2.313,3.77-5.211,7.281-8.858,10.734c-3.466,3.279-7.229,6.096-11.189,8.369c-2.799,1.608-5.459,2.807-8.121,3.66
		c0-0.158,0-0.318,0-0.474c0.003-0.478,0.004-0.95,0.008-1.43c0.007-1.285,0.012-2.611,0.012-3.918
		c1.84-0.603,3.666-1.488,5.741-2.775c3.511-2.178,6.754-4.842,9.91-8.143c2.095-2.191,3.799-4.337,5.205-6.558
		c0.938-1.479,1.635-2.855,2.123-4.205c0.477-1.315,0.674-2.357,0.637-3.383c-0.049-1.316-0.504-2.288-1.396-2.97
		c-0.692-0.534-1.522-0.795-2.608-0.82c-0.065-0.001-0.129-0.001-0.191-0.001c-1.118,0-2.26,0.223-3.708,0.721
		c-2.038,0.705-4.104,1.773-6.499,3.36c-2.923,1.941-5.759,4.312-8.432,7.048c-0.239,0.247-0.474,0.498-0.704,0.747
		c0.002-0.171,0.002-0.343,0.002-0.513c0.002-1.288,0.002-2.617,0.03-3.926c0.017-0.857,0.014-1.993-0.153-3.146
		c-0.018-0.12-0.045-0.289-0.098-0.464c0.356-0.282,0.714-0.571,1.063-0.856c0.632-0.511,1.286-1.039,1.941-1.541
		c2.224-1.701,4.634-3.251,7.164-4.604c2.024-1.085,3.939-1.939,5.854-2.608c1.928-0.673,3.648-1.116,5.259-1.351
		c0.979-0.14,1.86-0.207,2.69-0.207c1.011,0,1.938,0.1,2.83,0.305c1.472,0.342,2.631,0.945,3.543,1.842
		c1.037,1.026,1.654,2.319,1.884,3.962C61.698,25.69,61.518,27.514,60.893,29.689z M29.336,61.85
		c2.203-0.646,4.474-1.567,6.929-2.828c3.254-1.653,6.364-3.678,9.51-6.17c3.154-2.5,6.048-5.274,8.6-8.248
		c2.059-2.399,3.752-4.749,5.184-7.19c1.559-2.665,2.631-5.139,3.276-7.576c0.597-2.252,0.767-4.132,0.533-5.916
		c-0.022-0.153-0.048-0.312-0.076-0.467c0.104,0.113,0.213,0.232,0.319,0.346c1.752,1.895,3.285,3.954,4.555,6.122
		c1.941,3.315,3.271,6.834,3.949,10.456c0.523,2.804,0.638,5.617,0.337,8.356c-0.451,4.13-1.779,7.931-3.949,11.308
		c-2.692,4.185-6.421,7.428-11.079,9.627c-3.343,1.58-7.014,2.513-10.904,2.767c-0.724,0.047-1.455,0.069-2.182,0.069l0,0
		c-2.643,0-5.333-0.319-8.002-0.95c-2.366-0.568-4.729-1.39-7.029-2.455C29.321,66.729,29.333,64.289,29.336,61.85z M20.619,72.025
		h-0.03c-2.124,0-4.246,0-6.369-0.002h-0.933c-1.893,0-3.785-0.004-5.678-0.008H7.565c-0.203,0-0.405,0.004-0.607,0.004
		c-0.2,0.004-0.399,0.006-0.598,0.006c-0.363,0-0.655-0.006-0.922-0.019c-0.545-0.026-0.827-0.312-0.841-0.848
		c-0.033-1.345-0.04-2.711-0.048-4.035l-0.002-0.351C4.525,62.407,4.505,58.038,4.49,54.34c-0.003-0.809-0.002-1.625-0.001-2.418
		c0.001-0.373,0.001-0.738,0.001-1.113v-0.533H4.425v-3.151c0-3.076,0.001-6.149-0.002-9.224c0-0.654-0.006-1.322-0.013-1.961
		c-0.01-0.998-0.019-2.025-0.008-3.036c0.004-0.267,0.001-0.53-0.002-0.793c-0.004-0.769-0.011-1.495,0.099-2.218
		C4.576,29.385,4.733,29.004,5,28.689c0.425-0.502,0.988-0.87,1.484-1.165c0.33-0.195,0.669-0.393,0.996-0.582
		c0.338-0.197,0.687-0.396,1.028-0.602c0.689-0.411,1.22-0.888,1.62-1.458c0.503-0.714,0.755-1.513,0.77-2.434
		c0.021-1.265,0.045-2.548,0.068-3.789l0.028-1.482c0.001-0.026,0.001-0.056,0.003-0.083c0.001-0.043,0.001-0.086,0.002-0.127
		c0.006-0.645-0.358-1.055-1.002-1.121c-0.093-0.011-0.186-0.018-0.278-0.025c-0.1-0.009-0.198-0.018-0.297-0.03
		c-0.509-0.054-0.903-0.297-1.206-0.745c-0.207-0.308-0.156-0.494-0.006-0.695c0.333-0.445,0.71-0.655,1.188-0.655
		c0.786,0,1.571,0.005,2.358,0.005c1.2,0.002,2.402,0.004,3.604,0.004h0.079c1.945,0,3.924-0.002,5.837-0.009l1.265-0.002
		c0.479,0,0.859,0.205,1.193,0.647c0.185,0.245,0.185,0.436-0.001,0.709c-0.303,0.444-0.697,0.691-1.206,0.741
		c-0.188,0.021-0.36,0.038-0.527,0.052c-0.688,0.06-1.06,0.468-1.047,1.153c0.011,0.646,0.024,1.294,0.036,1.941
		c0.022,1.169,0.045,2.343,0.064,3.515c0.016,0.927,0.27,1.726,0.774,2.436c0.389,0.547,0.878,1.004,1.459,1.354
		c0.397,0.238,0.806,0.477,1.197,0.705c0.325,0.188,0.66,0.385,0.987,0.581c0.57,0.34,1.153,0.73,1.567,1.273
		c0.207,0.274,0.338,0.61,0.41,1.06c0.104,0.648,0.101,1.297,0.095,1.982c0,0.117-0.002,0.238-0.002,0.354
		c-0.015,5.016-0.035,10.115-0.054,15.049l-0.013,3.092c-0.016,4.299-0.034,8.592-0.052,12.893l-0.008,2.006
		c-0.008,1.779-0.015,3.613-0.027,5.423v0.057c-0.003,0.341-0.004,0.638-0.138,0.869c-0.179,0.313-0.384,0.375-0.524,0.394
		c-0.228,0.032-0.469,0.032-0.725,0.035c-0.059,0-0.117,0-0.176,0c-0.455,0.008-0.919,0.008-1.368,0.008l-1.292,0.004
		C22.316,72.025,21.468,72.025,20.619,72.025z M16.583,7.5h1.484c0.451,0,0.903,0,1.354,0c-0.079,0.535-0.159,1.015-0.244,1.463
		c-0.102,0.519-0.211,1.049-0.315,1.562c-0.087,0.413-0.175,0.846-0.259,1.274c-0.746-0.017-1.558-0.019-2.537-0.019h-0.027
		c-0.989,0-1.869,0.002-2.684,0.019c-0.124-0.655-0.251-1.307-0.378-1.96c-0.147-0.763-0.302-1.556-0.45-2.335h4.057L16.583,7.5
		L16.583,7.5z"/>
	<path fill="#A78627" d="M53.523,53.83c0.012,0.008,0.023,0.021,0.035,0.029c2.605,2.606,5.213,5.207,7.819,7.813l0.026,0.022
		c0.087,0.089,0.184,0.185,0.308,0.273c0.155,0.111,0.339,0.166,0.529,0.166c0.245,0,0.485-0.098,0.663-0.273
		c0.318-0.311,0.381-0.795,0.147-1.174c-0.073-0.119-0.165-0.209-0.225-0.27c-1.291-1.293-2.582-2.58-3.873-3.871l-0.593-0.59
		c-1.151-1.152-2.342-2.346-3.521-3.512c-0.11-0.111-0.229-0.189-0.339-0.252c-0.041-0.027-0.084-0.055-0.131-0.088l-0.323-0.22
		l-0.31,0.24c-0.025,0.021-0.062,0.047-0.098,0.069c-0.133,0.089-0.312,0.207-0.408,0.433c-0.119,0.272-0.064,0.562-0.002,0.781
		C53.291,53.625,53.438,53.752,53.523,53.83z"/>
	<path fill="#A78627" d="M49.932,68.678l0.01,0.033c0.033,0.078,0.067,0.178,0.129,0.281c0.175,0.289,0.479,0.469,0.813,0.469
		c0.128,0,0.251-0.025,0.371-0.076c0.425-0.176,0.658-0.629,0.563-1.082c-0.022-0.098-0.055-0.178-0.08-0.246l-0.01-0.026
		c-0.877-2.316-1.758-4.634-2.641-6.949l-0.822-2.174c-0.188-0.5-0.379-1-0.57-1.502c-0.156-0.414-0.471-0.662-0.867-0.677
		l-0.012-0.006h-0.014c-0.336,0.006-0.626,0.15-0.803,0.402c-0.184,0.275-0.212,0.631-0.078,0.986
		C47.256,61.635,48.593,65.156,49.932,68.678z"/>
	<path fill="#A78627" d="M58.354,46.721c0.123,0.066,0.246,0.109,0.344,0.144l0.053,0.02c0.648,0.229,1.298,0.453,1.945,0.683
		c0.854,0.299,1.707,0.596,2.56,0.896c0.87,0.304,1.741,0.611,2.61,0.918c1.083,0.381,2.164,0.763,3.246,1.138
		c0.146,0.053,0.291,0.08,0.43,0.08c0.41,0,0.751-0.24,0.889-0.625c0.084-0.244,0.074-0.494-0.029-0.709
		c-0.084-0.175-0.264-0.408-0.656-0.548c-0.23-0.08-0.457-0.159-0.688-0.239c-0.228-0.08-0.455-0.16-0.685-0.24
		c-3.042-1.068-6.084-2.139-9.125-3.205c-0.08-0.025-0.156-0.045-0.209-0.059c-0.013-0.003-0.022-0.005-0.032-0.011l-0.068-0.019
		h-0.072c-0.479,0-0.866,0.298-0.967,0.74C57.807,46.107,57.979,46.506,58.354,46.721z"/>
	<path fill="#A78627" d="M37.3,69.535c0.027,0.004,0.053,0.004,0.078,0.004c0.496,0,0.878-0.363,0.946-0.902
		c0.007-0.053,0.011-0.102,0.017-0.152l0.494-6.643c0.005-0.057,0.009-0.113,0.015-0.17c0.014-0.146,0.028-0.301,0.028-0.463
		c0.002-0.471-0.316-0.855-0.771-0.943c-0.061-0.012-0.122-0.014-0.181-0.014c-0.401,0-0.763,0.248-0.89,0.619
		c-0.056,0.162-0.068,0.316-0.075,0.418c-0.041,0.533-0.08,1.066-0.121,1.602c-0.024,0.336-0.05,0.67-0.074,1.01l-0.131,1.757
		c-0.072,0.928-0.144,1.858-0.211,2.793C36.381,69.035,36.748,69.49,37.3,69.535z"/>
	<path fill="#A78627" d="M62.107,37.709v0.09l0.398-0.031c0.045-0.004,0.086-0.007,0.123-0.009l5.923-0.462
		c0.144-0.012,0.284-0.021,0.429-0.029c0.297-0.021,0.602-0.043,0.906-0.074c0.534-0.048,0.912-0.482,0.877-1.012
		c-0.035-0.514-0.445-0.887-0.984-0.889c-0.059,0-0.108,0.007-0.151,0.009l-0.041,0.002c-2.114,0.161-4.229,0.327-6.34,0.489
		c-0.07,0.007-0.142,0.009-0.21,0.014c-0.229,0.017-0.465,0.035-0.701,0.063c-0.535,0.062-0.898,0.503-0.854,1.028
		C61.516,37.283,61.762,37.583,62.107,37.709z"/>
	<path fill="#A78627" d="M24.77,62.209l0.016-5.584c0.011-3.832,0.021-7.666,0.033-11.498l0.001-0.256
		c0.005-2.201,0.013-4.476,0.025-6.712c0.003-0.598-0.288-1.031-0.825-1.225l-0.083-0.029c-0.194-0.076-0.418-0.154-0.657-0.199
		c-0.531-0.096-1.066-0.143-1.591-0.143c-1.302,0-2.597,0.299-3.845,0.885c-0.16,0.078-0.32,0.155-0.48,0.232
		c-0.594,0.286-1.154,0.553-1.741,0.763c-0.452,0.16-0.935,0.237-1.476,0.237c-0.703,0-1.408-0.129-2.065-0.271
		c-1.148-0.244-2.239-0.68-3.241-1.299c-0.216-0.135-0.436-0.203-0.654-0.203c-0.27,0-0.526,0.107-0.72,0.303
		c-0.225,0.225-0.356,0.559-0.355,0.896c0.011,2.474,0.021,5.383,0.026,8.26c0.003,1.524,0.002,3.077,0.001,4.579
		c0,0.677,0,1.357,0,2.039v0.533h0.035c0,0.439,0,0.881,0,1.324c0,1.387-0.001,2.775,0.002,4.158
		c0.005,2.078,0.01,4.152,0.017,6.223l0.008,2.519c0.002,0.862,0.439,1.301,1.301,1.309c0.398,0.005,0.797,0.007,1.197,0.013
		c1.155,0.01,2.352,0.022,3.529,0.022h0.008c1.242,0,2.504-0.01,3.726-0.017c0.764-0.006,1.528-0.008,2.291-0.014
		c0.723-0.002,1.443-0.002,2.165-0.002c0.683-0.004,1.365-0.004,2.048-0.004c0.842-0.002,1.286-0.451,1.291-1.297
		C24.759,65.902,24.766,64.055,24.77,62.209z M22.924,38.582c0,0.005,0,0.015,0,0.021l-0.01,3.237
		c-0.009,2.596-0.016,5.189-0.021,7.787c-0.007,2.426-0.012,4.855-0.019,7.285c-0.004,2.145-0.009,4.291-0.015,6.436
		c-0.002,1.23-0.008,2.467-0.014,3.697v0.104h-1.978c-2.309,0-4.615-0.002-6.924-0.002h-0.609c-1.42,0-2.814,0-4.229,0.004
		c-0.004-2.815-0.013-5.674-0.021-8.44l-0.022-6.791c-0.007-2.715-0.016-5.428-0.024-8.144c-0.003-1.141-0.005-2.278-0.007-3.419
		L9.03,39.378c0.021,0.011,0.04,0.02,0.062,0.026c1.685,0.771,3.387,1.161,5.063,1.161c0.294,0,0.593-0.013,0.887-0.035
		c0.884-0.07,1.669-0.423,2.362-0.738c0.274-0.12,0.543-0.256,0.803-0.387c0.146-0.071,0.293-0.146,0.441-0.217
		c0.981-0.476,2.005-0.715,3.043-0.715c0.395,0,0.799,0.034,1.202,0.102C22.903,38.58,22.913,38.58,22.924,38.582z"/>
</g>
</svg>
