<?xml version="1.0" encoding="utf-8"?>
<!-- Generator: Adobe Illustrator 16.0.0, SVG Export Plug-In . SVG Version: 6.00 Build 0)  -->
<!DOCTYPE svg PUBLIC "-//W3C//DTD SVG 1.1//EN" "http://www.w3.org/Graphics/SVG/1.1/DTD/svg11.dtd">
<svg version="1.1" id="Layer_1" xmlns="http://www.w3.org/2000/svg" xmlns:xlink="http://www.w3.org/1999/xlink" x="0px" y="0px"
	 width="77px" height="80px" viewBox="0 0 77 80" enable-background="new 0 0 77 80" xml:space="preserve">
<g>
	<path fill="#A78627" d="M69.333,49.105c-0.011,0.006-0.028,0.013-0.04,0.013c-0.04,0.011-0.085,0.028-0.143,0.057l-0.148,0.068
		c-0.331,0.166-0.663,0.332-0.994,0.497c-0.119,0.063-0.238,0.126-0.365,0.193c-0.479,0.252-0.932,0.485-1.422,0.635
		c-0.092,0.029-0.184,0.052-0.273,0.08c-0.623,0.193-1.217,0.377-1.822,0.377h-0.012c-1.223,0-2.822-0.074-4.358-0.629
		c-0.177-0.067-0.358-0.119-0.53-0.176c-0.412-0.127-0.801-0.253-1.138-0.476c-0.537-0.354-1.091-0.708-1.628-1.052
		c-0.398-0.256-0.816-0.52-1.223-0.782c-1.006-0.656-2.079-1.211-3.278-1.696c-1.188-0.484-2.399-0.668-3.741-0.851
		c-0.564-0.074-1.16-0.114-1.766-0.114c-0.76,0-1.555,0.057-2.422,0.177c-1.576,0.212-2.947,0.571-4.188,1.091
		c-0.326-0.686-0.715-1.302-1.16-1.851c-1.554-1.896-3.456-2.97-5.655-3.192c-0.297-0.029-0.594-0.045-0.879-0.045
		c-2.388,0-4.336,1.032-5.781,3.072c-1.147,1.622-1.6,3.563-1.348,5.773h-0.263c-0.297,0.007-0.6,0.007-0.897,0.007L21.42,50.3
		c-2.525,0.019-5.056,0.029-7.586,0.046h-0.057c-0.218,0-0.446-0.011-0.663-0.011c-0.223-0.012-0.457-0.019-0.686-0.019
		c-0.12,0-0.229,0.007-0.331,0.007c-0.034,0-0.068,0-0.098,0c-0.422,0-0.771-0.087-1.067-0.269
		c-0.697-0.424-1.211-0.988-1.531-1.681c-0.776-1.662-0.76-3.198,0.057-4.706c0.258-0.475,0.623-0.823,1.126-1.068
		c0.399-0.193,0.828-0.32,1.302-0.445c0.354,0.273,0.789,0.383,1.28,0.326c1.063-0.121,2.119-0.258,3.016-0.377
		c0.503-0.063,1.006-0.144,1.497-0.218c1.228-0.194,2.502-0.395,3.764-0.372c0.172,0.006,0.349,0.006,0.531,0.006
		c0.589,0,1.177-0.017,1.754-0.033c0.457-0.012,0.937-0.022,1.405-0.028c1.61-0.019,3.25-0.022,4.832-0.028h0.72
		c1.063-0.006,2.125-0.006,3.188-0.012c0.731,0,1.468,0,2.199-0.006c1.525,0,3.051-0.006,4.575-0.012
		c2.273-0.006,4.541-0.012,6.811-0.018c1.719-0.006,3.434-0.012,5.152-0.012c1.576-0.006,3.158-0.006,4.734-0.012
		c2.479-0.006,4.959-0.012,7.438-0.022l2.394-0.006h0.503c0.229,0,0.504,0,0.782-0.013c0.485-0.017,0.856-0.416,0.84-0.901
		c-0.012-0.468-0.377-0.828-0.868-0.845c-0.143-0.012-0.285-0.006-0.429-0.006c-0.067,0.006-0.137,0.006-0.205,0.006l-1.88,0.005
		c-2.193,0.006-4.387,0.012-6.586,0.018c-1.896,0.006-3.793,0.012-5.689,0.012c-2.473,0.011-4.951,0.011-7.426,0.022
		c-3.986,0.012-7.974,0.022-11.967,0.034c-1.514,0.006-3.027,0.012-4.547,0.018c0.914-0.188,1.766-0.337,2.594-0.463
		c1.634-0.246,3.278-0.509,4.866-0.76c0.229-0.04,0.435-0.108,0.635-0.171l0.051-0.018c0.377-0.126,0.595-0.457,0.543-0.846
		c-0.052-0.383-0.331-0.64-0.731-0.68c-0.114-0.011-0.269-0.017-0.394-0.006c-0.126,0.012-0.258,0.029-0.383,0.04
		c-0.44,0.046-0.892,0.098-1.337,0.166c-0.395,0.057-0.794,0.126-1.177,0.188c-0.531,0.097-1.085,0.188-1.622,0.257
		c-1.582,0.206-3.268,0.515-5.146,0.948c-2.479,0.571-5.421,1.2-8.42,1.554c-1.394,0.166-2.805,0.366-4.164,0.56
		c-0.634,0.092-1.297,0.184-1.942,0.269c-0.057,0.012-0.108,0.012-0.143,0.012c-0.006-0.021-0.012-0.063-0.012-0.119
		c-0.063-0.776-0.022-1.53,0.12-2.229c0.028-0.154,0.074-0.274,0.12-0.365c0.411-0.715,0.959-1.223,1.634-1.52
		c2.147-0.938,4.341-1.668,6.203-2.268c1.257-0.4,2.536-0.783,3.781-1.148c0.405-0.12,0.812-0.24,1.217-0.36
		c2.542-0.76,4.661-1.228,6.678-1.49c0.211-0.029,0.417-0.04,0.611-0.04c0.611,0,1.147,0.125,1.639,0.389
		c0.886,0.474,1.782,0.925,2.542,1.308c0.886,0.445,1.788,0.668,2.675,0.668c0.377,0,0.76-0.04,1.137-0.119
		c0.359-0.08,0.72-0.172,1.068-0.258c0.297-0.074,0.6-0.154,0.896-0.223c1.063-0.239,2.159-0.485,3.228-0.896
		c0.028,0.012,0.063,0.017,0.092,0.028c0.217,0.058,0.416,0.114,0.61,0.188c1.423,0.543,3.033,0.817,5.062,0.852
		c0.035,0,0.068,0,0.104,0c1.027,0,2.063-0.24,3.357-0.777c0.789-0.325,1.549-0.726,2.279-1.108l0.297-0.159
		c0.371-0.194,0.744-0.406,1.104-0.611c0.383-0.223,0.781-0.451,1.177-0.651c0.972-0.503,1.908-0.748,2.856-0.748
		c0.257,0,0.52,0.022,0.775,0.057c1.012,0.148,2.018,0.515,3.166,1.16c0.17,0.097,0.342,0.199,0.508,0.297
		c0.246,0.143,0.49,0.285,0.748,0.423c0.131,0.074,0.279,0.108,0.422,0.108c0.332,0,0.629-0.183,0.777-0.485
		c0.217-0.429,0.047-0.932-0.389-1.177c-0.074-0.034-0.143-0.074-0.217-0.109c-0.063-0.034-0.127-0.068-0.194-0.103
		c-0.177-0.103-0.364-0.205-0.543-0.314c-0.383-0.223-0.776-0.451-1.192-0.65c-1.338-0.646-2.623-0.954-3.92-0.954
		c-0.08,0-0.16,0-0.244,0c-1.108,0.034-2.188,0.337-3.404,0.96c-0.743,0.377-1.485,0.776-2.205,1.165
		c-0.531,0.291-1.086,0.594-1.635,0.88c-0.428,0.223-0.873,0.417-1.33,0.576c-0.807,0.286-1.485,0.469-2.182,0.463
		c-1.298-0.022-2.816-0.114-4.24-0.634c-0.188-0.068-0.377-0.126-0.56-0.177c-0.337-0.104-0.661-0.194-0.931-0.366l-0.24-0.16
		c-0.479-0.308-0.977-0.628-1.468-0.931c-0.246-0.148-0.485-0.297-0.72-0.445c-0.731-0.451-1.479-0.92-2.246-1.349
		c-1.404-0.782-2.98-1.285-4.82-1.536c-0.782-0.108-1.588-0.16-2.388-0.16c-0.782,0-1.588,0.052-2.393,0.148
		c-0.983,0.126-1.92,0.377-2.874,0.64c-0.331,0.092-0.646,0.212-0.953,0.326c-0.063,0.022-0.126,0.045-0.188,0.068
		c-0.052,0.017-0.098,0.04-0.144,0.057c-1.137-2.324-2.89-3.901-5.198-4.689c-0.811-0.279-1.628-0.423-2.427-0.423
		c-0.897,0-1.788,0.178-2.64,0.531c-2.279,0.932-3.741,2.662-4.358,5.142c-0.6,2.398-0.211,4.758,1.154,7.014
		c0.028,0.046,0.057,0.092,0.091,0.145c-0.103,0.034-0.211,0.074-0.319,0.114c-0.469,0.165-0.948,0.343-1.371,0.69
		c-0.343,0.28-0.702,0.611-1.137,1.034c-0.16,0.154-0.309,0.36-0.429,0.6c-0.514,0.988-0.686,2.108-0.531,3.41
		c0.006,0.058,0.018,0.107,0.029,0.166c-1.56,0.371-2.622,1.171-3.233,2.439c-1.177,2.427-0.971,4.813,0.611,7.094
		c0.577,0.828,1.319,1.41,2.205,1.73c0.52,0.188,1.102,0.273,1.821,0.273c0.058,0,0.114,0,0.172,0
		c1.319-0.021,2.662-0.028,3.964-0.034c0.583-0.006,1.16-0.006,1.742-0.011h0.012c2.313-0.012,4.707-0.029,7.066-0.053
		c0.251,0.771,0.6,1.509,1.045,2.199c-0.063,0.022-0.126,0.053-0.188,0.074c-0.651,0.24-1.325,0.491-1.879,1.051l-0.074,0.068
		c-0.109,0.114-0.212,0.218-0.314,0.298c-0.555,0.423-0.92,1.011-1.154,1.851c-0.257,0.955-0.303,1.834-0.131,2.674
		c-1.594,0.365-2.702,1.244-3.37,2.674c-1.257,2.686-0.48,6.169,1.776,7.939c0.73,0.576,1.604,0.879,2.759,0.947
		c0.046,0.006,0.092,0.006,0.137,0.006c0.132,0,0.258-0.012,0.383-0.018c0.104-0.012,0.2-0.021,0.297-0.021
		c1.771-0.013,3.542-0.019,5.318-0.028c1.497-0.007,2.993-0.019,4.49-0.023c1.931-0.017,3.861-0.028,5.798-0.04
		c1.509-0.011,3.021-0.017,4.529-0.027c1.839-0.013,3.679-0.022,5.519-0.034c1.514-0.007,3.026-0.019,4.541-0.028
		c2.073-0.012,4.146-0.023,6.221-0.034l5.41-0.034c0.861-0.006,1.752-0.012,2.627-0.012h0.067c0.086,0,0.337,0,0.515-0.199
		c0.121-0.132,0.172-0.304,0.148-0.509c-0.006-0.069-0.006-0.149,0-0.229c0-0.034,0-0.073,0-0.108c0-0.177,0.006-0.382-0.16-0.548
		s-0.371-0.166-0.496-0.166l-3.541,0.018c-2.531,0.018-5.063,0.028-7.593,0.047c-2.272,0.017-4.547,0.027-6.813,0.045
		c-2.521,0.018-5.039,0.035-7.553,0.045c-1.811,0.013-3.627,0.023-5.438,0.035c-1.383,0.006-2.759,0.012-4.142,0.018
		c-1.057,0.012-2.119,0.017-3.176,0.021c-1.662,0.012-3.319,0.023-4.981,0.029H25.91c-0.263,0-0.537-0.006-0.8-0.012
		c-0.263-0.006-0.536-0.012-0.811-0.012c-0.166,0-0.314,0-0.457,0.006c-0.04,0-0.086,0-0.126,0c-0.439,0-0.788-0.074-1.085-0.24
		c-0.594-0.331-1.063-0.782-1.377-1.336c-0.828-1.445-0.982-2.919-0.468-4.383c0.348-0.993,0.931-1.615,1.771-1.901
		c0.325-0.108,0.662-0.205,0.988-0.303c0.354,0.269,0.788,0.383,1.279,0.319c0.868-0.103,1.799-0.217,3.016-0.377
		c0.497-0.063,1-0.143,1.485-0.217c1.165-0.184,2.365-0.372,3.553-0.372c0.074,0,0.148,0,0.223,0
		c0.172,0.007,0.343,0.007,0.531,0.007c0.583,0,1.172-0.018,1.742-0.029c0.457-0.018,0.932-0.027,1.395-0.033
		c1.616-0.018,3.256-0.021,4.838-0.028h0.72c1.063-0.006,2.125-0.006,3.192-0.012c0.736,0,1.475,0,2.211-0.006
		c1.543,0,3.084-0.007,4.627-0.013c2.232-0.004,4.467-0.011,6.699-0.017c2.365-0.006,4.73-0.012,7.096-0.019l2.986-0.004h0.754
		l0.006-1.767L41.4,59.331c0.892-0.177,1.73-0.325,2.548-0.451c1.565-0.233,3.067-0.474,4.866-0.76
		c0.246-0.04,0.463-0.114,0.674-0.188l0.029-0.006c0.371-0.125,0.576-0.457,0.524-0.84c-0.045-0.371-0.313-0.628-0.696-0.674
		c-0.107-0.012-0.188-0.018-0.269-0.018c-0.058,0-0.108,0-0.16,0.006c-0.12,0.012-0.24,0.029-0.358,0.039
		c-0.447,0.047-0.904,0.099-1.36,0.166c-0.394,0.059-0.794,0.127-1.177,0.194c-0.531,0.093-1.086,0.183-1.623,0.251
		c-1.582,0.206-3.262,0.516-5.129,0.942c-2.484,0.571-5.433,1.206-8.438,1.56c-1.394,0.166-2.799,0.366-4.164,0.561
		c-0.634,0.092-1.297,0.184-1.942,0.269c-0.057,0.013-0.108,0.013-0.143,0.013c0-0.022-0.011-0.063-0.011-0.121
		c-0.063-0.713-0.029-1.428,0.097-2.125c0.04-0.205,0.086-0.358,0.148-0.474c0.4-0.702,0.948-1.217,1.628-1.514
		c2.147-0.933,4.342-1.668,6.203-2.269c1.257-0.399,2.542-0.783,3.787-1.147c0.406-0.12,0.812-0.24,1.211-0.36
		c2.542-0.754,4.661-1.228,6.678-1.49c0.218-0.027,0.423-0.039,0.617-0.039c0.6,0,1.119,0.119,1.604,0.371
		c0.8,0.429,1.646,0.855,2.57,1.324c0.885,0.445,1.788,0.668,2.673,0.668c0.377,0,0.76-0.039,1.137-0.119
		c0.36-0.08,0.721-0.172,1.068-0.258c0.309-0.078,0.623-0.158,0.931-0.229c1.144-0.258,2.171-0.496,3.193-0.891
		c0.028,0.012,0.063,0.017,0.098,0.027c0.211,0.059,0.411,0.114,0.604,0.188c1.423,0.549,3.033,0.817,5.062,0.853
		c1.325,0.022,2.554-0.406,3.462-0.776c0.561-0.224,1.098-0.509,1.622-0.777c0.2-0.107,0.411-0.217,0.617-0.319
		c0.171-0.086,0.343-0.278,0.349-0.524c0.006-0.211,0.006-0.418,0.006-0.635c0-0.074,0-0.143,0-0.217V48.9L69.333,49.105z
		 M28.148,53.596c-1.223-1.753-1.674-3.644-1.337-5.607c0.349-2.045,1.423-3.502,3.188-4.324c0.709-0.337,1.451-0.503,2.205-0.503
		c0.605,0,1.229,0.108,1.856,0.325c2.051,0.703,3.49,2.097,4.404,4.256c0.2,0.484,0.577,0.76,1.028,0.76
		c0.193,0,0.398-0.052,0.605-0.16c0.564-0.297,1.176-0.49,1.689-0.646c1.497-0.444,3.005-0.674,4.479-0.674H46.3
		c1.868,0,3.484,0.264,4.941,0.807c1.051,0.395,2.106,0.947,3.323,1.742c0.498,0.324,1.006,0.65,1.496,0.965
		c0.006,0,0.013,0.006,0.019,0.012c-0.138,0.034-0.28,0.068-0.417,0.104c-0.371,0.092-0.748,0.183-1.114,0.269
		c-0.521,0.126-1.051,0.252-1.575,0.383c-0.406,0.104-0.801,0.154-1.178,0.154c-0.605,0-1.199-0.138-1.748-0.411
		c-0.484-0.24-0.971-0.484-1.439-0.73c-0.457-0.234-0.924-0.475-1.387-0.703c-0.31-0.153-0.635-0.269-0.973-0.348
		c-0.428-0.099-0.873-0.144-1.354-0.144c-0.498,0-1.039,0.051-1.703,0.159c-2.9,0.479-5.729,1.297-8.11,2.033
		c-1.582,0.492-3.188,1.012-4.729,1.521c-0.395,0.125-0.782,0.251-1.171,0.383C28.828,53.328,28.479,53.465,28.148,53.596z
		 M40.127,31.805c-0.577,0-1.159-0.144-1.73-0.423c-0.497-0.24-0.994-0.503-1.479-0.748c-0.435-0.224-0.886-0.457-1.331-0.681
		c-0.32-0.153-0.663-0.273-1.006-0.354c-0.422-0.098-0.856-0.143-1.336-0.143c-0.503,0-1.022,0.051-1.697,0.159
		c-2.901,0.475-5.729,1.297-8.116,2.034c-1.594,0.491-3.205,1.017-4.765,1.524c-0.377,0.126-0.754,0.252-1.131,0.372
		c-0.359,0.119-0.702,0.251-1.039,0.388c-1.223-1.753-1.674-3.639-1.337-5.609c0.349-2.039,1.417-3.495,3.182-4.323
		c0.708-0.338,1.451-0.503,2.205-0.503c0.605,0,1.233,0.108,1.856,0.319c2.062,0.709,3.501,2.103,4.409,4.278
		c0.2,0.469,0.583,0.749,1.034,0.749c0.194,0,0.395-0.058,0.589-0.166c0.668-0.371,1.405-0.565,2.182-0.771l0.086-0.022
		c1.302-0.343,2.645-0.52,3.987-0.52c0.953,0,1.936,0.091,2.919,0.269c1.61,0.285,3.176,0.931,4.918,2.033
		c0.611,0.383,1.228,0.777,1.822,1.159c0.017,0.018,0.039,0.029,0.057,0.04c-0.131,0.029-0.264,0.063-0.395,0.092
		c-0.582,0.137-1.183,0.28-1.777,0.423c-0.192,0.046-0.387,0.097-0.569,0.148c-0.274,0.068-0.531,0.137-0.795,0.194
		C40.624,31.775,40.373,31.805,40.127,31.805z"/>
	<path fill="#A78627" d="M35.494,13.16c0.172,1.45,0.731,2.827,1.72,4.21c1.057,1.474,2.359,2.581,3.867,3.296l0.012,0.005
		c0.298,0.138,0.634,0.298,0.999,0.36c0.2,0.04,0.405,0.057,0.611,0.057c0.564,0,1.143-0.143,1.708-0.422
		c2.313-1.154,4.004-2.982,5.032-5.433c0.537-1.273,0.707-2.484,0.52-3.707c-0.291-1.931-1.73-3.233-3.673-3.324
		c-1.125-0.058-2.256,0.251-3.467,0.942c-0.058,0.034-0.08,0.04-0.08,0.04s-0.028-0.006-0.086-0.04
		c-1.251-0.714-2.416-1.022-3.57-0.938c-1.439,0.104-2.496,0.777-3.142,2.006c-0.331,0.634-0.491,1.348-0.496,2.238
		c0,0.018,0,0.029,0,0.046c0,0.04,0,0.092,0,0.143l0.011,0.104C35.466,12.88,35.478,13.017,35.494,13.16z M48.271,12.349
		c0,0.028,0,0.058,0,0.08c-0.006,0.868-0.223,1.73-0.668,2.628c-0.846,1.708-2.074,3.01-3.655,3.867
		c-0.274,0.154-0.571,0.303-0.851,0.365c-0.109,0.022-0.229,0.034-0.35,0.034c-0.132,0-0.264-0.017-0.366-0.046
		c-0.833-0.245-1.604-0.714-2.438-1.474c-1.318-1.205-2.165-2.57-2.582-4.158c-0.177-0.68-0.206-1.297-0.097-1.896
		c0.217-1.148,0.982-1.805,2.113-1.805c0.08,0,0.16,0.005,0.239,0.011c0.8,0.063,1.589,0.349,2.417,0.863
		c0.462,0.297,0.954,0.297,1.416,0c0.852-0.537,1.616-0.806,2.405-0.857c0.855-0.057,1.461,0.172,1.912,0.731
		c0.303,0.389,0.469,0.874,0.504,1.536C48.277,12.263,48.271,12.303,48.271,12.349z"/>
	<path fill="#A78627" d="M48.152,21.785c-0.291,0.742-0.264,1.576,0.08,2.41c0.6,1.463,1.547,2.525,2.822,3.171
		c0.394,0.2,0.729,0.291,1.051,0.291c0.217,0,0.422-0.046,0.61-0.126c0.601-0.257,1.063-0.536,1.416-0.856
		c0.726-0.64,1.24-1.291,1.571-1.988c0.674-1.428,0.617-2.655-0.184-3.752c-0.416-0.583-1.097-0.926-1.811-0.926
		c-0.503,0-0.988,0.177-1.365,0.497c-0.098,0.086-0.188,0.177-0.273,0.269c-0.012-0.018-0.028-0.028-0.041-0.046
		c-0.41-0.469-0.977-0.726-1.588-0.726c-0.428,0-0.867,0.126-1.229,0.354C48.621,20.729,48.335,21.316,48.152,21.785z
		 M52.916,22.751c0.012-0.029,0.023-0.058,0.035-0.086c0.005-0.018,0.011-0.04,0.017-0.046c0.04-0.063,0.074-0.126,0.108-0.188
		c0.113-0.188,0.223-0.371,0.349-0.531c0.058-0.086,0.154-0.126,0.274-0.126c0.164,0,0.349,0.086,0.404,0.2
		c0.264,0.469,0.304,0.565,0.297,0.834c0,0.554-0.183,1.068-0.553,1.554c-0.252,0.331-0.537,0.663-0.869,1.017
		c-0.229,0.24-0.555,0.389-0.908,0.537c-0.229-0.12-0.45-0.24-0.662-0.354l-0.021-0.005c-0.023-0.018-0.063-0.035-0.074-0.046
		c-0.504-0.491-1.068-1.074-1.389-1.788c-0.126-0.28-0.184-0.605-0.189-0.994c0-0.297,0.133-0.571,0.424-0.885
		c0.04-0.046,0.132-0.074,0.234-0.074c0.107,0,0.217,0.034,0.285,0.091c0.217,0.2,0.389,0.469,0.536,0.88
		c0.144,0.377,0.44,0.6,0.829,0.617C52.432,23.367,52.757,23.145,52.916,22.751z"/>
</g>
</svg>
