<?xml version="1.0" encoding="utf-8"?>
<!-- Generator: Adobe Illustrator 16.0.0, SVG Export Plug-In . SVG Version: 6.00 Build 0)  -->
<!DOCTYPE svg PUBLIC "-//W3C//DTD SVG 1.1//EN" "http://www.w3.org/Graphics/SVG/1.1/DTD/svg11.dtd">
<svg version="1.1" id="Layer_1" xmlns="http://www.w3.org/2000/svg" xmlns:xlink="http://www.w3.org/1999/xlink" x="0px" y="0px"
	 width="77px" height="80px" viewBox="0 0 77 80" enable-background="new 0 0 77 80" xml:space="preserve">
<path fill="#A78627" d="M64.756,47.82c-0.339-4.147-1.01-7.856-2.053-11.339c-0.855-2.862-1.891-5.318-3.148-7.471
	c0.41,0.004,0.819,0.004,1.229,0.004h0.178c0.594,0,0.965-0.334,1.029-0.907c0.041-0.388,0.072-0.771,0.102-1.224
	c0.071-1.081,0.133-2.356,0.029-3.645c-0.053-0.641-0.505-1.081-1.145-1.113c-0.136-0.008-0.27-0.006-0.399-0.004
	c-0.063,0.004-0.129,0.008-0.188,0.008h-0.021c-0.979-0.008-1.964-0.012-2.946-0.019l-0.885-0.007
	c0.008-1.427,0.021-2.854,0.029-4.28c0.021-2.774,0.041-5.548,0.063-8.32c0-0.056,0-0.111,0.002-0.167
	c0.006-0.169,0.012-0.357-0.021-0.558c-0.17-1.188-0.771-2.134-1.781-2.81c-1.331-0.884-2.934-1.341-4.893-1.402
	c-0.065,0-0.129-0.002-0.19-0.002c-0.668,0-1.315,0.098-2.03,0.211c-1.129,0.18-2.162,0.584-3.074,1.203
	c-0.966,0.659-1.541,1.504-1.703,2.521c-0.053,0.314-0.061,0.625-0.065,0.926c-1.011,0.002-2.069,0.167-3.233,0.496
	c-1.551,0.439-3.14,1.047-5.151,1.972c-1.968,0.897-3.745,2.185-5.283,3.813c-0.315,0.335-0.569,0.645-0.775,0.945
	c-0.501,0.725-0.402,1.324,0.298,1.883l0.437,0.348c0.481,0.379,0.977,0.775,1.476,1.156c0.362,0.285,0.67,0.512,1.002,0.719
	c0.19,0.118,0.37,0.174,0.551,0.174c0.344,0,0.587-0.21,0.737-0.367c1.36-1.414,2.96-2.533,4.746-3.328
	c1.675-0.739,3.48-1.23,5.188-1.673c0.012-0.001,0.023-0.005,0.039-0.009l0.01,1.457c0.012,1.672,0.025,3.391,0.041,5.092
	c-0.546,0-1.102,0.007-1.635,0.009c-0.314,0-0.629,0.005-0.943,0.007c-0.209,0-0.423,0-0.63,0c-0.121,0-0.245-0.002-0.368-0.002
	c-0.236,0-0.544,0.002-0.859,0.008c-0.632,0.016-1.115,0.475-1.146,1.098l-0.01,0.138c-0.027,0.511-0.055,1.036-0.035,1.562
	c0.035,1.082,0.1,2.141,0.164,3.129c0.025,0.357,0.191,0.963,1.061,0.963c0.461,0,0.922,0,1.381-0.004
	c-1.026,1.752-1.897,3.693-2.655,5.916c-0.805,2.364-1.445,4.926-1.896,7.607c-0.381,2.28-0.644,4.646-0.769,7.028
	c-0.165,2.982-0.129,6.052,0.094,9.129h-0.123c-0.159,0-0.339,0-0.528,0c-0.267-0.764-0.666-1.444-1.032-2.034
	c-0.677-1.099-1.454-2.246-2.55-3.216c-1.097-0.975-2.366-1.7-3.876-2.228c-0.135-0.048-0.271-0.073-0.41-0.073
	c-0.319,0-0.623,0.139-0.828,0.375c-0.224,0.254-0.321,0.606-0.274,0.969c0.025,0.162,0.053,0.32,0.08,0.474
	c0.037,0.205,0.07,0.399,0.088,0.594c0.128,1.245-0.01,2.356-0.412,3.41c-0.188,0.481-0.399,0.978-0.605,1.454
	c-0.039,0.098-0.082,0.195-0.121,0.291c-0.3-0.034-0.606-0.053-0.912-0.053c-0.573,0-1.158,0.063-1.791,0.181
	c-1.074,0.209-2.072,0.61-2.965,1.192c-0.727,0.479-1.128,1.203-1.45,1.845c-0.621,1.229-0.703,2.517-0.245,3.823
	c-0.816,0.255-1.569,0.615-2.288,1.097c-1.284,0.858-2.08,2.14-2.364,3.794c-0.228,1.339,0.064,2.646,0.891,4.014
	c0.25,0.414,0.638,0.649,1.139,0.694c0.073,0.005,0.138,0.005,0.185,0.005h0.107h0.023c0.661,0.004,1.325,0.01,1.986,0.018
	c1.496,0.013,2.993,0.022,4.486,0.039c1.025,0.01,2.054,0.021,3.077,0.033c1.372,0.018,2.793,0.032,4.19,0.047
	c0.09,0,0.182,0,0.277,0c0.409,0,0.828-0.007,1.233-0.015c0.28-0.005,0.558-0.012,0.842-0.012l0.131-0.002
	c1.372-0.013,2.789-0.023,4.181-0.034c0.611-0.002,1.222-0.007,1.832-0.012c1.382-0.01,2.813-0.02,4.214-0.02
	c0.343,0,0.684,0,1.027,0.002c1.322,0.006,2.678,0.026,3.984,0.043c0.969,0.018,1.974,0.032,2.964,0.035
	c0.569,0.008,1.149-0.003,1.71-0.016c0.311-0.008,0.623-0.014,0.936-0.016c1.924-0.021,3.846-0.041,5.768-0.063l1.329-0.016
	c0.271-0.006,0.54-0.006,0.809-0.008c0.499-0.002,1.013-0.009,1.521-0.016c0.313-0.006,0.563-0.104,0.75-0.293
	c0.125-0.133,0.271-0.367,0.265-0.754c0-0.051,0.004-0.102,0.017-0.139c0.564-1.863,1.067-3.855,1.494-5.924
	c0.742-3.601,1.219-7.339,1.416-11.104C65.042,53.938,64.999,50.824,64.756,47.82z M42.846,13.618
	c-1.867,0.418-3.644,0.953-5.282,1.6c-2.059,0.804-3.902,1.987-5.492,3.525c-0.489-0.389-0.984-0.78-1.466-1.156
	c-0.104-0.084-0.209-0.168-0.319-0.25c0.067-0.07,0.132-0.139,0.192-0.205c1.44-1.531,3.074-2.717,4.857-3.525
	c1.877-0.855,3.348-1.418,4.768-1.83c0.981-0.281,1.883-0.427,2.748-0.438C42.846,12.159,42.841,12.886,42.846,13.618z
	 M60.564,71.958c-0.127,0.472-0.258,0.95-0.385,1.433c-0.933,0.012-1.863,0.019-2.796,0.028c-1.542,0.021-3.136,0.039-4.694,0.045
	c-0.541,0.004-1.078,0.004-1.617,0.004c-1.264,0-2.549-0.008-3.793-0.01c-0.637-0.005-1.271-0.006-1.904-0.006
	c0.482-1.287,0.514-2.568,0.082-3.838h1.034c1.122,0.002,2.25,0.002,3.374,0.002c1.392,0,2.777,0,4.167,0l2.747,0.006
	c0.146,0,0.596,0,0.871-0.339c0.267-0.321,0.201-0.746,0.17-0.912c0-0.007,0-0.016,0.009-0.032
	c0.938-4.403,1.491-8.948,1.642-13.508c0.106-3.276,0.004-6.229-0.316-9.031c-0.307-2.661-0.745-4.811-1.387-6.768
	c-0.399-1.205-0.849-2.22-1.383-3.098c-0.953-1.563-2.273-2.641-3.938-3.202c-1.021-0.348-1.872-0.507-2.682-0.507
	c-0.031,0-0.062,0-0.096,0c-0.99,0.016-1.934,0.212-2.809,0.578l-0.094,0.041c-0.44,0.188-0.896,0.381-1.324,0.646
	c-1.084,0.682-1.95,1.655-2.65,2.978c-0.699,1.319-1.227,2.803-1.666,4.672c-0.779,3.323-1.146,6.922-1.15,11.328
	c-0.006,2.979,0.15,5.717,0.476,8.369c0.024,0.189,0.052,0.378,0.075,0.566c-0.164-0.266-0.338-0.523-0.521-0.771
	c-0.189-0.241-0.451-0.473-0.779-0.678c-0.859-0.539-1.706-0.886-2.586-1.063c-0.209-2.664-0.27-5.339-0.176-7.951
	c0.16-4.506,0.722-8.554,1.717-12.379c0.743-2.862,1.649-5.293,2.773-7.432c0.256-0.488,0.548-0.979,0.831-1.451
	c0.132-0.219,0.267-0.447,0.398-0.674c0.861-0.002,1.726-0.004,2.586-0.007c1.019-0.005,2.064-0.007,3.1-0.007h0.172
	c1.523,0,3.05,0.002,4.574,0.007c1.563,0.003,3.126,0.005,4.691,0.005c1.131,1.762,2.078,3.708,2.881,5.94
	c1.058,2.941,1.809,6.095,2.293,9.646c0.576,4.21,0.724,8.668,0.438,13.252c-0.238,3.851-0.77,7.577-1.572,11.08
	C61.111,69.934,60.832,70.966,60.564,71.958z M18.921,66.666c0.129-0.298,0.092-0.643-0.109-1.023
	c-0.372-0.697-0.504-1.289-0.423-1.869c0.137-0.955,0.499-1.65,1.102-2.129c0.425-0.332,0.947-0.582,1.603-0.766
	c0.793-0.22,1.627-0.333,2.486-0.333h0.072c0.339,0,0.679-0.016,1.004-0.03h0.035c0.425-0.021,0.729-0.19,0.9-0.513
	c1.269-2.36,1.775-4.426,1.586-6.479c0.387,0.184,0.751,0.379,1.094,0.615c1.177,0.815,2.147,1.883,2.967,3.258l0.132,0.222
	c0.419,0.704,0.818,1.368,1.018,2.114c0.107,0.396,0.437,0.668,0.857,0.713c0.435,0.046,0.883,0.094,1.337,0.107
	c1.349,0.051,2.464,0.34,3.409,0.885c0.288,0.166,0.507,0.319,0.65,0.524c0.53,0.763,0.772,1.386,0.784,2.019
	c0.011,0.535-0.12,1.063-0.396,1.568l-0.01,0.02c-0.025,0.05-0.06,0.106-0.086,0.178c-0.154,0.374-0.17,0.689-0.041,0.963
	c0.125,0.262,0.36,0.441,0.721,0.551l0.188,0.055c0.424,0.127,0.822,0.242,1.204,0.396c0.7,0.278,1.481,0.652,1.998,1.336
	c0.92,1.219,1.101,2.469,0.542,3.811c-0.049,0.127-0.115,0.252-0.182,0.39c-0.027,0.047-0.051,0.094-0.074,0.144
	c-1.993,0.016-3.984,0.03-5.978,0.049l-1.693,0.016c-0.503,0.001-1.004,0.008-1.507,0.016c-1.099,0.014-2.235,0.025-3.357,0.025
	h-0.113c-2.668-0.006-5.3-0.02-7.989-0.04c-1.076-0.003-2.153-0.015-3.228-0.022c-1.594-0.016-3.245-0.029-4.87-0.037
	c-0.027,0-0.045,0-0.057-0.002c-0.004-0.01-0.014-0.021-0.031-0.045c-0.877-1.559-0.618-3.425,0.642-4.635
	c0.388-0.377,0.881-0.681,1.498-0.929c0.46-0.187,0.963-0.356,1.491-0.497C18.514,67.173,18.789,66.963,18.921,66.666z
	 M41.126,65.457c0.017,0.094,0.028,0.189,0.041,0.284l-0.121-0.043C41.073,65.618,41.104,65.54,41.126,65.457z M43.352,66.811
	c-0.033-0.029-0.051-0.053-0.061-0.064c-0.473-2.332-0.832-4.796-1.07-7.325c-0.371-3.927-0.436-7.56-0.195-11.108
	c0.217-3.268,0.654-5.896,1.379-8.274c0.346-1.128,0.758-2.11,1.27-2.998c0.715-1.246,1.717-2.075,3.066-2.529
	c0.684-0.229,1.361-0.348,2.019-0.348c0.767,0,1.534,0.16,2.282,0.475l0.066,0.03c0.33,0.137,0.644,0.269,0.912,0.438
	c0.801,0.519,1.449,1.251,1.973,2.25c0.624,1.191,1.104,2.532,1.505,4.22c0.616,2.601,0.957,5.415,1.065,8.861
	c0.09,2.764,0,5.664-0.266,8.621c-0.255,2.869-0.689,5.781-1.288,8.654c-1.392-0.01-2.809-0.014-4.175-0.014H50.48h-0.727v0.004
	h-0.566h-2.729c-0.199,0-0.397,0-0.595,0c-0.205,0-0.409,0.002-0.616,0.002c-0.337,0-0.616-0.002-0.871-0.006
	C43.986,67.38,43.652,67.089,43.352,66.811z M46.63,7.077c1.037-0.438,2.169-0.624,3.47-0.576c1.442,0.057,2.633,0.395,3.633,1.035
	c0.492,0.314,0.802,0.727,0.947,1.252c0.029,0.09,0.039,0.173,0.039,0.239c-0.018,2.805-0.039,5.61-0.061,8.414l-0.016,2.106
	c-0.002,0.498-0.006,0.991-0.009,1.489l-0.01,1.029h-9.771c0-0.032,0-0.062-0.002-0.096l-0.002-0.534
	c-0.023-3.357-0.041-6.713-0.064-10.074c0-0.164,0-0.334-0.004-0.502c0-0.547-0.002-1.113-0.02-1.671
	c-0.019-0.425,0.143-0.819,0.498-1.232C45.628,7.534,46.137,7.286,46.63,7.077z M49.096,23.979c0.08,0,0.161,0,0.237,0h0.425
	l0.348-0.001l2.084,0.01c2.686,0.015,5.369,0.034,8.056,0.053c-0.021,0.596-0.039,1.197-0.058,1.781
	c-0.016,0.424-0.03,0.854-0.043,1.28c-1.658-0.006-3.34-0.013-4.97-0.015l-1.599-0.006c-0.563,0-1.12-0.005-1.68-0.005h-0.369
	c-2.075,0.005-4.152,0.011-6.229,0.013l-3.23,0.007c-0.256,0-0.516,0-0.769,0h-0.188c-0.627,0-1.205,0.002-1.774,0.006
	c-0.017-0.493-0.03-0.985-0.045-1.478c-0.021-0.528-0.033-1.056-0.051-1.584c1.259-0.01,2.517-0.019,3.772-0.025
	C45.042,24.002,47.07,23.991,49.096,23.979z"/>
</svg>
