<?xml version="1.0" encoding="utf-8"?>
<!-- Generator: Adobe Illustrator 16.0.0, SVG Export Plug-In . SVG Version: 6.00 Build 0)  -->
<!DOCTYPE svg PUBLIC "-//W3C//DTD SVG 1.1//EN" "http://www.w3.org/Graphics/SVG/1.1/DTD/svg11.dtd">
<svg version="1.1" id="Layer_1" xmlns="http://www.w3.org/2000/svg" xmlns:xlink="http://www.w3.org/1999/xlink" x="0px" y="0px"
	 width="77px" height="80px" viewBox="0 0 77 80" enable-background="new 0 0 77 80" xml:space="preserve">
<g>
	<path fill="#A78627" d="M72.148,68.718c0-0.135-0.002-0.27-0.002-0.405c0.002-1.631,0-3.291-0.006-4.896v-2.139
		c-0.008-5.887-0.014-11.776-0.022-17.666l-0.002-2.709c-0.009-3.734-0.009-7.592-0.021-11.386c-0.007-2.65-0.017-5.244-0.054-7.853
		c-0.01-0.688-0.095-1.3-0.253-1.824c-0.348-1.149-0.91-2.25-1.678-3.271c-0.248-0.33-0.559-0.658-0.975-1.023
		c-0.832-0.729-1.826-1.182-2.689-1.545c-1.432-0.605-2.916-0.886-4.051-1.061c-0.328-0.049-0.652-0.099-0.976-0.143
		c-0.662-0.096-1.341-0.197-2.003-0.316c-1.02-0.183-2.014-0.373-3.002-0.635c-2.143-0.566-3.952-1.688-5.377-3.335
		c-0.26-0.3-0.48-0.647-0.719-1.017c-0.078-0.125-0.16-0.25-0.242-0.375C49.8,6.69,49.375,6.466,48.854,6.459
		c-0.654-0.009-1.313-0.015-1.969-0.023c-0.734-0.011-1.468-0.02-2.201-0.028C44,6.402,43.314,6.39,42.632,6.381
		c-1.36-0.021-2.766-0.043-4.149-0.043c-0.2,0-0.396,0-0.593,0c-2.389,0.011-4.813,0.051-7.162,0.086
		c-0.867,0.013-1.732,0.027-2.596,0.038c-0.154,0.005-0.285,0.04-0.393,0.067l-0.034,0.008c-0.544,0.139-0.776,0.572-0.934,0.856
		l-0.021,0.04c-0.636,1.173-1.667,2.038-2.669,2.824c-0.793,0.621-1.777,1-2.648,1.335c-1.13,0.435-2.304,0.635-3.541,0.849
		c-0.372,0.065-0.757,0.134-1.139,0.203c-0.568,0.112-1.163,0.188-1.736,0.265c-0.415,0.055-0.842,0.11-1.265,0.179
		c-1.476,0.238-2.932,0.721-4.335,1.444c-0.785,0.401-1.91,1.074-2.645,2.235c-0.341,0.542-0.651,1.105-0.949,1.65l-0.076,0.145
		c-0.435,0.8-0.686,1.687-0.742,2.641c-0.041,0.712-0.061,1.477-0.064,2.473c-0.01,2.496-0.012,5.036-0.016,7.493v1.788
		c-0.002,1.967-0.006,3.933-0.006,5.896c-0.002,2.463-0.006,4.924-0.008,7.389c-0.006,2.096-0.006,4.193-0.016,6.289
		c0,1.824-0.004,3.654-0.008,5.479c0,1.352-0.002,2.703-0.002,4.053c-0.004,2.035-0.006,4.065-0.008,6.1
		c0,0.163-0.006,0.333-0.016,0.513c-0.02,0.482-0.041,0.982,0.072,1.507c0.288,1.309,0.947,2.286,1.957,2.9
		c0.633,0.386,1.175,0.563,1.713,0.568c0.893,0.007,1.852,0.013,3.021,0.013c0.733,0,1.468,0,2.203-0.006
		c0.676,0,1.351-0.001,2.026-0.001c3.521,0,7.042,0,10.562,0h11.571v0.001h2.29h12.146h4.385c1.004,0,2.008,0,3.01-0.001
		c2.746,0,5.488,0,8.244,0.001c0.342,0,0.682-0.046,1.066-0.146c1.855-0.481,2.752-2.111,2.956-3.356
		C72.165,69.667,72.154,69.184,72.148,68.718z M47.979,65.081c0.383,0.138,0.763,0.278,1.141,0.414
		c0.1,0.039,0.207,0.069,0.324,0.096c0.082,0.021,0.16,0.027,0.24,0.027c0.42,0,0.771-0.259,0.896-0.651
		c0.156-0.482-0.088-0.979-0.579-1.171c-0.121-0.047-0.239-0.088-0.354-0.132c-0.121-0.043-0.233-0.083-0.347-0.128
		c-0.282-0.113-0.573-0.228-0.86-0.338c-0.752-0.3-1.53-0.604-2.282-0.925c-0.776-0.332-1.528-0.793-2.224-1.381
		c-1.377-1.153-2.109-2.592-2.175-4.276c-0.059-1.568-0.075-3.15-0.084-4.632c-0.008-1.346,0.011-2.541,0.052-3.647
		c0.032-0.874,0.414-1.131,0.742-1.261c0.02-0.004,0.038-0.012,0.059-0.021c0.018-0.004,0.039-0.015,0.055-0.021
		c0.727,0.014,1.318,0.072,1.734,0.57c0.139,0.168,0.192,0.295,0.19,0.463c-0.006,1.152-0.004,2.328-0.004,3.461
		c0,0.404,0,0.811,0,1.217v0.037c0,0.047-0.002,0.104,0.004,0.168c0.039,0.527,0.438,0.916,0.953,0.916
		c0.526,0,0.937-0.404,0.949-0.943c0.01-0.266,0.01-0.536,0.008-0.797c0-0.113,0-0.223,0-0.336c0.002-0.432,0.002-0.867,0.006-1.307
		c0.004-0.926,0.007-1.881,0.007-2.824c-0.003-1.182-0.007-2.358-0.007-3.539c-0.004-1.24-0.006-2.484-0.006-3.725
		c0-0.903,0.006-1.866,0.019-2.939c0.004-0.296,0.133-0.547,0.4-0.799c0.303-0.279,0.74-0.439,1.208-0.439
		c0.33,0,0.649,0.085,0.906,0.237c0.014,2.105,0.032,4.247,0.051,6.095c0.011,1.283,0.022,2.563,0.037,3.846l0.014,1.615v0.014
		c0.005,0.031,0.005,0.063,0.005,0.095c0.032,0.547,0.435,0.942,0.961,0.942c0.535-0.002,0.944-0.424,0.946-0.979
		c0-0.367-0.002-0.739-0.01-1.099c0-0.146-0.002-0.295-0.002-0.443l-0.022-2.581c-0.021-2.142-0.037-4.286-0.062-6.427
		c-0.002-0.314-0.009-0.623-0.015-0.938c-0.014-0.628-0.024-1.275-0.01-1.905c0.01-0.377,0.113-0.784,0.209-1.133
		c0.012-0.041,0.074-0.141,0.176-0.223c0.289-0.234,0.646-0.361,1.012-0.361c0.309,0,0.604,0.088,0.854,0.256
		c0.275,0.188,0.436,0.502,0.491,0.973c0.06,0.5,0.062,1.005,0.063,1.541c0,0.124,0,0.246,0.002,0.371
		c0.021,2.141,0.039,4.32,0.06,6.431l0.021,1.973c0.002,0.441,0.004,0.879,0.012,1.319c0.006,0.722,0.012,1.444,0.018,2.168
		c0.004,0.483,0.278,0.851,0.713,0.965c0.078,0.021,0.162,0.033,0.248,0.033c0.354,0,0.672-0.192,0.826-0.5
		c0.076-0.153,0.115-0.34,0.115-0.522c-0.006-0.988-0.016-1.994-0.023-2.965l-0.02-2.201c-0.014-1.916-0.031-3.836-0.047-5.752
		c-0.006-0.07,0.014-0.111,0.066-0.162c0.202-0.192,0.42-0.311,0.66-0.361c0.186-0.037,0.358-0.058,0.525-0.058
		c0.857,0,1.441,0.536,1.595,1.472c0.136,0.801,0.149,1.646,0.049,2.584c-0.071,0.668-0.086,1.344-0.094,2.002
		c-0.002,0.12-0.002,0.24-0.006,0.365c-0.025,1.186-0.039,2.396-0.058,3.562c-0.004,0.487-0.014,0.978-0.021,1.464v0.059
		c-0.002,0.048-0.002,0.096-0.002,0.141c0.006,0.585,0.409,1.014,0.957,1.014c0.538,0,0.938-0.414,0.95-0.986
		c0.013-0.459,0.021-0.922,0.023-1.372l0.004-0.188c0.008-0.472,0.016-0.938,0.021-1.414c0.019-1.217,0.034-2.472,0.065-3.709
		c0.008-0.381,0.064-0.695,0.157-0.929c0.162-0.409,0.497-0.646,0.994-0.711c0.063-0.003,0.125-0.007,0.187-0.007
		c0.676,0,1.23,0.471,1.354,1.146c0.039,0.225,0.061,0.45,0.064,0.67c0.006,0.932,0.006,1.926,0,3.129
		c-0.004,0.558-0.01,1.112-0.015,1.672c-0.008,0.928-0.018,1.891-0.016,2.834c0.004,0.871,0.021,1.756,0.034,2.611
		c0.013,0.674,0.023,1.374,0.029,2.061c0.012,1.547,0.004,3.377-0.168,5.191c-0.088,0.901-0.349,1.642-0.807,2.258
		c-1.014,1.371-1.341,2.92-1.514,4.119c-0.189,1.317-0.193,2.645-0.193,3.93c-0.002,0.339-0.002,0.688-0.004,1.029
		c-0.008,0.393-0.025,0.78-0.045,1.19c-0.002,0.024-0.002,0.052-0.006,0.076L47.635,71.74c-0.025-2.268-0.049-4.533-0.074-6.807
		C47.701,64.984,47.84,65.031,47.979,65.081z M62.292,70.557c0.021-1.068,0.046-2.173,0.079-3.257
		c0.047-1.514,0.279-2.72,0.736-3.803c0.084-0.205,0.211-0.41,0.338-0.626l0.072-0.128c0.106-0.183,0.221-0.365,0.332-0.537
		c0.119-0.195,0.242-0.396,0.362-0.595c0.425-0.728,0.536-1.521,0.612-2.27c0.234-2.266,0.199-4.56,0.17-6.781l-0.008-0.289
		c-0.012-1.014-0.012-2.047-0.008-3.047c0.002-0.604,0.002-1.229,0.002-1.844c-0.006-1.314-0.015-2.645-0.025-3.934l-0.008-1.094
		c-0.002-0.43-0.006-0.877-0.021-1.317c-0.063-1.79-1.636-3.231-3.458-3.13c-0.382,0.021-0.745,0.104-1.083,0.242
		c-0.053-0.581-0.178-1.207-0.505-1.784c-0.739-1.294-1.933-1.914-3.437-1.781c-0.319,0.026-0.613,0.085-0.883,0.175
		c-0.013-0.689-0.14-1.312-0.404-1.9c-0.375-0.844-1.026-1.4-1.938-1.658c-0.345-0.099-0.688-0.147-1.021-0.147
		c-0.828,0-1.607,0.308-2.311,0.912c-0.365,0.312-0.613,0.739-0.742,1.267c-0.088,0.351-0.172,0.746-0.209,1.171
		c-0.283-0.07-0.576-0.103-0.877-0.103c-1.166,0-2.261,0.523-2.933,1.403c-0.417,0.548-0.63,1.214-0.632,1.976
		c-0.002,1.598,0,3.219,0.002,4.788c0.004,0.619,0.004,1.238,0.004,1.855l0.002,1.111c-0.626-0.26-1.27-0.313-1.852-0.316h-0.027
		c-1.047,0-2.198,0.851-2.566,1.894c-0.201,0.587-0.217,1.154-0.231,1.703c-0.003,0.093-0.009,0.188-0.011,0.281
		c-0.049,1.315-0.057,2.61-0.051,4.149c0.002,1.09,0.027,2.211,0.076,3.441c0.102,2.566,1.276,4.672,3.487,6.256
		c0.644,0.457,1.382,0.872,2.323,1.311c0.02,2.416,0.047,4.966,0.078,7.584c-1.388,0-3.136-0.008-4.879-0.008
		c-0.898,0-1.804,0.006-2.702,0.006c-0.71,0.002-1.425,0.002-2.136,0.002c-0.509,0-1.018,0-1.526,0h-1.485c-0.567,0-1.135,0-1.703,0
		c0.029-2.783,0.057-5.271,0.076-7.582c1.52-0.686,2.646-1.432,3.547-2.342c1.378-1.395,2.138-3.098,2.267-5.063
		c0.09-1.479,0.08-2.977,0.07-4.422c-0.004-0.531-0.004-1.084-0.004-1.628c0.004-0.44-0.02-0.884-0.043-1.312
		c-0.021-0.359-0.041-0.734-0.047-1.101c-0.008-0.624-0.119-1.154-0.353-1.617c-0.464-0.92-1.522-1.563-2.571-1.563
		c-0.132,0-0.265,0.009-0.396,0.029c-0.421,0.064-0.873,0.137-1.323,0.311c0-0.445-0.004-0.889-0.004-1.336
		c0-2.029-0.002-4.131,0.012-6.199c0-0.654-0.078-1.612-0.799-2.417c-0.677-0.75-1.708-1.196-2.764-1.196
		c-0.309,0-0.608,0.036-0.898,0.11c-0.033-0.262-0.066-0.522-0.1-0.781c-0.152-1.13-0.82-1.91-2.031-2.38
		c-0.331-0.128-0.699-0.194-1.095-0.194c-1.049,0-2.086,0.457-2.579,1.139c-0.479,0.66-0.74,1.389-0.771,2.161
		c-0.006,0.14-0.01,0.28-0.01,0.42c-0.117-0.041-0.239-0.076-0.362-0.105c-0.32-0.07-0.634-0.104-0.939-0.104
		c-1.83,0-3.235,1.307-3.495,3.255c-0.016,0.114-0.027,0.226-0.042,0.339c-0.4-0.166-0.831-0.256-1.268-0.256
		c-1.557,0-2.875,1.074-3.208,2.606c-0.088,0.417-0.102,0.843-0.102,1.245c-0.01,1.232-0.01,2.484-0.016,3.693
		c0,0.775-0.002,1.551-0.004,2.326c-0.004,0.881-0.011,1.76-0.015,2.635c-0.01,1.787-0.023,3.631-0.016,5.443
		c0.01,1.685,0.073,3.099,0.341,4.52c0.131,0.689,0.417,1.335,0.85,1.914c0.777,1.04,1.218,2.287,1.343,3.798
		c0.068,0.862,0.096,1.75,0.115,2.606c0.01,0.354,0.02,0.705,0.031,1.057c0.018,0.555,0.033,1.122,0.047,1.671
		c0.006,0.106,0.008,0.214,0.01,0.323H12.38c-1.129,0-2.267,0-3.397-0.004c-1.335,0-1.99-1.002-2.163-1.943
		c-0.053-0.285-0.047-0.605-0.041-0.941c0.006-0.123,0.006-0.242,0.006-0.367c0.004-2.582,0.008-5.209,0.01-7.752L6.8,60.247
		c0-1.174,0.004-2.347,0.006-3.524c0.004-1.652,0.008-3.309,0.008-4.966c0.006-2.774,0.008-5.547,0.01-8.321l0.006-6.689
		c0.004-3.033,0.008-6.061,0.012-9.091c0-0.355,0-0.72,0-1.077c0-1.182,0-2.407,0.018-3.605c0-0.126,0.002-0.25,0.002-0.374
		c0.006-0.835,0.014-1.621,0.269-2.356c0.456-1.313,1.004-2.268,1.734-3.006c0.446-0.453,1.014-0.826,1.782-1.179
		c1.196-0.546,2.306-0.899,3.398-1.077c0.423-0.07,0.859-0.128,1.282-0.184c0.575-0.078,1.162-0.154,1.745-0.265
		c0.366-0.07,0.742-0.135,1.106-0.198c1.261-0.217,2.562-0.443,3.816-0.913c1.109-0.412,2.28-0.888,3.294-1.677
		c0.955-0.743,1.939-1.584,2.693-2.682c0.143-0.206,0.278-0.435,0.419-0.697c0.811-0.01,1.629-0.021,2.421-0.034
		c1.413-0.021,2.875-0.047,4.311-0.047H35.3c2.666,0,5.377,0.021,7.997,0.034c0.932,0.008,1.861,0.013,2.789,0.02
		c0.887,0.006,1.713,0.018,2.529,0.037c0.642,1.221,1.638,2.1,2.604,2.949l0.069,0.063c0.974,0.858,2.101,1.364,3.261,1.85
		c1.074,0.444,2.264,0.753,3.85,1.003c1.666,0.258,3.145,0.497,4.525,0.726c1.29,0.21,2.598,0.649,3.887,1.301
		c1.096,0.55,1.92,1.415,2.519,2.642c0.336,0.689,0.657,1.336,0.731,2.041c0.061,0.603,0.099,1.245,0.111,2.023
		c0.01,0.88,0.01,1.775,0.008,2.643c0,0.377,0,0.752,0,1.128l0.006,2.187c0,1.383,0.002,2.763,0.004,4.145
		c0.006,2.475,0.009,4.949,0.011,7.422l0.006,5.764c0.004,2.062,0.008,4.122,0.012,6.182c0,1.968,0.007,3.936,0.009,5.898
		c0.004,1.999,0.008,3.998,0.01,5.998c0,1.48,0.004,3.002,0,4.521c0,0.09,0.004,0.18,0.004,0.266
		c0.004,0.223,0.008,0.432-0.021,0.619c-0.203,1.218-1.078,2.002-2.234,2.002h-0.035c-0.66-0.009-1.356-0.012-2.2-0.012
		c-0.62,0-1.241,0.003-1.856,0.003c-0.545,0.001-1.082,0.005-1.623,0.005C62.275,71.348,62.282,70.95,62.292,70.557z M20.71,71.736
		c-0.984,0-1.965,0-2.949,0l-1.1,0.005c-0.011-0.175-0.021-0.343-0.021-0.507c-0.006-0.352-0.008-0.711-0.012-1.061
		c-0.002-0.646-0.008-1.316-0.035-1.982c-0.045-0.993-0.092-1.967-0.227-2.942c-0.216-1.56-0.693-2.815-1.468-3.856
		c-0.452-0.609-0.719-1.349-0.805-2.258c-0.191-2.005-0.176-4.063-0.16-6.048l0.002-0.47c0.01-1.463,0.012-2.944,0.016-4.381
		c0.004-0.788,0.006-1.577,0.008-2.366v-0.627c0.006-1.038,0.01-2.11,0.021-3.166v-0.104c0.004-0.388,0.01-0.76,0.072-1.104
		c0.094-0.529,0.562-0.953,1.133-1.037c0.072-0.008,0.14-0.016,0.21-0.016c0.491,0,0.918,0.248,1.139,0.658
		c0.055,0.103,0.092,0.218,0.098,0.309c0.05,0.909,0.103,1.891,0.122,2.885c0.023,0.901,0.039,1.817,0.051,2.707
		c0.01,0.578,0.016,1.149,0.027,1.728c0.002,0.149,0.027,0.367,0.137,0.568c0.169,0.298,0.458,0.466,0.799,0.466
		c0.074,0,0.152-0.009,0.229-0.022c0.442-0.1,0.742-0.484,0.742-0.947c0-0.346-0.01-0.689-0.014-1.021l-0.006-0.316
		c-0.006-0.489-0.014-0.979-0.018-1.469c-0.02-1.262-0.037-2.564-0.068-3.85c-0.01-0.322-0.039-0.637-0.066-0.945
		c-0.031-0.315-0.061-0.612-0.064-0.912c-0.011-0.514,0.02-1.059,0.088-1.621c0.082-0.676,0.39-1.142,0.941-1.43
		c0.164-0.082,0.394-0.133,0.638-0.133c0.487,0,0.979,0.176,1.228,0.438c0.035,0.035,0.063,0.075,0.063,0.21
		c-0.027,2.616-0.053,5.281-0.072,7.638c-0.012,1.14-0.016,2.181-0.023,3.181c0,0.121,0.008,0.297,0.076,0.477
		c0.135,0.354,0.483,0.59,0.871,0.59c0.064,0,0.129-0.007,0.193-0.021c0.444-0.092,0.75-0.463,0.762-0.924
		c0.006-0.271,0.01-0.549,0.01-0.813c0-0.118,0.002-0.24,0.002-0.357l0.025-2.735c0.023-2.631,0.049-5.26,0.072-7.89
		c0.004-0.146,0.004-0.297,0.004-0.443c0-0.564,0.002-1.091,0.064-1.615c0.078-0.684,0.358-0.911,0.563-1.022
		c0.257-0.139,0.518-0.209,0.791-0.209c0.374,0,0.732,0.137,1.033,0.393c0.077,0.064,0.132,0.147,0.142,0.187l0.025,0.096
		c0.092,0.363,0.182,0.705,0.182,1.025c0,1.725-0.018,3.479-0.037,5.178c-0.008,0.607-0.016,1.221-0.02,1.833
		c-0.016,1.664-0.033,3.325-0.051,4.988l-0.012,1.311c0,0.045,0,0.096,0.004,0.153c0.029,0.529,0.427,0.927,0.938,0.929h0.016
		c0.519,0,0.928-0.398,0.949-0.924c0.012-0.25,0.012-0.496,0.014-0.735l0.078-8.688c0-0.245,0.006-0.489,0.006-0.733
		c0.004-0.497,0.012-1.012,0.012-1.524c0.261-0.157,0.572-0.241,0.898-0.241c0.524,0,1.021,0.215,1.335,0.566
		c0.194,0.221,0.284,0.467,0.284,0.768c0,0.873,0.006,1.764,0.01,2.619c0.002,0.787,0.008,1.577,0.008,2.363
		c0,0.906-0.002,1.835-0.006,2.729c-0.002,0.793-0.006,1.584-0.006,2.375c0,1.188,0.004,2.396,0.006,3.563
		c0,0.507,0.004,1.014,0.004,1.522c0,0.047,0,0.096,0.002,0.142c0.016,0.588,0.407,1.002,0.957,1.004
		c0.55,0,0.947-0.437,0.953-1.035c0-0.449,0-0.899,0-1.351c0-0.307,0-0.612,0-0.92c0.004-0.828,0.004-1.687-0.006-2.534
		c0-0.242,0.123-0.416,0.513-0.696c0.125-0.092,0.327-0.15,0.524-0.205c0.206-0.051,0.433-0.072,0.678-0.094l0.016-0.003
		c0.342-0.031,0.8,0.278,0.887,0.584c0.111,0.399,0.164,0.694,0.166,0.957c0.031,2.141,0.059,4.416,0.047,6.674
		c-0.006,0.815-0.049,1.888-0.339,2.926c-0.172,0.604-0.532,1.144-0.922,1.685c-0.722,1.01-1.753,1.652-2.665,2.147
		c-0.981,0.531-2.062,0.931-3.104,1.313c-0.37,0.136-0.756,0.275-1.13,0.424c-0.906,0.351-0.821,0.976-0.741,1.229
		c0.129,0.405,0.46,0.649,0.887,0.649c0.148,0,0.309-0.028,0.487-0.093c0.515-0.174,1.031-0.364,1.532-0.545
		c0.033-0.014,0.068-0.026,0.104-0.039c0,0.369,0,0.73-0.004,1.087c-0.006,0.747-0.014,1.491-0.023,2.233
		c-0.012,1.144-0.025,2.318-0.035,3.479c-1.975-0.001-3.893-0.001-5.365-0.001h-3.32V71.736z"/>
	<path fill="#A78627" d="M30.644,26.923l-0.01-0.01c-0.105-0.109-0.247-0.262-0.448-0.354c-1.676-0.771-3.282-1.243-4.919-1.446
		c-0.573-0.07-1.146-0.105-1.703-0.105c-1.544,0-3.043,0.275-4.452,0.822c-2.183,0.846-4.021,2.234-5.619,4.249
		c-0.877,1.101-1.635,2.354-2.313,3.831c-0.157,0.335-0.187,0.643-0.087,0.912c0.087,0.227,0.255,0.403,0.492,0.514
		c0.131,0.057,0.264,0.086,0.398,0.086c0.229,0,0.662-0.094,0.938-0.723c0.065-0.146,0.136-0.292,0.214-0.452
		c1.084-2.218,2.413-3.907,4.071-5.173c1.805-1.379,3.877-2.104,6.155-2.15c0.082-0.002,0.162-0.002,0.245-0.002
		c1.552,0,3.109,0.309,4.764,0.944c0.215,0.081,0.419,0.169,0.642,0.265c0.155,0.066,0.315,0.137,0.478,0.203
		c0.13,0.05,0.263,0.079,0.394,0.079c0.54,0,0.945-0.423,0.945-0.982V27.36l-0.008-0.038C30.808,27.239,30.776,27.068,30.644,26.923
		z"/>
	<path fill="#A78627" d="M65.412,35.345c0.509-0.211,0.715-0.761,0.492-1.306c-0.043-0.108-0.092-0.207-0.137-0.3l-0.041-0.086
		c-1.002-2.129-2.218-3.838-3.709-5.227c-2.287-2.127-5.127-3.371-7.789-3.413c-0.066,0-0.136,0-0.201,0
		c-2.209,0-3.926,0.288-5.752,0.956c-0.486,0.178-0.969,0.385-1.435,0.586l-0.014,0.005c-0.274,0.12-0.478,0.324-0.575,0.569
		c-0.089,0.229-0.078,0.486,0.025,0.725c0.16,0.344,0.479,0.552,0.854,0.552c0.152,0,0.308-0.03,0.46-0.095
		c0.035-0.015,0.072-0.034,0.107-0.049l0.051-0.023c1.443-0.647,2.803-1.043,4.157-1.214c0.528-0.069,1.055-0.103,1.563-0.103
		c2.581,0,4.918,0.887,6.943,2.631c1.188,1.025,2.186,2.294,3.05,3.873c0.187,0.341,0.358,0.7,0.528,1.048
		c0.051,0.109,0.104,0.216,0.154,0.325c0.188,0.389,0.526,0.619,0.896,0.619C65.172,35.419,65.295,35.394,65.412,35.345z"/>
	<path fill="#A78627" d="M11.46,26.624c0.28-0.598,0.631-1.148,1.029-1.637c0.514-0.615,1.157-1.086,1.844-1.584l0.085-0.064
		c0.988-0.72,2.184-1.088,3.881-1.189l0.125,0.006c0.124,0.009,0.247,0.018,0.37,0.023c0.025,0,0.045,0,0.066,0
		c0.58,0,0.992-0.357,1.022-0.895c0.025-0.441-0.261-0.928-0.954-1.009c-0.232-0.027-0.47-0.045-0.712-0.045
		c-0.695,0-1.415,0.11-2.335,0.351c-1.682,0.44-3.181,1.405-4.723,3.039c-0.594,0.627-1.077,1.393-1.438,2.273
		c-0.111,0.27-0.117,0.553-0.016,0.793c0.099,0.223,0.282,0.398,0.521,0.495c0.113,0.041,0.229,0.067,0.346,0.067
		C10.951,27.249,11.272,27.016,11.46,26.624z"/>
	<path fill="#A78627" d="M58.175,22.179c0.089,0,0.173-0.008,0.252-0.015c0.08-0.005,0.158-0.013,0.229-0.013h0.027
		c1.586,0.043,2.897,0.453,4.008,1.24c0.904,0.644,1.912,1.461,2.549,2.611c0.092,0.168,0.178,0.335,0.266,0.512
		c0.036,0.066,0.069,0.131,0.104,0.193c0.176,0.339,0.49,0.536,0.845,0.536c0.112,0,0.224-0.017,0.327-0.058
		c0.468-0.172,0.713-0.652,0.572-1.147c-0.037-0.142-0.09-0.278-0.149-0.405c-0.356-0.717-0.756-1.34-1.224-1.899
		c-0.701-0.833-1.576-1.458-2.346-2.007c-1.539-1.104-3.261-1.384-4.59-1.502l-0.039-0.002l-0.039,0.002
		c-0.121,0.005-0.227,0.012-0.328,0.016c-0.209,0.011-0.392,0.021-0.572,0.035c-0.551,0.042-0.942,0.459-0.926,0.988
		C57.164,21.806,57.598,22.198,58.175,22.179z"/>
</g>
</svg>
