<?xml version="1.0" encoding="utf-8"?>
<!-- Generator: Adobe Illustrator 16.0.0, SVG Export Plug-In . SVG Version: 6.00 Build 0)  -->
<!DOCTYPE svg PUBLIC "-//W3C//DTD SVG 1.1//EN" "http://www.w3.org/Graphics/SVG/1.1/DTD/svg11.dtd">
<svg version="1.1" id="Layer_1" xmlns="http://www.w3.org/2000/svg" xmlns:xlink="http://www.w3.org/1999/xlink" x="0px" y="0px"
	 width="77px" height="80px" viewBox="0 0 77 80" enable-background="new 0 0 77 80" xml:space="preserve">
<g>
	<path fill="#A78627" d="M73.643,66.555c-0.086-0.012-0.162-0.014-0.223-0.014h-0.096c-0.588,0.002-1.172,0.007-1.756,0.007
		c-1.006,0.002-2.012,0.009-3.019,0.009c-2.536,0.006-5.075,0.008-7.61,0.018l-3.607,0.004l-0.002-2.7
		c-0.004-1.972-0.004-3.944-0.004-5.919c-0.002-2.162-0.002-4.32-0.002-6.484v-7.842c0-2.449-0.004-4.896-0.004-7.342v-0.049
		c0-0.021,0-0.057,0-0.078c0.272-0.524,0.695-0.828,1.291-0.932c0.17-0.025,0.35-0.023,0.525-0.018c0.073,0,0.147,0,0.221,0
		c0.785-0.011,1.713-0.02,2.654-0.027c1.801-0.012,3.604-0.023,5.403-0.033c2.045-0.014,4.092-0.023,6.146-0.038
		c0.123,0,0.271,0,0.436-0.043c0.424-0.116,0.691-0.457,0.701-0.903c0.008-0.423-0.236-0.773-0.639-0.908
		C73.9,33.205,73.745,33.2,73.634,33.2h-0.016c-0.481,0.004-0.97,0.005-1.451,0.011c-0.319,0.002-0.64,0.004-0.957,0.004
		l-2.692,0.02c-3.183,0.018-6.466,0.037-9.699,0.063c-0.354,0.006-0.707,0.062-1.021,0.168c-0.985,0.33-1.715,0.93-2.157,1.775
		c-0.966,0.007-1.898,0.167-2.607,0.308c-1.088,0.216-2.02,0.704-2.775,1.448c-1.109,1.102-1.947,2.47-2.572,4.181
		c-0.307,0.852-0.551,1.727-0.791,2.572c-0.112,0.41-0.231,0.839-0.358,1.251c-0.261,0.866-0.524,1.759-0.957,2.56
		c-0.07,0.131-0.117,0.174-0.127,0.185c-0.349,0.265-0.668,0.386-1.002,0.386h-0.023c-1.241-0.021-2.577-0.045-3.936-0.078
		c-0.058-0.113-0.111-0.229-0.168-0.352c-0.076-0.16-0.152-0.328-0.24-0.49c-0.918-1.775-2.194-3.367-3.793-4.729
		c-0.916-0.781-1.929-1.467-3.028-2.05c0.19-1.669-0.233-3.172-1.259-4.468c-0.432-0.553-1.113-1.286-2.178-1.61
		c0.03-0.822,0.061-1.648,0.092-2.472c0.059-1.483,0.112-2.962,0.169-4.445l0.118-3.187c0.09-2.489,0.186-5.065,0.281-7.59
		c0-0.01,0.009-0.029,0.016-0.035c0.568-0.797,0.992-1.65,1.27-2.535c0.318-1.031,0.39-2.1,0.433-3.107
		c0.01-0.231-0.043-0.455-0.092-0.617c-0.12-0.414-0.483-0.697-0.905-0.697c-0.176,0-0.354,0.051-0.51,0.143
		c-0.09,0.054-0.16,0.113-0.219,0.16c-0.039,0.03-0.075,0.059-0.101,0.077c-0.098,0.058-0.196,0.12-0.293,0.18
		c-0.247,0.159-0.476,0.306-0.712,0.409c-0.084,0.033-0.167,0.051-0.25,0.051c-0.214,0-0.472-0.144-0.479-0.548
		c-0.006-0.589-0.006-1.134,0-1.666c0.019-1.07-0.408-1.982-1.261-2.717c-0.059-0.048-0.116-0.095-0.173-0.142
		c-0.109-0.088-0.21-0.17-0.291-0.252c-0.095-0.1-0.342-0.358-0.729-0.358c-0.072,0-0.14,0.009-0.209,0.027
		c-0.258,0.058-0.589,0.241-0.708,0.773L25.25,5.89c-0.027,0.133-0.059,0.268-0.102,0.346l-0.172,0.309
		c-0.457,0.828-0.93,1.688-1.423,2.504c-0.597,0.984-1.225,2.179-1.364,3.582c-0.078,0.803-0.104,1.991,0.617,3.08
		c0.17,0.25,0.365,0.457,0.556,0.66c0.104,0.105,0.2,0.205,0.284,0.309c0.009,0.004,0.014,0.016,0.02,0.021
		c0.049,1.326,0.096,2.678,0.139,3.985l0.045,1.38c0.059,1.77,0.116,3.541,0.18,5.311l0.15,4.475
		c0.024,0.727,0.049,1.455,0.072,2.182c-1.387,0.479-2.549,1.367-3.543,2.711c-0.029-0.008-0.057-0.011-0.082-0.018
		c-0.363-0.089-0.733-0.18-1.131-0.188c-0.861-0.013-1.736,0.009-2.576,0.03c-0.206,0.005-0.412,0.013-0.618,0.015
		c-1.198,0.032-2.392,0.348-3.645,0.969c-0.978,0.49-1.867,1.229-2.795,2.336c-0.245,0.293-0.46,0.654-0.616,1.042
		c-0.877,2.155-1.752,4.344-2.6,6.469l-0.285,0.707c-1.692,0.466-2.865,1.461-3.478,2.97c-0.23,0.567-0.382,1.194-0.461,1.912
		c-0.081,0.743-0.02,1.384,0.2,1.965c0.221,0.577,0.459,1.153,0.688,1.709c0.121,0.295,0.244,0.586,0.365,0.876
		c1.233,3.055,2.466,6.104,3.698,9.159L4.622,66.7c-0.123,0-0.243,0-0.365,0c-0.121-0.002-0.242-0.002-0.366-0.002
		c-0.246,0-0.444,0.002-0.626,0.005c-0.483,0.009-0.865,0.32-0.947,0.781c-0.084,0.453,0.162,0.896,0.58,1.052
		c0.135,0.049,0.285,0.075,0.469,0.075c0.151,0,0.305,0,0.457,0c0.201,0,0.402,0,0.605,0c0.166,0,0.331,0,0.496,0l5.32-0.008
		c4.75-0.004,9.502-0.006,14.254-0.013c0.691,0,1.391-0.009,2.066-0.015c0.607-0.008,1.24-0.016,1.856-0.02
		c1.78-0.005,3.563-0.01,5.34-0.011c1.21,0,2.419-0.004,3.627-0.008c1.575-0.004,3.15-0.009,4.721-0.013
		c1.714-0.006,3.425-0.008,5.138-0.016c3.491-0.007,6.985-0.012,10.478-0.021l5.473-0.011c3.285-0.004,6.568-0.012,9.854-0.022
		h0.186c0.119,0,0.246,0,0.38-0.011c0.504-0.047,0.868-0.44,0.87-0.94C74.488,67.018,74.133,66.618,73.643,66.555z M26.863,66.655
		c-0.189-0.009-0.393-0.011-0.636-0.011c-0.159,0-0.321,0.002-0.481,0.002v-0.03h-0.537c-0.25,0-0.503,0-0.75,0
		c-0.59-0.007-1.177-0.007-1.764,0.002c-0.612,0.002-1.229,0.022-1.811,0.043c-0.971-1.986-1.958-4.002-2.916-5.95l-0.859-1.753
		c-0.165-0.334-0.328-0.671-0.493-1.007c-0.399-0.819-0.814-1.667-1.228-2.497c-0.005-0.015-0.012-0.027-0.016-0.031
		c0.004-0.006,0.011-0.021,0.016-0.032c1.153-2.315,2.322-4.673,3.451-6.951l1.125-2.27c0.258-0.518,0.514-1.027,0.771-1.546
		c0.661-1.333,1.347-2.711,2.016-4.074c0.053-0.106,0.059-0.106,0.156-0.119c0.73-0.088,1.459-0.133,2.159-0.133
		c3.318,0,6.384,0.998,9.114,2.968c2.706,1.947,4.467,4.467,5.231,7.484c1.071,4.23,0.137,8.059-2.781,11.374
		c-1.81,2.063-4.22,3.481-7.161,4.213c-0.854,0.213-1.641,0.317-2.407,0.317C26.995,66.655,26.931,66.655,26.863,66.655z
		 M12.843,39.681c0.758-0.549,1.624-0.889,2.646-1.025c1.068-0.146,2.131-0.168,3.037-0.168c0.359,0,0.725,0.006,1.08,0.008h0.095
		c0.669,0.006,1.16,0.286,1.491,0.846c-1.591,3.223-3.208,6.496-4.773,9.666l-1.411,2.856c-0.231,0.466-0.46,0.931-0.693,1.396
		c-0.011-0.021-0.019-0.042-0.028-0.063c-0.293-0.581-0.594-1.184-0.865-1.781c-0.706-1.549-1.914-2.626-3.593-3.196
		c-0.45-0.157-0.894-0.25-1.341-0.282c0.14-0.338,0.274-0.674,0.407-1.017c0.697-1.741,1.417-3.548,2.14-5.313
		c0.086-0.215,0.229-0.436,0.395-0.615C11.822,40.563,12.295,40.078,12.843,39.681z M26.735,10.165
		c0.024,1.382,1.055,2.429,2.401,2.429c0.355,0,0.708-0.071,1.05-0.218c-0.142,1.078-0.485,2.006-1.036,2.82
		c-0.465,0.689-1.134,1.016-1.975,0.971c-0.638-0.036-1.236-0.225-1.77-0.555c-1.032-0.637-1.455-1.491-1.328-2.692
		c0.116-1.104,0.616-2.062,1.092-2.853c0.398-0.662,0.779-1.344,1.146-2.002c0.073-0.135,0.146-0.27,0.223-0.402
		c0.13,0.213,0.19,0.441,0.194,0.694c0,0.261,0,0.526,0,0.788C26.728,9.481,26.728,9.825,26.735,10.165z M28.518,17.901L27.756,38.6
		c-0.038-0.005-0.077-0.009-0.114-0.015l-0.055-0.007c-0.418-0.048-0.846-0.098-1.279-0.139c-0.077-2.378-0.159-4.907-0.254-7.722
		c-0.061-1.801-0.125-3.603-0.186-5.398c-0.039-1.239-0.082-2.471-0.125-3.705c-0.045-1.267-0.088-2.539-0.128-3.807v-0.021
		c0.438,0.14,0.899,0.237,1.407,0.291C27.523,18.136,28.013,18.081,28.518,17.901z M29.65,39.021
		c0.029-0.74,0.053-1.477,0.082-2.217l0.018-0.428c0.262,0.182,0.535,0.459,0.783,0.813c0.526,0.75,0.848,1.658,0.871,2.409
		C30.828,39.403,30.238,39.206,29.65,39.021z M24.32,36.068c0.009,0.275,0.019,0.556,0.026,0.831
		c0.017,0.495,0.032,1.004,0.052,1.51c-0.452,0.03-0.937,0.068-1.471,0.111c-0.138-0.285-0.324-0.549-0.574-0.807
		C22.972,36.956,23.612,36.417,24.32,36.068z M7.96,49.825c0.928,0,1.787,0.301,2.607,0.914c0.422,0.315,0.752,0.723,1.004,1.239
		c1.291,2.658,2.612,5.354,3.894,7.961c0.476,0.973,0.95,1.939,1.427,2.91c0.592,1.209,1.184,2.42,1.776,3.633l0.091,0.185
		l-1.535,0.002c-2.555,0.008-5.192,0.013-7.788,0.021c-0.648-1.6-1.304-3.226-1.942-4.795C7.21,61.195,6.929,60.497,6.646,59.8
		c-0.183-0.455-0.366-0.907-0.554-1.362c-0.513-1.268-1.047-2.574-1.554-3.865c-0.313-0.797-0.292-1.641,0.064-2.652
		c0.231-0.65,0.626-1.15,1.217-1.527c0.42-0.268,0.9-0.434,1.515-0.52C7.544,49.84,7.754,49.825,7.96,49.825z M46.547,49.302
		c0.299-0.239,0.525-0.5,0.676-0.771c0.592-1.084,0.932-2.254,1.258-3.389l0.025-0.08c0.061-0.221,0.123-0.438,0.188-0.656
		c0.255-0.902,0.521-1.836,0.845-2.721c0.389-1.07,0.981-2.085,1.76-3.018c0.563-0.673,1.257-1.083,2.065-1.229
		c0.55-0.098,1.121-0.164,1.675-0.232c0.123-0.018,0.244-0.032,0.362-0.046c0,1.383,0.002,2.763,0.002,4.146l0.005,2.229
		c0,0.69,0,1.381,0.002,2.071c0,1.121,0.004,2.24,0.004,3.365c0,2.164,0,4.329,0,6.494c0,2.063,0.002,4.124,0.002,6.186
		c0,1.142,0,2.279,0.004,3.421l0.004,1.509l-1.039,0.002c-1.428,0.005-2.897,0.011-4.35,0.02c-0.328-0.574-0.554-1.189-0.668-1.83
		c-0.24-1.34-0.546-2.549-0.931-3.697c-0.381-1.127-0.817-1.994-1.381-2.735c-0.494-0.644-1.127-1.071-1.93-1.299
		c-1.035-0.294-2.068-0.329-2.854-0.329c-0.269,0-0.539,0.002-0.808,0.007c0.447-2.258,0.359-4.512-0.264-6.72
		c0.243,0.012,0.489,0.02,0.733,0.021c0.67,0.021,1.363,0.043,2.045,0.047c0.029,0.004,0.063,0.004,0.092,0.004
		C45.096,50.07,45.908,49.818,46.547,49.302z M39.848,60.939c0.328-0.569,0.586-1.174,0.832-1.758
		c0.072-0.178,0.148-0.354,0.228-0.529c0.221-0.002,0.438-0.014,0.653-0.019c0.287-0.009,0.582-0.019,0.867-0.019
		c0.258,0,0.482,0.01,0.689,0.023c0.58,0.043,1.164,0.182,1.863,0.375c0.281,0.076,0.479,0.366,0.709,0.706l0.057,0.087
		c0.643,0.94,0.967,2.055,1.268,3.211c0.103,0.399,0.191,0.813,0.277,1.219c0.092,0.435,0.186,0.889,0.305,1.332
		c0.098,0.365,0.229,0.711,0.359,1.047H34C36.5,65.249,38.464,63.343,39.848,60.939z"/>
	<path fill="#A78627" d="M73.934,72.93c-0.149-0.062-0.328-0.095-0.531-0.095c-3.411,0.01-6.954,0.019-10.545,0.029
		c-2.104,0.01-4.209,0.017-6.313,0.024c-1.992,0.008-3.982,0.016-5.975,0.025c-2.406,0.004-4.814,0.014-7.219,0.023
		c-1.828,0.004-3.652,0.01-5.483,0.018c-3.197,0.01-6.395,0.021-9.592,0.031l-5.805,0.021c-2.236,0.008-4.473,0.02-6.709,0.025
		c-2.277,0.007-4.557,0.017-6.834,0.021L4.903,73.07H4.689H4.213c-0.296,0-0.616,0-0.941,0.012
		c-0.538,0.016-0.945,0.423-0.945,0.945c0,0.525,0.399,0.929,0.945,0.962c0.077,0.002,0.156,0.007,0.246,0.007
		c0.082,0,0.166-0.005,0.249-0.005c0.066-0.002,0.135-0.002,0.201-0.002l2.191-0.013c1.261,0,2.525-0.006,3.786-0.012
		c1.509-0.004,3.021-0.012,4.528-0.021c3.211-0.012,6.529-0.024,9.793-0.032c1.636-0.004,3.389-0.006,5.51-0.006
		c1.439,0,2.882,0.002,4.325,0.002c1.437,0,2.88,0,4.321,0h0.535v-0.071c0.551,0,1.102,0,1.656,0c1.607,0,3.216,0.001,4.826-0.005
		c3.345-0.004,6.688-0.017,10.035-0.029l3.146-0.011c3.557-0.011,7.11-0.023,10.668-0.04l3.112-0.007h0.201h0.229
		c0.213,0,0.457,0,0.703-0.008c0.467-0.012,0.838-0.319,0.93-0.762C74.553,73.54,74.334,73.1,73.934,72.93z"/>
	<path fill="#A78627" d="M25.382,59.766c-0.105-0.019-0.21-0.035-0.315-0.056c-0.14-0.022-0.284-0.047-0.431-0.069
		c0-0.002,0-0.002,0.004-0.008l0.125-0.018l-0.071-0.512c-0.03-0.217-0.058-0.429-0.087-0.641c-0.064-0.51-0.132-1.033-0.224-1.555
		c-0.099-0.551-0.325-1.034-0.677-1.428c-0.182-0.205-0.42-0.316-0.674-0.316c-0.125,0-0.252,0.025-0.373,0.08
		c-0.371,0.164-0.574,0.529-0.519,0.932c0.023,0.164,0.067,0.338,0.142,0.539c0.036,0.102,0.08,0.197,0.115,0.281
		c0.047,0.102,0.09,0.193,0.104,0.266c0.369,1.771,0.298,3.213-0.22,4.529c-0.033,0.088-0.074,0.195-0.095,0.318
		c-0.105,0.592,0.138,0.945,0.361,1.141c0.437,0.378,0.862,0.75,1.3,1.115c0.223,0.186,0.471,0.283,0.716,0.283
		c0.275,0,0.526-0.121,0.712-0.346c0.355-0.43,0.271-1.009-0.213-1.412c-0.118-0.099-0.24-0.199-0.358-0.3
		c-0.172-0.146-0.349-0.295-0.526-0.438c0.067-0.207,0.131-0.411,0.188-0.625c0.25,0.047,0.502,0.092,0.754,0.123
		c0.059,0.012,0.117,0.014,0.175,0.014c0.503,0,0.901-0.34,0.962-0.826C26.33,60.3,25.97,59.857,25.382,59.766z"/>
	<path fill="#A78627" d="M22.49,51.543c0.137,0.09,0.291,0.139,0.449,0.139c0.256,0,0.494-0.117,0.678-0.328
		c0.338-0.39,0.564-0.877,0.689-1.486c0.197-0.938,0.273-1.816,0.236-2.67c0.182-0.026,0.361-0.055,0.531-0.084l0.236-0.041
		c0.564-0.092,0.924-0.54,0.855-1.068c-0.061-0.492-0.457-0.832-0.961-0.832c-0.061,0-0.118,0.008-0.181,0.012
		c-0.238,0.039-0.49,0.08-0.753,0.131c-0.063-0.223-0.125-0.428-0.188-0.627c0.175-0.146,0.354-0.295,0.523-0.438
		c0.125-0.104,0.25-0.208,0.375-0.313c0.467-0.393,0.555-0.961,0.213-1.388c-0.186-0.233-0.442-0.36-0.729-0.36
		c-0.237,0-0.478,0.094-0.686,0.27c-0.218,0.177-0.431,0.363-0.639,0.54c-0.2,0.177-0.405,0.353-0.61,0.522
		c-0.436,0.36-0.57,0.862-0.381,1.403c0.038,0.109,0.079,0.214,0.123,0.312c0.063,0.149,0.12,0.289,0.145,0.404
		c0.146,0.795,0.285,1.637,0.204,2.477l-0.011,0.141c-0.065,0.682-0.123,1.322-0.43,1.878c-0.07,0.126-0.099,0.253-0.117,0.351
		l-0.234,0.255l0.268,0.354c0.02,0.023,0.039,0.051,0.053,0.076C22.222,51.28,22.322,51.434,22.49,51.543z"/>
</g>
</svg>
