<?xml version="1.0" encoding="utf-8"?>
<!-- Generator: Adobe Illustrator 16.0.0, SVG Export Plug-In . SVG Version: 6.00 Build 0)  -->
<!DOCTYPE svg PUBLIC "-//W3C//DTD SVG 1.1//EN" "http://www.w3.org/Graphics/SVG/1.1/DTD/svg11.dtd">
<svg version="1.1" id="Layer_1" xmlns="http://www.w3.org/2000/svg" xmlns:xlink="http://www.w3.org/1999/xlink" x="0px" y="0px"
	 width="77px" height="80px" viewBox="0 0 77 80" enable-background="new 0 0 77 80" xml:space="preserve">
<g>
	<path fill="#A78627" d="M71.248,64.002c-0.107-0.232-0.217-0.468-0.323-0.697c-0.319-0.711-0.653-1.44-1.034-2.14
		c-0.52-0.955-1.063-1.911-1.592-2.833c-0.438-0.768-0.89-1.561-1.326-2.34c-0.39-0.71-0.764-1.441-1.125-2.156
		c-0.182-0.354-0.363-0.705-0.543-1.055c-0.018-0.028-0.027-0.055-0.043-0.084c-0.011-0.016-0.021-0.036-0.031-0.053
		c0.062-0.156,0.049-0.302,0.043-0.393c0-0.013-0.002-0.023-0.002-0.036c0-0.155-0.004-0.311-0.004-0.471
		c-0.004-0.427-0.006-0.864-0.017-1.3c-0.015-0.647-0.03-1.297-0.048-1.946c-0.018-0.688-0.033-1.371-0.051-2.056
		c-0.008-0.442-0.014-0.897-0.021-1.34c-0.01-0.817-0.021-1.67-0.058-2.51c-0.057-1.268-0.146-2.383-0.268-3.408
		c-0.148-1.247-0.756-2.311-1.392-3.275c-0.502-0.764-1.177-1.33-1.828-1.877l-0.155-0.131c-0.537-0.454-1.093-0.898-1.631-1.334
		c-0.99-0.803-2.02-1.631-2.962-2.512c-0.944-0.887-1.94-1.732-2.907-2.554c-0.373-0.317-0.761-0.646-1.14-0.966
		c0.008-1.318-0.247-2.607-0.751-3.84c0.393-0.385,0.795-0.781,1.178-1.195c0.674-0.727,1.34-1.548,1.67-2.635
		c0.273-0.895,0.193-1.744-0.242-2.518c-0.59-1.047-1.594-1.506-2.295-1.758c-0.75-0.271-1.508-0.309-2.211-0.108
		c-0.015-0.052-0.029-0.103-0.043-0.151c-0.311-1.014-0.955-1.87-1.975-2.611c-0.711-0.52-1.463-0.785-2.236-0.785
		c-0.096,0-0.193,0.004-0.294,0.014c-0.028-0.078-0.062-0.159-0.104-0.247c-0.521-1.063-1.198-1.781-2.073-2.196
		c-1.121-0.529-2.247-0.652-3.329-0.357c-0.242-0.341-0.49-0.693-0.785-1.016c-0.497-0.547-1.089-0.941-1.756-1.171
		c-0.796-0.276-1.628-0.363-2.477-0.25c-0.667,0.085-1.36,0.237-1.956,0.669c-0.467-0.494-1.048-0.883-1.727-1.162
		c-0.7-0.289-1.396-0.438-2.069-0.438c-0.619,0-1.238,0.123-1.841,0.365c-0.728,0.295-1.384,0.781-2.058,1.523
		c-0.683,0.751-1.038,1.555-1.059,2.391c-0.016,0.697-0.022,1.379,0.116,2.041c0.151,0.717,0.365,1.42,0.574,2.096
		c0.074,0.246,0.15,0.493,0.22,0.739c0.034,0.113,0.071,0.232,0.086,0.304c-0.052,0.049-0.135,0.125-0.215,0.186l-0.023,0.023
		c-0.351,0.299-0.7,0.596-1.051,0.891c-1.215,1.029-2.473,2.092-3.685,3.172l-0.251,0.223c-0.979,0.869-1.992,1.769-3.035,2.587
		c-1.008,0.797-1.86,1.519-2.61,2.22c-1.172,1.087-1.933,2.476-2.261,4.116c-0.173,0.858-0.224,1.731-0.271,2.582l-0.01,0.112
		c-0.033,0.591-0.035,1.184-0.04,1.762c-0.002,0.308-0.005,0.621-0.012,0.934c-0.013,0.563-0.026,1.125-0.041,1.688
		c-0.017,0.563-0.032,1.128-0.044,1.693c-0.023,1.131-0.046,2.34-0.068,3.695l-0.002,0.08c-0.007,0.34-0.014,0.695,0.021,1.055
		c0.004,0.029,0.004,0.045,0.004,0.059c-0.178,0.32-0.353,0.648-0.519,0.955c-0.186,0.353-0.369,0.705-0.552,1.052
		c-0.375,0.717-0.762,1.454-1.157,2.17c-0.362,0.651-0.736,1.313-1.102,1.953c-0.491,0.864-0.998,1.758-1.477,2.647
		c-0.341,0.629-0.632,1.279-0.916,1.912c-0.092,0.211-0.186,0.426-0.283,0.637c-0.24,0.521-0.086,1,0.418,1.304
		c0.071,0.043,0.144,0.086,0.214,0.126l1.24,0.689c0.631,0.354,1.264,0.704,1.896,1.057l0.774,0.429
		c1.718,0.963,3.496,1.954,5.241,2.935c0.395,0.219,0.781,0.226,1.097,0.024c0.278-0.181,0.487-0.366,0.635-0.578
		c0.269-0.387,0.535-0.78,0.792-1.164c0.275-0.411,0.564-0.84,0.853-1.251c0.218-0.313,0.46-0.62,0.697-0.925
		c0.184-0.24,0.376-0.485,0.562-0.737c0.199-0.273,0.393-0.556,0.582-0.822c0.172-0.252,0.35-0.511,0.527-0.758
		c0.946-1.298,1.679-2.291,2.372-3.218c0.346-0.466,0.724-0.918,1.044-1.295c0.024-0.03,0.086-0.071,0.166-0.106
		c1.195-0.49,2.343-1.209,3.693-2.319c0.112,0.423,0.223,0.823,0.3,1.231l0.096,0.489c0.249,1.304,0.508,2.649,0.696,3.981
		c0.176,1.221,0.308,2.556,0.402,4.089c0.074,1.112,0.079,2.108,0.021,3.063c-0.065,1.092-0.171,2.207-0.272,3.285
		c-0.054,0.538-0.106,1.09-0.154,1.637c-0.171,1.988-0.044,3.613,0.407,5.117c0.35,1.162,0.728,2.006,1.226,2.734
		c0.919,1.354,2.298,2.32,4.209,2.965c1.193,0.402,2.484,0.59,4.062,0.59c0.056,0,0.11-0.004,0.164-0.004h0.17
		c0.608-0.002,1.237-0.009,1.854-0.143c1.693-0.364,3.09-1.172,4.142-2.397c0.507-0.591,0.983-1.179,1.416-1.754
		c1.591-2.124,2.146-4.582,2.454-6.485c0.119-0.74,0.114-1.494,0.109-2.224c-0.002-0.313-0.006-0.636,0.005-0.952
		c0-0.068-0.005-0.141-0.021-0.223l-0.111-0.692c-0.121-0.739-0.248-1.509-0.375-2.26c0.158,0.114,0.318,0.231,0.479,0.339
		l0.089,0.057c0.666,0.443,1.355,0.9,2.157,1.187c0.099,0.04,0.159,0.08,0.183,0.104c0.326,0.34,0.563,0.61,0.77,0.877
		c0.193,0.248,0.373,0.508,0.564,0.778c0.117,0.164,0.235,0.334,0.358,0.505c0.388,0.531,0.774,1.059,1.162,1.584
		c0.627,0.86,1.274,1.743,1.909,2.619c0.599,0.827,1.199,1.68,1.781,2.503l0.379,0.533c0.088,0.125,0.172,0.252,0.261,0.386
		c0.138,0.211,0.282,0.428,0.448,0.641c0.24,0.312,0.57,0.486,0.93,0.486c0.214,0,0.436-0.063,0.652-0.183l6.158-3.437
		c1.045-0.584,2.092-1.172,3.139-1.756C71.313,65.01,71.488,64.521,71.248,64.002z M44.555,71.301
		c-0.804,0.922-1.894,1.397-2.852,1.74c-0.656,0.236-1.337,0.266-1.855,0.266c-0.295,0-0.598-0.014-0.895-0.022l-0.108-0.004
		c-1.654-0.058-3.065-0.443-4.312-1.164c-1-0.584-1.721-1.405-2.2-2.511c-0.7-1.61-0.962-3.342-0.8-5.28
		c0.119-1.438,0.251-2.896,0.377-4.31l0.073-0.817c0.121-1.354,0.063-2.681-0.063-4.257l-0.03-0.373
		c-0.053-0.656-0.105-1.338-0.193-2.012c-0.111-0.82-0.251-1.652-0.39-2.451c-0.032-0.188-0.062-0.371-0.095-0.555
		c-0.024-0.148-0.051-0.301-0.075-0.453c-0.12-0.709-0.241-1.445-0.392-2.162l-0.049-0.242c-0.145-0.696-0.296-1.42-0.581-2.116
		c0.548-0.541,0.964-1.167,1.299-1.713c0.292-0.478,0.6-0.953,0.894-1.415l0.014-0.016c0.513-0.799,0.884-1.656,1.249-2.541
		l0.03-0.078c0.515-1.25,1.049-2.543,1.563-3.828c0.268-0.662,0.337-1.361,0.215-2.08c-0.143-0.819-0.608-1.488-1.428-2.047
		c-0.719-0.49-1.54-0.709-2.171-0.844c-0.155-0.033-0.308-0.049-0.457-0.049c-0.608,0-1.179,0.252-1.752,0.771
		c-0.522,0.476-0.883,1.044-1.237,1.589c-0.089,0.142-0.179,0.28-0.271,0.418c-0.135,0.199-0.274,0.396-0.416,0.594
		c-0.086-0.389-0.173-0.781-0.251-1.167c-0.453-2.226-0.553-4.54-0.64-6.586c-0.013-0.297-0.027-0.593-0.043-0.892
		c-0.034-0.703-0.069-1.431-0.079-2.138c-0.009-0.712,0.095-1.446,0.319-2.243c0.592-2.096,0.72-4.029,0.396-5.902
		c-0.094-0.525-0.243-1.034-0.387-1.525c-0.047-0.152-0.09-0.303-0.131-0.452c-0.058-0.195-0.12-0.386-0.186-0.569
		c-0.103-0.301-0.196-0.584-0.245-0.864c-0.092-0.556-0.139-1.155-0.135-1.786c0-0.472,0.223-0.904,0.741-1.452
		c0.548-0.575,1.185-0.919,1.949-1.056c0.316-0.057,0.649-0.027,1.114,0.09c1.156,0.289,1.862,0.882,2.224,1.858
		c0.193,0.525,0.328,1.036,0.403,1.556c0.017,0.113,0.034,0.227,0.051,0.344c0.117,0.797,0.239,1.627,0.483,2.438
		c0.366,1.204,1.087,2.253,2.146,3.123c0.456,0.38,0.979,0.655,1.479,0.922c0.131,0.066,0.263,0.137,0.396,0.211
		c1.024,0.564,2.215,0.959,3.745,1.252c0.438,0.078,0.875,0.157,1.302,0.233c0.918,0.163,1.864,0.331,2.776,0.536
		c1.402,0.316,2.396,0.723,3.223,1.316c0.521,0.376,0.938,0.842,1.278,1.427c0.727,1.247,1.146,2.47,1.28,3.743
		c0.021,0.217,0.024,0.443,0.027,0.634v0.036c0.008,1.193,0.018,2.32-0.174,3.448c-0.087,0.519-0.174,1.032-0.26,1.553
		c-0.188,1.132-0.381,2.303-0.59,3.45c-0.27,1.477-0.572,2.956-0.889,4.465c-0.15,0.725-0.316,1.465-0.477,2.176
		c-0.1,0.437-0.197,0.869-0.292,1.306c-0.013,0.055-0.022,0.114-0.036,0.168c-0.212-0.291-0.438-0.585-0.693-0.851
		c-0.527-0.547-1.156-0.834-1.822-0.834c-0.305,0-0.616,0.058-0.93,0.174c-0.119,0.047-0.242,0.09-0.371,0.134
		c-0.298,0.102-0.604,0.206-0.902,0.358c-1.54,0.791-2.176,2.122-1.783,3.754c0.18,0.744,0.479,1.471,0.744,2.109
		c0.556,1.346,1.144,2.676,1.645,3.807c0.176,0.396,0.398,0.767,0.598,1.078l0.072,0.111c0.432,0.697,0.883,1.414,1.357,2.109
		c0.186,0.268,0.396,0.5,0.6,0.732c0.106,0.118,0.209,0.231,0.307,0.35c0.011,0.017,0.045,0.059,0.063,0.084
		c0.062,0.344,0.122,0.687,0.185,1.028c0.205,1.128,0.414,2.294,0.58,3.439c0.178,1.253,0.201,2.45,0.067,3.563
		c-0.036,0.293-0.114,0.594-0.19,0.877l-0.103,0.377c-0.17,0.645-0.346,1.301-0.549,1.938c-0.327,1.043-0.896,2.035-1.787,3.115
		c-0.087,0.104-0.17,0.209-0.253,0.314C44.85,70.947,44.704,71.126,44.555,71.301z M27.287,44.609
		c-0.717,0.625-1.529,1.135-2.52,1.699L24.75,46.32c-0.037,0.022-0.099,0.057-0.12,0.063c-0.945,0.216-1.521,0.888-1.988,1.502
		c-0.402,0.529-0.794,1.08-1.173,1.608c-0.243,0.342-0.494,0.693-0.745,1.033c-0.341,0.471-0.696,0.943-1.036,1.4
		c-0.194,0.26-0.388,0.518-0.581,0.778c-0.376-0.204-0.757-0.401-1.134-0.604l-1.657-0.877c-2.01-1.07-4.022-2.141-6.031-3.205
		c0.063-0.121,0.128-0.232,0.195-0.348c0.894-1.46,1.755-3.068,2.713-5.049c0.296-0.624,0.447-1.25,0.453-1.922
		c0.015-1.455,0.047-2.93,0.081-4.36c0.009-0.477,0.018-0.948,0.027-1.423c0.008-0.406,0.015-0.813,0.024-1.218
		c0.018-1.074,0.035-2.187,0.079-3.271c0.03-0.781,0.127-1.566,0.229-2.375c0.038-0.285,0.145-0.594,0.236-0.83
		c0.448-1.162,1.173-2.148,2.151-2.93l0.154-0.124c1.025-0.813,2.079-1.655,3.095-2.517c0.517-0.439,1.021-0.899,1.51-1.344
		c0.401-0.365,0.818-0.745,1.233-1.104c0.887-0.772,1.799-1.54,2.682-2.286c0.15-0.129,0.302-0.254,0.45-0.384
		c-0.01,0.641-0.069,1.277-0.183,1.897C25.36,18.715,25.3,19,25.238,19.282c-0.021,0.103-0.043,0.209-0.067,0.318l-0.062,0.29
		c-0.101,0.496-0.209,1.005-0.318,1.503c-0.006,0.021-0.013,0.04-0.016,0.048c-0.224,0.255-0.451,0.509-0.676,0.769
		c-0.618,0.701-1.261,1.428-1.92,2.105c-0.922,0.938-1.248,2.063-1.009,3.438c0.079,0.456,0.171,0.916,0.261,1.361
		c0.079,0.415,0.165,0.843,0.24,1.262c0.047,0.279,0.085,0.553,0.12,0.842c0.032,0.256,0.064,0.519,0.108,0.775
		c0.022,0.132,0.043,0.26,0.063,0.387c0.101,0.619,0.202,1.252,0.357,1.879c0.116,0.464,0.315,0.953,0.598,1.445
		c0.422,0.742,1.154,1.016,1.884,1.203c1.009,0.255,1.906,0.102,2.611-0.441c0.423-0.328,0.818-0.73,1.184-1.205
		c0.328-0.432,0.633-0.878,0.924-1.31c0.188-0.276,0.382-0.56,0.573-0.833c0.273-0.387,0.514-0.698,0.777-0.977
		c0.247-0.262,0.434-0.262,0.497-0.262c0.078,0,0.165,0.021,0.257,0.062c0.156,0.06,0.313,0.119,0.467,0.173
		c0.237,0.082,0.457,0.166,0.669,0.265c0.104,0.046,0.221,0.147,0.344,0.253l0.061,0.055c0.323,0.28,0.427,0.631,0.33,1.111
		c-0.077,0.369-0.207,0.775-0.385,1.199c-0.708,1.695-1.43,3.369-2.046,4.783c-0.071,0.168-0.182,0.338-0.295,0.52
		c-0.027,0.041-0.056,0.084-0.084,0.127L30.68,40.45c-0.375,0.599-0.767,1.225-1.159,1.829c-0.574,0.884-1.366,1.57-2.199,2.297
		L27.287,44.609z M9.349,49.689c0.572,0.304,1.146,0.61,1.72,0.914l1.356,0.717c1.762,0.938,3.521,1.873,5.288,2.809l0.257,0.137
		c-0.04,0.059-0.084,0.117-0.122,0.18c-0.652,0.937-1.285,1.854-1.907,2.769c-2.387-1.335-4.979-2.784-8.124-4.53
		C8.304,51.611,8.85,50.589,9.349,49.689z M26.086,35.035c-0.122,0.043-0.253,0.066-0.399,0.066l0,0
		c-0.167,0-0.357-0.03-0.581-0.083c-0.506-0.124-0.785-0.458-0.904-1.088c-0.12-0.639-0.223-1.296-0.323-1.935
		c-0.074-0.48-0.149-0.98-0.235-1.473c-0.145-0.816-0.311-1.641-0.47-2.436l-0.067-0.344c-0.081-0.395-0.099-0.82-0.061-1.299
		c0.017-0.2,0.155-0.369,0.379-0.621c0.437-0.493,0.896-0.988,1.344-1.47c0.025,0.468,0.053,0.94,0.083,1.407
		c0.024,0.412,0.051,0.82,0.074,1.23c0.068,1.12,0.138,2.281,0.261,3.427C25.336,31.82,25.623,33.29,26.086,35.035z M40.885,9.933
		c0.26-0.031,0.537-0.015,0.917,0.045c0.979,0.161,1.638,0.739,2.074,1.817c0.165,0.411,0.169,0.879,0.006,1.477
		c-0.151,0.562-0.423,1.104-0.803,1.619c-0.293,0.393-0.611,0.786-0.922,1.166c-0.164,0.205-0.337,0.417-0.503,0.629l-0.116-0.025
		c-0.742-0.16-1.448-0.309-2.126-0.547c0.141-0.197,0.285-0.4,0.417-0.611C40.995,13.613,41.346,11.785,40.885,9.933z
		 M52.945,17.227c0.207,0.341,0.242,0.682,0.106,1.112c-0.215,0.684-0.676,1.235-1.126,1.745c-0.249,0.277-0.51,0.538-0.783,0.814
		c-0.502-0.851-1.201-1.551-2.113-2.126c0.479-0.646,0.945-1.364,1.117-2.222c0.006-0.043,0.016-0.064,0.021-0.074
		c0.008-0.005,0.028-0.018,0.082-0.037c0.291-0.104,0.569-0.156,0.831-0.156c0.328,0,0.637,0.08,0.941,0.246l0.015,0.006
		C52.421,16.743,52.754,16.922,52.945,17.227z M53.802,37.46c0.21,0.241,0.216,0.536,0.156,1.072
		c-0.044,0.365-0.116,0.732-0.196,1.113c-0.052,0.263-0.107,0.531-0.152,0.799c-0.082,0.486-0.154,0.979-0.229,1.455
		c-0.107,0.719-0.22,1.461-0.35,2.184c-0.021,0.113-0.039,0.225-0.059,0.338c-0.08,0.473-0.152,0.918-0.34,1.318
		c-0.132,0.287-0.298,0.449-0.557,0.541c-0.213,0.076-0.485,0.166-0.74,0.166c-0.109,0-0.212-0.019-0.311-0.049
		c-0.182-0.062-0.34-0.146-0.437-0.238c-0.25-0.239-0.478-0.512-0.72-0.795c-0.037-0.043-0.072-0.086-0.105-0.127
		c0.002-0.047,0.004-0.09,0.01-0.131c0.024-0.334,0.053-0.647,0.115-0.949c0.141-0.678,0.291-1.367,0.442-2.037
		c0.14-0.643,0.286-1.314,0.426-1.975c0.235-1.134,0.462-2.279,0.685-3.393c0.094-0.469,0.187-0.943,0.281-1.414
		c0.012-0.057,0.021-0.114,0.033-0.172c0.278,0.297,0.546,0.586,0.813,0.881c0.306,0.339,0.613,0.693,0.91,1.037
		C53.587,37.21,53.693,37.336,53.802,37.46z M48.092,16.67c-0.212,0.449-0.49,0.872-0.832,1.259
		c-1.139-0.431-2.313-0.667-3.473-0.86c0.059-0.077,0.117-0.148,0.17-0.227c0.357-0.462,0.725-0.941,1.051-1.446
		c0.525-0.8,0.819-1.655,0.881-2.553c0.5,0.045,0.91,0.224,1.252,0.538c0.323,0.297,0.653,0.626,0.887,0.99
		C48.469,15.07,48.49,15.822,48.092,16.67z M38.814,13.277c-0.258,0.705-0.656,1.325-1.177,2.004
		c-0.035-0.023-0.075-0.04-0.112-0.063c-0.348-0.184-0.673-0.36-0.936-0.579c-0.757-0.645-1.246-1.336-1.498-2.117
		c-0.232-0.726-0.341-1.471-0.453-2.256l-0.04-0.283c-0.11-0.759-0.271-1.383-0.494-1.943c0.412-0.364,0.963-0.409,1.543-0.457
		l0.064-0.005h0.019c1.02,0,1.776,0.344,2.379,1.076C39.219,10.01,39.453,11.521,38.814,13.277z M47.393,53.488l-0.035-0.055
		c-1.088-1.597-1.965-3.271-2.607-4.983c-0.174-0.468-0.366-0.935-0.552-1.384c-0.201-0.485-0.407-0.988-0.593-1.486
		c-0.082-0.23-0.125-0.52-0.121-0.869c0.007-0.391,0.219-0.703,0.635-0.922c0.455-0.247,0.98-0.412,1.482-0.564
		c0.029-0.008,0.058-0.014,0.088-0.014c0.125,0,0.276,0.092,0.416,0.252c0.314,0.36,0.629,0.77,0.987,1.297
		c0.063,0.094,0.124,0.188,0.187,0.279c0.546,0.805,1.113,1.641,1.83,2.367c0.623,0.627,1.356,0.941,2.195,0.941
		c0.389,0,0.799-0.066,1.25-0.205c1.139-0.345,1.85-1.188,2.115-2.507c0.141-0.709,0.252-1.429,0.359-2.129
		c0.068-0.461,0.144-0.938,0.225-1.401c0.116-0.672,0.253-1.357,0.387-2.021c0.045-0.238,0.096-0.479,0.141-0.723
		c0.107-0.537,0.13-1.108,0.07-1.799c-0.066-0.797-0.562-1.35-0.92-1.758c-0.527-0.592-1.07-1.18-1.6-1.746
		c-0.244-0.267-0.491-0.531-0.736-0.799c-0.16-0.177-0.294-0.324-0.41-0.459c0.043-0.273,0.084-0.547,0.131-0.816
		c0.086-0.547,0.18-1.109,0.254-1.666c0.063-0.436,0.115-0.865,0.164-1.311l0.311,0.265c0.671,0.579,1.367,1.179,2.046,1.765
		c0.388,0.339,0.771,0.674,1.154,1.012c0.612,0.539,1.249,1.103,1.884,1.641c0.444,0.377,0.896,0.752,1.342,1.111
		c0.514,0.416,1.038,0.85,1.545,1.287c0.988,0.852,1.617,1.94,1.868,3.229c0.193,0.996,0.24,2.066,0.271,3.071
		c0.049,1.512,0.07,3.049,0.094,4.534c0.008,0.763,0.021,1.526,0.036,2.287c0.017,0.931,0.04,1.921,0.077,3.222
		c0.016,0.422,0.125,0.834,0.346,1.308c0.941,1.995,1.863,3.718,2.811,5.263c0.056,0.098,0.111,0.197,0.17,0.307
		c0.011,0.015,0.019,0.034,0.027,0.049c-0.604,0.314-1.205,0.638-1.793,0.951c-0.295,0.16-0.594,0.314-0.893,0.476l-1.574,0.835
		c-1.496,0.795-3.039,1.615-4.559,2.427c-0.361-0.498-0.73-0.991-1.088-1.47c-0.295-0.389-0.597-0.797-0.889-1.19
		c-0.208-0.286-0.417-0.581-0.62-0.86c-0.297-0.426-0.606-0.861-0.933-1.283c-0.219-0.285-0.467-0.536-0.71-0.775
		c-0.085-0.09-0.175-0.18-0.261-0.268c-0.102-0.107-0.237-0.189-0.383-0.236c-0.842-0.264-1.563-0.761-2.332-1.285l-0.216-0.146
		c-0.856-0.583-1.601-1.322-2.35-2.095C47.852,54.163,47.628,53.834,47.393,53.488z M59.023,65.605l8.611-4.578l0.258,0.502
		c0.42,0.815,0.852,1.656,1.271,2.488l-1.938,1.086c-1.604,0.896-3.209,1.791-4.816,2.688c-0.184,0.103-0.372,0.204-0.557,0.308
		c-0.26,0.146-0.525,0.293-0.793,0.442c-0.435-0.649-0.91-1.365-1.386-2.053c-0.187-0.277-0.391-0.541-0.583-0.794
		C59.07,65.664,59.045,65.635,59.023,65.605z"/>
	<path fill="#A78627" d="M39.152,21.735c0.232,0.099,0.438,0.169,0.637,0.216c0.209,0.045,0.417,0.088,0.615,0.127
		c0.223,0.045,0.432,0.09,0.64,0.138c0.88,0.212,1.672,0.407,2.462,0.619c0.137,0.036,0.275,0.071,0.413,0.105
		c0.549,0.146,1.069,0.278,1.558,0.485l0.041,0.019c0.625,0.269,1.219,0.52,1.534,1.058c0.052,0.096,0.12,0.154,0.154,0.189
		l0.002,0.002c0.246,0.257,0.504,0.309,0.676,0.309c0.118,0,0.24-0.023,0.354-0.071c0.347-0.155,0.547-0.483,0.525-0.886
		c-0.01-0.512-0.281-0.993-0.771-1.354c-0.929-0.694-1.839-1.151-2.777-1.399c-0.549-0.146-1.106-0.275-1.646-0.406
		c-0.182-0.041-0.358-0.085-0.541-0.128c-1.096-0.265-2.19-0.524-3.284-0.786c-0.081-0.016-0.16-0.027-0.24-0.027
		c-0.401,0-0.745,0.239-0.877,0.615C38.458,21.037,38.679,21.532,39.152,21.735z"/>
	<path fill="#A78627" d="M41.273,69.553c-0.055,0-0.112,0.006-0.174,0.016c-0.166,0.023-0.336,0.056-0.511,0.095
		c-0.563,0.125-1.089,0.188-1.596,0.188c-0.775,0-1.487-0.146-2.172-0.443c-0.221-0.1-0.441-0.18-0.653-0.258l-0.075-0.025
		c-0.131-0.047-0.261-0.068-0.396-0.068c-0.424,0-0.782,0.227-0.915,0.574c-0.178,0.473,0.107,1.053,0.624,1.271
		c0.067,0.033,0.137,0.06,0.204,0.082l0.064,0.026c0.056,0.021,0.11,0.044,0.169,0.064c0.109,0.041,0.213,0.077,0.309,0.123
		c0.809,0.352,1.68,0.549,2.459,0.549c0.03,0,0.064,0,0.095,0c0.055,0,0.108,0,0.156,0c1.176,0,1.674-0.072,2.426-0.342
		c0.131-0.048,0.262-0.107,0.394-0.187c0.506-0.305,0.553-0.762,0.432-1.09C41.98,69.771,41.664,69.553,41.273,69.553z"/>
	<path fill="#A78627" d="M25.692,38.301c-0.104,0.005-0.194,0.021-0.273,0.035h-0.017c-0.181,0.033-0.361,0.049-0.535,0.049
		c-0.52,0-0.996-0.133-1.451-0.41c-0.296-0.175-0.598-0.329-0.889-0.473l-0.098-0.053c-0.169-0.084-0.338-0.128-0.501-0.128
		c-0.306,0-0.575,0.151-0.741,0.414c-0.268,0.429-0.145,0.942,0.304,1.256c0.335,0.233,0.681,0.446,0.985,0.631
		c0.721,0.442,1.502,0.683,2.331,0.714h0.053l0.052-0.007c0.105-0.02,0.206-0.034,0.31-0.048c0.255-0.042,0.516-0.082,0.779-0.146
		c0.491-0.115,0.785-0.582,0.685-1.086C26.594,38.588,26.179,38.277,25.692,38.301z"/>
	<path fill="#A78627" d="M51.365,51.625c0.221,0.083,0.443,0.139,0.623,0.184c0.063,0.017,0.121,0.032,0.179,0.047l0.103,0.029
		l0.103-0.014c1.664-0.206,2.836-0.795,3.694-1.859c0.357-0.449,0.332-1.01-0.069-1.361c-0.179-0.159-0.401-0.248-0.626-0.248
		c-0.296,0-0.573,0.144-0.775,0.396c-0.408,0.506-0.972,0.852-1.717,1.049c-0.221,0.059-0.383,0.082-0.531,0.082
		c-0.117,0-0.229-0.018-0.334-0.053c-0.107-0.038-0.215-0.057-0.322-0.057c-0.385,0-0.725,0.242-0.86,0.607
		C50.646,50.916,50.882,51.443,51.365,51.625z"/>
</g>
</svg>
