<?xml version="1.0" encoding="utf-8"?>
<!-- Generator: Adobe Illustrator 16.0.0, SVG Export Plug-In . SVG Version: 6.00 Build 0)  -->
<!DOCTYPE svg PUBLIC "-//W3C//DTD SVG 1.1//EN" "http://www.w3.org/Graphics/SVG/1.1/DTD/svg11.dtd">
<svg version="1.1" id="Layer_1" xmlns="http://www.w3.org/2000/svg" xmlns:xlink="http://www.w3.org/1999/xlink" x="0px" y="0px"
	 width="77px" height="80px" viewBox="0 0 77 80" enable-background="new 0 0 77 80" xml:space="preserve">
<g>
	<path fill="#A78627" d="M35.311,66.042c-0.058-1.054-0.273-2.074-0.479-3.065c-0.099-0.463-0.196-0.941-0.277-1.412
		c-0.073-0.42-0.152-0.849-0.229-1.26c-0.239-1.263-0.481-2.568-0.545-3.859c-0.028-0.699-0.065-1.412-0.099-2.096
		c-0.052-1.004-0.105-2.045-0.145-3.062c-0.071-1.785-0.024-3.656,0.147-5.72c0.129-1.588,0.255-3.196,0.379-4.758
		c0.054-0.684,0.108-1.367,0.16-2.051c0.024-0.307,0.05-0.611,0.074-0.919c0.056-0.724,0.114-1.47,0.178-2.2
		c0.024-0.261,0.056-0.527,0.086-0.788c0.043-0.338,0.086-0.687,0.11-1.036c0.038-0.564,0.068-1.135,0.096-1.689
		c0.031-0.564,0.062-1.154,0.102-1.729c0.125-1.79,0.135-3.402,0.027-4.928c-0.102-1.455-0.342-2.942-0.73-4.551
		c-0.236-0.966-0.535-1.927-0.826-2.856c-0.094-0.31-0.192-0.621-0.287-0.933c-0.268-0.883-0.43-1.625-0.359-2.385
		c0.112-1.18,0.227-2.125,0.351-2.982c0.245-1.67,0.066-3.024-0.563-4.258c-0.48-0.954-1.171-1.742-2.11-2.417
		c-0.643-0.464-1.414-0.687-2.358-0.687c-0.259,0-0.53,0.016-0.843,0.051c-1.465,0.154-2.67,0.896-3.484,2.146
		c-0.15-0.083-0.306-0.162-0.48-0.222c-0.427-0.146-0.884-0.219-1.354-0.219c-0.385,0-0.778,0.046-1.203,0.144
		c-1.699,0.381-2.963,1.396-3.754,3.017c0,0.006-0.005,0.008-0.007,0.012c-0.006,0-0.016,0-0.022,0l-0.055-0.004
		c-0.048-0.002-0.108-0.01-0.172-0.01c-0.074,0-0.144,0.008-0.21,0.02c-0.131,0.023-0.263,0.045-0.394,0.066
		c-0.399,0.063-0.808,0.133-1.214,0.264c-0.416,0.129-0.845,0.355-1.233,0.654c-0.807,0.613-1.31,1.423-1.5,2.408
		c-0.149,0.01-0.287,0.037-0.412,0.063c-1.259,0.253-2.267,0.986-3.167,2.303c-0.372,0.543-0.568,1.156-0.583,1.827
		c-0.235-0.013-0.477-0.023-0.716-0.013c-1.297,0.047-2.331,0.527-3.073,1.429c-0.575,0.696-0.834,1.464-0.781,2.286
		c0.065,1.004,0.324,1.837,0.786,2.553c0.746,1.155,1.623,1.945,2.676,2.408c-0.009,0.074-0.021,0.143-0.029,0.219
		c-0.072,0.477-0.143,0.967-0.169,1.467c-0.096,1.844,0.343,3.599,0.782,5.07l0.07,0.23c0.387,1.293,0.785,2.625,1.214,3.927
		c0.543,1.651,1.071,3.171,1.613,4.645c0.18,0.489,0.392,0.967,0.592,1.436c0.18,0.408,0.362,0.83,0.523,1.248
		c0.243,0.643,0.45,1.313,0.653,1.961c0.041,0.139,0.085,0.275,0.133,0.414c0.136,0.447,0.282,0.895,0.422,1.34
		c0.406,1.264,0.822,2.563,1.182,3.854c0.328,1.185,0.611,2.453,0.858,3.879c0.21,1.183,0.19,2.371,0.17,3.633
		c-0.005,0.234-0.011,0.468-0.013,0.701c-0.002,0.263-0.009,0.531-0.015,0.791c-0.017,0.74-0.034,1.502,0.023,2.264
		c0.169,2.273,0.605,4.227,1.333,5.975c0.515,1.243,1.063,2.229,1.729,3.1c1.437,1.883,3.268,3.101,5.437,3.625
		c0.65,0.156,1.315,0.229,2.032,0.229c0.518,0,1.05-0.039,1.628-0.118c1.464-0.205,2.85-0.689,4.128-1.436
		c0.925-0.545,1.69-1.237,2.429-1.913c0.715-0.646,1.19-1.433,1.418-2.315c0.025-0.098,0.049-0.199,0.077-0.3
		c0.132-0.493,0.264-1.008,0.313-1.541c0.053-0.543,0.015-1.077-0.019-1.594C35.325,66.261,35.315,66.148,35.311,66.042z
		 M24.279,73.605c-0.007,0-0.013,0-0.018,0c-1.836-0.379-3.265-1.18-4.37-2.446c-1.466-1.679-2.406-3.806-2.874-6.496l-0.044-0.236
		c-0.101-0.584-0.198-1.139-0.229-1.694c-0.033-0.67-0.024-1.365-0.023-2.03c0.005-0.233,0.005-0.468,0.005-0.702l0.058-0.002
		l-0.016-0.531c-0.008-0.354-0.018-0.711-0.027-1.066c-0.02-0.795-0.041-1.616-0.08-2.428c-0.064-1.317-0.377-2.592-0.678-3.822
		c-0.047-0.19-0.097-0.381-0.142-0.569c-0.398-1.67-0.959-3.325-1.455-4.789c-0.163-0.489-0.318-1.017-0.485-1.658
		c-0.315-1.196-0.74-2.352-1.271-3.44c-0.51-1.051-0.958-2.165-1.329-3.314c-0.5-1.549-0.878-2.73-1.225-3.832
		c-0.078-0.257-0.162-0.516-0.246-0.77c-0.244-0.767-0.498-1.56-0.71-2.342c-0.481-1.779-0.863-3.693-0.408-5.639
		c0.099-0.419,0.218-0.899,0.42-1.291c0.125-0.245,0.322-0.476,0.531-0.719c0.079-0.097,0.163-0.191,0.243-0.291
		c0.072-0.09,0.156-0.18,0.242-0.271c0.066-0.07,0.137-0.141,0.206-0.218c0.388-0.442,0.871-0.817,1.43-1.108
		c0.873-0.467,1.71-0.842,2.562-1.145c1.135-0.402,2.291-0.846,3.525-1.357c1.083-0.444,2.183-1.056,3.467-1.923
		c1.438-0.978,2.375-2.243,2.775-3.769c0.132-0.493,0.175-0.994,0.216-1.479c0.012-0.128,0.021-0.261,0.037-0.388
		c0.035-0.4,0.069-0.801,0.1-1.191c0.043-0.51,0.087-1.038,0.145-1.551c0.044-0.402,0.734-1.668,1.053-1.929
		c0.828-0.684,1.494-0.923,2.236-0.808c0.081,0.013,0.159,0.015,0.233,0.011c0.558-0.054,1.044,0.149,1.662,0.706
		c0.79,0.706,1.265,1.604,1.412,2.674c0.065,0.455,0.012,0.949-0.043,1.469c-0.01,0.107-0.021,0.219-0.034,0.33
		c-0.045,0.484-0.103,0.984-0.165,1.463c-0.062,0.521-0.129,1.057-0.174,1.589c-0.104,1.142,0.164,2.226,0.471,3.224
		c0.065,0.207,0.131,0.412,0.193,0.617c0.311,0.998,0.633,2.029,0.872,3.051c0.243,1.036,0.433,2.155,0.602,3.522
		c0.153,1.233,0.184,2.55,0.099,4.028c-0.029,0.512-0.067,1.035-0.108,1.543c-0.063,0.813-0.129,1.653-0.153,2.488
		c-0.024,0.921-0.126,1.859-0.221,2.767c-0.076,0.704-0.153,1.429-0.197,2.151c-0.11,1.764-0.253,3.561-0.396,5.293
		c-0.081,0.987-0.165,2.01-0.24,3.019c-0.117,1.572-0.147,3.258-0.09,5.157c0.039,1.158,0.08,2.522,0.147,3.89
		c0.12,2.369,0.521,4.639,0.899,6.547c0.229,1.168,0.494,2.557,0.701,3.977c0.112,0.766,0.193,1.588,0.037,2.383
		c-0.236,1.191-0.659,2.025-1.328,2.625c-0.606,0.541-1.236,1.104-1.957,1.52c-1.024,0.594-2.077,0.972-3.214,1.15
		c-0.555,0.09-1.064,0.135-1.553,0.135l0,0c-0.342,0-0.679-0.021-1.001-0.065C24.329,73.614,24.305,73.609,24.279,73.605z
		 M7.374,23.7c-0.227-0.135-0.438-0.263-0.62-0.412c-0.828-0.676-1.3-1.446-1.444-2.354c-0.166-1.058,0.436-1.886,1.497-2.063
		c0.279-0.047,0.519-0.068,0.739-0.068c0.264,0,0.5,0.032,0.721,0.094c0.291,0.842,0.709,1.588,1.242,2.227
		c0.007,0.004,0.013,0.015,0.02,0.021c-0.203,0.197-0.408,0.395-0.605,0.6c-0.17,0.176-0.335,0.357-0.49,0.532
		c-0.118,0.128-0.235,0.263-0.356,0.391C7.766,22.995,7.537,23.337,7.374,23.7z M18.503,16.948c-0.626,0.342-1.329,0.704-2.084,0.99
		c-1.015-0.877-1.74-1.837-2.209-2.93c-0.328-0.758-0.398-1.392-0.226-2.005c0.229-0.794,0.696-1.294,1.437-1.529
		c0.299-0.095,0.622-0.144,0.965-0.196C16.27,13.427,16.978,15.329,18.503,16.948z M22.459,11.858
		c-0.037,1.4-0.498,2.502-1.41,3.355c-0.045,0.045-0.089,0.089-0.136,0.131c-0.239,0.227-0.468,0.441-0.725,0.602
		c-0.001-0.002-0.009-0.007-0.011-0.011c-0.557-0.609-1.077-1.185-1.401-1.884c-0.36-0.773-0.461-1.605-0.514-2.397
		c0.083-1.489,0.722-2.532,1.95-3.191c0.713-0.384,1.465-0.491,2.203-0.321c0.12,0.026,0.266,0.107,0.416,0.199
		C22.521,9.542,22.488,10.766,22.459,11.858z M13.79,18.926c-0.831,0.273-1.697,0.649-2.642,1.142
		c-0.788-0.823-1.218-1.813-1.311-3.016c-0.022-0.31,0.056-0.592,0.235-0.86c0.609-0.899,1.228-1.374,2.003-1.538
		c0.006,0,0.007,0,0.01,0c0.39,1.491,1.163,2.818,2.344,4.027C14.213,18.771,14.001,18.855,13.79,18.926z"/>
	<path fill="#A78627" d="M73.586,19.804c-0.25-1.367-1.568-2.58-3.061-2.812c-0.344-0.056-0.713-0.104-1.1-0.104
		c-0.121,0-0.242,0.002-0.357,0.015c-0.021-0.571-0.162-1.095-0.43-1.563c-0.373-0.648-0.875-1.224-1.494-1.707
		c-0.699-0.545-1.449-0.844-2.237-0.888c-0.076-0.374-0.205-0.806-0.443-1.218c-0.685-1.171-1.746-1.874-3.159-2.086
		c-0.426-0.065-0.853-0.074-1.178-0.074h-0.002c-0.395-0.858-0.967-1.578-1.716-2.141c-0.726-0.549-1.601-0.895-2.603-1.027
		c-0.918-0.119-1.676-0.015-2.353,0.318c-0.052,0.023-0.097,0.049-0.142,0.078c-0.367-0.569-0.808-1.01-1.348-1.345
		c-0.617-0.389-1.461-0.831-2.486-0.831c-0.115,0-0.228,0.006-0.346,0.014l-0.04,0.002c-0.122,0.014-0.229,0.025-0.329,0.021
		c-0.75-0.049-1.471,0.175-2.201,0.684c-0.99,0.69-1.726,1.583-2.18,2.649c-0.307,0.73-0.613,1.605-0.545,2.576
		c0.055,0.773,0.137,1.553,0.217,2.303l0.041,0.378c0.023,0.254,0.059,0.505,0.088,0.747c0.051,0.385,0.096,0.744,0.119,1.109
		c0.059,0.813-0.158,1.605-0.402,2.341c-0.483,1.47-0.983,3.048-1.297,4.704c-0.311,1.65-0.621,3.615-0.572,5.633
		c0.023,0.982,0.082,1.973,0.138,2.932c0.028,0.472,0.056,0.955,0.08,1.434c0.011,0.269,0.024,0.542,0.033,0.805
		c0.017,0.482,0.034,0.979,0.075,1.474c0.054,0.68,0.125,1.374,0.188,2.043c0.062,0.643,0.132,1.31,0.185,1.963
		c0.076,0.917,0.146,1.856,0.215,2.763c0.082,1.088,0.164,2.213,0.261,3.322c0.187,2.143,0.347,4.438,0.255,6.729
		c-0.064,1.657-0.146,3.369-0.243,5.233c-0.03,0.607-0.063,1.238-0.167,1.837c-0.169,0.95-0.351,1.92-0.527,2.854
		c-0.213,1.118-0.433,2.271-0.625,3.414c-0.258,1.534-0.479,3.176-0.029,4.877c0.244,0.93,0.665,2.115,1.74,3.01
		c0.115,0.097,0.229,0.203,0.349,0.312c0.092,0.085,0.183,0.17,0.272,0.25c0.809,0.705,1.603,1.24,2.424,1.627
		c1.098,0.515,2.273,0.863,3.502,1.036c0.48,0.068,0.957,0.104,1.424,0.104c1.393,0,2.738-0.309,3.997-0.912
		c1.907-0.914,3.457-2.463,4.594-4.598c0.97-1.814,1.591-3.9,1.908-6.372c0.119-0.948,0.114-1.889,0.104-2.807
		c-0.004-0.334-0.008-0.687,0-1.028c0.004-0.382,0.004-0.769,0.004-1.141c-0.004-0.84-0.004-1.703,0.051-2.542
		c0.144-2.2,0.787-4.365,1.414-6.458l0.041-0.139c0.242-0.813,0.521-1.637,0.791-2.43c0.148-0.451,0.311-0.921,0.461-1.385
		c0.072-0.227,0.146-0.457,0.22-0.686c0.323-1.021,0.629-1.982,1.076-2.912c0.716-1.463,1.219-3.031,1.663-4.413
		c0.492-1.52,0.91-2.877,1.283-4.16c0.088-0.303,0.194-0.615,0.291-0.912c0.248-0.732,0.504-1.491,0.592-2.313
		c0.025-0.22,0.074-0.446,0.128-0.685c0.051-0.251,0.108-0.512,0.141-0.781c0.113-1.027,0.065-2.127-0.149-3.352
		c1.363-0.629,2.383-1.672,3.023-3.105C73.62,21.562,73.745,20.667,73.586,19.804z M60.26,58.837
		c0.004,0.317,0.006,0.646,0.006,0.968c0,0.241,0,0.485,0,0.729c0.008,0.852,0.01,1.731-0.061,2.583
		c-0.18,2.16-0.73,4.152-1.645,5.921c-0.943,1.833-2.146,3.09-3.678,3.848c-1.07,0.534-2.189,0.802-3.326,0.802
		c-0.367,0-0.74-0.025-1.117-0.084c-1.125-0.162-2.127-0.465-3.063-0.922c-0.649-0.318-1.278-0.75-1.925-1.324
		c-0.045-0.041-0.088-0.078-0.131-0.119c-0.098-0.09-0.2-0.182-0.311-0.273c-0.51-0.408-0.822-0.971-1.133-1.695
		c-0.284-0.654-0.379-1.381-0.33-2.494v-0.012c0.021-0.967,0.262-2.203,0.469-3.293c0.385-1.967,0.719-3.938,0.998-5.611
		c0.062-0.375,0.078-0.75,0.098-1.108c0.009-0.19,0.019-0.371,0.033-0.547c0.219-2.69,0.299-5.304,0.23-7.771
		c-0.031-1.197-0.125-2.406-0.215-3.574c-0.028-0.357-0.055-0.709-0.079-1.065c-0.088-1.196-0.188-2.411-0.282-3.583l-0.08-0.994
		c-0.046-0.566-0.095-1.129-0.142-1.695c-0.079-0.941-0.159-1.914-0.233-2.875c-0.05-0.645-0.091-1.303-0.136-1.939
		c-0.048-0.746-0.101-1.517-0.159-2.277c-0.154-1.959-0.16-3.548-0.021-4.982c0.074-0.791,0.214-1.598,0.345-2.383
		c0.05-0.286,0.099-0.579,0.146-0.867c0.239-1.5,0.739-2.975,1.225-4.406l0.005-0.021c0.472-1.381,0.578-2.803,0.331-4.348
		c-0.118-0.752-0.189-1.529-0.258-2.281c-0.021-0.257-0.041-0.509-0.066-0.759c-0.049-0.5,0.053-1.019,0.324-1.688
		c0.294-0.718,0.708-1.288,1.27-1.751c0.496-0.404,0.905-0.58,1.364-0.58c0.028,0,0.056,0,0.079,0.004
		c0.171,0.005,0.335,0,0.491-0.01c0.101-0.007,0.2-0.009,0.291-0.009c0.165,0,0.282,0.015,0.388,0.047
		c0.904,0.318,1.455,0.714,1.779,1.294c0.541,0.962,0.779,1.699,0.794,2.459c0.017,0.688,0.065,1.379,0.114,2.049l0.021,0.318
		c0.099,1.377,0.622,2.608,1.545,3.656c0.582,0.661,1.198,1.178,1.882,1.584l0.268,0.162c0.91,0.541,1.849,1.102,2.859,1.525
		c0.475,0.199,0.955,0.376,1.424,0.549c0.346,0.123,0.703,0.257,1.047,0.395c0.279,0.107,0.563,0.217,0.839,0.319
		c0.93,0.356,1.81,0.69,2.642,1.162c0.637,0.364,1.139,0.754,1.528,1.204c0.125,0.144,0.254,0.283,0.377,0.417
		c0.188,0.2,0.36,0.394,0.524,0.592c0.141,0.176,0.25,0.358,0.313,0.526c0.602,1.586,0.718,3.246,0.359,5.074
		c-0.243,1.23-0.627,2.455-1.002,3.639l-0.092,0.297c-0.144,0.455-0.285,0.912-0.427,1.365c-0.437,1.408-0.887,2.862-1.377,4.271
		c-0.226,0.641-0.517,1.286-0.798,1.911c-0.184,0.403-0.375,0.825-0.548,1.248c-0.263,0.646-0.511,1.332-0.761,2.104
		c-0.398,1.242-0.92,2.881-1.416,4.549c-0.633,2.125-1.223,4.218-1.483,6.427C60.238,56.614,60.252,57.745,60.26,58.837z
		 M55.301,8.076c0.984,0.058,1.76,0.396,2.369,1.036c0.702,0.738,1.046,1.608,1.057,2.666c-0.103,1.486-0.463,2.5-1.168,3.296
		c-0.257,0.288-0.5,0.575-0.74,0.861c-1.35-0.917-2.075-2.046-2.219-3.448c-0.037-0.334-0.051-0.668-0.064-1.025
		c-0.016-0.331-0.03-0.675-0.063-1.019c-0.015-0.128-0.021-0.253-0.035-0.385c-0.049-0.573-0.099-1.167-0.271-1.756
		C54.455,8.119,54.814,8.044,55.301,8.076z M60.609,11.251c0.424,0.057,0.801,0.139,1.15,0.288c1.18,0.507,1.533,1.798,1.266,2.755
		c-0.364,1.308-1.104,2.439-2.26,3.465l-0.021,0.016c-0.064,0.062-0.141,0.126-0.191,0.164c-0.066-0.027-0.164-0.072-0.224-0.101
		c-0.537-0.253-1.076-0.526-1.599-0.788c-0.076-0.036-0.153-0.078-0.229-0.113C60.023,15.307,60.729,13.401,60.609,11.251z
		 M64.904,14.679c0.003-0.01,0.007-0.02,0.01-0.029c0.927,0.224,1.633,0.818,2.15,1.83c0.16,0.309,0.127,0.686,0.027,1.158
		c-0.179,0.842-0.527,1.594-1.044,2.224l-0.007,0.009c-0.059,0.07-0.119,0.147-0.167,0.203c-0.074-0.034-0.16-0.08-0.213-0.109
		c-0.771-0.41-1.577-0.711-2.358-1.006c-0.242-0.088-0.488-0.18-0.734-0.277c0.123-0.129,0.246-0.257,0.363-0.388
		c0.967-1.098,1.629-2.312,1.969-3.604L64.904,14.679z M68.593,22.306c-0.327-0.338-0.669-0.669-0.995-0.996
		c-0.054-0.047-0.105-0.102-0.158-0.151c0.139-0.167,0.275-0.338,0.404-0.515c0.369-0.505,0.663-1.09,0.879-1.748
		c0.522-0.146,1.077-0.135,1.738,0.045c0.54,0.146,0.936,0.5,1.209,1.077c0.094,0.194,0.074,0.45,0.041,0.733
		c-0.096,0.877-0.486,1.625-1.188,2.289c-0.269,0.258-0.556,0.513-0.883,0.694C69.378,23.146,68.968,22.692,68.593,22.306z"/>
	<path fill="#A78627" d="M27.829,72.076h0.009c1.265-0.002,2.339-0.844,2.734-2.143c0.267-0.875,0.138-1.819-0.353-2.592
		c-0.405-0.637-1.021-1.074-1.722-1.246c-0.135-1.541-0.271-3.084-0.406-4.623c-0.1-1.158-0.205-2.316-0.307-3.479
		c-0.154-1.803-0.313-3.608-0.468-5.411c-0.102-1.163-0.204-2.331-0.305-3.497l-0.005-0.057c-0.164-1.887-0.333-3.834-0.503-5.75
		c1.042-0.603,1.573-1.563,1.536-2.795c-0.037-1.168-0.581-2.061-1.577-2.592l0.978-6.911c0.149-1.07,0.305-2.173,0.455-3.264
		c0.172-0.041,0.313-0.12,0.429-0.185l0.011-0.008c0.718-0.398,1.24-1.061,1.469-1.867c0.228-0.805,0.132-1.645-0.269-2.367
		c-0.514-0.923-1.462-1.495-2.477-1.495c-0.203,0-0.409,0.022-0.608,0.066c-1.318,0.3-2.257,1.517-2.293,2.958
		c0,0.004-0.001,0.009-0.001,0.016c-2.568,1.027-5.294,2.127-8.787,3.544c-0.663-0.796-1.565-1.142-2.584-0.979
		c-0.748,0.117-1.411,0.531-1.863,1.162c-0.49,0.688-0.686,1.559-0.542,2.391c0.245,1.381,1.34,2.399,2.637,2.464l0.534,1.868
		c0.422,1.471,0.845,2.942,1.266,4.416c0.375,1.318,0.751,2.637,1.129,3.957c0.45,1.584,0.902,3.162,1.354,4.746
		c0.704,2.471,1.343,4.703,1.988,6.936c-0.117,0.077-0.206,0.162-0.271,0.23c-0.839,0.916-1.105,1.959-0.798,3.105
		c0.341,1.266,1.476,2.147,2.76,2.147h0.011c1.301-0.007,2.412-0.906,2.762-2.245c0.247-0.938,0.047-1.952-0.538-2.709
		c-0.519-0.671-1.282-1.067-2.107-1.104c-0.384-1.346-0.77-2.692-1.152-4.037c-0.397-1.384-0.792-2.768-1.188-4.149l-1-3.504
		c-0.975-3.404-1.947-6.802-2.918-10.209c0.874-0.655,1.297-1.587,1.228-2.717c0.941-0.378,1.895-0.765,2.821-1.139
		c0.432-0.177,0.864-0.351,1.297-0.523c0.513-0.207,1.026-0.416,1.542-0.625c0.997-0.4,1.995-0.803,2.997-1.208
		c0.316,0.456,0.736,0.791,1.246,0.996l-0.811,5.725c-0.199,1.425-0.402,2.848-0.602,4.272c-0.881,0.205-1.544,0.748-1.97,1.621
		c-0.435,0.881-0.417,1.936,0.052,2.813c0.419,0.784,1.125,1.315,1.965,1.495c0.101,1.23,0.206,2.432,0.331,3.857
		c0.111,1.268,0.224,2.531,0.334,3.797c0.118,1.313,0.234,2.625,0.347,3.938c0.155,1.76,0.311,3.516,0.464,5.277l0.242,2.791
		c0.088,1.031,0.178,2.061,0.27,3.091c-0.235,0.122-0.5,0.263-0.718,0.487c-0.841,0.879-1.124,1.955-0.813,3.108
		C25.408,71.191,26.543,72.076,27.829,72.076z M24.242,40.902c-0.018-0.063-0.023-0.146-0.029-0.209
		c-0.004-0.02-0.008-0.034-0.008-0.051c0.02-0.473,0.187-0.791,0.546-1.026c0.131-0.087,0.276-0.134,0.431-0.134
		c0.335,0,0.646,0.203,0.815,0.529c0.243,0.455,0.17,1.03-0.171,1.403c-0.2,0.214-0.409,0.318-0.637,0.318l0,0
		c-0.078,0-0.159-0.015-0.244-0.037C24.712,41.632,24.387,41.48,24.242,40.902z M26.081,24.715c0.042-0.372,0.235-0.694,0.534-0.878
		c0.134-0.083,0.281-0.128,0.435-0.128c0.427,0,0.802,0.32,0.916,0.782c0.017,0.072,0.026,0.162,0.038,0.256
		c0.003,0.036,0.01,0.074,0.015,0.111c-0.028,0.48-0.33,0.916-0.726,1.046c-0.104,0.034-0.202,0.048-0.294,0.048l0,0
		c-0.213,0-0.409-0.088-0.598-0.274C26.156,25.437,26.041,25.085,26.081,24.715z M27.378,68.07c0.136-0.096,0.288-0.146,0.451-0.146
		c0.363,0,0.796,0.269,0.923,0.783c0.018,0.078,0.032,0.166,0.04,0.248c0,0.021,0.004,0.038,0.007,0.06
		c-0.023,0.42-0.154,0.709-0.413,0.934c-0.167,0.144-0.367,0.219-0.575,0.219c-0.308,0-0.589-0.163-0.761-0.441
		C26.707,69.165,26.849,68.452,27.378,68.07z M27.829,71.544L27.829,71.544L27.829,71.544L27.829,71.544z M14.183,30.356
		c-0.022,0.426-0.154,0.718-0.416,0.941c-0.171,0.142-0.365,0.213-0.571,0.213c-0.314,0-0.602-0.17-0.771-0.458
		c-0.328-0.562-0.187-1.249,0.335-1.638c0.139-0.096,0.29-0.146,0.453-0.146c0.364,0,0.802,0.271,0.928,0.79
		c0.018,0.072,0.027,0.162,0.037,0.239C14.18,30.32,14.183,30.337,14.183,30.356z M20.196,58.467
		c-0.342-0.568-0.202-1.259,0.328-1.646c0.138-0.1,0.288-0.149,0.455-0.149c0.365,0,0.802,0.272,0.925,0.795
		c0.02,0.072,0.027,0.162,0.037,0.24c0.003,0.019,0.003,0.036,0.007,0.056c-0.024,0.42-0.151,0.709-0.41,0.932
		c-0.169,0.146-0.369,0.225-0.578,0.225C20.649,58.917,20.364,58.747,20.196,58.467z"/>
	<path fill="#A78627" d="M63.932,33.339c0.008,0,0.01,0,0.017-0.005c0.073-0.002,0.138-0.011,0.192-0.019
		c1.434-0.214,2.451-1.434,2.479-2.972v-0.007v-0.01c-0.007-0.969-0.379-1.787-1.072-2.367c-0.534-0.455-1.168-0.689-1.819-0.689
		c-0.807,0-1.574,0.369-2.143,1.025c-2.852-1.15-5.811-2.346-8.797-3.549c0.006-0.506-0.123-1.008-0.383-1.494
		c-0.502-0.947-1.471-1.537-2.528-1.537c-0.245,0-0.485,0.035-0.713,0.096c-1.472,0.404-2.397,1.987-2.067,3.529
		c0.23,1.09,0.823,1.842,1.723,2.181c0.211,0.081,0.244,0.109,0.287,0.413c0.466,3.431,0.959,6.879,1.388,9.86
		c-0.05,0.03-0.093,0.054-0.127,0.075l-0.011,0.006c-0.988,0.628-1.488,1.578-1.445,2.743c0.042,1.141,0.572,2.028,1.537,2.58
		c-0.063,0.673-0.12,1.349-0.178,2.009l-1.285,14.729c-0.176,1.994-0.357,4.058-0.529,6.086c-0.297,0.078-0.535,0.17-0.734,0.291
		c-1.395,0.826-1.896,2.67-1.115,4.109c0.529,0.975,1.496,1.579,2.533,1.579c0.352,0,0.698-0.069,1.025-0.206
		c1.143-0.469,1.859-1.582,1.832-2.836c-0.023-1.25-0.596-2.188-1.646-2.723c0.135-1.461,0.264-2.949,0.389-4.387l0.045-0.492
		c0.098-1.135,0.195-2.271,0.294-3.404c0.14-1.633,0.28-3.26,0.423-4.889c0.104-1.188,0.207-2.379,0.314-3.568
		c0.074-0.84,0.148-1.684,0.226-2.527l0.013-0.158c0.096-1.088,0.193-2.207,0.285-3.313c0.176-0.036,0.336-0.083,0.48-0.146
		c1.156-0.467,1.896-1.641,1.842-2.928c-0.051-1.119-0.738-2.475-2.139-2.805c-0.08-0.02-0.115-0.039-0.129-0.045
		c-0.011-0.02-0.026-0.075-0.047-0.223c-0.229-1.722-0.479-3.474-0.721-5.172c-0.082-0.592-0.17-1.184-0.252-1.775
		c-0.04-0.283-0.079-0.568-0.118-0.852c-0.094-0.648-0.187-1.322-0.282-1.984c0.518-0.197,0.943-0.543,1.248-1
		c0.527,0.223,1.064,0.436,1.582,0.645c0.182,0.074,0.362,0.148,0.545,0.221l0.973,0.395c1.822,0.734,3.703,1.492,5.559,2.238
		c-0.07,1.131,0.352,2.061,1.229,2.717c-0.381,1.322-0.758,2.644-1.137,3.966l-0.558,1.957c-0.345,1.204-0.69,2.409-1.034,3.609
		c-0.438,1.516-0.869,3.033-1.301,4.551c-0.613,2.143-1.418,4.951-2.23,7.814c-0.457,0.012-0.887,0.139-1.275,0.371
		c-0.764,0.461-1.285,1.24-1.432,2.141c-0.151,0.91,0.1,1.834,0.689,2.529c0.553,0.65,1.339,1.024,2.158,1.024
		c0.768,0,1.49-0.319,2.037-0.897c0.619-0.652,0.914-1.563,0.809-2.488c-0.1-0.846-0.523-1.598-1.17-2.092l0.318-1.112
		c0.777-2.724,1.553-5.443,2.33-8.164l3.612-12.633C63.926,33.354,63.93,33.345,63.932,33.339z M64.613,29.869
		c0.039,0.093,0.063,0.22,0.082,0.317c0.003,0.022,0.007,0.044,0.013,0.062c-0.021,0.416-0.11,0.677-0.308,0.888
		c-0.174,0.19-0.403,0.295-0.644,0.295l0,0c-0.216,0-0.42-0.082-0.589-0.23c-0.417-0.365-0.521-1.068-0.229-1.535
		c0.267-0.422,0.563-0.471,0.756-0.471c0.031,0,0.058,0,0.088,0.002C64.021,29.216,64.363,29.302,64.613,29.869z M49.732,69.845
		c-0.172,0.159-0.377,0.24-0.596,0.24l0,0c-0.357,0-0.684-0.228-0.851-0.594c-0.052-0.119-0.086-0.263-0.122-0.418
		c-0.012-0.05-0.025-0.104-0.04-0.152c0.053-0.364,0.17-0.623,0.378-0.819c0.175-0.168,0.379-0.261,0.592-0.261
		c0.262,0,0.518,0.136,0.73,0.373C50.211,68.654,50.169,69.449,49.732,69.845z M49.923,25.868c-0.221,0-0.437-0.088-0.608-0.256
		c-0.392-0.377-0.486-1.008-0.219-1.471c0.26-0.457,0.568-0.512,0.782-0.512c0.021,0,0.042,0,0.067,0
		c0.238,0.015,0.588,0.103,0.84,0.674c0.044,0.091,0.063,0.213,0.086,0.319c0.003,0.026,0.01,0.052,0.012,0.073
		c-0.035,0.48-0.15,0.751-0.395,0.957C50.324,25.794,50.129,25.868,49.923,25.868z M51.746,39.409c0.018,0,0.036,0,0.055,0.002
		c0.246,0.012,0.6,0.094,0.856,0.674c0.038,0.092,0.063,0.217,0.081,0.318c0.003,0.021,0.009,0.043,0.013,0.063
		c-0.026,0.466-0.142,0.745-0.385,0.957c-0.171,0.147-0.365,0.224-0.571,0.224l0,0c-0.229,0-0.447-0.096-0.622-0.271
		c-0.382-0.382-0.474-0.991-0.217-1.452C51.217,39.462,51.529,39.409,51.746,39.409z M55.154,57.107
		c0.261-0.459,0.57-0.512,0.781-0.512c0.02,0,0.041,0,0.063,0c0.245,0.019,0.602,0.103,0.854,0.682
		c0.041,0.093,0.064,0.218,0.082,0.32c0.004,0.021,0.006,0.043,0.01,0.063c-0.026,0.466-0.142,0.743-0.385,0.955
		c-0.172,0.143-0.365,0.219-0.572,0.219c-0.227,0-0.441-0.091-0.612-0.262C54.988,58.199,54.895,57.57,55.154,57.107z"/>
</g>
</svg>
