<?xml version="1.0" encoding="utf-8"?>
<!-- Generator: Adobe Illustrator 16.0.0, SVG Export Plug-In . SVG Version: 6.00 Build 0)  -->
<!DOCTYPE svg PUBLIC "-//W3C//DTD SVG 1.1//EN" "http://www.w3.org/Graphics/SVG/1.1/DTD/svg11.dtd">
<svg version="1.1" id="Layer_1" xmlns="http://www.w3.org/2000/svg" xmlns:xlink="http://www.w3.org/1999/xlink" x="0px" y="0px"
	 width="77px" height="80px" viewBox="0 0 77 80" enable-background="new 0 0 77 80" xml:space="preserve">
<path fill="#A78627" d="M64.07,70.281c-0.068-0.08-0.137-0.149-0.207-0.207c-0.018-0.018-0.039-0.034-0.057-0.057
	c-0.517-0.488-1.043-1.017-1.396-1.652c-0.39-0.717-0.638-1.445-0.718-2.168c-0.086-0.723-0.086-1.475-0.086-2.201
	c0-0.139,0-0.27,0-0.408c0-0.4,0.013-0.82,0.023-1.221c0.018-0.477,0.029-0.977,0.023-1.469c-0.029-1.813-0.924-3.246-1.762-4.457
	c-0.113-0.16-0.234-0.32-0.355-0.476c0.488-0.312,0.879-0.653,1.182-1.045c0.734-0.951,0.861-1.983,0.367-2.976
	c-0.246-0.487-0.619-0.9-1.146-1.258c0.013-0.004,0.019-0.011,0.029-0.021c0.258-0.2,0.533-0.413,0.768-0.677
	c0.89-0.986,1.027-2.328,0.367-3.492c-0.321-0.567-0.797-1.05-1.457-1.47c1.119-0.521,1.935-1.191,2.529-2.069
	c0.803-1.188,0.936-2.46,0.373-3.693c-0.367-0.803-0.98-1.451-1.881-1.979c-0.041-0.023-0.08-0.046-0.121-0.068
	c0.906-0.494,1.6-1.084,2.117-1.795c0.854-1.181,1.049-2.432,0.596-3.71c-0.275-0.763-0.768-1.422-1.508-2.013
	c0.211-0.264,0.275-0.596,0.195-1.009c-0.236-1.193-0.586-2.438-1.102-3.905c-0.679-1.927-1.601-3.814-2.822-5.764
	c-0.527-0.849-1.17-1.692-2.076-2.736c-0.104-0.121-0.207-0.247-0.314-0.367c-0.465-0.55-0.953-1.118-1.555-1.588
	c-0.281-0.224-0.563-0.442-0.844-0.666c-0.572-0.453-1.17-0.923-1.767-1.371c-1.071-0.803-1.928-1.348-2.78-1.784
	c-1.556-0.791-3.172-1.371-4.808-1.72c-1.021-0.224-2.069-0.355-3.08-0.482l-0.297-0.034c-0.312-0.04-0.647-0.081-0.981-0.081
	c-0.377,0-0.71,0.046-1.021,0.138c-0.006,0-0.018,0-0.022,0c-0.063-0.011-0.127-0.023-0.189-0.034
	c-0.155-0.029-0.31-0.063-0.481-0.075c-0.115-0.006-0.241-0.011-0.361-0.011c-0.557,0-1.096,0.08-1.618,0.155
	c-0.126,0.017-0.252,0.034-0.378,0.051c-0.132,0.018-0.264,0.035-0.396,0.052c-0.804,0.103-1.629,0.212-2.438,0.436
	c-1.646,0.453-3.567,1.066-5.34,2.202c-0.86,0.55-1.749,1.181-2.799,1.99c-0.126,0.091-0.252,0.189-0.378,0.287
	c-0.711,0.539-1.445,1.095-2.07,1.795c-0.757,0.854-1.411,1.623-1.984,2.34c-0.774,0.963-1.394,2.024-1.916,2.942
	c-1.439,2.558-2.478,5.345-3.079,8.275c-0.08,0.378,0,0.717,0.224,0.981c-0.023,0.017-0.046,0.034-0.063,0.051
	c-0.235,0.195-0.476,0.396-0.683,0.643c-1.095,1.296-1.313,2.77-0.631,4.267c0.425,0.918,1.124,1.669,2.151,2.294
	c0.132,0.086,0.274,0.167,0.412,0.241c-0.458,0.258-0.843,0.55-1.175,0.883c-1.308,1.319-1.531,3.05-0.603,4.634
	c0.545,0.922,1.382,1.655,2.563,2.242c0.04,0.017,0.074,0.033,0.114,0.051c-0.326,0.213-0.613,0.44-0.865,0.705
	c-0.694,0.705-1.021,1.463-1.004,2.307c0.022,1.009,0.487,1.852,1.428,2.58c0.04,0.035,0.086,0.063,0.126,0.098
	c-0.092,0.059-0.178,0.127-0.264,0.195c-0.837,0.682-1.222,1.508-1.141,2.455c0.068,0.762,0.424,1.438,1.061,2.001
	c0.247,0.218,0.517,0.413,0.78,0.603c-0.04,0.057-0.08,0.108-0.121,0.16c-0.556,0.705-1.038,1.484-1.462,2.393
	c-0.396,0.854-0.579,1.816-0.563,3.045l0.006,0.566c0.012,0.98,0.023,1.996,0.058,3c0.04,0.93-0.212,1.801-0.603,2.811
	c-0.12,0.311-0.298,0.613-0.521,0.884c-0.264,0.327-0.551,0.625-0.854,0.94c-0.138,0.144-0.281,0.291-0.419,0.441l-0.022,0.027
	c-0.121,0.127-0.401,0.426-0.259,0.85c0.127,0.373,0.407,0.619,0.774,0.677l0.058,0.007c0.104,0.017,0.218,0.039,0.344,0.039
	c0.023,0,0.04,0,0.058,0c0.918-0.046,1.91-0.092,3.126-0.154c0.929-0.053,1.749-0.178,2.5-0.385
	c2.059-0.567,3.951-1.479,5.638-2.707c0.551-0.406,1.056-0.854,1.509-1.33c0.682-0.729,1.015-1.67,1.267-2.489
	c0.339-1.105,0.419-2.22,0.235-3.304c-0.2-1.203-0.809-2.225-1.37-3.063c-0.545-0.809-1.233-1.475-1.91-2.116
	c0.27-0.172,0.539-0.35,0.791-0.567c1.09-0.94,1.308-2.334,0.563-3.551c-0.264-0.43-0.619-0.809-1.078-1.141
	c0.527-0.305,0.969-0.66,1.336-1.09c0.924-1.066,1.032-2.461,0.287-3.637c-0.355-0.563-0.843-1.021-1.503-1.398
	c0.379-0.219,0.711-0.471,1.01-0.758c1.382-1.313,1.629-3.137,0.643-4.759c-0.442-0.723-1.079-1.331-1.934-1.853
	c0.712-0.338,1.313-0.757,1.824-1.279c1.479-1.497,1.623-3.63,0.355-5.305c-0.557-0.734-1.279-1.331-2.208-1.812
	c0.814-0.247,1.651-0.534,2.449-0.935c1.64-0.809,3.269-1.801,4.846-2.948c0.7-0.505,1.497-1.084,2.088-1.887
	c0.338-0.465,0.729-1.004,1.095-1.543c0.66-0.963,1.17-2.019,1.664-3.034l0.091-0.188c0.488-0.998,0.912-1.887,1.233-2.793
	c0.298,0.843,0.683,1.646,1.062,2.426l0.121,0.252c0.612,1.285,1.289,2.638,2.174,3.872c0.555,0.78,1.186,1.663,2.08,2.345
	c1.344,1.015,2.479,1.778,3.58,2.397c0.778,0.436,1.549,0.854,2.34,1.245c0.682,0.338,1.397,0.579,2.115,0.792
	c-0.935,0.487-1.668,1.095-2.23,1.841c-1.107,1.474-1.135,3.24-0.08,4.726c0.551,0.769,1.285,1.359,2.283,1.83
	c-0.695,0.424-1.252,0.917-1.699,1.508c-1.02,1.348-1.111,2.964-0.234,4.33c0.391,0.607,0.937,1.118,1.652,1.537
	c-0.471,0.27-0.867,0.596-1.199,0.975c-0.992,1.142-1.066,2.609-0.184,3.838c0.373,0.521,0.859,0.945,1.502,1.308
	c-0.418,0.304-0.744,0.644-1.004,1.026c-0.59,0.89-0.67,1.828-0.24,2.724c0.293,0.608,0.775,1.097,1.48,1.498
	c-0.115,0.131-0.23,0.265-0.351,0.384c-1.01,0.986-1.703,1.893-2.187,2.846c-0.311,0.619-0.643,1.358-0.746,2.2
	c-0.147,1.218,0.019,2.433,0.5,3.724c0.437,1.164,1.111,2.082,2.06,2.799c0.912,0.683,1.755,1.227,2.58,1.656
	c1.354,0.701,2.599,1.183,3.804,1.475c0.998,0.247,1.989,0.316,3.01,0.373c0.74,0.041,1.526,0.074,2.404,0.098
	c0.012,0,0.026,0,0.038,0c0.207,0,0.433-0.039,0.619-0.121c0.281-0.119,0.478-0.338,0.541-0.606
	C64.357,70.803,64.277,70.516,64.07,70.281z M31.392,23.804c-1.228,0.906-2.569,1.744-4.101,2.558
	c-1.428,0.763-3.068,1.302-5.013,1.651c-0.2,0.035-0.401,0.075-0.591,0.109c-0.361,0.075-0.705,0.144-1.055,0.189
	c-0.453,0.057-0.93,0.092-1.388,0.121c-0.178,0.011-0.355,0.023-0.528,0.04l-0.24,0.017c-0.385,0.029-0.78,0.058-1.17,0.075
	c-0.109,0.006-0.229,0.011-0.373,0.011c-0.028,0-0.063,0-0.092,0c0.613-2.787,1.709-5.517,3.258-8.109
	c0.763-1.273,1.691-2.386,2.678-3.562l0.098-0.12c0.729-0.866,1.611-1.543,2.547-2.26c1.066-0.814,1.973-1.474,2.925-2.059
	c1.313-0.803,2.775-1.417,4.364-1.83c-0.006,0.006-0.012,0.006-0.012,0.011l-0.018,0.006c-0.43,0.218-0.619,0.666-0.453,1.084
	c0.127,0.327,0.425,0.533,0.774,0.533c0.104,0,0.212-0.017,0.315-0.051c0.419-0.144,0.769-0.264,1.124-0.402
	c0.895-0.35,1.836-0.619,2.816-0.814c-0.138,0.086-0.27,0.172-0.401,0.252l-0.265,0.167c-1.032,0.654-1.915,1.451-2.804,2.277
	c-0.826,0.769-1.795,1.697-2.69,2.764c-0.091,0.104-0.188,0.224-0.286,0.35c-0.304,0.401-0.253,0.929,0.12,1.221
	c0.155,0.121,0.333,0.184,0.517,0.184c0.252,0,0.499-0.115,0.688-0.333c0.161-0.172,0.315-0.35,0.477-0.528
	c0.401-0.458,0.82-0.929,1.256-1.365c1.05-1.055,1.956-1.91,2.965-2.661c0.201-0.149,0.407-0.292,0.625-0.436
	c-0.011,0.092-0.028,0.184-0.046,0.275c-0.218,1.296-0.625,2.523-1.198,3.653c-0.166,0.327-0.333,0.66-0.499,0.986
	c-0.43,0.872-0.883,1.772-1.365,2.632c-0.344,0.603-0.791,1.182-1.216,1.744c-0.074,0.098-0.144,0.189-0.218,0.287
	c-0.355,0.465-0.837,0.82-1.342,1.193C31.512,23.712,31.45,23.758,31.392,23.804z M17.072,63.009
	c-0.006-0.481-0.018-0.975-0.028-1.468c-0.035-1.216,0.292-2.34,0.969-3.338c0.241-0.35,0.493-0.705,0.74-1.051
	c0.114-0.154,0.229-0.31,0.338-0.463c0.08,0.021,0.161,0.045,0.247,0.067c-0.115,0.287-0.224,0.563-0.355,0.82
	c-0.104,0.2-0.235,0.401-0.379,0.612c-0.069,0.109-0.149,0.225-0.224,0.345l-0.023,0.041c-0.074,0.114-0.16,0.258-0.212,0.424
	c-0.074,0.241-0.034,0.499,0.115,0.694c0.143,0.193,0.361,0.304,0.602,0.304c0.086,0,0.166-0.013,0.247-0.04
	c0.154-0.046,0.436-0.167,0.625-0.4c0.35-0.426,0.643-0.884,0.877-1.395c0.081,1.348,0.029,2.718-0.453,4.043
	c-0.068,0.189-0.166,0.378-0.27,0.579c-0.034,0.063-0.063,0.127-0.097,0.188c-0.029,0.057-0.069,0.121-0.109,0.189
	c-0.028,0.04-0.058,0.08-0.08,0.126c-0.27,0.446-0.184,0.991,0.194,1.245c0.132,0.086,0.281,0.125,0.437,0.125
	c0.31,0,0.607-0.166,0.809-0.453c0.843-1.227,1.101-2.604,1.238-3.664c0.012-0.092,0.018-0.178,0.029-0.264
	c0.022,0.125,0.04,0.252,0.057,0.373c0.023,0.184,0.041,0.371,0.058,0.566c0.012,0.184,0.028,0.372,0.052,0.563
	c0.018,0.148,0.068,0.373,0.201,0.592c0.137,0.234,0.384,0.378,0.653,0.378c0.281,0,0.545-0.161,0.677-0.425
	c0.114-0.219,0.172-0.43,0.16-0.613c-0.097-1.996-0.464-3.477-1.187-4.771c0.017,0,0.028-0.006,0.04-0.006
	c0.074,0.063,0.154,0.127,0.229,0.189c0.148,0.12,0.298,0.24,0.447,0.355c1.192,0.951,2.076,2.115,2.632,3.463
	c0.281,0.678,0.356,1.424,0.235,2.353c-0.08,0.642-0.286,1.313-0.631,2.048c-0.229,0.492-0.516,0.877-0.877,1.17
	c-2.34,1.926-4.767,3.027-7.416,3.371c-0.665,0.086-1.354,0.139-2.019,0.189c-0.052,0-0.098,0.006-0.149,0.012
	c0.522-0.654,0.906-1.377,1.17-2.191c0.351-1.072,0.505-2.121,0.471-3.188C17.089,64.139,17.083,63.564,17.072,63.009z
	 M22.624,55.268c-0.259,0.045-0.522,0.063-0.734,0.08c-0.074,0-0.138,0.006-0.195,0.012c-1.399-0.028-2.432-0.293-3.332-0.854
	c-0.464-0.287-0.757-0.585-0.917-0.94c-0.219-0.48-0.104-0.905,0.338-1.256c0.184-0.144,0.407-0.265,0.643-0.39
	c0.104-0.06,0.218-0.114,0.327-0.178c0.074-0.048,0.143-0.086,0.206-0.109c0.763,0.218,1.555,0.326,2.352,0.326
	c0.562,0,1.146-0.058,1.731-0.166c0.006,0,0.018,0,0.023,0c0.791,0.281,1.308,0.619,1.669,1.078c0.453,0.58,0.39,1.136-0.184,1.61
	C24.069,54.883,23.455,55.135,22.624,55.268z M25.221,48.855c-0.39,0.436-0.895,0.75-1.641,1.021
	c-0.034,0.011-0.063,0.022-0.092,0.034c0.041-0.126,0.052-0.258,0.029-0.401c-0.069-0.373-0.361-0.614-0.763-0.62
	c-0.092-0.005-0.189-0.005-0.281,0c-0.046,0-0.098,0-0.144,0c-0.092,0-0.16,0-0.224-0.005c-0.224-0.018-0.447-0.052-0.677-0.081
	c-0.074-0.011-0.149-0.017-0.224-0.027c-0.006,0-0.012-0.006-0.022-0.006c-0.04-0.012-0.109-0.028-0.189-0.035
	c-0.04-0.006-0.086-0.006-0.126-0.006c-0.482,0-0.694,0.258-0.786,0.472c-0.212,0.493,0.144,0.858,0.264,0.979
	c0,0,0,0.006,0.006,0.006c-0.785-0.104-1.457-0.326-2.036-0.683c-0.286-0.178-0.556-0.407-0.785-0.671
	c-0.425-0.477-0.441-1.084-0.058-1.623c0.35-0.482,0.854-0.832,1.651-1.146c0.241-0.098,0.493-0.172,0.758-0.258l0.045-0.018
	c0.012,0.006,0.023,0.006,0.029,0.006c0.917,0.125,1.841,0.125,2.747-0.006c0.08-0.012,0.166-0.012,0.235,0.006
	c0.98,0.206,1.646,0.521,2.162,1.025c0.436,0.42,0.591,0.813,0.51,1.279C25.571,48.355,25.439,48.604,25.221,48.855z M23.581,43.818
	c0.04-0.119,0.052-0.252,0.029-0.383c-0.063-0.402-0.396-0.684-0.803-0.684c-0.018,0-0.029,0-0.046,0
	c-0.27,0.018-0.505,0.04-0.723,0.074c-0.534,0.087-1.038,0.046-1.509-0.133c-0.166-0.063-0.321-0.092-0.47-0.092
	c-0.275,0-0.522,0.099-0.74,0.293l-0.155,0.144v0.207c0.006,0.218,0.063,0.478,0.253,0.698c-0.751-0.178-1.411-0.459-2.019-0.848
	c-0.591-0.379-1.01-0.804-1.279-1.297c-0.481-0.871-0.361-1.749,0.344-2.466c0.591-0.597,1.365-0.981,2.449-1.21
	c0.028,0,0.092,0.012,0.126,0.018c0.688,0.137,1.377,0.201,2.06,0.201c0.47,0,0.946-0.029,1.41-0.092c0.006,0,0.029,0,0.052,0.011
	c0.109,0.046,0.224,0.086,0.333,0.132c0.372,0.144,0.723,0.281,1.055,0.447c0.517,0.252,0.97,0.614,1.354,1.073
	c0.437,0.522,0.631,1.103,0.573,1.669c-0.063,0.563-0.378,1.084-0.923,1.503C24.55,43.4,24.097,43.643,23.581,43.818z
	 M23.822,36.175c0.235-0.201,0.333-0.522,0.241-0.837c-0.109-0.35-0.419-0.579-0.792-0.579c-0.057,0-0.12,0.011-0.184,0.023
	c-0.04,0.005-0.08,0.017-0.126,0.023c-0.017,0.005-0.034,0.011-0.058,0.017c-0.631,0.138-1.204,0.207-1.731,0.207
	c-0.597,0-1.136-0.086-1.663-0.252c-0.104-0.034-0.201-0.052-0.264-0.057c-0.046-0.006-0.092-0.012-0.138-0.012
	c-0.339,0-0.631,0.189-0.752,0.499c-0.154,0.378-0.022,0.786,0.315,0.992l0.035,0.023c0.08,0.046,0.172,0.097,0.264,0.149
	c-1.05-0.241-1.91-0.671-2.639-1.302c-0.264-0.229-0.504-0.505-0.693-0.792c-0.614-0.906-0.551-1.91,0.178-2.753
	c0.441-0.516,1.032-0.917,1.813-1.227c0.011-0.006,0.046-0.017,0.108-0.017c1.515-0.063,2.73-0.189,3.825-0.39
	c0.069-0.012,0.144-0.017,0.218-0.017c0.253,0,0.522,0.069,0.804,0.138l0.114,0.034c1.112,0.281,2.007,0.734,2.725,1.394
	c0.452,0.419,0.745,0.854,0.889,1.336c0.224,0.746,0.063,1.428-0.482,2.076C25.341,35.435,24.694,35.865,23.822,36.175z
	 M50.426,61.965c0.047-0.436,0.168-0.859,0.373-1.296c0.619-1.331,1.543-2.466,2.742-3.36c0.121-0.092,0.229-0.184,0.338-0.274
	c0.041-0.035,0.08-0.063,0.121-0.099l0.039,0.006c-0.154,0.293-0.309,0.597-0.436,0.912c-0.447,1.09-0.688,2.306-0.756,3.83
	c-0.013,0.26,0.079,0.494,0.159,0.654c0.138,0.258,0.396,0.419,0.677,0.419c0.27,0,0.512-0.144,0.653-0.384
	c0.115-0.195,0.188-0.438,0.201-0.666c0.032-0.453,0.08-0.946,0.166-1.445c0.019,0.195,0.041,0.396,0.067,0.592
	c0.15,0.963,0.42,2.22,1.188,3.332c0.006,0.006,0.013,0.012,0.013,0.021c0.022,0.029,0.045,0.068,0.079,0.109
	c0.166,0.213,0.441,0.344,0.724,0.344c0.147,0,0.299-0.039,0.418-0.114c0.35-0.212,0.481-0.711,0.299-1.106
	c-0.057-0.127-0.133-0.234-0.201-0.344c-0.424-0.637-0.619-1.377-0.756-2.082c-0.195-0.947-0.184-1.904-0.127-2.846
	c0.23,0.5,0.516,0.964,0.859,1.383c0.149,0.184,0.356,0.287,0.506,0.367c0.115,0.057,0.233,0.086,0.36,0.086
	c0.207,0,0.4-0.086,0.552-0.24c0.239-0.248,0.293-0.598,0.131-0.906c-0.086-0.16-0.185-0.311-0.287-0.452
	c-0.338-0.442-0.607-0.964-0.854-1.642c0.063-0.018,0.121-0.035,0.185-0.052l0.018-0.006c0.018-0.006,0.039-0.011,0.057-0.017
	c0.019,0.017,0.029,0.033,0.035,0.045c0.412,0.58,0.779,1.106,1.141,1.651c0.603,0.919,0.89,1.974,0.855,3.144
	c-0.006,0.246-0.018,0.492-0.029,0.734c-0.018,0.465-0.041,0.944-0.035,1.428c0,0.246-0.006,0.498-0.006,0.752
	c-0.016,0.723-0.033,1.479,0.14,2.236c0.223,0.956,0.485,1.973,1.09,2.844c0.138,0.194,0.28,0.379,0.431,0.551
	c-0.166-0.012-0.332-0.028-0.5-0.04c-0.636-0.052-1.289-0.103-1.927-0.179c-1.731-0.199-3.303-0.922-4.479-1.53
	c-0.684-0.351-1.364-0.786-2.155-1.364c-0.781-0.568-1.31-1.251-1.619-2.07C50.479,63.84,50.33,62.883,50.426,61.965z
	 M44.813,23.173c-0.512-0.378-0.889-0.895-1.285-1.445c-0.067-0.103-0.143-0.201-0.219-0.304c-0.824-1.119-1.449-2.403-2.059-3.647
	c-0.08-0.161-0.16-0.327-0.24-0.493c-0.453-0.923-0.951-2.024-1.217-3.194c-0.092-0.39-0.166-0.792-0.234-1.193
	c1.004,0.648,1.904,1.491,2.771,2.306l0.012,0.012c0.729,0.688,1.677,1.605,2.507,2.638c0.188,0.241,0.44,0.367,0.711,0.367
	c0.184,0,0.366-0.063,0.522-0.184c0.185-0.149,0.297-0.355,0.313-0.585c0.023-0.241-0.063-0.487-0.233-0.682
	c-0.134-0.144-0.259-0.287-0.386-0.43c-0.471-0.534-0.957-1.084-1.469-1.595c-0.945-0.946-1.967-1.938-3.119-2.787
	c-0.471-0.344-0.963-0.654-1.444-0.952c0.905,0.166,1.836,0.436,2.827,0.814c0.345,0.132,0.699,0.252,1.037,0.373l0.047,0.017
	c0.119,0.04,0.24,0.058,0.355,0.058c0.35,0,0.646-0.201,0.773-0.528c0.086-0.218,0.08-0.441-0.006-0.643
	c-0.092-0.201-0.264-0.361-0.492-0.458c0.184,0.052,0.361,0.103,0.539,0.161c1.1,0.373,2.098,0.717,3.033,1.204
	c0.791,0.407,1.588,0.917,2.506,1.594c0.516,0.384,1.033,0.786,1.525,1.182c0.321,0.252,0.653,0.516,0.985,0.769
	c0.563,0.43,1.017,0.963,1.504,1.525l0.16,0.195c0.698,0.814,1.33,1.56,1.856,2.38c1.078,1.686,1.898,3.251,2.494,4.789
	c0.627,1.617,1.027,2.902,1.285,4.118c-0.086,0.006-0.166,0.006-0.252,0.006c-0.693,0-1.404-0.063-2.094-0.121l-0.492-0.046
	c-0.625-0.051-1.273-0.109-1.887-0.224c-1.572-0.304-3.391-0.688-5.064-1.474c-1.244-0.585-2.402-1.308-3.275-1.875
	c-0.637-0.413-1.268-0.883-1.875-1.331C45.1,23.38,44.955,23.277,44.813,23.173z M51.063,32.04c0.472-0.659,1.125-1.164,2.062-1.588
	c0.688-0.31,1.33-0.493,1.961-0.556c0.063,0,0.125-0.006,0.194-0.006c0.173,0,0.367,0.017,0.572,0.063
	c0.896,0.172,1.808,0.229,2.685,0.287c0.2,0.012,0.396,0.023,0.598,0.035c0.154,0.011,0.304,0.046,0.418,0.098
	c0.861,0.373,1.445,0.82,1.837,1.405c0.526,0.803,0.545,1.594,0.038,2.432c-0.395,0.66-1.014,1.182-1.942,1.64
	c-0.43,0.218-0.896,0.384-1.396,0.511c0.086-0.041,0.173-0.092,0.254-0.155c0.339-0.252,0.47-0.688,0.31-1.038
	c-0.131-0.275-0.43-0.453-0.762-0.453c-0.076,0-0.146,0.006-0.207,0.023c-0.104,0.022-0.201,0.051-0.287,0.08
	c-0.08,0.029-0.16,0.052-0.229,0.069c-0.78,0.161-1.603,0.184-2.438,0.058c-0.166-0.029-0.328-0.063-0.506-0.104
	c-0.098-0.017-0.195-0.04-0.291-0.057c-0.063-0.012-0.127-0.023-0.195-0.023c-0.366,0-0.672,0.218-0.78,0.563
	c-0.103,0.327-0.006,0.648,0.248,0.86c-0.179-0.063-0.354-0.138-0.529-0.218c-0.625-0.298-1.116-0.659-1.489-1.101
	C50.461,34.007,50.416,32.952,51.063,32.04z M51.344,40.487c0.322-0.671,0.879-1.21,1.703-1.64c0.34-0.172,0.689-0.31,1.068-0.453
	c0.119-0.051,0.246-0.097,0.365-0.149c0.006,0,0.006,0,0.012,0c0.465,0.069,0.947,0.098,1.424,0.098c0.67,0,1.357-0.063,2.047-0.195
	c0.086-0.017,0.189-0.017,0.27,0.006c0.82,0.184,1.484,0.487,2.029,0.917c0.533,0.424,0.85,0.941,0.912,1.492
	c0.059,0.552-0.131,1.123-0.557,1.646c-0.527,0.652-1.238,1.13-2.236,1.503c-0.258,0.099-0.516,0.172-0.785,0.24
	c0.189-0.224,0.246-0.487,0.246-0.705l0.006-0.235l-0.188-0.144c-0.188-0.138-0.406-0.271-0.688-0.271
	c-0.172,0-0.328,0.047-0.471,0.092c-0.361,0.127-0.688,0.185-0.992,0.185c-0.115,0-0.234-0.013-0.35-0.028
	c-0.258-0.039-0.545-0.068-0.9-0.092c-0.436-0.021-0.791,0.264-0.855,0.684c-0.021,0.137-0.01,0.27,0.029,0.396
	c-0.379-0.138-0.723-0.31-1.043-0.522c-0.322-0.211-0.609-0.476-0.832-0.75C51.047,41.927,50.977,41.25,51.344,40.487z
	 M59.322,53.941c-0.42,0.465-0.98,0.809-1.773,1.072c-0.676,0.229-1.381,0.338-2.213,0.338c-0.98-0.004-1.789-0.199-2.473-0.603
	c-0.24-0.138-0.469-0.319-0.637-0.521c-0.326-0.379-0.338-0.826-0.027-1.263c0.32-0.44,0.773-0.772,1.514-1.096
	c0.104-0.045,0.195-0.063,0.293-0.063c0.051,0,0.098,0,0.154,0.012c0.521,0.093,1.043,0.138,1.555,0.138
	c0.779,0,1.559-0.108,2.316-0.32c0.012,0.007,0.029,0.013,0.041,0.013l0.033,0.011c0.035,0.012,0.092,0.046,0.149,0.081
	c0.106,0.063,0.218,0.119,0.326,0.172c0.229,0.12,0.446,0.234,0.625,0.378c0.28,0.224,0.437,0.487,0.465,0.769
	C59.695,53.352,59.574,53.66,59.322,53.941z M53.523,49.91c-0.361-0.126-0.699-0.281-1.027-0.471
	c-0.383-0.234-0.676-0.498-0.883-0.82c-0.344-0.533-0.309-1.096,0.092-1.588c0.396-0.477,0.941-0.814,1.762-1.09
	c0.281-0.092,0.572-0.139,0.883-0.139c0.109,0,0.229,0.006,0.351,0.018c0.258,0.022,0.538,0.035,0.858,0.035
	c0.312,0,0.615-0.013,0.912-0.019l0.328-0.012c0.063-0.005,0.125-0.005,0.189-0.005c0.137,0,0.234,0.011,0.32,0.039
	c0.477,0.16,0.979,0.339,1.422,0.613c0.344,0.219,0.608,0.453,0.803,0.729c0.385,0.539,0.361,1.141-0.057,1.651
	c-0.396,0.48-0.947,0.819-1.732,1.078c-0.344,0.114-0.699,0.194-1.061,0.246c0.229-0.224,0.36-0.568,0.287-0.865
	c-0.093-0.355-0.421-0.586-0.845-0.586c-0.063,0-0.119,0-0.188,0.013c-0.033,0.006-0.104,0.018-0.185,0.046
	c-0.188,0.068-0.396,0.104-0.647,0.104c-0.068,0-0.144-0.006-0.224-0.012c-0.147-0.006-0.319,0-0.481,0
	c-0.039,0.006-0.08,0.006-0.119,0.006c-0.518,0.018-0.746,0.35-0.793,0.659C53.473,49.67,53.484,49.795,53.523,49.91z"/>
</svg>
