<?xml version="1.0" encoding="utf-8"?>
<!-- Generator: Adobe Illustrator 16.0.0, SVG Export Plug-In . SVG Version: 6.00 Build 0)  -->
<!DOCTYPE svg PUBLIC "-//W3C//DTD SVG 1.1//EN" "http://www.w3.org/Graphics/SVG/1.1/DTD/svg11.dtd">
<svg version="1.1" id="Layer_1" xmlns="http://www.w3.org/2000/svg" xmlns:xlink="http://www.w3.org/1999/xlink" x="0px" y="0px"
	 width="77px" height="80px" viewBox="0 0 77 80" enable-background="new 0 0 77 80" xml:space="preserve">
<g>
	<path fill="#A78627" d="M60.537,68.283c-0.098-1.791-0.26-3.904-0.684-6.044c-0.267-1.323-0.537-2.687-1.021-4.023
		c-0.297-0.807-0.725-1.853-1.436-2.772c-0.367-0.475-0.832-0.994-1.517-1.274c-0.604-0.246-1.307-0.526-2.03-0.721
		c-1.48-0.398-3.002-0.628-4.562-0.854c-0.994-0.138-2-0.261-2.978-0.378c-0.26-0.035-0.52-0.066-0.781-0.097
		c-0.329-0.041-0.668-0.093-0.993-0.138c-0.687-0.103-1.39-0.205-2.109-0.24c0.107-0.506,0.128-1.016,0.154-1.512
		c0.004-0.138,0.01-0.28,0.021-0.418c0.151-0.058,0.307-0.107,0.459-0.158c0.5-0.174,1.016-0.348,1.521-0.541
		c1.201-0.465,2.276-1.271,3.293-2.471c0.896-1.063,1.479-2.406,1.787-4.11c0.112-0.612,0.174-1.241,0.233-1.843
		c0.017-0.194,0.037-0.398,0.058-0.599c0.565-0.005,1.03-0.255,1.502-0.531c0.428-0.255,0.754-0.607,0.965-1.047
		c0.133-0.281,0.226-0.51,0.302-0.73c0.52-1.557,0.934-3.017,1.262-4.472c0.483-2.175,0.942-4.304,1.209-6.453
		c0.106-0.883,0.199-1.93,0.024-2.977c-0.256-1.578-0.5-3.135-0.729-4.584c-0.152-0.95-0.225-1.93-0.295-2.879
		c-0.021-0.235-0.037-0.475-0.058-0.715c-0.168-2.088-0.321-4.135-0.325-6.198c0-0.168-0.017-0.342-0.047-0.521
		c-0.062-0.368-0.357-0.623-0.73-0.623c-0.357,0-0.648,0.25-0.715,0.613c-0.025,0.133-0.035,0.245-0.035,0.352
		c0,0.276,0,0.552,0,0.827c0,0.679,0,1.384,0.035,2.078c0.037,0.807,0.104,1.624,0.164,2.41c0.031,0.362,0.057,0.72,0.082,1.083
		c0.016,0.225,0.03,0.459,0.041,0.689c0.028,0.495,0.057,1.006,0.121,1.511c0.297,2.139,0.563,3.885,0.834,5.483
		c0.188,1.118,0.219,2.139,0.092,3.114c-0.23,1.771-0.512,3.364-0.854,4.865c-0.075,0.342-0.151,0.689-0.229,1.021
		c-0.25,1.144-0.51,2.323-0.877,3.446c-0.185,0.557-0.398,1.205-0.617,1.833c-0.092,0.271-0.291,0.469-0.598,0.623
		c-0.158,0.077-0.302,0.143-0.439,0.184c0.006-0.174,0.01-0.347,0.01-0.526c0.01-1.016,0.016-2.037,0.021-3.058
		c0.004-0.771,0.014-1.547,0.02-2.323c0.016-2.006,0.016-3.819-0.098-5.646l-0.004-0.031c-0.006-0.143-0.017-0.316-0.088-0.49
		c-0.285-0.674-0.709-1.267-1.256-1.756c-0.873-0.781-1.939-0.996-2.664-1.093c-0.215-0.025-0.445-0.041-0.689-0.041
		c-0.418,0-0.832,0.041-1.23,0.076c-0.178,0.021-0.363,0.036-0.547,0.051c-0.781,0.061-1.465,0.107-2.098,0.138
		c-0.184,0.01-0.373-0.036-0.563-0.148c-0.103-0.061-0.127-0.097-0.117-0.235c0.024-0.266,0.129-0.47,0.322-0.633
		c0.307-0.255,0.588-0.48,0.883-0.654c1.021-0.587,1.971-1.394,2.817-2.389c0.349-0.403,0.634-0.853,0.908-1.287
		c0.092-0.143,0.188-0.291,0.28-0.434c0.316-0.47,0.531-1.011,0.689-1.705c0.199-0.898,0.307-1.7,0.326-2.445
		c0.016-0.449,0.025-0.899,0.041-1.348c0.01-0.459,0.025-0.909,0.037-1.363l0.01-0.296c0.016-0.551,0.029-1.123,0.041-1.685
		c0-0.164-0.031-0.316-0.066-0.459c-0.078-0.312-0.332-0.516-0.653-0.521h-0.017c-0.315,0-0.569,0.194-0.658,0.495
		c-0.041,0.148-0.092,0.332-0.102,0.526c-0.063,1.302-0.129,2.691-0.18,4.059c-0.035,0.832-0.076,1.588-0.24,2.333
		c-0.111,0.516-0.213,0.95-0.418,1.343c-0.49-0.194-1.037-0.327-1.67-0.418c-0.785-0.112-1.582-0.209-2.354-0.301
		c-0.412-0.051-0.832-0.102-1.25-0.153c-0.291-0.036-0.592-0.056-0.924-0.056c-0.598,0-1.185,0.062-1.756,0.118l-0.046,0.005
		c-0.465,0.046-0.93,0.112-1.379,0.173c-0.184,0.021-0.362,0.046-0.546,0.072C34,16.5,33.116,16.633,32.268,16.944
		c-0.015-0.026-0.025-0.046-0.035-0.072c-0.103-0.214-0.199-0.418-0.256-0.623c-0.225-0.792-0.352-1.669-0.388-2.752
		c-0.051-1.43-0.123-2.875-0.184-4.228c-0.011-0.245-0.057-0.459-0.133-0.643c-0.103-0.235-0.378-0.418-0.633-0.418h-0.011
		c-0.271,0.005-0.5,0.209-0.603,0.393c-0.107,0.194-0.117,0.408-0.112,0.551c0.005,0.597,0.021,1.21,0.041,1.828
		c0.01,0.286,0.016,0.572,0.025,0.853c0.025,0.863,0.046,1.751,0.097,2.629c0.062,1.103,0.245,1.986,0.582,2.767
		c0.455,1.067,1.104,2.042,1.936,2.895c0.598,0.623,1.251,1.266,2.058,1.741c0.378,0.22,0.74,0.479,1.077,0.725
		c0.342,0.25,0.511,0.505,0.536,0.817c0.01,0.143-0.016,0.179-0.123,0.245c-0.204,0.118-0.438,0.169-0.725,0.148
		c-0.639-0.041-1.287-0.097-1.915-0.148l-0.424-0.036c-0.092-0.005-0.184-0.015-0.28-0.021c-0.357-0.03-0.725-0.066-1.098-0.066
		c-0.245,0-0.47,0.015-0.679,0.041c-1.04,0.139-1.821,0.43-2.454,0.925c-0.408,0.306-0.766,0.709-1.093,1.225
		C27.224,26.103,27,26.532,27,27.073c0,0.168-0.01,0.337-0.025,0.521c-0.011,0.174-0.021,0.354-0.025,0.536l-0.005,0.73
		c-0.011,2.037-0.026,4.146-0.026,6.219c0,0.98,0.026,1.976,0.046,2.936c0.006,0.158,0.011,0.321,0.011,0.48
		c-0.633-0.194-0.98-0.496-1.123-0.98c-0.021-0.071-0.046-0.143-0.071-0.204c-0.016-0.041-0.031-0.087-0.046-0.128
		c-0.501-1.516-0.879-2.869-1.164-4.146c-0.496-2.2-0.925-4.186-1.19-6.259c-0.158-1.215-0.147-2.215,0.031-3.155
		c0.204-1.087,0.367-2.19,0.531-3.263l0.02-0.148c0.128-0.842,0.256-1.71,0.337-2.578c0.128-1.363,0.226-2.701,0.297-3.977
		c0.061-1.062,0.092-2.144,0.117-3.191c0.01-0.229,0.016-0.464,0.021-0.699c0.01-0.281-0.021-0.552-0.051-0.781
		c-0.046-0.357-0.348-0.623-0.721-0.623c-0.352,0-0.647,0.24-0.72,0.587c-0.025,0.127-0.041,0.265-0.046,0.408
		c-0.01,0.353-0.021,0.7-0.025,1.047c-0.016,0.684-0.035,1.394-0.071,2.088c-0.036,0.679-0.092,1.374-0.143,2.042
		c-0.031,0.337-0.057,0.679-0.082,1.021c-0.016,0.235-0.03,0.479-0.041,0.709c-0.025,0.48-0.051,0.934-0.112,1.389
		c-0.24,1.751-0.521,3.589-0.822,5.463c-0.158,0.996-0.296,1.971-0.168,2.986l0.041,0.342c0.122,0.975,0.245,1.981,0.434,2.966
		c0.215,1.169,0.475,2.343,0.725,3.477c0.077,0.342,0.153,0.684,0.23,1.026c0.25,1.148,0.607,2.272,0.954,3.364
		c0.082,0.24,0.158,0.485,0.235,0.725c0.353,1.123,1.547,2.042,2.69,2.083l0.005,0.01c0.046,0.509,0.092,1.036,0.148,1.556
		c0.138,1.303,0.49,2.527,1.057,3.642c0.74,1.47,1.93,2.654,3.527,3.521c0.838,0.449,1.752,0.752,2.619,1.002
		c0.011,0.174,0.021,0.356,0.031,0.541c0.021,0.453,0.04,0.918,0.143,1.39c-0.174,0.01-0.347,0.021-0.525,0.04
		c-0.276,0.029-0.552,0.063-0.827,0.093c-0.991,0.106-2.017,0.22-3.022,0.361c-0.25,0.036-0.501,0.065-0.751,0.103
		c-1.813,0.256-3.691,0.516-5.519,0.909c-0.751,0.163-1.542,0.401-2.491,0.761c-1.108,0.42-1.767,1.276-2.221,1.98
		c-0.588,0.902-0.945,1.904-1.23,2.771c-0.521,1.558-0.797,3.166-1.058,4.717c-0.271,1.588-0.424,3.33-0.489,5.479
		c-0.016,0.572,0.01,1.144,0.03,1.695c0.01,0.25,0.021,0.5,0.03,0.75l0.011,0.397h1.588l-0.026-0.43
		c-0.01-0.162-0.02-0.326-0.03-0.484c-0.03-0.342-0.051-0.668-0.041-0.99c0.041-1.338,0.103-2.526,0.179-3.641
		c0.138-1.96,0.485-3.982,1.057-6.188c0.353-1.357,0.746-2.338,1.267-3.176c0.408-0.653,0.802-1.133,1.384-1.363
		c0.597-0.234,1.139-0.438,1.689-0.571c0.857-0.214,1.776-0.397,2.727-0.552l0.081-0.016c1.629-0.261,3.313-0.535,4.983-0.688
		c0.541-0.052,1.087-0.128,1.618-0.204c0.745-0.107,1.521-0.22,2.282-0.245l0.021,0.025c0.153,0.174,0.307,0.353,0.49,0.516
		c0.669,0.593,1.45,0.95,2.323,1.072c0.556,0.077,1.124,0,1.75-0.245c0.774-0.297,1.397-0.756,1.869-1.348
		c0.004-0.01,0.01-0.017,0.016-0.021c0.092,0.021,0.178,0.021,0.25,0.021c0.035,0,0.07,0,0.096,0.005
		c0.449,0.052,0.898,0.097,1.354,0.147c1.082,0.117,2.201,0.239,3.299,0.383c1.521,0.205,3.058,0.449,4.492,0.686
		c1.354,0.225,2.439,0.488,3.41,0.836c0.715,0.262,1.246,0.659,1.664,1.262c0.623,0.889,0.977,1.889,1.313,2.926
		c0.366,1.14,0.588,2.322,0.791,3.543c0.541,3.146,0.704,5.785,0.524,8.302l-0.029,0.438h1.582l0.021-0.383
		C60.553,70.566,60.604,69.434,60.537,68.283z M38.522,53.33c-0.066,0-0.138-0.005-0.204-0.016
		c-0.924-0.139-2.067-0.771-2.246-2.094c-0.051-0.353-0.082-0.71-0.112-1.087c0.041,0.005,0.076,0.011,0.117,0.021
		c0.153,0.021,0.312,0.041,0.465,0.057c0.327,0.035,0.628,0.071,0.919,0.143c0.286,0.072,0.562,0.082,0.771,0.082
		c0.093,0,0.189-0.006,0.281-0.006c0.087,0,0.174-0.004,0.261-0.004c0.076,0,0.147,0.004,0.214,0.004
		c0.271,0.016,0.532-0.035,0.778-0.08c0.086-0.021,0.174-0.037,0.254-0.053c0.291-0.045,0.582-0.092,0.873-0.137
		c0.051-0.012,0.104-0.021,0.153-0.025c-0.006,0.021-0.006,0.04-0.006,0.061c-0.035,0.42-0.069,0.813-0.147,1.195
		c-0.152,0.797-0.638,1.357-1.49,1.726C39.053,53.264,38.783,53.33,38.522,53.33z M38.579,48.813c-0.735,0-1.501-0.071-2.333-0.209
		c-1.215-0.205-2.369-0.558-3.528-1.067c-0.729-0.321-1.322-0.849-1.873-1.353c-0.685-0.629-1.185-1.436-1.588-2.533
		c-0.435-1.194-0.567-2.455-0.633-3.419c-0.139-2.058-0.139-4.095-0.128-6.173c0.005-1.23,0.005-2.476,0-3.686
		c0-0.495,0-0.99,0-1.485c1.144,0.546,2.404,0.893,3.844,1.067c0.675,0.077,1.349,0.117,1.997,0.117
		c1.664,0,3.272-0.271,4.763-0.807c1.076-0.393,1.945-0.893,2.629-1.537c1.396,1.047,2.869,1.802,4.392,2.262
		c0.92,0.276,1.674,0.398,2.399,0.378c-0.006,0.373-0.006,0.75-0.006,1.128c-0.006,0.837-0.006,1.705-0.016,2.558
		c0,0.332-0.004,0.664-0.01,1c-0.01,1.43-0.021,2.916-0.061,4.37c-0.041,1.379-0.187,2.491-0.455,3.492
		c-0.353,1.308-0.802,2.2-1.449,2.899c-0.863,0.925-1.773,1.567-2.777,1.955c-1.021,0.397-2.15,0.694-3.447,0.903
		C39.748,48.766,39.166,48.813,38.579,48.813z M37.287,24.796c0.536-0.378,0.547-1.031,0.552-1.246
		c0.021-0.883-0.368-1.628-1.154-2.206c-0.301-0.225-0.612-0.429-0.919-0.633c-0.112-0.071-0.225-0.143-0.331-0.214
		c-0.955-0.638-1.726-1.374-2.344-2.226c0.229-0.036,0.459-0.071,0.689-0.107c0.74-0.112,1.501-0.229,2.251-0.332
		c0.557-0.077,1.297-0.168,2.037-0.214c0.163-0.01,0.332-0.016,0.506-0.016c0.674,0,1.342,0.077,1.848,0.143
		c0.244,0.036,0.494,0.066,0.746,0.102c0.545,0.066,1.111,0.143,1.664,0.225c0.357,0.051,0.709,0.118,1.082,0.188
		c-0.221,0.306-0.434,0.567-0.658,0.807c-0.766,0.817-1.67,1.435-2.539,1.981c-0.428,0.271-0.959,0.664-1.285,1.307
		c-0.297,0.577-0.356,1.169-0.18,1.751c0.098,0.332,0.313,0.603,0.623,0.807c0.654,0.418,1.344,0.47,1.809,0.47
		c0.238,0,0.476-0.015,0.674-0.031c0.479-0.036,0.965-0.082,1.435-0.133c0.342-0.036,0.699-0.071,1.054-0.102
		c0.831-0.071,1.598,0.062,2.274,0.393c0.344,0.164,0.639,0.424,0.885,0.776c0.134,0.184,0.25,0.383,0.371,0.587
		c0.037,0.062,0.071,0.123,0.106,0.179c0.006,0.531,0.017,1.133,0.017,1.736h-0.004c-0.757,0-1.55-0.153-2.416-0.464
		c-0.884-0.322-1.634-0.685-2.293-1.118c-0.111-0.072-0.22-0.138-0.33-0.209c-0.226-0.143-0.438-0.281-0.647-0.429
		c-0.17-0.118-0.328-0.266-0.496-0.424l-0.011-0.01c-0.184-0.173-0.413-0.271-0.645-0.271c-0.238,0-0.46,0.107-0.617,0.301
		c-0.506,0.618-1.174,1.087-2.108,1.475c-1.267,0.526-2.655,0.802-4.248,0.848c-1.833,0.056-3.446-0.199-4.952-0.776
		c-0.209-0.082-0.413-0.184-0.628-0.286c-0.087-0.041-0.179-0.086-0.266-0.127c-0.107-0.051-0.22-0.102-0.332-0.158
		c0.016-0.123,0.098-0.266,0.235-0.485c0.291-0.47,0.562-0.771,0.873-0.985c0.53-0.357,1.139-0.542,1.802-0.542h0.031
		c0.475,0,0.965,0.036,1.439,0.077c0.26,0.021,0.531,0.046,0.796,0.062c0.751,0.041,1.384,0.076,2.022,0.092
		c0.015,0,0.035,0,0.056,0C36.419,25.358,36.945,25.036,37.287,24.796z"/>
	<path fill="#A78627" d="M24.88,19.186c0.123,0.082,0.261,0.127,0.403,0.127c0.235,0,0.46-0.117,0.644-0.327
		c0.133-0.158,0.312-0.362,0.506-0.546c0.153-0.153,0.301-0.219,0.47-0.219c0.429-0.005,0.761-0.347,0.761-0.781
		c0-0.398-0.286-0.725-0.669-0.766c-0.229-0.025-0.414-0.015-0.577,0.031c-0.699,0.194-1.266,0.653-1.735,1.409
		C24.437,18.506,24.518,18.951,24.88,19.186z"/>
	<path fill="#A78627" d="M50.102,18.23c0.152,0.026,0.301,0.087,0.39,0.153c0.184,0.148,0.346,0.337,0.524,0.536l0.051,0.061
		c0.24,0.276,0.49,0.332,0.648,0.332c0.148,0,0.285-0.046,0.414-0.133c0.352-0.24,0.424-0.659,0.188-1.072
		c-0.233-0.408-0.565-0.766-0.989-1.067c-0.367-0.255-0.72-0.383-1.093-0.388H50.2h-0.025c-0.479,0.01-0.821,0.327-0.838,0.76
		C49.326,17.741,49.52,18.124,50.102,18.23z"/>
	<path fill="#A78627" d="M41.52,54.605c-0.164,0-0.326,0.053-0.479,0.153c-0.035,0.021-0.069,0.046-0.106,0.071
		c-0.082,0.052-0.158,0.107-0.229,0.138c-0.787,0.353-1.414,0.507-2.028,0.507c-0.051,0-0.102,0-0.153,0
		c-0.092-0.007-0.184-0.007-0.275-0.007c-0.138,0.007-0.286,0.007-0.408-0.02l-0.062-0.017c-0.679-0.147-1.327-0.291-1.854-0.688
		c-0.122-0.097-0.271-0.144-0.429-0.144c-0.22,0-0.438,0.103-0.582,0.281c-0.25,0.301-0.229,0.734,0.046,1.005
		c0.148,0.148,0.332,0.327,0.567,0.444c0.965,0.484,1.971,0.734,2.986,0.734c0.148,0,0.296-0.004,0.449-0.016l0.025-0.005
		c0.741-0.099,1.614-0.256,2.431-0.685c0.226-0.123,0.418-0.28,0.576-0.424c0.315-0.285,0.356-0.729,0.098-1.053
		C41.947,54.709,41.744,54.605,41.52,54.605z"/>
	<path fill="#A78627" d="M41.127,39.632c-0.145,0-0.287,0.046-0.424,0.138c-0.113,0.072-0.221,0.153-0.316,0.24
		c-0.395,0.342-0.854,0.633-1.359,0.854c-0.356,0.158-0.693,0.158-1.05,0c-0.506-0.221-0.965-0.506-1.358-0.848
		c-0.097-0.086-0.198-0.163-0.316-0.24c-0.138-0.097-0.28-0.143-0.429-0.143c-0.174,0-0.337,0.066-0.475,0.194
		c-0.271,0.255-0.301,0.643-0.071,0.939c0.035,0.045,0.071,0.086,0.102,0.139c0.153,0.203,0.327,0.434,0.567,0.602
		c0.413,0.301,0.862,0.547,1.291,0.766c0.378,0.194,0.781,0.303,1.195,0.316h0.04l0.041-0.004c0.041-0.006,0.082-0.011,0.123-0.016
		c0.107-0.017,0.214-0.031,0.333-0.058c0.762-0.188,1.471-0.562,2.17-1.144c0.184-0.158,0.315-0.354,0.434-0.526
		c0.025-0.034,0.047-0.069,0.072-0.102c0.203-0.296,0.168-0.659-0.088-0.904C41.473,39.704,41.305,39.632,41.127,39.632z"/>
	<path fill="#A78627" d="M36.598,33.45c-0.016-0.194-0.112-0.378-0.276-0.51c-0.138-0.123-0.306-0.184-0.479-0.184
		c-0.22,0-0.435,0.097-0.639,0.286c-0.046,0.046-0.092,0.092-0.138,0.133c-0.234,0.229-0.459,0.444-0.704,0.602
		c-0.291,0.184-0.588,0.276-0.873,0.276c-0.316,0-0.639-0.112-0.955-0.337c-0.133-0.092-0.261-0.209-0.393-0.337
		c-0.057-0.051-0.107-0.102-0.164-0.148C31.814,33.082,31.615,33,31.416,33c-0.204,0-0.393,0.082-0.541,0.225
		c-0.307,0.301-0.316,0.766-0.016,1.103c0.046,0.051,0.092,0.102,0.133,0.143c0.776,0.776,1.599,1.144,2.599,1.149h0.031l0.03-0.005
		c0.03-0.005,0.066-0.01,0.103-0.01c0.117-0.016,0.275-0.036,0.434-0.072c0.807-0.194,1.517-0.659,2.175-1.424
		C36.537,33.904,36.618,33.674,36.598,33.45z"/>
	<path fill="#A78627" d="M46.113,33.215C45.967,33.077,45.777,33,45.578,33c-0.184,0-0.367,0.066-0.51,0.189
		c-0.072,0.061-0.133,0.123-0.187,0.179c-0.024,0.025-0.045,0.051-0.069,0.071c-0.404,0.403-0.838,0.608-1.281,0.608
		c-0.373,0-0.756-0.143-1.129-0.424c-0.168-0.128-0.322-0.286-0.484-0.455c-0.047-0.046-0.092-0.097-0.143-0.143
		c-0.174-0.179-0.389-0.271-0.607-0.271c-0.186,0-0.357,0.062-0.502,0.189c-0.158,0.138-0.254,0.322-0.266,0.526
		c-0.021,0.214,0.057,0.429,0.211,0.604c0.127,0.147,0.291,0.332,0.463,0.495c0.752,0.689,1.537,1.026,2.467,1.052h0.01h0.006
		c0.959-0.01,1.842-0.459,2.619-1.338C46.445,33.976,46.42,33.506,46.113,33.215z"/>
</g>
</svg>
