<?xml version="1.0" encoding="utf-8"?>
<!-- Generator: Adobe Illustrator 16.0.0, SVG Export Plug-In . SVG Version: 6.00 Build 0)  -->
<!DOCTYPE svg PUBLIC "-//W3C//DTD SVG 1.1//EN" "http://www.w3.org/Graphics/SVG/1.1/DTD/svg11.dtd">
<svg version="1.1" id="Layer_1" xmlns="http://www.w3.org/2000/svg" xmlns:xlink="http://www.w3.org/1999/xlink" x="0px" y="0px"
	 width="77px" height="80px" viewBox="0 0 77 80" enable-background="new 0 0 77 80" xml:space="preserve">
<g>
	<path fill="#A78627" d="M76.256,57.941c-0.123-1.601-0.744-3.094-1.887-4.572c-1.118-1.445-2.557-2.693-4.525-3.922
		c-1.725-1.08-3.658-2.008-5.906-2.84c-1.533-0.566-3.153-1.063-4.84-1.49c2.055-0.438,3.827-1.004,5.463-1.742
		c2.024-0.914,3.486-1.926,4.6-3.191c0.961-1.09,1.488-2.237,1.609-3.508c0.129-1.336-0.213-2.617-1.047-3.916
		c-0.76-1.175-1.793-2.205-3.252-3.244c-1.424-1.01-3.07-1.885-5.031-2.674c-2.256-0.909-4.69-1.617-7.407-2.152
		c1.098-0.374,2.094-0.77,3.024-1.198c1.91-0.885,3.387-1.786,4.637-2.842c1.17-0.979,1.961-1.941,2.484-3.022
		c1.021-2.102,0.563-4.319-1.218-5.934c-0.953-0.865-2.131-1.547-3.606-2.082c-1.813-0.664-3.826-1.084-6.151-1.287
		c-1.031-0.088-2.097-0.131-3.155-0.131c-2.094,0-4.283,0.176-6.512,0.529c-2.924,0.458-5.564,1.156-8.08,2.135
		c-2.534,0.99-4.478,2.06-6.114,3.375c-1.376,1.102-2.269,2.197-2.811,3.447c-0.427,0.977-0.542,1.951-0.343,2.896
		c0.261,1.249,0.989,2.313,2.22,3.261c0.826,0.629,1.785,1.146,2.976,1.593c-1.68,0.538-3.067,1.146-4.309,1.876
		c-1.481,0.88-2.536,1.801-3.312,2.902c-1.241,1.756-1.481,3.627-0.712,5.559c0.489,1.236,1.318,2.338,2.606,3.472
		c1.386,1.218,3.034,2.235,5.183,3.204c1.263,0.567,2.615,1.072,4.099,1.526c-0.18,0.027-0.361,0.056-0.54,0.079
		c-3.515,0.557-6.596,1.391-9.416,2.546c0,0-0.002,0-0.002,0.005c-0.621-0.14-1.269-0.209-1.93-0.209
		c-0.939,0-1.935,0.139-3.042,0.416c-0.265,0.066-0.522,0.153-0.77,0.237c-0.297-0.793-0.7-1.562-1.215-2.334
		c-0.811-1.211-1.641-2.033-2.609-2.592c-0.838-0.484-1.688-0.731-2.522-0.731c-0.44,0-0.883,0.068-1.312,0.204
		c-1.525,0.47-2.617,1.554-3.245,3.224c-0.578,1.533-0.748,3.203-0.509,5.106c-1.048,0.147-2.114,0.488-3.309,1.049
		c-1.115,0.523-1.982,1.183-2.653,2.005c-0.857,1.051-1.233,2.334-1.122,3.814c0.206,2.667,1.689,4.469,4.175,5.072
		c0.627,0.149,1.286,0.232,2.085,0.263c-0.288,0.618-0.478,1.265-0.668,1.892L6.275,64.23c-0.474,1.574-0.246,3.125,0.668,4.604
		c0.784,1.281,1.953,2.104,3.376,2.397c0.996,0.203,2.076,0.072,3.196-0.381c1.963-0.795,3.553-2.031,4.729-3.67
		c1.087,0.523,2.13,0.834,3.183,0.957c0.616,0.071,1.128,0.104,1.611,0.104c1.088,0,2.035-0.177,2.893-0.545
		c2.272,0.977,4.662,1.768,7.311,2.407c3.511,0.853,7.253,1.39,11.111,1.604c1.219,0.063,2.441,0.097,3.637,0.097
		c2.646,0,5.275-0.164,7.814-0.49c3.902-0.506,7.278-1.316,10.326-2.482c2.368-0.904,4.219-1.891,5.829-3.102
		c1.47-1.104,2.544-2.268,3.28-3.549C76.023,60.807,76.369,59.383,76.256,57.941z M17.131,65.42
		c-0.115,0.148-0.22,0.307-0.321,0.453s-0.199,0.287-0.3,0.423c-0.943,1.254-2.189,2.183-3.818,2.826
		c-0.534,0.212-1.143,0.302-1.793,0.267c-0.521-0.029-1.018-0.26-1.614-0.742c-0.717-0.584-1.14-1.375-1.3-2.43
		c-0.063-0.414-0.031-0.844,0.096-1.35c0.274-1.098,0.654-2.049,1.157-2.922c0.098-0.168,0.326-0.568,0.168-1.062
		c-0.205-0.623-0.638-0.75-0.967-0.75c-0.064,0-0.133,0.002-0.202,0.015c-1.063,0.147-2.129,0.065-3.166-0.24
		c-1.401-0.41-2.187-1.389-2.396-2.996c-0.109-0.809-0.004-1.518,0.312-2.171c0.296-0.604,0.793-1.112,1.571-1.606
		c0.92-0.586,2.005-1.008,3.408-1.336c0.327-0.076,0.647-0.164,0.961-0.247l0.199-0.056c0.431-0.113,0.67-0.479,0.637-0.973
		c-0.014-0.213-0.029-0.42-0.047-0.633c-0.033-0.406-0.064-0.8-0.074-1.189c-0.028-1.236,0.113-2.231,0.447-3.129
		c0.382-1.025,0.966-1.697,1.777-2.053c0.686-0.297,1.415-0.283,2.177,0.045c0.814,0.346,1.497,0.938,2.204,1.928
		c0.544,0.762,1.01,1.64,1.464,2.762c0.039,0.098,0.086,0.205,0.137,0.311c0.167,0.32,0.446,0.5,0.789,0.5
		c0.092,0,0.188-0.018,0.298-0.041c0.152-0.037,0.301-0.078,0.45-0.114c1.258-0.312,2.442-0.607,3.672-0.607
		c0.305,0,0.604,0.017,0.893,0.058c0.892,0.115,1.513,0.356,2.006,0.775c0.603,0.512,1.025,1.198,1.296,2.108
		c0.137,0.471,0.164,0.979,0.092,1.596c-0.066,0.525-0.323,1.021-0.805,1.543c-0.726,0.79-1.659,1.414-2.781,1.851
		c-0.217,0.086-0.671,0.263-0.728,0.813c-0.065,0.609,0.215,0.946,0.462,1.118c0.141,0.101,0.285,0.194,0.426,0.285
		c0.282,0.184,0.549,0.354,0.773,0.561c0.105,0.095,0.21,0.187,0.313,0.283c0.546,0.481,1.059,0.942,1.435,1.483
		c0.734,1.048,0.867,2.205,0.388,3.438c-0.092,0.237-0.235,0.484-0.368,0.711c-0.378,0.63-0.984,1.005-2.037,1.255
		c-0.323,0.074-0.664,0.112-1.022,0.149h-0.493c-1.444-0.004-2.783-0.318-3.982-0.94c-0.063-0.027-0.12-0.063-0.181-0.096
		c-0.117-0.066-0.24-0.135-0.378-0.193c-0.123-0.057-0.289-0.117-0.476-0.117C17.457,64.98,17.223,65.301,17.131,65.42z
		 M27.757,66.373c0.354-0.434,0.632-0.908,0.842-1.43c0.546-1.358,0.532-2.805-0.049-4.299c-0.228-0.578-0.564-1.103-1.034-1.59
		l-0.049-0.052c-0.534-0.558-1.08-1.127-1.727-1.604c0.656-0.385,1.351-0.853,1.96-1.453c1.601-1.592,2.01-3.609,1.18-5.84
		c-0.347-0.938-0.881-1.727-1.583-2.347c1.719-0.604,3.538-1.092,5.533-1.489c2.464-0.492,4.985-0.804,7.496-0.929
		c0.386-0.018,0.781,0.045,1.208,0.111c0.104,0.014,0.209,0.032,0.313,0.049c2.577,0.374,5.17,0.563,7.711,0.563
		c1.305,0,2.619-0.049,3.916-0.148c0.276-0.021,0.529,0.016,0.783,0.113c0.237,0.092,0.479,0.125,0.693,0.158
		c0.078,0.011,0.154,0.022,0.23,0.037c3.43,0.637,6.418,1.483,9.131,2.575c2.289,0.925,4.195,1.952,5.814,3.146
		c1.55,1.14,2.614,2.255,3.354,3.515c0.855,1.461,1.088,2.863,0.713,4.297c-0.287,1.097-0.899,2.116-1.867,3.117
		c-1.125,1.162-2.512,2.142-4.364,3.074c-2.245,1.133-4.817,2.011-7.868,2.688c-3.41,0.755-6.98,1.162-10.91,1.242
		c-0.441,0.013-0.897,0.015-1.341,0.015c-1.819,0-3.639-0.08-5.397-0.236c-4.902-0.434-9.233-1.324-13.23-2.732
		c-0.462-0.16-0.934-0.344-1.384-0.523C27.808,66.393,27.782,66.383,27.757,66.373z M49.102,10.111
		c0.17-0.002,0.342-0.004,0.51-0.004c2.627,0,4.529,0.16,6.365,0.535c1.771,0.364,3.149,0.839,4.338,1.501
		c0.811,0.452,1.42,0.955,1.871,1.542c0.729,0.946,0.817,1.955,0.273,3.096c-0.438,0.908-1.129,1.715-2.251,2.61
		c-1.333,1.063-2.89,1.946-4.892,2.771c-3.487,1.438-7.221,2.31-11.414,2.664c-1.116,0.094-2.211,0.139-3.245,0.139
		c-1.621,0-3.194-0.115-4.68-0.344c-2.126-0.327-3.769-0.812-5.168-1.523c-0.81-0.414-1.413-0.848-1.896-1.362
		c-1.055-1.13-1.195-2.387-0.423-3.738c0.462-0.796,1.106-1.518,2.032-2.261c1.421-1.145,3.103-2.088,5.296-2.967
		c2.473-0.991,5.103-1.698,8.042-2.166C45.709,10.313,47.717,10.123,49.102,10.111z M34.902,26.477
		c0.072-0.016,0.146-0.021,0.228-0.021c0.154,0,0.316,0.024,0.489,0.053l0.055,0.004c1.626,0.246,3.313,0.373,5.021,0.373
		c1.363,0,2.777-0.08,4.201-0.238c0.828-0.092,1.662-0.223,2.463-0.353c0.559-0.09,1.136-0.182,1.699-0.257
		c0.065-0.008,0.139-0.015,0.227-0.015c0.142,0,0.288,0.011,0.441,0.023c0.104,0.009,0.201,0.017,0.297,0.021
		c2.518,0.136,4.986,0.741,7.072,1.322c2.821,0.782,5.184,1.762,7.223,2.995c1.379,0.834,2.391,1.657,3.19,2.591
		c0.759,0.889,1.181,1.72,1.329,2.612c0.162,0.998-0.08,1.941-0.746,2.871c-0.689,0.977-1.642,1.765-3.078,2.558
		c-1.711,0.942-3.695,1.644-6.252,2.213c-1.47,0.328-2.988,0.559-4.648,0.713c-1.482,0.139-3.008,0.221-4.178,0.221
		c-0.105,0-0.217-0.004-0.315-0.004c-3.062-0.031-5.72-0.246-8.356-0.684c-3.264-0.543-6.113-1.32-8.719-2.384
		c-2.239-0.917-3.945-1.889-5.368-3.068c-0.914-0.754-1.553-1.473-2.013-2.269c-0.698-1.207-0.82-2.345-0.372-3.481
		c0.337-0.855,0.936-1.609,1.883-2.372c1.042-0.841,2.267-1.517,3.854-2.138C31.811,27.262,33.245,26.842,34.902,26.477z"/>
	<path fill="#A78627" d="M33.645,65.826l0.066,0.033c0.277,0.119,0.599,0.26,0.941,0.322c1.642,0.307,3.312,0.592,4.93,0.87
		l0.04,0.009c1.425,0.246,2.836,0.334,4.032,0.395c0.412,0.021,0.828,0.035,1.236,0.05c0.326,0.017,0.646,0.028,0.963,0.043h0.024
		c0.388,0,0.765,0.002,1.128,0.002c0.799,0,1.551,0.005,2.305,0.019c1.27,0.024,2.513-0.077,3.996-0.233
		c0.529-0.06,0.905-0.491,0.873-1.006c-0.029-0.511-0.447-0.894-0.976-0.897c-0.103,0-0.195,0.008-0.28,0.02L52.87,65.45
		c-0.25,0.021-0.501,0.043-0.751,0.065c-0.535,0.049-1.087,0.099-1.623,0.117c-0.945,0.032-1.918,0.032-2.891,0.002
		c-0.375-0.011-0.748-0.021-1.121-0.027c-1.012-0.029-2.059-0.062-3.084-0.108c-0.604-0.026-1.152-0.062-1.678-0.101
		c-1.298-0.104-2.619-0.326-3.895-0.543l-0.433-0.074c-0.744-0.124-1.504-0.295-2.237-0.457c-0.302-0.066-0.601-0.133-0.902-0.196
		c-0.063-0.017-0.123-0.021-0.181-0.022c-0.393-0.021-0.733,0.184-0.888,0.527c-0.103,0.227-0.11,0.479-0.021,0.705
		C33.251,65.555,33.417,65.727,33.645,65.826z"/>
	<path fill="#A78627" d="M55.48,66.828l0.086,0.01l0.086-0.018c0.091-0.021,0.182-0.039,0.279-0.057
		c0.223-0.048,0.449-0.093,0.682-0.147l0.352-0.085c1-0.25,2.036-0.508,3.053-0.777c0.293-0.078,0.543-0.234,0.76-0.373l0.063-0.042
		c0.266-0.169,0.41-0.563,0.311-0.864c-0.1-0.298-0.406-0.467-0.656-0.5c-0.188-0.023-0.378,0.004-0.521,0.023h-0.015
		c-0.091,0.018-0.181,0.029-0.269,0.04c-0.311,0.047-0.631,0.092-0.951,0.16c-0.938,0.194-1.887,0.403-2.803,0.608l-0.502,0.106
		c-0.15,0.035-0.285,0.09-0.4,0.162c-0.366,0.231-0.521,0.637-0.409,1.057C54.73,66.523,55.043,66.779,55.48,66.828z"/>
	<path fill="#A78627" d="M36.048,39.893c0.505,0.166,1.02,0.318,1.501,0.464c2.146,0.641,4.282,1.073,6.352,1.288
		c1.41,0.146,2.859,0.224,4.311,0.224c2.027,0,4.137-0.148,6.266-0.435c0.471-0.063,0.931-0.162,1.373-0.26l0.098-0.021
		c0.254-0.057,0.472-0.202,0.605-0.416c0.137-0.211,0.184-0.467,0.124-0.719c-0.095-0.442-0.477-0.741-0.942-0.741
		c-0.053,0-0.108,0.002-0.164,0.013c-0.043,0.007-0.079,0.017-0.125,0.023c-0.014,0.005-0.032,0.007-0.047,0.011
		c-0.191,0.032-0.377,0.07-0.566,0.103c-0.417,0.081-0.807,0.157-1.202,0.202c-1.854,0.21-3.728,0.317-5.562,0.317
		c-0.295,0-0.596-0.001-0.891-0.009c-2.296-0.043-4.51-0.297-6.58-0.765c-1.009-0.223-2.026-0.493-3.015-0.753
		c-0.567-0.153-1.154-0.307-1.74-0.453c-0.227-0.059-0.45-0.082-0.665-0.104c-0.084-0.009-0.175-0.018-0.265-0.03l-0.971-0.13
		l0.421,0.889C34.732,39.367,35.392,39.675,36.048,39.893z"/>
	<path fill="#A78627" d="M35.002,15.049c-0.42,0.189-0.62,0.59-0.507,1.025c0.099,0.38,0.433,0.633,0.834,0.633
		c0.066,0,0.132-0.006,0.194-0.02c0.199-0.037,0.396-0.096,0.583-0.162c0.38-0.141,0.766-0.287,1.141-0.432
		c0.224-0.082,0.446-0.167,0.666-0.252c1.669-0.629,3.045-1.053,4.327-1.33c2.109-0.463,4.22-0.709,6.264-0.738h0.238
		c0.047,0,0.094,0,0.145,0c0.529-0.006,1.063-0.008,1.598-0.014c0.606-0.01,1.033-0.402,1.033-0.961
		c-0.004-0.545-0.427-0.939-1.029-0.953c-0.014,0-0.026,0-0.043,0h-0.022c-0.288,0.003-0.575,0.01-0.86,0.016
		c-0.633,0.009-1.285,0.021-1.924,0.041c-2.072,0.06-4.236,0.359-6.433,0.893c-1.327,0.322-2.721,0.784-4.381,1.457
		c-0.495,0.199-0.982,0.42-1.454,0.631C35.247,14.941,35.126,14.996,35.002,15.049z"/>
	<path fill="#A78627" d="M18.796,56.657c-0.195-1.372-0.825-2.491-1.863-3.319c-0.438-0.352-1.012-0.545-1.608-0.545
		c-0.838,0-1.643,0.371-2.101,0.963c-0.542,0.701-0.81,1.532-0.815,2.539v0.029l0.004,0.033c0.012,0.106,0.025,0.213,0.033,0.318
		c0.025,0.25,0.051,0.506,0.096,0.768c0.207,1.129,0.861,1.93,1.951,2.385c0.347,0.148,0.715,0.224,1.088,0.224
		c0.427,0,0.877-0.097,1.38-0.286C18.094,59.328,18.969,57.85,18.796,56.657z M15.659,58.141L15.659,58.141
		c-0.52,0-1.14-0.404-1.231-1.005c-0.031-0.198-0.053-0.396-0.078-0.612c-0.008-0.09-0.018-0.182-0.029-0.272
		c-0.012-0.356,0.104-0.707,0.234-1.03c0.139-0.346,0.394-0.544,0.695-0.544c0.189,0,0.39,0.08,0.581,0.229
		c0.505,0.404,0.834,0.963,1.039,1.756c0.072,0.295,0.012,0.625-0.172,0.904c-0.204,0.307-0.519,0.506-0.891,0.565
		C15.761,58.134,15.71,58.141,15.659,58.141z"/>
</g>
</svg>
