<?xml version="1.0" encoding="utf-8"?>
<!-- Generator: Adobe Illustrator 16.0.0, SVG Export Plug-In . SVG Version: 6.00 Build 0)  -->
<!DOCTYPE svg PUBLIC "-//W3C//DTD SVG 1.1//EN" "http://www.w3.org/Graphics/SVG/1.1/DTD/svg11.dtd">
<svg version="1.1" id="Layer_1" xmlns="http://www.w3.org/2000/svg" xmlns:xlink="http://www.w3.org/1999/xlink" x="0px" y="0px"
	 width="77px" height="80px" viewBox="0 0 77 80" enable-background="new 0 0 77 80" xml:space="preserve">
<g>
	<path fill="#A78627" d="M32.881,55.581c-0.133,0-0.259,0.028-0.38,0.087c-0.133,0.063-0.242,0.143-0.322,0.207
		c-0.098,0.074-0.201,0.154-0.294,0.229c-0.138,0.109-0.27,0.213-0.402,0.313c-2.469,1.823-5.104,3.158-7.837,3.963
		c-1.968,0.582-3.924,0.875-5.822,0.875c-0.933,0-1.87-0.068-2.791-0.207c-1.817-0.275-3.55-0.828-5.155-1.64
		c-0.892-0.454-1.755-0.995-2.635-1.651c-0.173-0.127-0.362-0.195-0.559-0.195c-0.265,0-0.512,0.133-0.679,0.356
		c-0.138,0.19-0.195,0.426-0.149,0.649c0.04,0.229,0.179,0.438,0.392,0.576c0.195,0.133,0.385,0.258,0.581,0.391
		c0.541,0.369,1.099,0.754,1.686,1.082c2.762,1.543,5.909,2.359,9.097,2.359h0.069c2.784-0.035,5.287-0.483,7.865-1.416
		c2.641-0.955,5.167-2.365,7.716-4.32c0.098-0.08,0.189-0.168,0.271-0.266c0.265-0.322,0.265-0.766,0-1.082
		C33.37,55.689,33.134,55.581,32.881,55.581z"/>
	<path fill="#A78627" d="M70.32,57.682c-0.186,0-0.362,0.058-0.529,0.166c-0.068,0.047-0.139,0.098-0.195,0.146l-0.047,0.028
		c-1.554,1.15-3.262,2.02-5.086,2.57c-1.703,0.52-3.464,0.783-5.247,0.783c-1.323,0-2.692-0.145-4.063-0.426
		c-3.273-0.68-6.316-2.043-9.303-4.172c-0.201-0.148-0.408-0.312-0.611-0.467c-0.194-0.144-0.391-0.299-0.592-0.441
		c-0.16-0.115-0.346-0.18-0.529-0.18c-0.254,0-0.494,0.121-0.655,0.328c-0.294,0.368-0.248,0.852,0.108,1.18
		c0.133,0.121,0.26,0.213,0.392,0.311c0.041,0.029,0.087,0.064,0.134,0.1c1.863,1.427,3.854,2.601,5.902,3.486
		c2.939,1.271,5.967,1.955,8.999,2.024h0.022h0.022c0.235-0.017,0.478-0.028,0.713-0.04c0.524-0.029,1.063-0.059,1.601-0.115
		c2.865-0.293,5.535-1.202,7.939-2.704c0.414-0.253,0.813-0.534,1.196-0.812c0.093-0.068,0.185-0.133,0.276-0.201
		c0.213-0.145,0.346-0.352,0.379-0.587c0.035-0.224-0.021-0.448-0.16-0.64C70.826,57.809,70.579,57.682,70.32,57.682z"/>
	<path fill="#A78627" d="M70.291,65.553c-0.213,0-0.42,0.08-0.6,0.229c-0.057,0.046-0.107,0.093-0.148,0.132
		c-0.852,0.777-1.795,1.451-2.809,1.997c-2.697,1.462-5.685,2.175-9.118,2.181h-0.029c-2.94,0-5.897-0.553-8.786-1.64
		c-0.305-0.115-0.609-0.241-0.908-0.368c-0.156-0.063-0.312-0.121-0.461-0.184c-0.132-0.053-0.265-0.082-0.392-0.082
		c-0.333,0-0.621,0.186-0.765,0.49c-0.098,0.207-0.109,0.438-0.029,0.645c0.063,0.16,0.208,0.385,0.547,0.535
		c3.55,1.541,7.111,2.301,10.893,2.318l0,0h0.006c1.479,0,2.935-0.146,4.314-0.421c3.199-0.633,5.857-1.848,8.118-3.711
		c0.254-0.207,0.489-0.42,0.69-0.604c0.379-0.345,0.42-0.863,0.104-1.226C70.752,65.656,70.533,65.553,70.291,65.553z"/>
	<path fill="#A78627" d="M29.952,67.698c-0.104,0-0.207,0.021-0.305,0.052c-0.052,0.018-0.099,0.041-0.133,0.059l-0.023,0.012
		c-2.237,0.961-4.521,1.609-6.795,1.927c-1.122,0.149-2.238,0.229-3.309,0.229c-1.271,0-2.525-0.108-3.739-0.328
		c-2.642-0.471-4.868-1.375-6.813-2.75c-0.362-0.258-0.696-0.541-1.053-0.84c-0.155-0.127-0.306-0.259-0.461-0.386
		c-0.189-0.149-0.402-0.235-0.615-0.235c-0.241,0-0.46,0.104-0.627,0.293c-0.316,0.369-0.271,0.875,0.12,1.237
		c1.404,1.306,3.056,2.358,4.914,3.136c2.584,1.076,5.356,1.582,8.729,1.588h0.012h0.017c0.109-0.006,0.242-0.012,0.403-0.022
		c0.443-0.017,1.053-0.045,1.663-0.108c2.434-0.242,4.885-0.834,7.272-1.771c0.391-0.155,0.748-0.305,1.093-0.461
		c0.213-0.098,0.374-0.264,0.449-0.477c0.08-0.22,0.069-0.449-0.029-0.656C30.585,67.889,30.286,67.698,29.952,67.698z"/>
	<path fill="#A78627" d="M45.171,48.734c0.022-0.42,0.011-0.846,0-1.254c-0.006-0.133-0.006-0.271-0.012-0.403
		c-0.022-1.484-0.052-2.97-0.081-4.454c-0.006-0.373-0.018-0.748-0.021-1.115c1.316,2.428,2.629,4.855,3.94,7.289
		c0.271,0.496,0.541,0.996,0.812,1.49c0.668,1.232,1.363,2.51,2.03,3.775c0.587,1.127,1.56,1.813,2.798,1.989
		c0.178,0.023,0.361,0.041,0.539,0.041c1.41,0,2.768-0.754,3.557-1.928c0.121,0.229,0.229,0.448,0.34,0.679
		c0.426,0.928,1.191,1.479,2.268,1.646c0.213,0.029,0.42,0.046,0.627,0.046c0.702,0,1.409-0.185,2.111-0.541
		c0.943-0.489,1.6-1.122,1.997-1.938c0.356-0.729,0.426-1.375,0.207-1.974c-0.104-0.288-0.236-0.553-0.368-0.806
		c0-0.012-0.006-0.019-0.012-0.029c0.367,0.018,0.713-0.034,1.029-0.148c1.662-0.604,2.67-1.802,2.985-3.551
		c0.099-0.529,0.035-1.007-0.179-1.416c-0.528-1-1.063-2.008-1.594-3.014c1.277-0.104,2.268-0.742,2.935-1.905
		c0.622-1.07,0.662-2.163,0.121-3.239c-0.104-0.213-0.207-0.42-0.312-0.633c-0.086-0.178-0.173-0.357-0.265-0.529
		c-0.226-0.455-0.449-0.909-0.673-1.364c-0.514-1.036-1.036-2.106-1.577-3.147c-0.685-1.341-1.394-2.693-2.077-4.005
		c-0.454-0.863-0.926-1.761-1.381-2.646c-0.73-1.404-1.582-2.601-2.596-3.648c-0.547-0.564-1.19-1.231-1.813-1.899
		c-0.391-0.426-0.787-0.863-1.174-1.283c-0.361-0.397-0.742-0.813-1.116-1.22c-0.483-0.523-0.938-1.047-1.133-1.691
		c-0.099-0.322-0.202-0.639-0.3-0.955c-0.271-0.852-0.547-1.732-0.782-2.606c-0.104-0.374-0.179-0.754-0.259-1.151
		c-0.127-0.627-0.26-1.266-0.489-1.898l-0.022-0.058c-0.254-0.679-0.433-0.8-1.186-0.806c-1.18-0.006-2.377-0.023-3.539-0.035
		c-0.552-0.005-1.104-0.011-1.65-0.017c-2.623-0.023-5.248-0.052-7.865-0.075H40.98c-0.346,0-0.559,0.144-0.674,0.259
		c-0.115,0.126-0.259,0.351-0.246,0.725c0.017,0.581,0.021,1.047,0.006,1.473c-0.012,0.351-0.035,0.708-0.059,1.059
		c-0.035,0.512-0.063,1.042-0.068,1.565c-0.013,1.26-0.019,2.549-0.019,3.786c-0.006,1.237-0.006,2.515-0.017,3.769
		c-0.023,2.261-0.075,4.534-0.121,6.674c-0.04,1.841-0.247,3.314-0.656,4.632l-0.04,0.138c-0.219,0.702-0.443,1.421-0.581,2.169
		c-0.109-0.622-0.282-1.214-0.455-1.795c-0.104-0.356-0.213-0.725-0.299-1.093c-0.167-0.679-0.356-1.45-0.408-2.204
		c-0.098-1.41-0.139-2.848-0.179-4.246l-0.018-0.512c-0.04-1.329-0.063-2.773-0.08-4.407c-0.018-1.554-0.023-3.13-0.028-4.661
		v-0.759c0-0.328,0.005-0.662,0.005-0.984c0.012-0.915,0.023-1.853-0.068-2.796c-0.052-0.472-0.046-0.949-0.041-1.456
		c0-0.173,0.006-0.351,0.006-0.529c-0.006-0.541-0.379-0.921-0.914-0.921h-0.012c-0.213,0-0.432,0-0.639,0.006
		c-0.133,0-0.265,0.006-0.397,0.006L32.828,8.23c-2.394,0.023-4.793,0.046-7.187,0.069c-0.788,0.006-1.594,0.006-2.365,0.006h-0.615
		c-0.397,0-0.696,0.225-0.823,0.61c-0.04,0.126-0.08,0.248-0.12,0.374c-0.098,0.282-0.196,0.576-0.271,0.88
		c-0.087,0.351-0.161,0.708-0.23,1.053c-0.052,0.265-0.104,0.53-0.161,0.789c-0.305,1.346-0.754,2.681-1.156,3.826
		c-0.167,0.478-0.432,0.903-0.812,1.306l-0.149,0.155c-0.276,0.293-0.559,0.593-0.834,0.892c-0.368,0.403-0.742,0.812-1.11,1.214
		c-0.455,0.495-0.909,0.99-1.364,1.484c-0.195,0.219-0.402,0.432-0.604,0.645c-0.352,0.368-0.714,0.748-1.054,1.139
		c-0.73,0.846-1.393,1.875-2.083,3.228c-0.207,0.409-0.414,0.823-0.621,1.231c-0.489,0.973-0.995,1.979-1.519,2.946
		C8.226,32.9,6.828,35.742,5.78,37.9c-0.466,0.955-0.478,1.916-0.04,2.86c0.593,1.266,1.565,2.014,2.883,2.221
		c0.08,0.013,0.155,0.019,0.235,0.023c-0.068,0.132-0.138,0.258-0.201,0.391c-0.414,0.795-0.846,1.617-1.283,2.416
		c-0.311,0.554-0.396,1.157-0.265,1.791c0.248,1.174,0.841,2.105,1.772,2.768c0.714,0.52,1.421,0.765,2.146,0.765
		c0.017,0,0.04,0,0.052,0c-0.225,0.403-0.449,0.857-0.466,1.398c-0.029,0.817,0.259,1.554,0.834,2.192
		c1.024,1.115,2.221,1.687,3.573,1.687c0.213,0,0.431-0.019,0.649-0.047c1.042-0.132,1.824-0.689,2.256-1.622
		c0.104-0.23,0.225-0.454,0.345-0.686c0.374,0.541,0.841,0.908,1.203,1.156c0.742,0.518,1.513,0.777,2.302,0.777
		c0.46,0,0.932-0.094,1.397-0.271c0.875-0.339,1.474-0.84,1.842-1.523c0.281-0.535,0.581-1.075,0.868-1.601
		c0.196-0.355,0.392-0.714,0.581-1.069c1.646-3.045,3.292-6.088,4.942-9.131l0.535-0.996c-0.011,0.593-0.022,1.181-0.034,1.767
		l-0.023,1.358c-0.011,0.379-0.017,0.765-0.028,1.15c-0.018,0.862-0.04,1.766-0.04,2.652c0,1.473,0.702,2.543,1.984,3.003
		c0.467,0.167,0.921,0.253,1.353,0.253l0,0c0.61,0,1.18-0.166,1.697-0.506c0.627-0.414,1.116-1.008,1.45-1.768
		c0.08-0.195,0.144-0.386,0.189-0.574c0.282,1.449,1.571,2.923,3.239,2.951c0.029,0,0.053,0,0.082,0
		C43.398,51.686,45.057,50.777,45.171,48.734z M18.428,52.146l-0.006-0.029c0-0.012,0.006-0.018,0.011-0.023
		C18.433,52.111,18.433,52.129,18.428,52.146z M32.788,38.516c-0.005,0.242-0.005,0.483-0.011,0.725l-0.483-0.156
		c0.132-0.242,0.259-0.478,0.391-0.719c0-0.005,0.006-0.011,0.006-0.017c0.058,0.017,0.081,0.029,0.087,0.041
		C32.783,38.4,32.794,38.435,32.788,38.516z M36.983,45.506l-0.023,0.73c-0.028,0.639-0.052,1.295-0.121,1.928
		c-0.068,0.656-0.42,1.174-1.029,1.543c-0.219,0.132-0.461,0.201-0.72,0.201c-0.719,0-1.513-0.559-1.548-1.387
		c-0.022-0.65-0.006-1.324,0.012-1.975c0.012-0.253,0.018-0.501,0.023-0.748c0.022-1.375,0.052-2.756,0.074-4.132
		c0.023-1.047,0.041-2.088,0.063-3.135c0.012-0.581-0.265-0.938-0.834-1.087c-0.075-0.023-0.155-0.035-0.23-0.035
		c-0.189,0-0.535,0.069-0.776,0.512c-0.202,0.368-0.403,0.742-0.599,1.11c-0.195,0.357-0.386,0.714-0.581,1.07l-2.232,4.13
		c-1.042,1.923-2.083,3.845-3.124,5.771c-0.139,0.253-0.276,0.512-0.415,0.766c-0.42,0.771-0.852,1.57-1.266,2.358
		c-0.391,0.748-1.001,1.104-1.916,1.134c-0.012,0-0.022,0-0.034,0c-0.903,0-2.221-0.961-2.342-1.951
		c-0.023-0.188-0.012-0.287,0.034-0.379c1.329-2.463,2.652-4.932,3.977-7.399l1.381-2.565c0.42-0.787,0.846-1.577,1.271-2.365
		l0.759-1.416c0.023-0.04,0.046-0.092,0.069-0.144c0.195-0.443,0.034-0.915-0.374-1.128c-0.121-0.063-0.259-0.098-0.396-0.098
		c-0.312,0-0.587,0.167-0.748,0.455c-0.161,0.288-0.316,0.581-0.473,0.863c-0.052,0.104-0.104,0.202-0.16,0.299
		c-1.335,2.491-2.67,4.983-4.011,7.48l-0.748,1.392c-0.633,1.174-1.283,2.396-1.928,3.592c-0.385,0.72-0.771,1.455-1.145,2.162
		c-0.185,0.357-0.374,0.715-0.564,1.07c-0.149,0.293-0.414,0.461-0.794,0.529c-0.909,0.15-1.726-0.109-2.514-0.794
		c-0.3-0.265-0.473-0.546-0.541-0.897c-0.075-0.352-0.012-0.685,0.178-1.059c0.696-1.317,1.404-2.658,2.089-3.953
		c0.311-0.58,0.621-1.162,0.933-1.743c0.92-1.743,1.841-3.487,2.762-5.224l1.657-3.13c0.12-0.236,0.247-0.466,0.368-0.696
		c0.201-0.38,0.402-0.76,0.604-1.139c0.248-0.472,0.121-0.967-0.299-1.208c-0.133-0.075-0.276-0.115-0.42-0.115
		c-0.322,0-0.616,0.196-0.788,0.524c-0.524,0.978-1.048,1.962-1.565,2.946c-0.438,0.829-0.875,1.651-1.312,2.475l-0.145,0.274
		c-1.421,2.683-2.894,5.455-4.344,8.171c-0.006,0.012-0.034,0.034-0.058,0.046c-0.184,0.08-0.396,0.15-0.599,0.207
		c-0.506,0.156-0.989,0.069-1.513-0.274c-0.656-0.426-1.059-1.025-1.231-1.836c-0.034-0.178-0.023-0.328,0.052-0.467l0.127-0.246
		c0.408-0.789,0.828-1.601,1.248-2.4c0.76-1.443,1.514-2.895,2.272-4.338l1.082-2.06c1.019-1.939,2.031-3.878,3.05-5.817
		l0.028-0.052c0.035-0.063,0.075-0.138,0.109-0.218c0.201-0.455,0.035-0.938-0.391-1.145c-0.121-0.058-0.248-0.086-0.374-0.086
		c-0.322,0-0.61,0.178-0.771,0.483c-0.179,0.333-0.351,0.667-0.523,0.995l-0.8,1.525c-1.329,2.543-2.704,5.167-4.063,7.744
		c-0.011,0.006-0.022,0.012-0.028,0.018c-0.236,0.098-0.466,0.148-0.696,0.148c-0.362,0-0.73-0.125-1.099-0.379
		c-0.564-0.396-1.151-1.37-0.685-2.308l0.327-0.656c1.186-2.388,2.411-4.85,3.694-7.232c0.5-0.932,0.983-1.887,1.455-2.813
		c0.346-0.673,0.702-1.375,1.06-2.06c0.478-0.903,1.093-1.76,1.887-2.612c0.616-0.662,1.231-1.329,1.847-1.991
		c0.576-0.622,1.157-1.249,1.732-1.87c0.396-0.426,0.719-0.771,1.019-1.082c0.581-0.61,1.001-1.306,1.236-2.083l0.023-0.069
		c0.38-1.22,0.771-2.474,1.116-3.729c0.173-0.627,0.305-1.271,0.438-1.899c0.034-0.167,0.068-0.333,0.104-0.506
		C26.667,10,30.13,9.966,33.479,9.931l1.708-0.012c0.012,0.156,0.018,0.311,0.023,0.466c0.086,1.553,0.161,3.021,0.127,4.511
		c-0.035,1.531-0.012,3.078,0.005,4.574c0.006,0.288,0.006,0.564,0.012,0.853c0.029,2.313,0.069,4.373,0.121,6.3
		c0.034,1.214,0.086,2.227,0.173,3.182c0.086,0.95,0.299,1.945,0.627,2.958c0.489,1.496,0.736,3.044,0.73,4.592
		c0,0.984,0.012,1.979,0.023,2.94c0.012,0.851,0.022,1.738,0.022,2.606C37.052,43.764,37.018,44.648,36.983,45.506z M12.449,50.006
		c0.018-0.012,0.034-0.018,0.052-0.029c0.058-0.021,0.109-0.051,0.161-0.086c-0.018,0.029-0.028,0.059-0.046,0.086L12.449,50.006z
		 M9.854,42.129c0.104-0.029,0.201-0.068,0.305-0.109c0.052-0.022,0.098-0.052,0.144-0.08c-0.034,0.068-0.074,0.145-0.109,0.213
		L9.854,42.129z M58.523,52.682c0.006-0.018,0.006-0.035,0.013-0.059c0.028-0.143,0.041-0.281,0.034-0.42
		c0.035,0.068,0.068,0.139,0.109,0.207c0,0,0,0.006,0.006,0.006L58.523,52.682z M43.289,38.562c0.006,0.61,0.023,1.231,0.034,1.835
		c0.006,0.305,0.012,0.61,0.018,0.916c0.029,1.588,0.058,3.177,0.086,4.765l0.023,1.455c0.006,0.108,0.006,0.219,0.012,0.321
		c0.006,0.248,0.013,0.479,0.006,0.703c-0.028,1.207-1.002,1.402-1.577,1.414h-0.033c-0.575,0-1.008-0.27-1.404-0.886
		c-0.213-0.333-0.322-0.726-0.333-1.196c-0.022-0.99-0.063-1.99-0.108-2.957v-0.127c-0.121-2.768-0.121-5.075-0.013-7.256
		c0.013-0.144,0.019-0.288,0.022-0.432c0.035-0.742,0.068-1.513,0.195-2.238c0.104-0.627,0.282-1.237,0.473-1.887
		c0.068-0.219,0.131-0.443,0.194-0.667c0.316-1.128,0.478-2.06,0.513-2.94c0.068-1.766,0.121-3.562,0.166-5.299l0.019-0.535
		c0.069-2.653,0.144-6.151,0.075-9.724c-0.012-0.811,0.039-1.634,0.086-2.434c0.012-0.155,0.018-0.311,0.029-0.472
		c0.017-0.299,0.011-0.599,0.011-0.886c0.276,0,0.541,0,0.8,0c2.71,0.029,5.42,0.058,8.13,0.081l1.347,0.012
		c0.18,0.005,0.356,0.005,0.535,0.011c0.34,0,0.696,0.006,1.047,0.006c0.035,0,0.075,0,0.109,0c0.029,0.155,0.063,0.311,0.093,0.466
		c0.144,0.685,0.294,1.393,0.482,2.083c0.288,1.042,0.616,2.089,0.933,3.107c0.069,0.219,0.139,0.443,0.207,0.667
		c0.299,0.967,0.934,1.691,1.496,2.296c0.355,0.385,0.714,0.777,1.064,1.156c0.334,0.368,0.685,0.754,1.035,1.128
		c0.701,0.748,1.393,1.484,2.055,2.169c0.867,0.903,1.611,1.939,2.203,3.078c0.248,0.472,0.494,0.944,0.742,1.416
		c0.92,1.761,1.875,3.59,2.803,5.386c0.529,1.036,1.053,2.1,1.559,3.124c0.23,0.46,0.455,0.921,0.686,1.381
		c0.053,0.104,0.104,0.207,0.16,0.316c0.14,0.276,0.282,0.57,0.422,0.852c0.229,0.495,0.229,0.95,0,1.427
		c-0.397,0.805-0.996,1.208-1.842,1.226h-0.013c-0.161,0-0.356-0.063-0.563-0.127c-0.027-0.006-0.063-0.019-0.098-0.028
		c-0.84-1.605-1.686-3.21-2.525-4.822l-1.014-1.934c-0.333-0.633-0.66-1.26-0.994-1.893c-0.271-0.518-0.541-1.036-0.813-1.554
		c-0.184-0.351-0.479-0.546-0.805-0.546c-0.14,0-0.271,0.034-0.397,0.098c-0.201,0.104-0.351,0.276-0.414,0.483
		c-0.052,0.167-0.075,0.432,0.099,0.759c0.426,0.812,0.852,1.628,1.276,2.439c0.259,0.489,0.519,0.984,0.771,1.473
		c0.483,0.915,0.961,1.83,1.438,2.745c1.388,2.641,2.813,5.368,4.229,8.042c0.225,0.422,0.246,0.783,0.08,1.222
		c-0.312,0.815-0.853,1.368-1.656,1.68c-0.139,0.052-0.282,0.074-0.438,0.074c-0.294,0-0.599-0.086-0.915-0.179
		c-0.189-0.058-0.299-0.16-0.426-0.396c-1.07-2.037-2.163-4.099-3.223-6.094c-0.373-0.707-0.747-1.416-1.127-2.13
		c-0.6-1.126-1.197-2.26-1.797-3.395L57.547,35.5l-0.029-0.058c-0.033-0.063-0.074-0.138-0.119-0.213
		c-0.162-0.259-0.433-0.408-0.727-0.408c-0.138,0-0.281,0.034-0.402,0.104c-0.402,0.213-0.563,0.708-0.361,1.122
		c0.119,0.253,0.253,0.5,0.38,0.736l0.052,0.109c1.403,2.635,2.803,5.276,4.2,7.917l2.228,4.199
		c0.166,0.316,0.338,0.633,0.506,0.955c0.352,0.668,0.72,1.357,1.082,2.037c0.373,0.695,0.252,1.438-0.306,1.945
		c-0.628,0.558-1.295,0.84-2.049,0.869c-0.034,0-0.069,0-0.104,0c-0.679,0-1.082-0.242-1.34-0.808
		c-0.229-0.518-0.507-1.012-0.771-1.496c-0.098-0.178-0.196-0.36-0.294-0.54c-0.72-1.347-1.438-2.697-2.163-4.045
		c-0.949-1.767-1.898-3.531-2.848-5.3l-2.211-4.119c-0.188-0.351-0.379-0.708-0.568-1.059c-0.18-0.328-0.467-0.518-0.788-0.518
		c-0.134,0-0.259,0.029-0.38,0.086c-0.207,0.104-0.362,0.282-0.432,0.495c-0.076,0.23-0.047,0.495,0.086,0.737
		c0.414,0.777,0.828,1.548,1.248,2.318c0.276,0.519,0.553,1.035,0.834,1.56c0.547,1.013,1.088,2.031,1.635,3.049
		c0.57,1.064,1.146,2.13,1.715,3.199l0.334,0.622c0.523,0.979,1.064,1.984,1.611,2.975c0.08,0.155,0.104,0.295,0.067,0.473
		c-0.086,0.396-0.247,0.719-0.493,0.973c-0.646,0.656-1.25,0.967-1.895,0.967c-0.08,0-0.167-0.006-0.247-0.018
		c-0.742-0.08-1.255-0.396-1.565-0.967c-1.529-2.832-3.061-5.662-4.591-8.498l-1.174-2.17c-0.841-1.547-1.675-3.102-2.515-4.648
		c-0.201-0.368-0.473-0.558-0.801-0.558c-0.068,0-0.144,0.012-0.219,0.029C43.594,37.687,43.283,38.055,43.289,38.562z
		 M67.195,42.238l-0.379,0.046c-0.035-0.063-0.069-0.132-0.104-0.196c0.028,0.012,0.052,0.023,0.086,0.029
		c0.069,0.018,0.132,0.041,0.201,0.063C67.063,42.197,67.133,42.221,67.195,42.238z M64.451,50.068l-0.092-0.018
		c-0.012-0.021-0.023-0.052-0.035-0.074C64.365,50.012,64.404,50.04,64.451,50.068z M44.21,38.55c0-0.029,0.006-0.041,0.006-0.041
		c0.005-0.006,0.028-0.023,0.093-0.046c0.006,0.017,0.018,0.034,0.033,0.058c0.133,0.253,0.271,0.506,0.409,0.759l-0.535-0.385
		C44.216,38.78,44.216,38.665,44.21,38.55z"/>
	<path fill="#A78627" d="M32.185,11.335c-0.294-0.017-0.616-0.023-0.933-0.011c-0.518,0.011-1.041,0.028-1.564,0.046
		c-0.726,0.017-1.484,0.04-2.221,0.058c-0.139,0.005-0.271,0.005-0.403,0.005c-0.235,0-0.478-0.005-0.713-0.005
		c-0.208-0.006-0.409-0.012-0.622-0.012c-0.466,0-0.834,0.328-0.874,0.777c-0.035,0.449,0.275,0.834,0.742,0.903
		c0.132,0.023,0.253,0.035,0.362,0.035c0.569,0,1.145,0,1.715,0h1.789v-0.035l0.374-0.006c0.76-0.017,1.524-0.035,2.284-0.046
		c0.489-0.012,0.875-0.351,0.909-0.788c0.012-0.225-0.063-0.443-0.213-0.616C32.656,11.456,32.432,11.347,32.185,11.335z"/>
	<path fill="#A78627" d="M45.314,13.147h0.027c0.271-0.006,0.508-0.012,0.754-0.006c0.65,0.012,1.301,0.029,1.956,0.041
		c0.99,0.023,2.009,0.046,3.017,0.069c0.021,0,0.052,0,0.074,0l0,0c0.207,0,0.432-0.017,0.695-0.052
		c0.438-0.063,0.748-0.449,0.714-0.892c-0.034-0.426-0.368-0.754-0.806-0.783c-0.046,0-0.092,0-0.145,0
		c-0.012,0-0.022,0.006-0.041,0.006h-2.576v-0.069h-0.461c-0.189,0-0.379,0-0.563,0c-0.438,0.006-0.874,0.006-1.312,0
		c-0.186,0-0.369-0.005-0.553-0.011c-0.271-0.006-0.553-0.012-0.828-0.012c-0.26,0.006-0.496,0.104-0.662,0.288
		c-0.162,0.173-0.242,0.392-0.226,0.622C44.404,12.808,44.809,13.147,45.314,13.147z"/>
</g>
</svg>
