<?xml version="1.0" encoding="utf-8"?>
<!-- Generator: Adobe Illustrator 16.0.0, SVG Export Plug-In . SVG Version: 6.00 Build 0)  -->
<!DOCTYPE svg PUBLIC "-//W3C//DTD SVG 1.1//EN" "http://www.w3.org/Graphics/SVG/1.1/DTD/svg11.dtd">
<svg version="1.1" id="Layer_1" xmlns="http://www.w3.org/2000/svg" xmlns:xlink="http://www.w3.org/1999/xlink" x="0px" y="0px"
	 width="77px" height="80px" viewBox="0 0 77 80" enable-background="new 0 0 77 80" xml:space="preserve">
<g>
	<path fill="#A78627" d="M61.34,64.311c0-3.842,0-7.678,0-11.521c0-0.608,0-1.216,0-1.824c0-1.487,0.006-3.028-0.012-4.55
		c0-0.486-0.082-0.989-0.227-1.459c-0.375-1.217-1.021-2.338-1.974-3.422c-0.53-0.604-1.127-1.217-1.901-1.676l-0.011-0.005
		c-0.032-0.017-0.077-0.044-0.11-0.066c0-0.149-0.072-0.293-0.199-0.437c-0.066-0.078-0.139-0.16-0.209-0.243
		c-0.189-0.222-0.389-0.454-0.631-0.652c-0.857-0.708-1.896-1.228-3.084-1.531c-0.521-0.139-1.008-0.204-1.482-0.204
		c-0.199,0-0.387,0.01-0.58,0.038c-1.658,0.193-3.135,0.862-4.395,1.99c-0.305,0.276-0.604,0.597-0.713,1.05
		c-0.084,0.056-0.166,0.111-0.261,0.166c-0.217,0.139-0.442,0.282-0.647,0.465c-0.822,0.724-1.498,1.492-2.033,2.327v-0.382
		c0-1.441-0.006-2.891-0.006-4.34c0-0.52,0-1.039,0.006-1.559c0.006-1.1,0.006-2.238-0.006-3.361
		c-0.012-0.508-0.088-1.017-0.227-1.476c-0.371-1.216-1.019-2.339-1.976-3.427c-0.502-0.576-1.127-1.229-1.928-1.698
		c-0.028-0.011-0.066-0.033-0.094-0.055c-0.006-0.183-0.111-0.332-0.194-0.426c-0.071-0.083-0.144-0.166-0.215-0.249
		c-0.193-0.227-0.393-0.459-0.636-0.663c-0.714-0.598-1.57-1.051-2.632-1.398c-0.674-0.222-1.305-0.326-1.924-0.326
		c-0.193,0-0.387,0.011-0.575,0.033c-1.669,0.182-3.156,0.862-4.428,2.012c-0.298,0.266-0.586,0.58-0.69,1.028
		c-0.128,0.089-0.249,0.177-0.382,0.266c-0.299,0.204-0.603,0.42-0.879,0.68c-0.818,0.785-1.454,1.581-1.94,2.438
		c-0.708,1.25-1.034,2.378-1.022,3.555c0.021,2.079,0.017,4.196,0.005,6.242c0,0.331,0,0.668,0,1c-0.231-0.348-0.48-0.679-0.751-1
		c-0.509-0.598-1.205-1.338-2.123-1.869c-0.105-0.432-0.387-0.725-0.625-0.962l-0.044-0.044c-0.548-0.559-1.211-0.935-1.73-1.199
		c-1.116-0.575-2.173-0.857-3.229-0.863H14.6c-0.802,0-1.62,0.166-2.427,0.492c-1.095,0.448-1.902,0.939-2.538,1.564
		c-0.26,0.249-0.569,0.553-0.68,1.018c-0.121,0.088-0.249,0.177-0.381,0.266c-0.299,0.204-0.603,0.42-0.879,0.68
		c-0.813,0.779-1.443,1.57-1.93,2.421c-0.713,1.249-1.039,2.394-1.034,3.588c0.022,2.771,0.012,5.577,0.012,8.298
		c-0.006,1.012-0.006,2.023-0.006,3.035c-0.006,1.244-0.006,2.486-0.006,3.73c0,0.983-0.005,1.969-0.005,2.952
		c0,1.935,0,3.869-0.006,5.81c0,0.293,0.006,0.582,0.006,0.875c0,0.479,0,0.979,0,1.465c0,0.076-0.006,0.298,0.171,0.475
		c0.072,0.072,0.21,0.166,0.432,0.166c0.017,0,0.038,0,0.061-0.006c0.116-0.005,0.237-0.005,0.349,0.006
		c0.033,0.006,0.066,0.006,0.094,0.006c0.216,0,0.348-0.088,0.426-0.166c0.171-0.172,0.171-0.402,0.171-0.479
		c0-1.438,0-2.882,0-4.318V64.99c0-1.249,0.006-2.492,0.006-3.742v-3.516c0-2.238,0-4.483,0-6.724
		c0.006-2.09,0.006-4.179,0.011-6.272c0-0.459,0.012-0.912,0.149-1.327c0.387-1.155,1.078-2.239,2.128-3.312
		c0.062-0.061,0.128-0.121,0.199-0.183l-0.011,3.896c0,2.097-0.006,4.195-0.011,6.291c0,0.145-0.006,0.306-0.045,0.438
		c-0.083,0.311-0.044,0.604,0.122,0.822c0.16,0.212,0.426,0.332,0.74,0.332h0.066c0.149,0,0.299,0,0.454-0.006
		c0.144,0,0.287,0,0.437,0h0.027c0.53,0,1.062,0,1.592,0c0.779,0.006,1.56,0.006,2.339,0.013h0.038c0.631,0,1.255-0.007,1.88-0.007
		c0.492-0.006,0.979-0.006,1.465-0.006h0.05c0.216,0,0.432,0,0.646,0c0.216,0.006,0.432,0.006,0.647,0.006h0.149
		c0.314,0,0.58-0.127,0.74-0.348c0.16-0.227,0.193-0.52,0.094-0.824c-0.011-0.032-0.011-0.049-0.011-0.049l-0.006-0.178
		c-0.005-0.381-0.017-0.773-0.017-1.154c-0.011-2.461-0.017-4.926-0.021-7.393v-1.636c0-0.071-0.006-0.144-0.006-0.21
		c0.763,0.752,1.282,1.398,1.675,2.079c0.575,0.983,0.835,1.879,0.818,2.836c-0.021,1.774-0.017,3.576-0.011,5.324
		c0.005,0.713,0.005,1.432,0.005,2.145l0.006,1.613c0,2.395,0,4.793,0,7.192c0,1.199,0.006,2.398,0.006,3.599l0.005,3.141
		c0,0.459,0,0.924,0,1.383c0,0.619,0,1.238,0,1.857c0,0.514,0.188,0.713,0.702,0.719c0.1,0,0.199,0.005,0.293,0.005
		c0.111,0.005,0.216,0.005,0.326,0.005c0.017,0,0.033,0.006,0.05,0.006c0.647,0,0.652-0.524,0.652-0.695c0-0.664,0-1.327,0-1.99
		l0.006-3.063c0-1.555,0-3.113,0-4.672c0-1.326,0.006-2.658,0.006-3.992c0-1.242,0-2.485,0-3.729
		c0.005-1.427,0.005-2.858,0.005-4.285v-2.94c0-2.222,0.006-4.455,0.006-6.679c0-2.117,0-4.234,0.006-6.352
		c0-0.453,0.011-0.9,0.148-1.31c0.382-1.155,1.078-2.245,2.135-3.322c0.061-0.062,0.127-0.122,0.193-0.183l-0.006,3.842
		c-0.006,2.117-0.011,4.24-0.017,6.357c0,0.149-0.006,0.305-0.039,0.414c-0.088,0.321-0.044,0.619,0.116,0.841
		c0.16,0.21,0.426,0.331,0.746,0.331h0.045c0.154,0,0.31-0.005,0.464-0.005c0.149,0,0.299-0.005,0.448-0.005h0.033
		c0.53,0,1.066,0.005,1.598,0.005c0.773,0.005,1.553,0.005,2.327,0.005h0.061c0.608,0,1.222,0,1.836-0.005
		c0.486,0,0.973-0.005,1.459-0.005h0.05c0.216,0,0.431,0.005,0.646,0.005c0.276,0,0.553,0.005,0.829,0.005
		c0.282-0.005,0.536-0.121,0.702-0.32c0.16-0.199,0.222-0.464,0.166-0.724c-0.039-0.183-0.072-0.365-0.072-0.53
		c-0.011-3.246-0.016-6.541-0.021-9.725v-0.492c0.011,0.012,0.027,0.027,0.038,0.039c0.508,0.514,1.157,1.217,1.631,2.045
		c0.567,0.979,0.83,1.875,0.817,2.82c-0.021,1.779-0.019,3.582-0.012,5.334c0,0.719,0,1.432,0,2.15l0.006,1.231
		c0,2.521,0,5.037,0.006,7.558c0,1.276,0,2.555,0,3.831v2.25c0.006,2.001,0.006,3.996,0.013,5.998v7.812
		c0,0.486,0,0.973,0.004,1.459c0,0.172,0,0.691,0.651,0.691c0.019,0,0.033-0.007,0.058-0.007c0.088,0,0.176,0,0.264,0
		c0.166-0.005,0.322-0.01,0.482-0.005h0.021c0.188,0,0.338-0.063,0.453-0.171c0.172-0.172,0.172-0.397,0.172-0.472
		c-0.006-0.938,0-1.896,0-2.823c0-0.448,0-0.896,0-1.345c0-1.231,0-2.465,0.006-3.697c0-1.178,0-2.35,0-3.526
		c0-1.012,0-2.022,0-3.034c0-0.847,0.006-1.688,0.006-2.527v-3.416c0-1.35,0.005-2.697,0.005-4.047c0-0.453,0.012-0.896,0.149-1.314
		c0.381-1.156,1.084-2.245,2.139-3.322c0.056-0.062,0.121-0.117,0.188-0.172l-0.01,3.869c0,2.102-0.006,4.207-0.013,6.313
		c0,0.156-0.006,0.311-0.045,0.438c-0.082,0.314-0.043,0.607,0.123,0.829c0.16,0.21,0.42,0.326,0.729,0.332h0.09
		c0.154,0,0.303-0.006,0.453-0.006c0.147,0,0.293,0,0.44,0h0.027c0.53,0,1.067,0,1.598,0c0.775,0.006,1.556,0.006,2.328,0.006h0.043
		c0.615,0,1.224,0,1.836-0.006c0.479,0,0.968,0,1.455,0h0.056c0.221,0,0.44,0,0.664,0c0.227,0,0.452,0.006,0.674,0.006h0.133
		c0.32-0.006,0.586-0.128,0.746-0.354c0.16-0.221,0.193-0.514,0.094-0.813c-0.012-0.044-0.012-0.066-0.012-0.071l-0.006-0.128
		c-0.004-0.48-0.017-0.979-0.017-1.465c-0.012-2.984-0.017-5.975-0.021-8.961c0.021,0.018,0.037,0.039,0.061,0.057
		c0.535,0.547,1.15,1.215,1.613,2.033c0.57,0.979,0.824,1.869,0.813,2.803c-0.021,1.842-0.01,3.721-0.004,5.528
		c0,0.735,0.004,1.465,0.004,2.2c0,0.934,0,1.863,0,2.791c0,1.15,0.006,2.301,0.006,3.445c0,1.332,0,2.67,0,4.002l0.006,3.422
		c0,0.885,0,1.802-0.006,2.697c0,0.088,0,0.319,0.178,0.491c0.072,0.078,0.209,0.166,0.42,0.166c0.039,0,0.072,0,0.109-0.006
		c0.096-0.011,0.189-0.011,0.271-0.006c0.287,0.028,0.459-0.076,0.553-0.166c0.178-0.183,0.178-0.431,0.178-0.515
		c-0.012-2.166-0.012-4.373-0.012-6.5v-0.047H61.34z M18.608,49.998c-1.315-0.012-2.427-0.021-3.472-0.021h-0.05
		c-0.906,0.006-1.824,0.006-2.714,0.012c-0.586,0-1.178,0.006-1.77,0.006c0.006-2.737,0.011-5.475,0.022-8.204l0.005-2.117
		c0-0.127,0-0.254-0.005-0.387c0-0.359,0-0.73,0.011-1.09c0-0.01,0.011-0.032,0.017-0.043c0.509-0.548,1.172-0.968,2.14-1.355
		c0.597-0.242,1.205-0.364,1.808-0.364c0.873,0,1.741,0.243,2.653,0.752c0.559,0.31,0.973,0.608,1.299,0.95
		c0.028,0.022,0.028,0.028,0.028,0.066c0,1.604,0,3.229,0,4.799v1.642h0.027L18.608,49.998L18.608,49.998z M32.981,38.649h-0.006
		c-0.989,0-2.001,0.005-2.974,0.017c-0.332,0.006-0.669,0.006-1.006,0.011c0-1.437,0-2.874,0-4.312V33.32h0.027v-1.664
		c0-1.564,0.005-3.184,0-4.771c0-0.039,0.005-0.045,0.027-0.072c0.536-0.547,1.222-0.973,2.161-1.349
		c0.592-0.232,1.189-0.354,1.78-0.354c0.874,0,1.747,0.249,2.665,0.764c0.426,0.231,0.912,0.53,1.282,0.945
		c0.011,0.011,0.027,0.05,0.027,0.066c0.012,2.692,0.017,5.429,0.028,8.076v2.079c0,0.535,0,1.089,0.005,1.636
		C35.463,38.66,34.18,38.649,32.981,38.649z M55.469,47.781c0,1.41,0,2.813,0,4.225C54.994,52,54.518,52,54.037,52
		c-0.658-0.006-1.344-0.012-2.018-0.012h-0.072c-0.867,0-1.746,0.006-2.598,0.012c-0.625,0-1.257,0-1.886,0.006
		c0.007-2.638,0.011-5.273,0.017-7.911l0.006-2.411c0-0.132,0-0.26,0-0.387c0-0.359,0-0.729,0.012-1.088
		c0-0.018,0.01-0.039,0.016-0.051c0.51-0.547,1.168-0.961,2.135-1.354c0.603-0.238,1.211-0.359,1.813-0.359
		c0.869,0,1.742,0.242,2.654,0.746c0.559,0.314,0.973,0.613,1.299,0.951c0.026,0.027,0.026,0.033,0.026,0.071
		c0,1.607,0,3.239,0,4.82v1.636h0.027V47.781z"/>
	<path fill="#A78627" d="M71.826,31.629c-0.369-0.277-0.746-0.559-1.115-0.835c-0.271-0.204-0.549-0.409-0.818-0.614l-0.713-0.53
		c-1.096-0.813-2.223-1.658-3.334-2.482c-0.166-0.127-0.338-0.249-0.504-0.376c-0.641-0.48-1.309-0.979-1.979-1.448
		c-0.697-0.486-1.432-0.95-2.123-1.388c-0.381-0.243-0.795-0.491-1.244-0.69c-0.689-0.299-1.354-0.31-1.951-0.05
		c-1.719-1.255-3.471-2.526-5.168-3.76l-10.719-7.794c-1.471-1.067-2.986-2.167-4.478-3.256c-0.305-0.229-0.642-0.271-0.984-0.133
		c-0.094,0.038-0.204,0.071-0.32,0.104l-0.039,0.012c-0.492,0.138-0.979,0.276-1.471,0.414c-1.006,0.282-2.018,0.564-3.023,0.852
		C31.66,9.71,31.51,9.787,31.406,9.892L31.34,9.958c-0.193,0.188-0.388,0.382-0.559,0.614c-0.017,0.027-0.039,0.05-0.056,0.077
		c-0.177,0.232-0.414,0.547-0.381,1c0.021,0.282,0.044,0.564,0.071,0.847c0.022,0.314,0.05,0.63,0.072,0.95
		c0.083,1.105,0.16,2.233,0.249,3.45c0.021,0.31,0.165,0.558,0.431,0.734c1.006,0.675,2.018,1.354,3.024,2.029
		c0.873,0.586,1.746,1.172,2.614,1.758c1.305,0.868,2.61,1.741,3.916,2.615c1.032,0.696,2.071,1.387,3.104,2.084l2.256,1.503
		c2.002,1.344,4.002,2.682,6.004,4.024l-0.026,0.062l0.032,0.144c0.013,0.056,0.021,0.111,0.039,0.172
		c0.027,0.154,0.065,0.337,0.134,0.52c0.293,0.813,0.916,1.332,1.534,1.791c0.146,0.11,0.3,0.221,0.449,0.326
		c0.121,0.088,0.241,0.177,0.364,0.266c0.188,0.138,0.369,0.275,0.554,0.414c0.362,0.276,0.733,0.559,1.127,0.824
		c1.442,0.973,2.979,1.99,4.705,3.117c0.955,0.625,1.935,1.255,2.885,1.857c0.313,0.205,0.632,0.404,0.951,0.608
		c0.147,0.094,0.332,0.148,0.521,0.148c0.354,0,0.701-0.172,0.905-0.453c0.146-0.192,0.287-0.387,0.433-0.586
		c0.274-0.381,0.563-0.778,0.856-1.161c0.17-0.228,0.354-0.459,0.529-0.686c0.256-0.315,0.516-0.642,0.758-0.979
		c0.271-0.376,0.524-0.769,0.771-1.145c0.115-0.177,0.227-0.354,0.342-0.524c0.287-0.438,0.574-0.869,0.863-1.3
		c0.43-0.646,0.86-1.294,1.287-1.946C72.418,32.635,72.303,31.982,71.826,31.629z M32.368,15.636L32.323,15.1
		c-0.083-1.089-0.171-2.217-0.248-3.328c0-0.033,0.017-0.1,0.038-0.139c0.172-0.26,0.376-0.408,0.647-0.48
		c0.906-0.237,1.818-0.498,2.703-0.746c0.271-0.077,0.541-0.155,0.813-0.232c0.005,0.006,0.005,0.011,0.005,0.011l0.232,1.36
		c0.188,1.072,0.37,2.145,0.559,3.217c-1.205,0.222-2.421,0.448-3.599,0.664L32.368,15.636z M33.506,17.15
		c0.077-0.011,0.154-0.027,0.237-0.044c0.332-0.062,0.663-0.122,0.995-0.183c0.862-0.16,1.747-0.321,2.62-0.492
		c0.188,1.095,0.376,2.194,0.559,3.268l0.077,0.458L33.506,17.15z M38.117,10.826l4.096,2.979l-3.472,0.646L38.117,10.826z
		 M39.842,20.832c-0.244-1.415-0.52-3.046-0.813-4.71c1.479-0.266,2.973-0.547,4.268-0.79c0.287,1.26,0.574,2.537,0.861,3.77
		l0.266,1.15c-0.26,0.033-0.514,0.066-0.768,0.099c-0.404,0.05-0.809,0.1-1.211,0.149C41.588,20.611,40.709,20.722,39.842,20.832z
		 M41.279,22.357c0.227-0.027,0.459-0.055,0.686-0.083c0.934-0.121,1.895-0.237,2.846-0.364c0.228,1,0.459,2.018,0.687,3.002
		c0.026,0.104,0.051,0.215,0.078,0.326L41.279,22.357z M45.264,16.321l-0.082-0.359l4.908,3.571l-0.807,0.1
		c-1.057,0.132-2.111,0.265-3.168,0.403C45.834,18.792,45.547,17.537,45.264,16.321z M47.426,25.708
		c-0.244-1.067-0.492-2.15-0.734-3.201L46.502,21.7l1.643-0.21c1.072-0.139,2.146-0.271,3.224-0.409l0.032,0.16
		c0.254,1.089,0.515,2.211,0.779,3.316c-1.287,0.31-2.592,0.625-3.856,0.935L47.426,25.708z M52.949,29.744
		c-0.072,0.094-0.145,0.193-0.211,0.293l-3.15-2.112c-0.365-0.238-0.725-0.481-1.084-0.725l4.057-0.989
		c0.238,1.006,0.482,2.04,0.719,3.063C53.17,29.434,53.059,29.589,52.949,29.744z M53.297,21.86l2.492,1.813l-1.957,0.475
		L53.297,21.86z M56.039,25.365l-1.443,2.062l-0.381-1.619L56.039,25.365z M69.6,33.79c-0.68,1.012-1.389,2.057-2.096,3.073
		c-0.508,0.725-1.045,1.449-1.564,2.156c-0.237,0.31-0.475,0.636-0.707,0.957l-0.1-0.066c-0.383-0.255-0.77-0.515-1.162-0.77
		c-0.475-0.314-0.955-0.629-1.438-0.945c-1.232-0.813-2.504-1.646-3.775-2.448c-1.012-0.636-1.994-1.354-2.945-2.051
		c-0.365-0.271-0.742-0.548-1.123-0.818c-0.42-0.304-0.713-0.569-0.834-0.935c-0.11-0.326-0.018-0.514,0.062-0.63
		c0.299-0.42,0.599-0.841,0.896-1.261c0.326-0.459,0.658-0.928,0.989-1.393c1.013-1.448,1.785-2.555,2.511-3.604
		c0.133-0.183,0.311-0.276,0.641-0.315c0.322,0.006,0.619,0.16,0.891,0.337c1.105,0.702,2.029,1.305,2.947,1.946
		c1.016,0.713,2.027,1.471,3.006,2.206l0.238,0.177c0.598,0.447,1.205,0.906,1.785,1.354c0.449,0.343,0.912,0.69,1.371,1.039
		c0.227,0.171,0.459,0.337,0.686,0.497c0.16,0.117,0.326,0.232,0.486,0.354C70.107,33.027,69.854,33.408,69.6,33.79z"/>
	<path fill="#A78627" d="M37.066,43.409c-0.127,0-0.254,0.026-0.381,0.077c-0.033,0.017-0.066,0.033-0.1,0.05
		c-0.033,0.011-0.062,0.028-0.077,0.032c-0.183,0.063-0.365,0.127-0.537,0.193c-0.393,0.149-0.763,0.288-1.139,0.364
		c-0.646,0.14-1.288,0.205-1.896,0.205c-0.862,0-1.703-0.14-2.493-0.408c-0.193-0.065-0.388-0.146-0.586-0.222
		c-0.178-0.071-0.359-0.139-0.542-0.204c-0.094-0.033-0.243-0.078-0.403-0.078c-0.056,0-0.111,0.006-0.166,0.017
		c-0.343,0.066-0.586,0.344-0.631,0.703c-0.038,0.342,0.116,0.651,0.426,0.834c0.697,0.42,1.471,0.619,2.15,0.797
		c0.575,0.148,1.184,0.221,1.853,0.221c0.149,0,0.298,0,0.453-0.012c0.072,0,0.144,0,0.216,0.006c0.177,0,0.354,0,0.524-0.006
		c0.984-0.021,1.974-0.254,3.218-0.746c0.183-0.07,0.343-0.166,0.492-0.254c0.414-0.248,0.559-0.72,0.348-1.127
		C37.647,43.574,37.375,43.409,37.066,43.409z"/>
	<path fill="#A78627" d="M18.668,54.73c-0.116,0-0.243,0.021-0.359,0.071c-0.044,0.017-0.088,0.033-0.127,0.056l-0.039,0.018
		c-0.896,0.387-1.669,0.613-2.443,0.695c-0.397,0.051-0.784,0.072-1.155,0.072c-0.896,0-1.708-0.134-2.481-0.398
		c-0.293-0.1-0.586-0.221-0.874-0.331c-0.1-0.038-0.193-0.077-0.293-0.116c-0.337-0.133-0.663-0.077-0.912,0.148
		c-0.266,0.244-0.343,0.582-0.21,0.891c0.077,0.188,0.227,0.365,0.398,0.465c0.686,0.42,1.459,0.613,2.139,0.791
		c0.569,0.148,1.172,0.221,1.841,0.221c0.149,0,0.305-0.006,0.459-0.012c0.072,0,0.149,0,0.222,0c0.171,0,0.348,0,0.524-0.006
		c0.974-0.021,1.957-0.248,3.195-0.74c0.193-0.076,0.365-0.177,0.509-0.266c0.409-0.242,0.548-0.689,0.354-1.1
		C19.271,54.902,18.995,54.73,18.668,54.73z"/>
	<path fill="#A78627" d="M55.529,56.736c-0.1,0-0.199,0.018-0.293,0.051s-0.176,0.072-0.254,0.105l-0.056,0.026
		c-1.145,0.515-2.37,0.763-3.647,0.733c-1.178-0.021-2.344-0.297-3.449-0.813c-0.145-0.066-0.293-0.104-0.438-0.104
		c-0.31,0-0.58,0.171-0.726,0.447c-0.215,0.426-0.062,0.885,0.388,1.146c0.651,0.381,1.35,0.573,2.122,0.772
		c0.57,0.148,1.173,0.215,1.837,0.215c0.147,0,0.309,0,0.465-0.01c0.069,0,0.143,0,0.221,0c0.172,0.006,0.348,0.006,0.52,0
		c0.979-0.022,1.963-0.255,3.201-0.742c0.172-0.07,0.342-0.164,0.547-0.293c0.371-0.235,0.498-0.689,0.299-1.076
		C56.127,56.914,55.846,56.736,55.529,56.736z"/>
	<path fill="#A78627" d="M36.049,46.604c-0.111,0-0.227,0.022-0.332,0.065c-0.044,0.019-0.083,0.033-0.11,0.051
		c-0.012,0.007-0.022,0.011-0.039,0.017c-0.071,0.033-0.149,0.062-0.221,0.095c-0.531,0.228-1.034,0.437-1.564,0.515
		c-0.305,0.049-0.586,0.071-0.852,0.071c-0.437,0-0.835-0.062-1.205-0.183c-0.359-0.121-0.702-0.26-1.067-0.414
		c-0.11-0.045-0.215-0.09-0.326-0.133c-0.127-0.052-0.26-0.078-0.387-0.078c-0.326,0-0.608,0.178-0.752,0.471
		c-0.21,0.431-0.033,0.923,0.415,1.148c0.188,0.09,0.387,0.184,0.592,0.267c1.05,0.425,1.829,0.624,2.46,0.63
		c0.071,0,0.144,0,0.21,0c1.232,0,2.178-0.32,2.936-0.636c0.193-0.077,0.414-0.177,0.63-0.288c0.414-0.221,0.575-0.725,0.359-1.139
		C36.652,46.781,36.364,46.604,36.049,46.604z"/>
	<path fill="#A78627" d="M17.657,57.926c-0.104,0-0.204,0.018-0.304,0.051c-0.056,0.021-0.1,0.043-0.133,0.062
		c-0.017,0.005-0.027,0.01-0.044,0.017c-0.072,0.032-0.149,0.065-0.222,0.094c-0.53,0.227-1.033,0.442-1.564,0.52
		c-0.31,0.045-0.586,0.066-0.851,0.066c-0.442,0-0.835-0.055-1.205-0.183c-0.359-0.116-0.702-0.26-1.073-0.409
		c-0.104-0.043-0.21-0.088-0.32-0.133c-0.127-0.05-0.26-0.076-0.387-0.076c-0.326,0-0.608,0.17-0.752,0.463
		c-0.21,0.433-0.033,0.924,0.414,1.149c0.188,0.095,0.388,0.185,0.592,0.267c1.051,0.426,1.824,0.625,2.443,0.631
		c0.072,0,0.144,0.006,0.21,0.006c1.244,0,2.189-0.326,2.952-0.643c0.21-0.082,0.432-0.183,0.652-0.299
		c0.398-0.222,0.548-0.713,0.337-1.122C18.259,58.104,17.972,57.926,17.657,57.926z"/>
	<path fill="#A78627" d="M54.514,59.934c-0.104,0-0.211,0.021-0.315,0.061c-0.05,0.017-0.089,0.039-0.128,0.056
		c-0.012,0.007-0.021,0.011-0.038,0.021c-0.076,0.033-0.16,0.066-0.242,0.101c-0.524,0.222-1.019,0.433-1.549,0.509
		c-0.3,0.045-0.574,0.066-0.841,0.066c-0.446,0-0.852-0.061-1.231-0.188c-0.349-0.115-0.681-0.261-1.039-0.402
		c-0.11-0.051-0.221-0.096-0.338-0.139c-0.121-0.051-0.248-0.078-0.375-0.078c-0.332,0-0.619,0.184-0.765,0.48
		c-0.198,0.432-0.012,0.923,0.433,1.139c0.188,0.096,0.388,0.184,0.592,0.267c0.779,0.319,1.73,0.646,2.824,0.63
		c0.021,0,0.045,0.006,0.065,0.006c1.023,0,1.99-0.343,2.716-0.643c0.176-0.076,0.401-0.17,0.629-0.293
		c0.409-0.215,0.563-0.695,0.364-1.109C55.133,60.121,54.844,59.934,54.514,59.934z"/>
</g>
</svg>
