<?xml version="1.0" encoding="utf-8"?>
<!-- Generator: Adobe Illustrator 16.0.0, SVG Export Plug-In . SVG Version: 6.00 Build 0)  -->
<!DOCTYPE svg PUBLIC "-//W3C//DTD SVG 1.1//EN" "http://www.w3.org/Graphics/SVG/1.1/DTD/svg11.dtd">
<svg version="1.1" id="Layer_1" xmlns="http://www.w3.org/2000/svg" xmlns:xlink="http://www.w3.org/1999/xlink" x="0px" y="0px"
	 width="77px" height="80px" viewBox="0 0 77 80" enable-background="new 0 0 77 80" xml:space="preserve">
<g>
	<path fill="#A78627" d="M68.104,57.531c-0.021-1.184-0.033-2.201-0.061-3.24c-0.088-3.801-0.264-6.947-0.555-9.907
		c-0.178-1.766-0.424-3.845-0.947-5.936c-0.291-1.183-0.891-2.019-1.832-2.558c-0.016-0.012-0.027-0.017-0.033-0.022
		c0-0.011-0.004-0.027-0.004-0.061c-0.211-2.063-0.584-3.872-1.141-5.522c-0.609-1.826-1.33-3.201-2.266-4.335
		c-1.369-1.661-2.972-2.464-4.9-2.47h-0.012c-1.545,0-2.834,0.451-3.949,1.381c-0.666,0.55-1.244,1.21-1.762,2.023
		c-1.027,1.602-1.761,3.499-2.228,5.787c-0.147,0.727-0.254,1.475-0.356,2.195c-0.045,0.324-0.095,0.66-0.146,0.984v0.022
		c-0.892,0.539-1.451,1.222-1.715,2.085c-0.294,0.945-0.519,2.002-0.699,3.223c-0.17,1.172-0.304,2.262-0.401,3.328
		c-0.171,1.926-0.279,3.4-0.357,4.781c-0.115,2.193-0.182,3.982-0.203,5.627c-0.043,3.01-0.049,5.518-0.016,7.898
		c0.021,1.32,0.069,2.651,0.121,3.944c0.032,0.974,0.069,1.976,0.098,2.966c0.012,0.527,0.221,0.94,0.656,1.286
		c0.467,0.375,1.021,0.578,1.639,0.605c1.012,0.044,1.947,0.071,2.865,0.075c0.551,0.007,1.145,0.007,1.865,0.007
		c0.463,0,0.924,0,1.387,0c0.818,0,1.633,0,2.453,0c0.356,0,0.715,0,1.071,0c0.533,0,0.97,0,1.375-0.007
		c0.386,0,0.771-0.01,1.146-0.021c0.436-0.011,0.887-0.021,1.32-0.021c0.17,0,0.33,0.006,0.483,0.006l0.412,0.01
		c0.647,0.018,1.319,0.033,1.979,0.033c0.793,0,1.457-0.021,2.096-0.071c0.716-0.055,1.277-0.259,1.705-0.627l0.052-0.038
		c0.229-0.193,0.575-0.49,0.594-1.029c0.017-0.594,0.043-1.205,0.07-1.793c0.032-0.648,0.062-1.32,0.084-1.979
		c0.043-1.732,0.075-3.498,0.104-5.056c0.012-0.623,0.021-1.223,0.032-1.793v-0.006v-0.012
		C68.119,58.676,68.115,58.086,68.104,57.531z M50.242,32.266c0.396-1.563,0.863-2.795,1.469-3.879
		c0.609-1.078,1.238-1.837,1.986-2.387c0.736-0.545,1.506-0.809,2.359-0.809c0.061,0,0.12,0.005,0.176,0.005
		c0.076,0.006,0.154,0.006,0.225,0.011c0.396,0.012,0.771,0.022,1.117,0.127c0.775,0.226,1.475,0.682,2.123,1.397
		c0.781,0.847,1.387,1.87,1.92,3.234c0.633,1.612,1.063,3.399,1.316,5.479c0.328,2.717,0.323,5.644-0.019,8.955
		c-0.088,0.863-0.5,1.496-1.293,2.002c-1.134,0.716-2.465,1.244-4.06,1.606c-0.018,0.005-0.033,0.005-0.051,0.011
		c-0.061,0.013-0.131,0.027-0.209,0.056c-0.285,0.1-0.582,0.144-0.906,0.144c-0.522,0-1.051-0.121-1.59-0.253
		c-1.465-0.374-2.719-0.88-3.83-1.546c-0.5-0.302-0.879-0.736-1.192-1.37c-0.043-0.075-0.056-0.219-0.072-0.362l-0.004-0.043
		c-0.199-1.718-0.297-3.291-0.297-4.81C49.412,36.975,49.682,34.498,50.242,32.266z M66.398,61.409
		c-0.021,1.706-0.078,3.444-0.127,5.116c-0.017,0.582-0.039,1.166-0.056,1.744c-0.006,0.264-0.026,0.539-0.045,0.809
		c-0.017,0.182-0.026,0.373-0.037,0.566c0,0.037-0.006,0.064-0.104,0.121c-0.203,0.104-0.439,0.158-0.791,0.187
		c-0.523,0.038-1.096,0.056-1.756,0.056c-0.582,0-1.172-0.018-1.744-0.027c-0.246-0.006-0.488-0.012-0.736-0.018
		c-0.621-0.011-1.254,0.006-1.859,0.021c-0.385,0.012-0.781,0.022-1.172,0.022c-0.545,0.005-1.188,0.011-1.82,0.011
		c-0.563,0-1.063-0.006-1.534-0.011l-0.539-0.006c-0.787-0.017-1.604-0.026-2.41-0.026c-0.653,0-1.242,0.004-1.793,0.026
		c-0.17,0.006-0.353,0.006-0.533,0.006c-0.709,0-1.437-0.039-2.135-0.077h-0.033c-0.182-0.012-0.385-0.094-0.604-0.177l-0.07-0.026
		c-0.021-0.012-0.033-0.012-0.039-0.066c-0.016-0.318-0.033-0.643-0.049-0.957c-0.033-0.605-0.072-1.232-0.082-1.842
		c-0.012-0.469-0.023-0.93-0.033-1.394c-0.051-2.354-0.105-4.784-0.105-7.173c0-1.931,0.056-3.896,0.115-5.798
		c0.012-0.31,0.019-0.617,0.027-0.924c0.078-2.537,0.248-5.095,0.518-7.599c0.121-1.127,0.291-2.338,0.539-3.816
		c0.078-0.446,0.199-0.88,0.336-1.337c-0.006,0.115-0.006,0.23-0.006,0.347c-0.012,1.896,0.088,3.813,0.309,5.693l0.007,0.044
		c0.021,0.17,0.043,0.347,0.069,0.521c0.023,0.121,0.062,0.247,0.115,0.358c0.572,1.115,1.496,1.969,2.822,2.607
		c1.227,0.594,2.52,1.032,3.961,1.348c0.078,0.016,0.166,0.043,0.254,0.076c0.148,0.05,0.313,0.104,0.494,0.127
		c0.203,0.021,0.402,0.049,0.605,0.049c0.254,0,0.479-0.038,0.688-0.109c0.176-0.061,0.369-0.104,0.539-0.143
		c1.941-0.413,3.576-1.047,4.984-1.926c0.688-0.431,1.16-1.035,1.563-1.623c0.367-0.539,0.424-1.117,0.467-1.629
		c0.012-0.094,0.018-0.187,0.027-0.285c0.199-1.756,0.281-3.609,0.242-5.501c0.061,0.176,0.109,0.347,0.148,0.512
		c0.571,2.403,0.809,4.847,0.989,7.772c0.17,2.707,0.287,5.166,0.353,7.53C66.41,56.629,66.426,58.797,66.398,61.409z"/>
	<path fill="#A78627" d="M47.898,27.039c0.313-0.792,0.672-1.848,0.6-3.036c-0.055-0.875-0.588-1.529-1.424-1.755
		c-0.98-0.259-1.971-0.545-2.928-0.825c-0.566-0.165-1.154-0.335-1.732-0.495c-2.377-0.671-4.324-1.095-6.133-1.342
		c-0.727-0.1-1.331-0.144-1.903-0.144c-0.457,0-0.886,0.027-1.304,0.088c-0.539,0.077-0.974,0.27-1.326,0.584
		c-0.825-0.512-1.661-1.029-2.47-1.524c-0.429-0.264-0.853-0.528-1.282-0.792c-0.104-0.066-0.214-0.132-0.324-0.203
		c0.144-0.226,0.28-0.451,0.424-0.672c0.5-0.803,1.023-1.634,1.546-2.442c0.352-0.544,0.391-1.139,0.109-1.814
		c-0.241-0.595-0.688-1.051-1.287-1.326c-0.286-0.132-0.583-0.188-0.869-0.248c-0.061-0.011-0.121-0.021-0.176-0.032
		c-0.727-0.154-1.463-0.309-2.179-0.451c-0.352-0.071-0.704-0.144-1.056-0.221c-2.668-0.55-5.342-1.105-8.015-1.655
		c-0.221-0.044-0.446-0.094-0.672-0.138c-0.61-0.132-1.248-0.264-1.875-0.385c-0.061-0.011-0.127-0.017-0.198-0.017
		c-0.116,0-0.342,0.021-0.539,0.148c-0.221,0.143-0.374,0.336-0.518,0.517c-0.138,0.182-0.264,0.363-0.385,0.54
		c-0.044,0.065-0.088,0.126-0.132,0.192l-0.391,0.566c-0.809,1.16-1.612,2.321-2.421,3.482c-0.247,0.357-0.226,0.748,0.061,1.078
		c0.11,0.132,0.231,0.258,0.341,0.379c0.039,0.039,0.077,0.083,0.121,0.127l1.101,1.183c1.519,1.645,3.042,3.284,4.565,4.929
		l0.633,0.683c1.128,1.209,2.294,2.469,3.443,3.695c0.254,0.27,0.495,0.424,0.737,0.479c0.215,0.045,0.435,0.072,0.655,0.072
		c0.935,0,1.766-0.445,2.277-1.216c0.627-0.957,1.237-1.937,1.826-2.888c0.121-0.192,0.236-0.385,0.357-0.577
		c1.485,0.923,2.954,1.825,4.362,2.689c0.033,0.022,0.082,0.05,0.115,0.071c-0.017,0.088-0.006,0.16,0.006,0.198
		c0.088,0.632,0.401,1.171,0.94,1.612c0.182,0.143,0.357,0.285,0.539,0.428c0.407,0.33,0.831,0.666,1.232,1.013
		c1.105,0.946,2.2,1.909,3.124,2.724l0.275,0.242c0.616,0.539,1.254,1.1,1.854,1.678c0.622,0.594,1.31,1.127,2.107,1.627
		c0.133,0.083,0.303,0.127,0.484,0.127c0.094,0,0.188-0.011,0.274-0.038c0.902-0.27,1.688-0.759,2.332-1.199l0.171-0.116
		c0.836-0.566,1.7-1.154,2.426-1.941C46.297,29.729,47.299,28.535,47.898,27.039z M24.861,18.882
		c-1.057,1.672-2.146,3.405-3.219,5.11c-0.241,0.396-0.571,0.572-1.056,0.577h-0.033c-0.011-0.005-0.033-0.022-0.066-0.056
		c-1.578-1.71-3.19-3.442-4.747-5.12l-1.711-1.843c-0.357-0.386-0.715-0.771-1.072-1.161c-0.71-0.759-1.441-1.551-2.162-2.321
		c0.886-1.26,1.826-2.613,2.877-4.126c2.86,0.595,5.766,1.194,8.576,1.777l0.863,0.176c0.38,0.082,0.765,0.159,1.145,0.242
		c1.007,0.214,2.047,0.435,3.075,0.621c0.385,0.066,0.627,0.209,0.814,0.474c0.115,0.17,0.115,0.264,0.011,0.429
		c-0.539,0.825-1.067,1.672-1.579,2.492c-0.198,0.313-0.396,0.633-0.594,0.946L24.861,18.882z M42.354,31.021
		c-0.27,0.16-0.533,0.33-0.787,0.496c-0.246,0.159-0.5,0.318-0.754,0.473c-0.098,0.061-0.225,0.109-0.356,0.159
		c-0.062,0.028-0.121,0.05-0.187,0.077c-0.545-0.379-1.096-0.842-1.739-1.452c-0.716-0.683-1.469-1.331-2.195-1.964l-0.154-0.132
		c-0.99-0.853-1.996-1.716-2.976-2.547l-0.798-0.683c-0.121-0.104-0.247-0.203-0.368-0.303c-0.182-0.154-0.357-0.297-0.528-0.451
		c-0.165-0.148-0.22-0.313-0.171-0.533c0.127-0.588-0.182-0.863-0.495-1.062c-0.533-0.33-1.072-0.665-1.611-0.995l-1.419-0.875
		c-0.583-0.357-1.167-0.715-1.755-1.078l0.049-0.071c0.215-0.341,0.424-0.677,0.633-1.013c0.011-0.017,0.022-0.027,0.027-0.044
		c0.012,0.006,0.022,0.017,0.033,0.022l0.017,0.005c0.803,0.501,1.611,1.002,2.415,1.497c0.677,0.418,1.354,0.836,2.024,1.248
		c0.33,0.204,0.693,0.198,1.001-0.017c0.022-0.011,0.038-0.021,0.055-0.032c0.061-0.039,0.144-0.089,0.215-0.16
		c0.357-0.341,0.825-0.424,1.463-0.451c0.116-0.005,0.231-0.005,0.347-0.005c0.957,0,1.931,0.153,2.768,0.291
		c2.128,0.363,4.208,0.94,6.156,1.496c0.758,0.22,1.512,0.435,2.266,0.655c0.363,0.104,0.732,0.209,1.101,0.318
		c0.095,0.027,0.14,0.044,0.16,0.055c0.006,0.022,0.013,0.061,0.006,0.121c-0.006,0.457-0.019,0.858-0.101,1.232
		c-0.235,1.023-0.666,1.947-1.27,2.756C44.697,29.02,43.695,30.219,42.354,31.021z"/>
	<path fill="#A78627" d="M36.39,45.28c-0.302-0.66-0.759-1.188-1.199-1.694l-0.027-0.033c-0.704-0.809-1.551-1.469-2.365-2.063
		c-0.017-0.424-0.021-0.857-0.021-1.266c-0.006-0.517-0.006-1.033-0.006-1.551c-0.006-1.023-0.006-2.08-0.022-3.119
		c-0.005-0.462-0.055-0.936-0.148-1.42c-0.17-0.879-0.621-1.49-1.342-1.814c-0.562-0.248-1.134-0.286-1.568-0.286
		c-0.615-0.005-1.281-0.011-2.106-0.011c-0.44,0-0.875,0-1.31,0c-0.439,0.006-0.874,0.006-1.309,0.006l-0.44,0.005H22.59
		c-0.572,0-1.144,0-1.716,0l-0.325-0.005c-0.479,0-0.984,0.016-1.501,0.153c-0.798,0.22-1.337,0.716-1.606,1.474
		c-0.176,0.49-0.265,1.023-0.275,1.58c-0.033,2.184-0.05,4.175-0.055,6.079c0,0.182-0.027,0.215-0.121,0.279
		c-1.073,0.743-2.008,1.617-2.789,2.607c-0.688,0.863-1.072,1.826-1.145,2.865c-0.065,0.957-0.099,1.996-0.093,3.175
		c0.005,2.276,0.038,4.6,0.071,6.602c0.021,1.304,0.055,2.607,0.104,3.873c0.05,1.304,0.109,2.623,0.165,3.899
		c0.033,0.683,0.061,1.363,0.094,2.046c0.016,0.446,0.076,0.799,0.192,1.134c0.33,0.957,0.891,1.799,1.667,2.503
		c0.863,0.781,1.958,0.99,2.816,1.091c1.523,0.176,3.118,0.278,4.862,0.317c0.248,0.006,0.495,0.021,0.759,0.044
		c0.314,0.027,0.633,0.057,0.963,0.057h0.022c0.401-0.007,0.798-0.029,1.183-0.057c0.319-0.018,0.649-0.038,0.968-0.044
		c1.7-0.033,3.378-0.138,4.989-0.313c0.793-0.088,1.414-0.252,1.947-0.521c1.123-0.563,1.937-1.529,2.492-2.954l0.006-0.017
		c0.094-0.236,0.198-0.506,0.215-0.799c0.049-0.809,0.082-1.621,0.115-2.414l0.021-0.445c0.017-0.518,0.044-1.034,0.066-1.551
		c0.055-1.403,0.121-2.855,0.159-4.285c0.027-0.838,0.027-1.684,0.027-2.51c0-0.527,0-1.072,0.006-1.605
		c0.006-0.566,0.017-1.139,0.027-1.699c0.017-0.633,0.033-1.287,0.039-1.932c0.005-0.869-0.006-1.723-0.027-2.734
		C36.891,46.865,36.726,46.023,36.39,45.28z M35.197,53.939c-0.017,0.55-0.033,1.115-0.038,1.672c-0.006,0.363,0,0.727,0,1.084
		c0.005,0.438,0.011,0.896,0,1.336c-0.056,1.623-0.121,3.273-0.188,4.869c-0.017,0.429-0.033,0.856-0.05,1.287
		c-0.011,0.187-0.016,0.373-0.021,0.561c-0.027,0.677-0.055,1.381-0.11,2.068c-0.017,0.23-0.094,0.5-0.226,0.781
		C34.19,68.4,33.755,68.93,33.2,69.254c-0.539,0.318-1.183,0.412-1.793,0.484c-1.205,0.131-2.448,0.187-3.647,0.236
		c-0.522,0.021-1.062,0.043-1.595,0.075c-0.347,0.019-0.71,0.027-1.106,0.027c-0.803,0-1.622-0.038-2.409-0.076
		c-0.385-0.022-0.786-0.039-1.177-0.056c-1.117-0.038-2.25-0.159-3.345-0.274l-0.204-0.022c-0.489-0.049-0.896-0.181-1.221-0.39
		c-0.771-0.512-1.281-1.211-1.513-2.091c-0.099-0.391-0.115-0.818-0.138-1.271c-0.006-0.104-0.006-0.209-0.011-0.309l-0.006-0.066
		c-0.071-1.44-0.148-2.926-0.192-4.383c-0.033-1.256-0.05-2.537-0.071-3.77c-0.006-0.527-0.011-1.051-0.022-1.572
		c0-0.094,0-0.182,0-0.27V54.96h-0.021c0-0.165-0.006-0.324-0.012-0.489c-0.011-0.677-0.027-1.375-0.032-2.058
		c-0.006-0.901,0-1.815,0-2.7c0.005-0.357,0.005-0.716,0.005-1.072c0-0.348,0.006-0.688,0.006-1.035
		c0.011-1.071,0.445-2.023,1.358-2.998c0.583-0.615,1.266-1.192,2.151-1.814c0.363-0.253,0.556-0.616,0.583-1.066
		c0.027-0.513,0.033-1.013,0.033-1.502c0.005-0.582,0.005-1.16,0.011-1.743c0.006-1.023,0.006-2.085,0.021-3.124
		c0.006-0.451,0.066-0.832,0.193-1.156c0.115-0.308,0.28-0.336,0.335-0.346c0.479-0.083,0.952-0.127,1.403-0.133
		c0.362-0.006,0.759-0.006,1.21-0.006c0.424,0,0.847,0,1.271,0.006c0.418,0,0.836,0,1.254,0h0.05c0.539,0,1.073,0,1.606,0
		c0.533,0,1.067,0,1.601,0c0.654,0,1.199,0,1.717,0.006c0.286,0,0.604,0.033,0.946,0.1c0.346,0.07,0.396,0.291,0.412,0.367
		l0.022,0.111c0.088,0.391,0.165,0.753,0.176,1.11c0.021,1.101,0.021,2.218,0.027,3.296c0,0.512,0,1.022,0.006,1.529
		c0,0.418,0.005,0.911,0.027,1.424c0.021,0.489,0.23,0.881,0.621,1.155c0.963,0.666,1.673,1.281,2.239,1.931
		c0.621,0.715,1.051,1.354,1.149,2.135l0.006,0.062c0.044,0.347,0.088,0.671,0.094,0.996c0.016,1.177,0.032,2.547,0.021,3.877
		C35.235,52.525,35.213,53.246,35.197,53.939z"/>
	<path fill="#A78627" d="M59.242,51.711c-0.105,0-0.209,0.021-0.309,0.061c-0.095,0.033-0.188,0.078-0.287,0.134
		c-0.506,0.27-1.062,0.467-1.709,0.614c-0.42,0.095-0.849,0.095-1.277,0c-0.615-0.131-1.232-0.356-1.881-0.697
		c-0.143-0.071-0.291-0.11-0.439-0.11c-0.287,0-0.535,0.144-0.684,0.396c-0.109,0.192-0.143,0.412-0.088,0.615
		c0.061,0.221,0.209,0.402,0.43,0.523c0.357,0.197,0.764,0.429,1.188,0.594c0.633,0.26,1.314,0.418,2.092,0.49h0.043l0.046-0.006
		c0.963-0.105,1.803-0.336,2.573-0.705c0.23-0.109,0.468-0.246,0.754-0.439c0.353-0.229,0.455-0.693,0.246-1.062
		C59.797,51.865,59.533,51.711,59.242,51.711z"/>
	<path fill="#A78627" d="M59.246,55.963c-0.152,0-0.297,0.045-0.391,0.072c-1.101,0.379-2.254,0.5-3.42,0.363
		c-0.431-0.051-0.854-0.16-1.306-0.275c-0.164-0.045-0.34-0.094-0.519-0.133c-0.082-0.021-0.157-0.027-0.235-0.027
		c-0.336,0-0.614,0.176-0.748,0.475c-0.176,0.379-0.037,0.809,0.324,1.033c0.146,0.088,0.266,0.144,0.387,0.188
		c0.968,0.346,1.951,0.487,3.394,0.493h0.039c0.522,0,1.42-0.163,2.229-0.405c0.236-0.065,0.451-0.177,0.643-0.287
		c0.303-0.164,0.451-0.506,0.375-0.862c-0.078-0.353-0.342-0.595-0.688-0.634C59.303,55.963,59.275,55.963,59.246,55.963z"/>
	<path fill="#A78627" d="M44.289,24.652c-1.957-0.436-3.916-0.869-5.875-1.305l-3.525-0.781c-0.495-0.109-0.925,0.039-1.211,0.413
		c-0.121,0.165-0.236,0.335-0.335,0.517c-0.27,0.474-0.188,0.93,0.23,1.277c0.595,0.489,1.194,0.979,1.788,1.474l0.803,0.66
		c0.33,0.274,0.666,0.55,0.996,0.825c0.907,0.748,1.849,1.523,2.779,2.283c0.242,0.192,0.533,0.303,0.817,0.303
		c0.177,0,0.349-0.045,0.507-0.121c0.717-0.354,1.25-0.727,1.678-1.166c0.33-0.342,0.766-0.793,1.178-1.271
		c0.287-0.33,0.527-0.676,0.732-0.974c0.164-0.247,0.379-0.622,0.323-1.067C45.143,25.021,44.955,24.801,44.289,24.652z
		 M42.793,26.709c-0.098,0.121-0.209,0.242-0.324,0.369c-0.088,0.094-0.176,0.187-0.258,0.285c-0.381,0.436-0.842,0.82-1.414,1.172
		c-1.193-0.99-2.41-1.991-3.586-2.959c-0.418-0.347-0.836-0.693-1.26-1.04c1.072,0.237,2.146,0.474,3.189,0.704l0.188,0.045
		c1.192,0.264,2.394,0.527,3.586,0.797l0.319,0.066C43.086,26.341,42.941,26.527,42.793,26.709z"/>
	<path fill="#A78627" d="M20.246,39.988c0.132,0.33,0.435,0.534,0.813,0.54c0.44,0.006,0.881,0.012,1.32,0.021
		c0.963,0.018,1.959,0.032,2.943,0.032h0.088c0.765,0,1.54-0.017,2.294-0.032c0.336-0.006,0.677-0.017,1.018-0.021
		c0.562-0.006,0.875-0.242,1.045-0.771c0.044-0.144,0.088-0.309,0.088-0.484c-0.005-0.957-0.016-1.893-0.044-2.844
		c-0.011-0.27-0.182-0.566-0.412-0.699c-0.242-0.137-0.506-0.215-0.754-0.22c-0.539-0.005-1.122-0.005-1.887-0.005
		c-0.297,0-0.6,0-0.902,0c-0.153,0-0.308,0-0.456,0V35.5l-1.128-0.006c-0.144,0-0.286,0.006-0.429,0.006c-0.221,0-0.446,0-0.672,0
		c-0.638,0-1.304,0-1.958,0.011c-0.638,0.005-1.133,0.429-1.133,0.957c0,0.413-0.012,0.831-0.017,1.237
		c-0.006,0.507-0.017,1.029-0.012,1.547c0,0.252,0.094,0.489,0.171,0.682L20.246,39.988z M21.763,37.193c0.435,0,0.913,0,1.513,0
		h2.58h2.277v0.33c0,0.436,0,0.881,0,1.326c-1.062,0.027-2.134,0.039-3.19,0.039c-1.056,0-2.123-0.012-3.18-0.039
		C21.769,38.316,21.775,37.761,21.763,37.193z"/>
	<path fill="#A78627" d="M30.042,58.219c-0.044,0-0.088,0-0.132-0.006c-0.056,0-0.116,0-0.171,0c-0.094,0-0.176,0.006-0.253,0.018
		c-0.236,0.033-0.457,0.088-0.671,0.144l-0.061,0.017c-0.275,0.071-0.55,0.144-0.825,0.221c-0.566,0.147-1.149,0.303-1.728,0.429
		c-0.512,0.116-0.891,0.165-1.237,0.165c-0.044,0-0.088,0-0.132-0.006c-0.562-0.021-1.134-0.143-1.634-0.258
		c-0.512-0.121-1.029-0.26-1.529-0.392c-0.369-0.1-0.754-0.198-1.134-0.297c-0.154-0.033-0.297-0.039-0.435-0.039h-0.126
		c-0.033,0-0.061,0-0.094-0.006l-0.38-0.017l-0.077,0.369c-0.104,0.521,0.127,0.818,0.336,0.974
		c0.143,0.104,0.319,0.226,0.517,0.303c1.26,0.462,2.3,0.748,3.279,0.902c0.077,0.011,0.159,0.021,0.236,0.038
		c0.396,0.065,0.798,0.132,1.227,0.132c0.192,0,0.374-0.017,0.55-0.038c1.139-0.178,2.306-0.456,3.56-0.857
		c0.313-0.104,0.583-0.216,0.819-0.342c0.445-0.236,0.627-0.627,0.528-1.105L30.4,58.219H30.042z"/>
	<path fill="#A78627" d="M28.942,63.125c-0.33,0.061-0.665,0.127-0.995,0.188c-0.435,0.082-0.886,0.17-1.326,0.248
		c-0.435,0.071-0.913,0.104-1.502,0.104c-0.357,0-0.726-0.01-1.083-0.021c-0.303-0.012-0.605-0.062-0.836-0.104
		c-0.254-0.044-0.518-0.099-0.765-0.153c-0.248-0.051-0.507-0.104-0.76-0.148c-0.363-0.065-0.726-0.11-1.034-0.148
		c-0.044-0.005-0.088-0.005-0.132-0.005c-0.445,0-0.66,0.265-0.71,0.513c-0.071,0.334,0.182,0.653,0.357,0.774
		c0.182,0.126,0.457,0.303,0.771,0.379l0.248,0.065c0.627,0.16,1.281,0.33,1.941,0.425c0.539,0.075,1.089,0.099,1.617,0.126
		c0.226,0.011,0.457,0.021,0.683,0.038l0.423,0.026l0.012-0.093c0.038,0,0.071,0,0.109,0c0.545-0.017,1.057-0.138,1.552-0.247
		c0.148-0.039,0.303-0.072,0.451-0.105l0.065-0.01c0.374-0.078,0.754-0.16,1.134-0.287c0.236-0.075,0.479-0.229,0.726-0.444
		c0.215-0.192,0.292-0.451,0.215-0.693c-0.077-0.241-0.303-0.411-0.589-0.444C29.338,63.082,29.146,63.092,28.942,63.125z"/>
	<path fill="#A78627" d="M28.145,42.432c-0.347-0.061-0.704-0.121-1.067-0.133c-0.572-0.021-1.183-0.027-1.876-0.027
		c-0.319,0-0.638,0-0.957,0.006c-0.704,0.006-1.408,0.033-2.096,0.076c-0.275,0.022-0.528,0.088-0.776,0.154
		c-0.049,0.018-0.099,0.027-0.153,0.044c-0.6,0.154-0.605,0.595-0.595,0.728c0.033,0.341,0.253,0.539,0.66,0.604l0.033,0.006
		c0.099,0.018,0.209,0.027,0.341,0.027c0.853,0.018,1.7,0.033,2.559,0.05l0.748,0.011l0.765-0.017
		c0.836-0.011,1.683-0.026,2.535-0.044c0.133,0,0.33-0.011,0.528-0.076c0.188-0.066,0.418-0.254,0.474-0.512
		c0.055-0.303-0.165-0.563-0.336-0.66c-0.159-0.1-0.33-0.166-0.501-0.193C28.332,42.464,28.238,42.447,28.145,42.432z"/>
</g>
</svg>
