<?xml version="1.0" encoding="utf-8"?>
<!-- Generator: Adobe Illustrator 16.0.0, SVG Export Plug-In . SVG Version: 6.00 Build 0)  -->
<!DOCTYPE svg PUBLIC "-//W3C//DTD SVG 1.1//EN" "http://www.w3.org/Graphics/SVG/1.1/DTD/svg11.dtd">
<svg version="1.1" id="Layer_1" xmlns="http://www.w3.org/2000/svg" xmlns:xlink="http://www.w3.org/1999/xlink" x="0px" y="0px"
	 width="77px" height="80px" viewBox="0 0 77 80" enable-background="new 0 0 77 80" xml:space="preserve">
<path fill="#A78627" d="M75.188,51.539c-1.227-3.037-3.067-5.545-5.467-7.451c-0.016-1.764-0.02-3.525-0.025-5.325
	c-0.006-1.51-0.01-3.018-0.012-4.528c-0.002-1.214-0.008-2.433-0.009-3.649c-0.007-1.992-0.014-3.985-0.021-5.977l-0.014-5.543
	c-0.005-0.725-0.005-1.444-0.007-2.168c-0.004-1.531-0.007-3.108-0.017-4.664V12.04c-0.002-0.657-0.008-1.333-0.069-2.005
	c-0.116-1.237-0.592-2.263-1.416-3.047c-0.743-0.709-1.565-1.062-2.456-1.043c-0.759,0.012-1.479,0.307-2.146,0.877
	c-1.055,0.902-1.602,2.166-1.668,3.869c-0.032,0.8-0.024,1.611-0.016,2.394c0.002,0.378,0.006,0.769,0.006,1.153
	c-0.01,3.881-0.018,7.763-0.026,11.645c-0.011,3.008-0.021,6.016-0.029,9.023l-0.008,2.496c-0.006,2.229-0.017,4.459-0.024,6.688
	c-0.134,0.109-0.267,0.223-0.404,0.336c-0.082-0.184-0.174-0.369-0.287-0.551c-0.973-1.607-2.281-2.92-3.891-3.903
	c-0.808-0.493-1.764-1.027-2.91-1.175c-0.004-0.585-0.008-1.172-0.015-1.755c-0.008-1.28-0.021-2.603-0.038-3.904
	c-0.013-0.98-0.382-1.676-1.092-2.061c-0.335-0.182-0.693-0.284-1.005-0.373c-0.272-0.071-0.569-0.105-0.933-0.105
	c-0.162,0-0.32,0.008-0.476,0.013c-0.084,0.001-0.162,0.007-0.239,0.009c0.012-0.475,0.014-0.944,0.02-1.361
	c0.012-1.461-0.051-2.688-0.393-3.912c-0.024-0.089-0.047-0.18-0.072-0.268c-0.19-0.686-0.383-1.395-0.772-2.06
	c-1.116-1.901-2.411-3.439-3.967-4.704c-1.207-0.982-2.537-1.777-3.949-2.359c-0.873-0.361-1.803-0.713-2.835-1.078
	c-0.657-0.23-1.249-0.429-1.886-0.531c-0.182-0.029-0.377-0.043-0.602-0.043c-0.24,0-0.48,0.014-0.713,0.033
	c-0.113,0.007-0.227,0.016-0.34,0.024c-0.406,0.021-0.732,0.306-0.835,0.728c-0.089,0.375,0.04,0.733,0.354,0.979
	c0.159,0.126,0.318,0.245,0.475,0.358l0.085,0.064c0.548,0.401,0.899,0.756,1.146,1.146c0.718,1.135,0.902,2.066,0.602,3.018
	c-0.09,0.279-0.24,0.472-0.473,0.605c-0.93,0.528-1.826,0.836-2.74,0.936c-0.984,0.104-1.992,0.189-2.963,0.271L30.209,22.5
	c-0.624,0.054-1.271,0.109-1.899,0.128c-1.607,0.052-3.184,0.123-4.771,0.426c-2.413,0.466-4.275,1.202-5.86,2.315
	c-2.071,1.452-3.352,3.169-3.899,5.242c-0.387,0.001-0.786,0.009-1.176,0.009c-0.371,0-0.696-0.008-0.999-0.011
	c-0.05-0.003-0.096-0.003-0.141-0.003c-0.684,0-1.286,0.131-1.84,0.404c-0.637,0.318-1.034,0.843-1.116,1.49
	c-0.073,0.583-0.112,1.183-0.119,1.776c-0.018,1.508-0.018,3.041-0.018,4.533c-0.317,0.045-0.646,0.099-0.967,0.216
	c-1.475,0.534-2.839,1.408-4.054,2.597c-1.221,1.196-2.074,2.535-2.604,4.09c-0.372,1.088-0.412,2.185-0.452,3.244
	c-0.005,0.155-0.011,0.313-0.019,0.469c-0.011,0.259-0.003,0.511,0.008,0.75c0.001,0.125,0.009,0.255,0.009,0.38
	c0.024,1.928,0.045,3.854,0.069,5.782c0.022,1.929,0.047,3.854,0.069,5.777c0.008,0.604,0.015,1.206,0.024,1.809
	c0.018,1.396,0.036,2.847,0.045,4.271c0.003,0.619,0.148,1.127,0.448,1.559c0.837,1.209,1.97,2.041,3.363,2.469
	c0.466,0.146,0.959,0.209,1.601,0.209c0.104,0,0.206,0,0.31-0.002c0.295-0.01,0.607-0.014,0.96-0.014
	c0.457,0,0.924,0.006,1.375,0.014c0.356,0.006,0.716,0.008,1.073,0.012c4.761,0.023,9.518,0.052,14.28,0.074
	c0.663,0.006,1.329,0.008,1.99,0.012c2.04,0.011,4.151,0.023,6.229,0.023h0.236c1.797,0,3.617-0.008,5.383-0.021l1.426-0.008
	c1.988-0.014,3.978-0.026,5.966-0.039c3.157-0.018,6.315-0.039,9.477-0.053h0.09c0.287,0,0.586,0.006,0.87,0.012
	c0.294,0.009,0.599,0.017,0.899,0.017c0.162,0,0.313-0.004,0.452-0.008c1.063-0.033,2.034-0.341,2.902-0.914
	c1.505,1.245,3.028,2.014,4.657,2.342l0.06,0.013c0.408,0.084,0.828,0.17,1.271,0.17c0.033,0,0.072-0.004,0.104-0.004
	c0.524-0.019,1.045-0.154,1.463-0.267c2.263-0.601,4.232-1.902,5.857-3.871c1.434-1.742,2.436-3.83,2.979-6.213
	C77.15,59.635,76.805,55.543,75.188,51.539z M10.983,70.533c-0.527,0-1.052-0.004-1.58-0.006C8.105,70.523,6.766,70.52,5.445,70.5
	c-0.478-0.006-0.967-0.17-1.451-0.484c-0.417-0.272-0.801-0.61-1.188-0.965c-0.27-0.24-0.396-0.547-0.398-0.959
	c-0.015-2.035-0.04-4.1-0.064-6.104l-0.021-1.725c-0.014-1.015-0.029-2.029-0.041-3.046c-0.03-2.323-0.062-4.725-0.08-7.082
	C2.2,50.018,2.2,49.9,2.196,49.781c-0.009-0.961-0.022-1.865,0.174-2.748c0.305-1.367,0.956-2.596,1.932-3.65
	c0.773-0.836,1.692-1.541,2.813-2.164c0.438-0.24,0.894-0.406,1.397-0.509c0.652-0.134,1.315-0.147,1.881-0.147
	c0.221,0,0.445,0.002,0.669,0.006c0.204,0.004,0.406,0.007,0.612,0.007c4.854,0.012,9.831,0.032,14.115,0.053
	c0.869,0.002,1.738,0.008,2.605,0.019c1.271,0.01,2.584,0.019,3.877,0.019c0.143,0,0.287,0,0.432,0
	c2.045-0.001,4.125-0.019,6.137-0.03c1.268-0.012,2.535-0.021,3.809-0.025l1.189-0.008c2.873-0.014,5.85-0.024,8.77-0.024h0.207
	c1.129,0,2.15,0.282,3.117,0.868c1.514,0.916,2.646,2.016,3.473,3.369c0.17,0.28,0.299,0.596,0.437,0.934
	c0.015,0.025,0.025,0.055,0.033,0.088c-1.267,1.371-2.329,2.967-3.158,4.744c-0.088-0.156-0.174-0.313-0.272-0.463
	c-0.475-0.758-1.037-1.311-1.728-1.697c-0.338-0.191-0.713-0.281-1.141-0.281l-0.347,0.004c-0.635,0.01-1.291,0.021-1.937,0.021
	h-0.075c-3.221-0.002-6.441-0.011-9.662-0.017l-1.631-0.004c-1.702-0.004-3.401-0.006-5.104-0.014c-0.743,0-1.484-0.006-2.225-0.012
	c-1.193-0.002-2.426-0.014-3.638-0.014c-0.2,0-0.397,0.004-0.597,0.004c-2.336,0.004-4.719,0.016-7.016,0.022
	c-1.411,0.009-2.824,0.017-4.231,0.021c-2.623,0.012-5.225,0.014-7.744,0.021c-0.047,0-0.107-0.008-0.169-0.012
	c-0.058-0.009-0.126-0.019-0.193-0.021c-0.88-0.043-1.496,0.426-2.028,0.926c-0.844,0.797-1.443,1.832-1.831,3.174
	c-0.614,2.104-0.583,4.188,0.092,6.184c0.452,1.324,1.126,2.273,2.072,2.9c0.234,0.156,0.481,0.273,0.718,0.389l0.125,0.064
	c0.184,0.09,0.375,0.09,0.478,0.09c1.363,0,2.725-0.004,4.089-0.006c1.205-0.002,2.407-0.008,3.613-0.008l0.626-0.002
	c2.142-0.004,4.285-0.007,6.429-0.004c1.576,0,3.153,0.006,4.727,0.012c1.907,0.002,3.878,0.004,5.817,0.008h0.813
	c2.083,0,4.167-0.004,6.253-0.006c1.462-0.002,2.926-0.002,4.395-0.002c0.649-0.006,1.299-0.006,1.949-0.006
	c0.774-0.002,1.551-0.002,2.322-0.002c1.506,0,2.725,0.008,3.834,0.018h0.035c0.529,0,0.967-0.145,1.346-0.336
	c0.406,3.438,1.572,6.268,3.539,8.613c-0.535,0.254-0.977,0.364-1.424,0.364c-3.398,0.015-6.857,0.035-10.197,0.052l-3.191,0.02
	c-1.199,0.008-2.398,0.016-3.6,0.023c-2.662,0.02-5.419,0.037-8.129,0.041h-0.262c-2.584,0-5.211-0.021-7.75-0.033
	c-1.132-0.01-2.265-0.016-3.398-0.021c-2.117-0.012-4.234-0.021-6.355-0.033L10.983,70.533z M38.773,20.634
	c0.21-1.036-0.04-1.97-0.312-2.744c-0.149-0.427-0.349-0.83-0.602-1.211c0.01,0.006,0.021,0.007,0.034,0.014
	c0.738,0.26,1.521,0.551,2.394,0.891c1.52,0.594,2.923,1.445,4.169,2.529c1.108,0.967,2.104,2.164,3.03,3.668
	c0.349,0.563,0.527,1.202,0.719,1.873l0.043,0.154c0.314,1.115,0.341,2.266,0.339,3.354c-0.004,0.268-0.007,0.549-0.015,0.814
	c-0.004,0.209-0.004,0.424-0.01,0.643c-1.528-0.009-3.053-0.016-4.727-0.02c-1.063-0.002-2.121-0.008-3.182-0.009
	c-2.796-0.009-5.688-0.017-8.53-0.017h-0.399c-2.268,0-4.579,0.004-6.811,0.012c-0.979,0.003-1.96,0.005-2.938,0.006
	c-1.485,0.006-2.971,0.012-4.457,0.016l-1.758,0.005c0.427-1.159,1.147-2.161,2.195-3.053c1.401-1.198,3.126-2.013,5.263-2.484
	c1.219-0.271,2.528-0.434,4.001-0.499c1.195-0.048,2.419-0.122,3.744-0.225c1.195-0.092,2.2-0.18,3.209-0.314
	c1.006-0.139,2.021-0.504,3.105-1.123C38.327,22.318,38.633,21.33,38.773,20.634z M26.346,32.49c1.156-0.004,2.354-0.011,3.53-0.011
	c0.239,0,0.483,0,0.723,0c3.736,0.007,7.47,0.019,11.203,0.024c1.947,0.008,3.894,0.012,5.835,0.018c0.393,0,0.785,0,1.174,0
	c0.271,0,0.537-0.006,0.803-0.006c0.484,0,1.125,0.006,1.773,0.018c0.213,0.002,0.463,0.061,0.695,0.162
	c0.074,0.032,0.225,0.1,0.23,0.515c0.004,0.169,0.01,0.337,0.01,0.502c0.011,0.406,0.019,0.825,0.023,1.235
	c0.004,0.57,0.004,1.143,0.01,1.719c0,0.648,0.002,1.313,0.008,1.973c-0.129,0.002-0.258,0.008-0.387,0.01
	c-0.311,0.006-0.629,0.012-0.941,0.012c-2.75,0.012-5.499,0.023-8.247,0.035l-4.225,0.016c-0.843,0.006-1.685,0.008-2.524,0.015
	c-0.974,0.001-1.943,0.005-2.913,0.013c-0.223,0-0.448,0-0.671,0h-0.6v-0.047h-0.533c-1.246,0-2.49,0-3.734,0
	c-2.911,0.004-5.825,0.004-8.736,0c-1.99-0.004-4.015-0.015-5.969-0.021c-0.867-0.008-1.736-0.01-2.604-0.013
	c0.006-1.819,0.012-3.313,0.021-4.704c0-0.277,0.015-0.56,0.031-0.801c0.021-0.367,0.152-0.466,0.404-0.525
	c0.307-0.072,0.647-0.088,0.911-0.094c0.472-0.009,0.954-0.009,1.366-0.009h0.807c0.115,0,0.232,0,0.349,0L24.439,32.5
	C25.072,32.492,25.711,32.492,26.346,32.49z M54.75,59.158c0,0.012-0.007,0.041-0.016,0.055c-0.236,0.236-0.461,0.459-0.703,0.594
	c-0.131,0.076-0.342,0.121-0.568,0.121c-1.408,0.006-2.932,0.006-4.783,0.006c-1.16,0-2.32,0-3.484,0
	c-0.817,0-1.641-0.002-2.463-0.002h-0.521l-3.319,0.002c-0.552,0-1.104,0-1.657-0.002c-1.297,0-2.593-0.004-3.889-0.008
	c-1.975-0.004-4.018-0.006-6.027-0.006h-0.481c-2.979,0-6.008,0.004-8.938,0.01c-1.613,0.004-3.23,0.006-4.844,0.012
	c-0.582,0-1.165,0-1.749,0c-0.724,0-1.445,0-2.182,0c-0.496,0-0.894-0.213-1.279-0.684c-0.565-0.684-0.924-1.549-1.094-2.639
	c-0.277-1.738-0.071-3.369,0.616-4.842c0.324-0.705,0.732-1.228,1.251-1.594c0.12-0.08,0.221-0.113,0.371-0.113h0.006
	c0.56,0,1.167,0.004,1.86,0.004c0.635,0,1.267,0,1.901-0.004c0.369,0,0.733,0,1.102,0c1.777-0.006,3.551-0.008,5.326-0.014
	l3.995-0.009c1.473-0.002,2.943-0.008,4.418-0.01c0.467,0,0.929,0,1.396,0h1.765v0.01h0.535c1.008,0,2.017,0,3.027,0
	c2.261-0.002,4.525-0.002,6.787,0c2.779,0.004,5.604,0.013,8.336,0.021c1.229,0,2.453,0.004,3.679,0.009
	c0.032,0,0.067,0.004,0.103,0.004c0.045,0.002,0.096,0.002,0.142,0.002c0.089,0,0.165-0.006,0.237-0.021
	c0.02-0.002,0.033-0.002,0.055-0.002c0.084,0,0.182,0.045,0.326,0.154c0.486,0.359,0.863,0.828,1.125,1.395
	c0.177,0.396,0.313,0.806,0.461,1.242c0.041,0.113,0.076,0.232,0.117,0.349c0,0.002,0,0.004,0,0.004
	C55.098,55.133,54.781,57.133,54.75,59.158z M57.411,54.135c0.976-3.354,2.618-6.01,5.024-8.119
	c0.235-0.205,0.485-0.396,0.752-0.602c0.065-0.049,0.127-0.1,0.196-0.15c0.462-0.359,0.558-0.799,0.296-1.32
	c0.008-3.56,0.018-7.117,0.029-10.677l0.027-10.224c0-0.936,0.006-1.87,0.01-2.803c0.007-2.015,0.008-4.026,0.02-6.037l0.002-0.349
	c0.004-1.106,0.004-2.252,0.039-3.373c0.021-0.722,0.241-1.357,0.653-1.889c0.351-0.448,0.804-0.697,1.278-0.697
	c0.474,0,0.929,0.249,1.275,0.695c0.438,0.557,0.654,1.242,0.686,2.146l0.013,3.558c0.011,3.024,0.021,6.048,0.031,9.074
	c0.003,1.27,0.006,2.538,0.01,3.808c0.004,1.112,0.004,2.221,0.011,3.332c0.004,2.612,0.014,5.228,0.022,7.846l0.012,4.071
	c0,0.416,0,0.828,0,1.246v0.066c0.004,0.166,0,0.24-0.032,0.295c-0.188,0.322-0.216,0.834,0.336,1.234
	c1.137,0.827,2.131,1.801,2.959,2.883c1.987,2.596,3.186,5.528,3.553,8.717c0.363,3.115,0.025,6.037-1.006,8.688
	c-0.86,2.217-2.248,3.969-4.119,5.209c-1.078,0.717-2.273,1.174-3.553,1.354c-0.069,0.012-0.14,0.018-0.213,0.018
	c-0.308,0-0.625-0.084-0.966-0.166l-0.049-0.012c-2.103-0.533-3.823-1.709-5.271-3.603c-1.168-1.526-1.933-3.332-2.345-5.508
	C56.508,59.734,56.611,56.883,57.411,54.135z"/>
</svg>
