<?xml version="1.0" encoding="utf-8"?>
<!-- Generator: Adobe Illustrator 16.0.0, SVG Export Plug-In . SVG Version: 6.00 Build 0)  -->
<!DOCTYPE svg PUBLIC "-//W3C//DTD SVG 1.1//EN" "http://www.w3.org/Graphics/SVG/1.1/DTD/svg11.dtd">
<svg version="1.1" id="Layer_1" xmlns="http://www.w3.org/2000/svg" xmlns:xlink="http://www.w3.org/1999/xlink" x="0px" y="0px"
	 width="77px" height="80px" viewBox="0 0 77 80" enable-background="new 0 0 77 80" xml:space="preserve">
<g>
	<path fill="#A78627" d="M70.729,69.293c-0.006-0.184-0.017-0.367-0.021-0.557c-0.089-1.963-0.283-3.688-0.602-5.271
		c-0.311-1.557-0.672-3.125-1.018-4.643c-0.076-0.328-0.148-0.651-0.229-0.974c-0.488-2.17-0.935-4.082-1.355-5.84
		c-0.768-3.214-1.686-6.104-2.809-8.835c-0.268-0.655-0.518-1.336-0.762-1.991c-0.195-0.527-0.396-1.073-0.606-1.606
		c-0.3-0.762-0.617-1.524-0.917-2.269c-0.322-0.778-0.65-1.584-0.962-2.38c-0.14-0.345-0.278-0.695-0.417-1.029
		c-0.434-1.084-0.885-2.202-1.219-3.331c-0.605-2.058-0.935-3.909-1.013-5.667c-0.026-0.684-0.005-1.39,0.013-2.074
		c0.006-0.312,0.017-0.634,0.021-0.951c0.018-1.418,0.166-2.886,0.443-4.371c0.289-1.557,0.635-3.136,0.969-4.665l0.066-0.306
		c0.117-0.528,0.256-1.067,0.39-1.584c0.071-0.278,0.146-0.556,0.211-0.84c0.032-0.139,0.062-0.284,0.067-0.422
		c0.026-0.362-0.162-0.662-0.496-0.79c-0.101-0.039-0.199-0.056-0.301-0.056c-0.261,0-0.494,0.133-0.64,0.367
		c-0.101,0.162-0.222,0.384-0.3,0.634c-0.105,0.333-0.184,0.673-0.262,1l-0.006,0.028c-0.072,0.317-0.145,0.634-0.223,0.951
		c-0.262,1.128-0.533,2.296-0.79,3.447c-0.339,1.507-0.556,2.831-0.673,4.06c-0.1,1.012-0.154,1.913-0.178,2.758
		c-0.027,1.073-0.051,2.213,0.012,3.342c0.105,2.069,0.55,4.237,1.355,6.634c0.334,0.973,0.729,1.935,1.112,2.869
		c0.134,0.334,0.272,0.667,0.411,1.007c0.239,0.595,0.489,1.207,0.729,1.791c0.328,0.812,0.674,1.646,0.996,2.469
		c0.223,0.556,0.434,1.123,0.633,1.674c0.257,0.686,0.523,1.396,0.808,2.091c0.513,1.269,0.944,2.457,1.313,3.626
		c-2.23,0.005-4.455,0.01-6.68,0.01c-4.158,0.006-8.318,0.019-12.472,0.019h-0.013c-0.238,0-0.488-0.007-0.729-0.013
		c-0.027,0-0.056,0-0.083-0.006c-0.071-0.261-0.185-0.505-0.334-0.728c0.558-0.302,1.151-0.779,1.451-1.618
		c0.284-0.816,0.179-1.591-0.312-2.263c0.522-0.396,0.816-0.931,0.861-1.563c0.051-0.707-0.189-1.357-0.695-1.88
		c-0.633-0.656-1.346-0.917-2.106-0.773c-0.017-0.49-0.179-0.957-0.478-1.362c-0.406-0.556-1.041-0.917-1.729-0.996
		c-0.11-0.011-0.224-0.017-0.334-0.017c-0.567,0-1.084,0.161-1.468,0.306c-2.208,0.817-4.454,1.657-6.623,2.475
		c-0.645,0.239-1.29,0.484-1.935,0.729c0.039-0.195,0.072-0.384,0.111-0.573c0.083-0.367,0.161-0.74,0.238-1.106
		c0.117-0.534,0.239-1.079,0.351-1.624c0.134-0.662,0.178-1.251,0.134-1.801c-0.039-0.451-0.178-0.845-0.429-1.196
		c-0.478-0.684-1.312-1.09-2.224-1.09c-0.778,0-1.507,0.3-1.996,0.823c-0.373,0.395-0.673,0.856-0.984,1.501
		c-0.217,0.451-0.423,0.907-0.623,1.346c-0.206,0.461-0.417,0.934-0.64,1.39c-0.495,1.023-0.867,2.102-1.229,3.146
		c-0.05,0.14-0.101,0.283-0.15,0.429c-0.25,0.729-0.461,1.463-0.7,2.336c-0.006,0.006-0.006,0.011-0.006,0.017
		c-1.418,0.43-2.863,0.867-4.254,1.297c-0.295,0.088-0.595,0.178-0.89,0.266c0.117-0.305,0.239-0.622,0.355-0.928
		c0.156-0.396,0.317-0.789,0.479-1.186c0.233-0.589,0.483-1.2,0.718-1.809c0.194-0.517,0.389-1.044,0.578-1.55
		c0.25-0.678,0.506-1.374,0.772-2.052c0.289-0.723,0.596-1.457,0.89-2.163c0.384-0.934,0.784-1.891,1.157-2.853
		c0.467-1.212,0.845-2.591,1.15-4.204c0.312-1.612,0.445-2.969,0.429-4.276c-0.006-0.667-0.022-1.329-0.039-2.046
		c0.211,0.017,0.423,0.034,0.628,0.05c0.323,0.022,0.651,0.044,0.979,0.072c0.027,0.061,0.061,0.122,0.089,0.189
		c0.061,0.15,0.133,0.3,0.228,0.456c0.145,0.245,0.295,0.489,0.445,0.734c0.506,0.84,1.028,1.707,1.59,2.541
		c0.467,0.684,0.979,1.346,1.479,1.98c0.145,0.183,0.289,0.367,0.434,0.55c0.066,0.089,0.139,0.184,0.206,0.272
		c0.417,0.54,0.845,1.095,1.312,1.618c0.606,0.678,1.352,1.034,2.163,1.034c0.4,0,0.813-0.089,1.229-0.261
		c0.9-0.378,1.74-1.451,1.512-2.703c-0.11-0.595-0.306-1.195-0.605-1.84c-0.239-0.517-0.484-1.034-0.723-1.552
		c-0.206-0.445-0.412-0.89-0.623-1.329c0.667,0.083,1.323,0.172,1.99,0.267c1.94,0.256,3.948,0.528,5.928,0.79
		c0.551,0.073,1.279,0.162,2.024,0.195c0.604,0.028,1.185-0.172,1.674-0.578c0.789-0.656,1.095-1.468,0.906-2.363
		c0.473-0.028,0.89-0.189,1.239-0.479c0.539-0.445,0.861-1.006,0.963-1.673c0.082-0.54,0.011-1.001-0.207-1.407
		c-0.238-0.45-0.594-0.778-1.045-0.99c0.283-0.662,0.271-1.323-0.051-1.979c-0.377-0.784-1.027-1.301-1.935-1.546
		c0.005-0.011,0.011-0.022,0.017-0.033c0.25-0.689,0.188-1.457-0.166-2.107c-0.355-0.65-0.975-1.118-1.686-1.273
		c-0.68-0.15-1.368-0.245-2.03-0.339c-0.872-0.122-1.768-0.239-2.63-0.355c-1.657-0.223-3.375-0.451-5.055-0.712
		c-0.378-0.056-0.762-0.089-1.15-0.089c-0.846,0-1.735,0.139-2.72,0.428c-1.001,0.294-1.907,0.862-2.841,1.779
		c-0.117-0.022-0.229-0.039-0.334-0.056c-0.056-0.006-0.117-0.017-0.173-0.022l-1.278-0.211c-1.229-0.206-2.497-0.412-3.748-0.618
		c-0.05-0.228-0.111-0.45-0.189-0.662c-0.06-0.188-0.155-0.382-0.287-0.588c-0.14-0.222-0.367-0.35-0.623-0.35
		c-0.101,0-0.194,0.017-0.289,0.05c-0.334,0.128-0.534,0.428-0.512,0.784c0.011,0.167,0.044,0.322,0.072,0.439
		c0,0.005,0.006,0.017,0.006,0.022C17.553,9.7,14.89,9.267,12.226,8.828L8.528,8.221L8.5,8.216C8.473,8.21,8.434,8.205,8.389,8.199
		C8.355,8.193,8.322,8.193,8.295,8.193c-0.435,0-0.784,0.289-0.862,0.701C7.35,9.361,7.66,9.8,8.139,9.884
		c0.289,0.056,0.584,0.1,0.867,0.15c0.14,0.022,0.278,0.039,0.412,0.066l3.014,0.495c1.412,0.233,2.819,0.467,4.231,0.695
		c0.974,0.162,1.946,0.323,2.919,0.484c0.979,0.156,1.958,0.317,2.937,0.479c1.729,0.289,3.459,0.573,5.188,0.856
		c0.062,0.011,0.123,0.017,0.179,0.017c0.194,0,0.473-0.062,0.717-0.339c0.739-0.856,1.607-1.401,2.652-1.674
		c0.718-0.178,1.307-0.267,1.863-0.267c0.339,0,0.661,0.034,0.979,0.1c0.322,0.062,0.645,0.106,0.956,0.145
		c0.123,0.011,0.245,0.028,0.367,0.045c0.606,0.083,1.218,0.167,1.824,0.25c1.273,0.167,2.591,0.345,3.887,0.528l0.316,0.044
		c0.701,0.095,1.43,0.195,2.13,0.339c0.34,0.072,0.59,0.289,0.685,0.589c0.09,0.289,0.018,0.601-0.195,0.856
		c-1.967-0.295-3.92-0.595-5.811-0.884c-0.089-0.017-0.172-0.022-0.25-0.022c-0.479,0-0.817,0.272-0.89,0.707
		c-0.039,0.233,0.011,0.445,0.139,0.623c0.15,0.206,0.4,0.333,0.734,0.389l1.507,0.228c1.773,0.267,3.607,0.545,5.41,0.829
		c0.355,0.056,0.617,0.128,0.822,0.228c0.34,0.161,0.545,0.422,0.578,0.723c0.022,0.267-0.101,0.517-0.354,0.707
		c-0.007,0.005-0.022,0.005-0.022,0.005c-1.318-0.161-2.652-0.339-3.941-0.512l-0.758-0.1c-0.383-0.05-0.771-0.1-1.155-0.15
		c-0.841-0.111-1.68-0.223-2.519-0.333c-0.045-0.006-0.095-0.006-0.145-0.006c-0.468,0-0.829,0.312-0.873,0.762
		c-0.051,0.479,0.289,0.873,0.806,0.94l1.673,0.222c1.719,0.228,3.486,0.462,5.232,0.69c0.656,0.083,1.329,0.155,1.975,0.228
		c0.229,0.022,0.461,0.045,0.689,0.073c0.311,0.033,0.482,0.233,0.479,0.545c-0.018,0.483-0.322,0.784-0.807,0.784
		c-0.045,0-0.089-0.005-0.141-0.011c-1.789-0.211-3.58-0.422-5.37-0.634l-2.308-0.267c-0.078-0.011-0.161-0.022-0.245-0.034
		c-0.155-0.022-0.312-0.039-0.473-0.056c-0.033,0-0.061-0.005-0.094-0.005c-0.445,0-0.801,0.3-0.868,0.723
		c-0.072,0.467,0.233,0.879,0.724,0.979c0.061,0.017,0.116,0.022,0.166,0.028l1.396,0.161c1.784,0.211,3.568,0.422,5.354,0.634
		c0.006,0,0.022,0.006,0.027,0.006c0.239,0.122,0.43,0.35,0.462,0.567c0.027,0.195-0.062,0.4-0.267,0.601
		c-0.195,0.189-0.43,0.272-0.773,0.272c-0.105,0-0.223-0.005-0.371-0.022c-0.541-0.062-1.086-0.139-1.619-0.211
		c-0.232-0.034-0.473-0.067-0.705-0.1l-0.975-0.128c-2.374-0.323-4.754-0.645-7.134-0.962c-0.161-0.022-0.323-0.011-0.479,0.022
		c-0.361,0.083-0.539,0.284-0.623,0.439c-0.089,0.156-0.161,0.417-0.033,0.768c0.083,0.217,0.173,0.422,0.262,0.623l0.011,0.028
		c0.128,0.278,0.25,0.562,0.378,0.845c0.34,0.762,0.685,1.546,1.046,2.319l0.072,0.145c0.267,0.578,0.522,1.118,0.605,1.707
		c0.034,0.217-0.021,0.389-0.183,0.589c-0.167,0.2-0.534,0.351-0.868,0.351c-0.128,0-0.306-0.022-0.45-0.123l-0.044-0.028
		c-0.162-0.117-0.317-0.222-0.423-0.345c-0.384-0.439-0.751-0.901-1.057-1.295l-0.306-0.395c-0.974-1.24-1.975-2.53-2.786-3.903
		c-0.15-0.256-0.306-0.512-0.462-0.756c-0.372-0.595-0.723-1.151-0.983-1.774c-0.173-0.412-0.567-0.689-1.029-0.734
		c-0.256-0.022-0.512-0.039-0.762-0.056c-0.105-0.005-0.206-0.011-0.312-0.021l-2.485-0.178c-1.757-0.123-3.52-0.25-5.282-0.378
		c-1.057-0.078-2.113-0.15-3.17-0.228c-1.129-0.083-2.258-0.162-3.387-0.245l-0.228-0.017c-0.39-0.028-0.784-0.055-1.179-0.078
		c-0.484-0.022-0.873,0.322-0.906,0.784c-0.033,0.461,0.283,0.839,0.75,0.912C9.15,20.95,9.24,20.955,9.317,20.96l1.913,0.134
		c0.9,0.062,1.802,0.128,2.702,0.189c1.379,0.1,2.753,0.2,4.132,0.294l2.502,0.184c0.573,0.039,1.151,0.078,1.729,0.123
		c0,0.078,0,0.161,0.006,0.25c0.105,2.069,0.022,3.787-0.272,5.399c-0.351,1.885-0.773,3.425-1.335,4.832
		c-0.139,0.339-0.272,0.689-0.4,1.023c-0.155,0.406-0.316,0.828-0.483,1.24c-0.184,0.445-0.373,0.896-0.562,1.334
		c-0.25,0.595-0.512,1.212-0.757,1.83c-0.211,0.54-0.417,1.095-0.611,1.629c-0.15,0.417-0.306,0.851-0.467,1.269
		c-0.361,0.951-0.739,1.912-1.102,2.848c-0.277,0.723-0.562,1.445-0.839,2.162c-0.707,0.212-1.418,0.429-2.107,0.64l-0.195,0.056
		c-2.096,0.641-4.187,1.279-6.283,1.926c-0.262,0.076-0.467,0.238-0.578,0.449c-0.105,0.194-0.122,0.422-0.05,0.641
		c0.11,0.361,0.422,0.589,0.812,0.589c0.1,0,0.211-0.017,0.322-0.05l1.746-0.534c0.918-0.278,1.835-0.556,2.747-0.84
		c0.973-0.294,1.946-0.589,2.919-0.89c1.096-0.334,2.186-0.668,3.275-1.002c0.912-0.276,1.824-0.556,2.736-0.834
		c0.861-0.262,1.724-0.521,2.585-0.783c0.45-0.14,0.784-0.5,0.862-0.95c0.161-0.867,0.456-1.691,0.768-2.536
		c0.1-0.268,0.2-0.534,0.294-0.801c0.229-0.623,0.462-1.262,0.718-1.879c0.267-0.65,0.584-1.307,0.884-1.935
		c0.078-0.167,0.156-0.328,0.233-0.495l0.106-0.217c0.217-0.461,0.438-0.934,0.689-1.373c0.3-0.517,0.7-0.717,1.273-0.628
		c0.4,0.061,0.673,0.35,0.706,0.75c0.039,0.461-0.028,0.917-0.145,1.462c-0.089,0.4-0.173,0.801-0.262,1.196
		c-0.134,0.595-0.267,1.218-0.395,1.829c-0.105,0.5-0.184,1.018-0.25,1.502c-0.056,0.366,0.072,0.604,0.188,0.743
		c0.117,0.135,0.34,0.296,0.718,0.296h0.021c0.146,0,0.29-0.027,0.423-0.078c1.234-0.461,2.469-0.922,3.703-1.384
		c1.83-0.685,3.659-1.368,5.483-2.052c0.429-0.161,0.817-0.283,1.185-0.378c0.351-0.089,0.646,0.011,0.939,0.317
		c0.116,0.128,0.155,0.339,0.105,0.556c-0.051,0.217-0.178,0.378-0.334,0.434c-1.252,0.451-2.502,0.896-3.753,1.34l-1.746,0.617
		c-0.1,0.033-0.194,0.065-0.289,0.101c-0.239,0.083-0.489,0.172-0.729,0.267c-0.473,0.184-0.695,0.662-0.522,1.117
		c0.128,0.334,0.434,0.545,0.801,0.54c0.095,0,0.188-0.012,0.289-0.038c0.033-0.013,0.072-0.022,0.111-0.039l0.884-0.317
		c0.601-0.218,1.207-0.429,1.813-0.646c0.584-0.211,1.168-0.416,1.752-0.622c1.13-0.399,2.291-0.812,3.437-1.224
		c0.123-0.044,0.244-0.066,0.355-0.066c0.284,0,0.506,0.15,0.662,0.456c0.223,0.43-0.006,0.617-0.078,0.674
		c-0.072,0.061-0.205,0.11-0.333,0.155l-0.056,0.021c-0.105,0.039-0.212,0.072-0.328,0.105c-0.117,0.039-0.238,0.072-0.361,0.117
		c-1.356,0.506-2.714,1.006-4.07,1.512l-1.74,0.646c-0.389,0.145-0.778,0.289-1.168,0.435c-0.405,0.149-0.817,0.3-1.223,0.449
		c-0.489,0.185-0.723,0.649-0.557,1.113c0.123,0.338,0.429,0.55,0.796,0.55c0.111,0,0.228-0.018,0.339-0.057
		c0.017-0.006,0.033-0.012,0.05-0.017l1.279-0.473c0.879-0.328,1.757-0.65,2.636-0.979c1.211-0.449,2.586-0.955,3.947-1.468
		c0.027-0.012,0.045-0.012,0.045-0.012s0.006,0,0.017,0.006c0.256,0.122,0.423,0.312,0.479,0.539c0.05,0.233-0.017,0.495-0.2,0.723
		c-0.211,0.273-0.506,0.429-0.89,0.578c-1.168,0.462-2.336,0.925-3.503,1.38l-2.142,0.846c-0.089,0.033-0.172,0.066-0.261,0.105
		c-0.272,0.105-0.551,0.217-0.829,0.333c-0.438,0.188-0.634,0.679-0.444,1.118c0.134,0.316,0.434,0.512,0.784,0.512
		c0.089,0,0.184-0.012,0.272-0.039c0.05-0.018,0.095-0.033,0.128-0.051l1.106-0.434c1.479-0.584,2.958-1.168,4.432-1.758
		c0.411,0.322,0.489,0.772,0.211,1.219c-0.094,0.156-0.233,0.267-0.417,0.339c-0.1,0.045-0.205,0.089-0.313,0.134
		c-0.371,0.15-0.756,0.311-1.133,0.456c-1.119,0.423-2.258,0.851-3.365,1.263c-0.64,0.238-1.284,0.482-1.93,0.723l-0.217,0.084
		c-0.611,0.232-1.245,0.468-1.868,0.712l-0.062,0.021c-0.545,0.213-1.057,0.412-1.59,0.439c-0.312,0.018-0.673,0.027-1.023,0.027
		c-0.117,0-0.233,0-0.345-0.006c-0.99-0.027-1.901-0.361-2.786-1.007c-0.194-0.146-0.395-0.211-0.601-0.211
		c-0.128,0-0.261,0.022-0.395,0.078c-0.7,0.295-1.407,0.584-2.124,0.879c-3.682,1.501-7.368,3.002-11.055,4.504l-5.032,2.058
		l-0.027,0.012c-0.034,0.012-0.062,0.021-0.095,0.033c-0.456,0.211-0.656,0.701-0.467,1.135c0.139,0.316,0.434,0.512,0.778,0.512
		c0.116,0,0.233-0.023,0.35-0.066c0.557-0.223,1.118-0.457,1.663-0.68l0.679-0.277c0.161-0.062,0.322-0.127,0.489-0.194
		c-0.039,0.194-0.072,0.385-0.117,0.573c-0.062,0.267-0.122,0.533-0.188,0.801c-0.362,1.558-0.74,3.164-0.873,4.811
		c-0.028,0.34-0.062,0.684-0.09,1.022c-0.05,0.584-0.105,1.185-0.145,1.778c-0.05,0.668-0.066,1.318-0.083,1.875
		c0,0.178,0.017,0.449,0.122,0.705c0.117,0.268,0.396,0.424,0.596,0.474c0.061,0.017,0.116,0.022,0.178,0.022
		c0.3,0,0.567-0.195,0.678-0.496c0.051-0.127,0.117-0.328,0.128-0.545c0.039-0.666,0.067-1.346,0.089-1.951
		c0.067-1.69,0.256-3.381,0.563-5.016c0.105-0.563,0.238-1.135,0.372-1.691c0.078-0.338,0.161-0.688,0.233-1.032
		c0.161-0.724,0.301-1.441,0.434-2.113c0.006,0,0.012,0,0.017-0.006c2.069-0.834,4.165-1.69,6.195-2.521l0.139-0.055
		c2.675-1.09,4.86-1.984,6.878-2.809c1.168,0.762,2.48,1.135,3.998,1.135c0.445,0,0.924-0.033,1.407-0.102
		c0.628-0.082,1.195-0.306,1.746-0.517c0.145-0.057,0.289-0.11,0.434-0.167c1.396-0.517,2.809-1.057,4.176-1.579l0.906-0.351
		c0.796-0.307,1.603-0.617,2.381-0.917l0.884-0.347c0.689-0.267,1.186-0.732,1.436-1.351c0.011-0.017,0.011-0.034,0.017-0.039
		c0.017,0,0.039-0.005,0.083-0.011c0.028,0,0.063,0,0.09,0h1.769c1.401-0.006,2.803-0.012,4.204-0.012l4.143-0.006
		c3.459-0.006,6.923-0.006,10.383-0.012c0.1,0.372,0.199,0.758,0.299,1.124c0.224,0.806,0.445,1.636,0.646,2.451
		c0.494,2.024,0.967,4.104,1.391,5.938c0.101,0.439,0.193,0.89,0.283,1.328c0.128,0.623,0.262,1.269,0.422,1.896
		c0.396,1.59,0.668,3.259,0.823,5.1c0.056,0.639,0.083,1.301,0.11,1.94c0.018,0.399,0.033,0.812,0.057,1.223
		c0.018,0.269,0.063,0.552,0.134,0.912c0.077,0.356,0.384,0.59,0.767,0.59c0.367,0,0.662-0.229,0.752-0.577
		c0.045-0.18,0.095-0.4,0.089-0.63C70.773,70.16,70.751,69.716,70.729,69.293z"/>
	<path fill="#A78627" d="M50.911,68.182c-0.361-0.012-0.724-0.012-1.073-0.012c-0.14,0-0.283,0-0.423,0h-0.367
		c-0.272,0-0.551,0-0.823-0.006c-0.293,0-0.582-0.005-0.877-0.005c-0.229-0.007-0.463-0.007-0.689-0.007
		c-0.184-0.006-0.373-0.006-0.557-0.006c-0.218,0-0.435-0.006-0.65-0.006c-0.206,0-0.406-0.005-0.611-0.005
		c-0.289-0.006-0.584-0.012-0.879-0.012c-0.238,0-0.479,0-0.717,0c-0.284,0-0.567,0-0.846-0.005c-0.283,0-0.567-0.006-0.852-0.012
		c-0.328-0.006-0.662-0.012-0.995-0.012c-0.256,0-0.512,0-0.768,0c-0.263,0.006-0.519,0.006-0.778,0.006
		c-0.239-0.006-0.489-0.012-0.729-0.017c-0.262-0.006-0.528-0.012-0.801-0.012c-0.345,0-0.695,0-1.046,0
		c-0.383,0-0.767,0.006-1.15,0c-0.361,0-0.729-0.011-1.085-0.017c-0.378-0.007-0.767-0.012-1.146-0.018c-0.667,0-1.334,0-2.001,0
		c-0.134,0-0.272,0-0.406,0v-0.027h-0.506c-0.017,0-0.033,0-0.05,0c-0.49,0.012-0.856,0.361-0.868,0.828
		c-0.017,0.479,0.351,0.856,0.851,0.879c0.072,0.006,0.145,0.006,0.212,0c0.027,0,0.056,0,0.089,0h0.645
		c0.301,0,0.601,0,0.901,0.006c0.389,0,0.778,0.006,1.162,0.012c0.233,0,0.467,0.005,0.7,0.005c0.534,0.006,1.063,0.012,1.597,0.017
		c0.345,0,0.689,0.006,1.034,0.006l0.945,0.006c0.355,0,0.706,0,1.062,0.006c0.184,0,0.373,0.006,0.562,0.006
		c0.206,0.006,0.417,0.012,0.629,0.012c0.322,0,0.645,0,0.967,0.005c0.199,0,0.396,0,0.596,0c0.411,0,0.822,0.007,1.229,0.007h0.117
		c0.346,0.006,0.689,0.006,1.034,0.01c0.173,0,0.339,0.006,0.513,0.006c0.232,0.007,0.467,0.007,0.699,0.012c0.25,0,0.495,0,0.745,0
		c0.267,0,0.534,0,0.802,0.006c0.232,0,0.467,0.006,0.694,0.006c0.272,0.006,0.545,0.012,0.817,0.012c0.25,0.006,0.5,0,0.75,0
		c0.262,0,0.518,0,0.772,0c0.239,0,0.479,0.006,0.724,0.012c0.262,0.005,0.533,0.011,0.807,0.011h0.005
		c0.456,0,0.829-0.378,0.835-0.84C51.717,68.576,51.355,68.191,50.911,68.182z"/>
	<path fill="#A78627" d="M46.957,34.295c-0.122-0.061-0.262-0.095-0.395-0.095c-0.301,0-0.578,0.162-0.724,0.434
		c-0.212,0.378-0.101,0.845,0.267,1.106c0.066,0.044,0.129,0.078,0.185,0.111c1.257,0.711,2.207,1.835,2.908,3.431
		c0.321,0.745,0.567,1.59,0.751,2.575c0.05,0.276,0.222,0.506,0.361,0.649c0.139,0.146,0.321,0.224,0.521,0.224
		c0.277,0,0.534-0.162,0.667-0.418c0.056-0.11,0.089-0.223,0.11-0.301c0.012-0.021,0.012-0.037,0.018-0.056l0.033-0.089
		l-0.012-0.102c-0.006-0.026-0.006-0.043-0.006-0.065c-0.004-0.044-0.011-0.072-0.011-0.101c-0.245-1.378-0.61-2.542-1.129-3.559
		c-0.694-1.373-1.552-2.418-2.63-3.197C47.586,34.64,47.273,34.467,46.957,34.295z"/>
	<path fill="#A78627" d="M46.885,27.611c-0.154-0.255-0.417-0.4-0.712-0.4c-0.172,0-0.35,0.05-0.522,0.156
		c-0.851,0.5-1.807,0.684-2.846,0.534c-1.068-0.15-2.104-0.551-3.07-1.19c-0.172-0.111-0.355-0.172-0.539-0.172
		c-0.29,0-0.55,0.15-0.707,0.406c-0.122,0.2-0.161,0.428-0.105,0.645c0.056,0.233,0.211,0.428,0.439,0.562l0.122,0.067
		c0.407,0.233,0.823,0.479,1.268,0.678c0.823,0.373,1.891,0.762,3.492,0.762h0.072c0.449-0.011,1.63-0.122,2.764-0.839
		C46.996,28.528,47.135,28.034,46.885,27.611z"/>
</g>
</svg>
