<?xml version="1.0" encoding="utf-8"?>
<!-- Generator: Adobe Illustrator 16.0.0, SVG Export Plug-In . SVG Version: 6.00 Build 0)  -->
<!DOCTYPE svg PUBLIC "-//W3C//DTD SVG 1.1//EN" "http://www.w3.org/Graphics/SVG/1.1/DTD/svg11.dtd">
<svg version="1.1" id="Layer_1" xmlns="http://www.w3.org/2000/svg" xmlns:xlink="http://www.w3.org/1999/xlink" x="0px" y="0px"
	 width="77px" height="80px" viewBox="0 0 77 80" enable-background="new 0 0 77 80" xml:space="preserve">
<g>
	<path fill="#A78627" d="M28.719,65.252c-0.444,0-0.797,0.279-0.883,0.695c-0.097,0.484,0.193,0.916,0.7,1.035
		c0.063,0.018,0.126,0.028,0.188,0.047c0.273,0.063,0.552,0.131,0.843,0.17c0.934,0.131,1.931,0.268,3.24,0.434
		c1.4,0.182,2.744,0.268,4.498,0.279h0.018h0.012c0.193-0.006,0.427-0.018,0.683-0.029c0.684-0.027,1.527-0.063,2.38-0.131
		c2.096-0.176,4.242-0.461,6.383-0.843c0.404-0.073,0.799-0.193,1.145-0.302c0.389-0.119,0.605-0.479,0.525-0.9
		c-0.068-0.381-0.393-0.643-0.797-0.648c-0.115,0-0.24,0.012-0.371,0.028c-0.422,0.063-0.842,0.126-1.264,0.194
		c-0.445,0.063-0.89,0.131-1.332,0.193c-2.238,0.33-4.049,0.528-5.712,0.625c-0.604,0.034-1.219,0.053-1.84,0.053
		c-1.577,0-3.239-0.12-4.954-0.348c-0.78-0.109-1.583-0.246-2.352-0.377c-0.308-0.058-0.615-0.107-0.923-0.158
		C28.844,65.258,28.782,65.252,28.719,65.252z"/>
	<path fill="#A78627" d="M69.918,48.049c-0.268-2.5-0.979-4.863-1.707-7.049c-0.701-2.119-1.605-4.18-2.482-6.173
		c-0.137-0.319-0.278-0.632-0.416-0.951c-0.239-0.541-0.514-1.076-0.78-1.589c-0.164-0.319-0.337-0.655-0.494-0.985
		c-0.64-1.321-1.281-2.665-1.896-3.969l-0.336-0.695c-0.929-1.958-1.761-3.923-2.474-5.842c-0.455-1.224-0.929-2.54-1.271-3.884
		c-0.262-1.008-0.563-2.016-0.858-2.989c-0.147-0.49-0.304-0.997-0.449-1.498c-0.239-0.82-0.752-1.469-1.578-1.981
		c-0.813-0.513-1.719-0.695-2.5-0.803c-0.704-0.103-1.43-0.188-2.122-0.273c-0.634-0.08-1.287-0.16-1.927-0.25
		c-1.047-0.143-2.112-0.302-3.137-0.45c-0.82-0.12-1.664-0.239-2.494-0.358c-0.396-0.057-0.804-0.091-1.248-0.108
		c-0.033-0.006-0.063-0.006-0.097-0.006c-0.678,0-1.065,0.331-1.271,0.609c-0.137,0.188-0.295,0.399-0.461,0.581
		c-0.922,1.036-1.719,2.175-2.494,3.28c-0.103,0.148-0.205,0.302-0.313,0.45c-0.489,0.694-0.581,1.463-0.268,2.283
		c0.183,0.49,0.354,0.854,0.547,1.185c0.523,0.877,1.07,1.754,1.6,2.603l0.2,0.319c-0.53,0.512-0.945,1.087-1.252,1.549
		c-0.587,0.865-0.661,1.657-0.229,2.409c0.462,0.797,1.1,1.338,1.897,1.606c0.553,0.182,1.115,0.279,1.668,0.279
		c1.008,0,2.016-0.313,2.99-0.922c0.268-0.171,0.518-0.359,0.762-0.541c0.201-0.148,0.383-0.285,0.576-0.416
		c0.237-0.16,0.449-0.262,0.633-0.313c0.346-0.097,0.699-0.165,1.076-0.239c0.17-0.034,0.342-0.068,0.506-0.103
		c0.051-0.011,0.098-0.022,0.147-0.034c0.183-0.034,0.369-0.074,0.56-0.125c0.102-0.034,0.205-0.068,0.307-0.104
		c0.137,0.621,0.25,1.213,0.217,1.799c-0.057,0.9-0.178,1.777-0.285,2.511c-0.205,1.355-0.637,2.699-1.059,3.992l-0.006,0.028
		c-0.223,0.678-0.422,1.378-0.609,2.05c-0.176,0.615-0.354,1.253-0.553,1.868c-0.496,1.566-0.764,3.28-0.803,5.091
		c-0.019,1.137,0.022,2.29,0.063,3.4c0.012,0.317,0.023,0.647,0.029,0.979c-0.354-0.193-0.725-0.394-1.105-0.563
		c-1.088-0.483-2.188-0.831-3.258-1.036l-0.107-0.348c-0.25-0.809-0.508-1.646-0.78-2.465c-0.494-1.464-1.035-2.733-1.656-3.878
		c-0.422-0.769-0.895-1.572-1.606-2.192c-1.054-0.917-2.152-1.629-3.348-2.17c-1.555-0.695-3.4-1.503-5.319-2.249
		c-0.859-0.336-1.726-0.689-2.563-1.042c-0.233-0.091-0.467-0.188-0.694-0.285c-0.046-0.017-0.177-0.068-0.205-0.103
		c-0.831-0.939-1.64-1.862-2.403-2.75c-0.228-0.262-0.449-0.541-0.666-0.803c-0.233-0.285-0.473-0.581-0.724-0.865
		c-0.165-0.194-0.342-0.376-0.512-0.558c-0.273-0.279-0.524-0.547-0.741-0.837c-0.558-0.769-1.213-1.452-1.845-2.118
		c-0.284-0.291-0.575-0.598-0.854-0.905c-0.229-0.251-0.479-0.302-0.644-0.302c-0.148,0-0.291,0.04-0.438,0.114
		c-0.12,0.057-0.229,0.125-0.319,0.199c-1.828,1.418-3.65,2.841-5.478,4.259c-0.627,0.49-1.35,1.082-1.993,1.788
		c-0.342,0.376-0.41,0.894-0.183,1.321c0.114,0.205,0.239,0.41,0.364,0.604c0.342,0.513,0.678,1.025,1.014,1.532
		c0.615,0.928,1.247,1.891,1.862,2.842c0.621,0.957,1.241,1.936,1.839,2.887c0.302,0.467,0.599,0.939,0.895,1.406
		c0.131,0.211,0.211,0.342,0.211,0.479c-0.04,1.048,0.159,2.027,0.342,2.762c0.051,0.21,0.102,0.416,0.153,0.621
		c-0.018,0.006-0.022,0.006-0.028,0.006c-0.012-0.012-0.046-0.045-0.097-0.148c-0.399-0.746-0.963-1.708-1.749-2.523
		c-1.121-1.156-2.056-1.959-3.04-2.608c-0.729-0.479-1.373-0.797-2.021-0.991c-0.108-0.034-0.211-0.051-0.319-0.051
		c-0.398,0-0.729,0.245-0.837,0.626c-0.137,0.478,0.131,0.928,0.654,1.099c0.166,0.057,0.313,0.114,0.45,0.171
		c0.854,0.353,1.589,0.922,2.136,1.373c0.819,0.678,1.68,1.418,2.312,2.329c0.262,0.375,0.507,0.78,0.74,1.173
		c0.148,0.239,0.297,0.482,0.45,0.724c0.103,0.17,0.285,0.381,0.547,0.443c0.296,0.073,0.586,0.098,0.837,0.108
		c0.183,0.012,0.358,0,0.523-0.018c0.354,0.91,0.809,1.766,1.35,2.545c0.935,1.333,1.982,2.512,2.882,3.491
		c0.336,0.364,0.672,0.739,0.996,1.11c0.229,0.256,0.468,0.522,0.701,0.778c0.171,0.188,0.341,0.354,0.512,0.496
		c0.217,0.183,0.438,0.349,0.655,0.513l0.08,0.057c0.592,0.445,1.264,0.656,1.998,0.639c1.311-0.039,2.164-0.837,2.762-1.531
		c0.649-0.746,0.786-1.669,0.399-2.729c-0.12-0.33-0.257-0.66-0.428-0.99c0.866,0.689,1.686,1.48,2.483,2.393
		c0.25,0.283,0.495,0.586,0.729,0.877c0.137,0.164,0.268,0.33,0.398,0.488c0.148,0.184,0.467,0.559,1.003,0.594l0.393,0.033
		l0.085-0.387c0.108-0.502,0.063-0.752-0.233-1.254c-0.444-0.746-0.968-1.439-1.565-2.066c-0.137-0.143-0.273-0.285-0.41-0.428
		c0.08-0.045,0.159-0.085,0.239-0.119c0.513-0.223,1.036-0.433,1.531-0.627c1.452-0.568,2.592-0.888,3.685-1.029
		c0.734-0.098,1.458-0.147,2.152-0.147c1.208,0,2.392,0.147,3.513,0.438c1.266,0.33,2.362,0.745,3.354,1.271
		c0.955,0.513,1.674,1.054,2.248,1.708c0.154,0.171,0.309,0.354,0.455,0.529c0.201,0.233,0.41,0.483,0.627,0.724
		c0.246,0.269,0.514,0.524,0.791,0.757c0.133,0.114,0.332,0.184,0.537,0.184c0.096,0,0.193-0.018,0.271-0.053
		c0.16-0.063,0.285-0.182,0.348-0.336c0.074-0.182,0.068-0.398-0.016-0.613c-0.092-0.223-0.199-0.463-0.354-0.672
		c-0.621-0.85-1.305-1.731-2.146-2.483c-0.023-0.244-0.041-0.495-0.053-0.74c-0.011-0.269-0.021-0.541-0.033-0.81
		c-0.035-0.858-0.068-1.754-0.092-2.631c-0.046-1.775,0.067-3.193,0.358-4.464c0.291-1.276,0.666-2.557,1.03-3.804
		c0.068-0.222,0.138-0.45,0.199-0.678c0.131-0.444,0.279-0.899,0.426-1.333c0.185-0.546,0.371-1.104,0.525-1.674
		c0.443-1.629,0.699-3.121,0.779-4.562c0.063-1.11-0.092-2.169-0.467-3.155c0.119-0.103,0.256-0.222,0.381-0.347
		c0.377-0.364,0.639-0.792,0.889-1.202c0.109-0.182,0.211-0.353,0.324-0.512c0.291-0.427,0.211-0.945-0.193-1.23
		c-0.147-0.102-0.317-0.159-0.49-0.159c-0.276,0-0.545,0.148-0.729,0.398c-0.152,0.222-0.301,0.438-0.443,0.655
		c-0.063,0.097-0.119,0.188-0.188,0.279c-0.645,0.962-1.465,1.48-2.518,1.594c-0.66,0.068-1.521,0.205-2.301,0.638
		c-0.416,0.222-0.785,0.506-1.146,0.774c-0.119,0.091-0.244,0.182-0.365,0.273c-0.756,0.553-1.549,0.809-2.426,0.786
		c-0.769-0.017-1.287-0.233-1.675-0.695c-0.313-0.376-0.317-0.444-0.067-0.837c0.013-0.017,0.022-0.034,0.029-0.051
		c0.368-0.519,0.768-1.065,1.293-1.498c0.42-0.353,0.541-1.059,0.256-1.509c-0.166-0.262-0.33-0.518-0.496-0.78
		c-0.438-0.689-0.896-1.406-1.319-2.118c-0.269-0.444-0.486-0.934-0.685-1.401c-0.074-0.177-0.063-0.336,0.034-0.473
		c0.951-1.31,1.691-2.323,2.392-3.28c0.063-0.091,0.144-0.177,0.224-0.273c0.151-0.177,0.307-0.353,0.432-0.575
		c0.074-0.137,0.125-0.148,0.234-0.148c0.033,0,0.074,0,0.119,0.005c0.028,0.006,0.057,0.006,0.092,0.006
		c0.01,0.006,0.021,0.006,0.033,0.006c0.297,0.045,0.598,0.091,0.899,0.136c0.631,0.103,1.28,0.205,1.931,0.291
		c0.944,0.125,1.907,0.25,2.836,0.37c1.145,0.143,2.33,0.296,3.489,0.456c0.854,0.114,1.629,0.228,2.381,0.421
		c0.929,0.239,1.48,0.803,1.675,1.72c0.067,0.291,0.147,0.57,0.229,0.843l0.012,0.04c0.096,0.33,0.199,0.661,0.295,0.985
		c0.199,0.649,0.41,1.327,0.57,1.993c0.496,2.01,1.225,3.929,1.873,5.541c0.604,1.492,1.275,2.979,1.926,4.419l0.146,0.324
		c0.535,1.179,1.088,2.318,1.697,3.576c0.223,0.456,0.455,0.917,0.678,1.355c0.309,0.609,0.627,1.241,0.922,1.868
		c0.291,0.632,0.57,1.281,0.838,1.919c0.154,0.37,0.318,0.752,0.484,1.133c0.899,2.056,1.555,3.804,2.061,5.49
		c0.502,1.657,1.105,3.854,1.299,6.14c0.205,2.453,0.166,4.326-0.137,6.074c-0.193,1.135-0.5,2.103-0.939,2.963
		c-0.256,0.5-0.318,0.99-0.193,1.582c0.164,0.78,0.205,1.418,0.125,2.004c-0.028,0.246-0.079,0.49-0.131,0.752
		c-0.032,0.148-0.063,0.298-0.092,0.445c-0.074,0.397-0.268,0.773-0.598,1.149c-0.547,0.62-1.207,1.036-1.965,1.224
		c-0.125,0.035-0.256,0.068-0.381,0.109c-0.148,0.039-0.285,0.079-0.428,0.113c-0.529,0.125-1.009,0.228-1.48,0.228
		c-0.17,0-0.324-0.011-0.473-0.034c-0.467-0.085-0.939-0.193-1.396-0.302c-0.217-0.052-0.435-0.103-0.644-0.147
		c-0.166-0.039-0.364-0.08-0.575-0.08c-0.212,0-0.404,0.041-0.587,0.125c-0.456,0.199-0.93,0.383-1.391,0.564l-0.084,0.033
		c-0.397,0.16-0.799,0.318-1.197,0.479c-1.145,0.45-2.321,0.918-3.489,1.361c-1.937,0.74-3.685,1.247-5.349,1.549
		c-1.246,0.233-2.51,0.41-3.758,0.535c-1.822,0.188-3.604,0.348-5.41,0.348c-0.228,0-0.45,0-0.672-0.006
		c-1.43-0.033-3.314-0.107-5.182-0.376c-2.107-0.302-4.271-0.803-6.611-1.521c-0.633-0.193-1.259-0.393-1.885-0.586
		c-0.752-0.234-1.526-0.479-2.29-0.713c-0.272-0.08-0.518-0.09-0.717-0.017c-0.672,0.244-1.452,0.535-2.221,0.859
		c-0.581,0.237-1.071,0.433-1.595,0.528c-1.133,0.199-2.478,0.41-3.855,0.455l-0.153,0.006c-0.33,0.013-0.672,0.023-1.008,0.023
		c-0.399,0-0.724-0.018-1.031-0.052c-0.688-0.073-1.595-0.199-2.438-0.513c-0.097-0.039-0.204-0.058-0.307-0.058
		c-0.365,0-0.684,0.224-0.809,0.564c-0.166,0.421,0.017,0.888,0.438,1.099c0.068,0.034,0.142,0.068,0.233,0.098
		c0.119,0.027,0.239,0.057,0.358,0.09c0.302,0.08,0.615,0.166,0.939,0.223l0.223,0.041c0.575,0.107,1.161,0.216,1.765,0.25
		c0.291,0.012,0.593,0.023,0.9,0.023c0.939,0,1.958-0.08,3.12-0.234c0.137-0.018,0.273-0.033,0.41-0.051
		c0.871-0.114,1.771-0.229,2.637-0.541c0.831-0.303,1.662-0.649,2.466-0.979l0.063-0.028c0.091-0.033,0.165-0.057,0.228-0.057
		c0.046,0,0.097,0.012,0.153,0.027c1.19,0.394,2.387,0.764,3.497,1.105c2.637,0.813,4.982,1.366,7.175,1.68
		c1.885,0.272,3.815,0.41,5.74,0.41c0.199,0,0.404-0.006,0.604-0.006c2.454-0.035,4.989-0.244,7.75-0.633
		c1.906-0.27,3.895-0.758,6.07-1.498c1.225-0.415,2.414-0.871,3.825-1.429c0.791-0.313,1.589-0.649,2.356-0.976
		c0.378-0.158,0.753-0.317,1.128-0.473c0.159,0.041,0.313,0.08,0.473,0.125c0.313,0.08,0.634,0.172,0.963,0.24
		c0.462,0.102,1.003,0.211,1.572,0.211c0.097,0,0.192,0,0.285-0.006c1.022-0.074,1.998-0.348,2.836-0.604
		c0.567-0.179,1.104-0.463,1.639-0.867c0.865-0.66,1.418-1.39,1.697-2.23c0.512-1.555,0.576-3.121,0.183-4.658
		c0.073-0.178,0.159-0.354,0.239-0.523c0.158-0.354,0.33-0.713,0.468-1.094c0.362-1.024,0.522-2.096,0.637-3.019
		C70.283,52.059,70.107,49.773,69.918,48.049z M33.366,42.947c-1.424,0.433-2.665,0.91-3.804,1.469
		c-0.177,0.086-0.342,0.182-0.501,0.279c-0.939-0.791-2.033-1.537-3.349-2.272c-0.022-0.046-0.045-0.153-0.028-0.233
		c0.165-0.659,0.519-1.179,1.082-1.594c0.125-0.092,0.245-0.143,0.358-0.143c0.046,0,0.097,0.011,0.143,0.023l0.689,0.199
		c0.575,0.165,1.15,0.33,1.726,0.495c0.347,0.098,0.694,0.193,1.047,0.291c0.695,0.193,1.413,0.393,2.119,0.604
		c0.262,0.08,0.518,0.193,0.791,0.318c0.12,0.053,0.251,0.114,0.382,0.166c0.079,0.033,0.131,0.085,0.182,0.164
		C33.924,42.787,33.645,42.867,33.366,42.947z M38.024,42.281c-0.688,0-1.39,0.039-2.072,0.119
		c-0.006-0.012-0.012-0.029-0.018-0.041c-0.114-0.342-0.262-0.769-0.666-1.064c-0.193-0.143-0.41-0.277-0.632-0.398
		c-0.638-0.342-1.321-0.528-1.977-0.71c-0.182-0.051-0.37-0.103-0.552-0.16c-0.302-0.085-0.599-0.176-0.9-0.268
		c-0.757-0.228-1.543-0.467-2.323-0.689c-0.41-0.114-0.859-0.222-1.412-0.336c-0.131-0.023-0.262-0.034-0.393-0.034
		c-0.479,0-0.945,0.171-1.424,0.535c-0.871,0.661-1.452,1.573-1.726,2.711c-0.108,0.438,0.028,0.803,0.143,1.093l0.022,0.067
		c0.33,0.889,0.803,1.681,1.406,2.598c0.354,0.523,0.633,1.082,0.838,1.674c0.153,0.45,0.068,0.775-0.279,1.094
		c-0.12,0.107-0.279,0.25-0.444,0.387c-0.433,0.354-0.883,0.435-1.39,0.257c-0.085-0.027-0.177-0.079-0.256-0.147
		c-0.291-0.238-0.581-0.482-0.86-0.729c-0.107-0.092-0.222-0.188-0.33-0.279c-0.012-0.011-0.017-0.018-0.028-0.021
		c-0.342-0.389-0.684-0.771-1.025-1.15c-0.819-0.923-1.668-1.868-2.482-2.818c-0.859-0.996-1.469-1.977-1.862-2.996
		c-0.308-0.792-0.547-1.64-0.774-2.454c-0.216-0.763-0.313-1.532-0.29-2.289c0.011-0.41-0.097-0.803-0.325-1.167
		c-0.489-0.78-0.979-1.555-1.469-2.335c-0.342-0.541-0.684-1.082-1.025-1.623c-0.125-0.2-0.25-0.399-0.37-0.598
		c-0.222-0.364-0.449-0.74-0.694-1.104c-0.558-0.832-1.133-1.668-1.686-2.477c-0.199-0.285-0.393-0.575-0.593-0.86
		c1.271-1.225,2.705-2.312,4.089-3.366c0.285-0.222,0.569-0.438,0.86-0.661c0.393-0.302,0.785-0.615,1.173-0.917
		c0.131-0.103,0.262-0.205,0.393-0.308l0.302,0.347c0.502,0.564,0.997,1.122,1.492,1.68c0.177,0.199,0.354,0.398,0.524,0.592
		c0.421,0.473,0.854,0.962,1.27,1.446c0.199,0.233,0.404,0.484,0.598,0.723c0.199,0.256,0.41,0.518,0.632,0.774
		c0.633,0.734,1.287,1.469,1.92,2.181l0.296,0.336c0.461,0.518,1.042,0.797,1.549,0.997c0.364,0.148,0.734,0.296,1.104,0.444
		c1.68,0.667,3.417,1.355,5.097,2.084c0.211,0.091,0.427,0.182,0.644,0.273c0.865,0.359,1.68,0.701,2.42,1.202
		c0.519,0.348,1.02,0.706,1.48,1.065c0.559,0.438,0.923,1.048,1.344,1.794c0.536,0.962,1.008,2.044,1.521,3.508
		c0.217,0.615,0.422,1.247,0.623,1.862c0.021,0.073,0.045,0.147,0.074,0.223C39.043,42.303,38.531,42.281,38.024,42.281z"/>
	<path fill="#A78627" d="M29.989,50.463c-0.091-0.033-0.182-0.045-0.278-0.045c-0.359,0-0.667,0.229-0.814,0.604
		c-0.006,0.023-0.012,0.041-0.018,0.058l-0.011,0.022c-0.468,1.248-1.549,2.039-2.882,2.107h-0.017
		c-0.023,0.005-0.063,0.005-0.103,0.011c-0.444,0.068-0.77,0.433-0.764,0.878c0.006,0.449,0.342,0.813,0.792,0.859
		c0.057,0.006,0.108,0.006,0.177,0.006c0.039,0,0.079,0,0.119,0c0.028,0,0.063-0.006,0.091-0.006
		c0.496,0.011,0.969-0.098,1.384-0.33c0.41-0.223,0.883-0.484,1.321-0.798c0.718-0.501,1.219-1.235,1.532-2.249
		C30.672,51.084,30.451,50.617,29.989,50.463z"/>
</g>
</svg>
