<?xml version="1.0" encoding="utf-8"?>
<!-- Generator: Adobe Illustrator 16.0.0, SVG Export Plug-In . SVG Version: 6.00 Build 0)  -->
<!DOCTYPE svg PUBLIC "-//W3C//DTD SVG 1.1//EN" "http://www.w3.org/Graphics/SVG/1.1/DTD/svg11.dtd">
<svg version="1.1" id="Layer_1" xmlns="http://www.w3.org/2000/svg" xmlns:xlink="http://www.w3.org/1999/xlink" x="0px" y="0px"
	 width="77px" height="80px" viewBox="0 0 77 80" enable-background="new 0 0 77 80" xml:space="preserve">
<g>
	<path fill="#A78627" d="M50.832,46.846H50.82h-0.006c0.146-1.356,0.186-2.766,0.119-4.309c-0.029-0.698-0.113-1.436-0.498-2.129
		c-0.615-1.09-1.394-1.766-2.365-2.068c0.074-1.247-0.133-2.493-0.619-3.7c-0.711-1.766-1.822-3.23-3.309-4.348
		c-0.771-0.576-1.57-1.14-2.343-1.682c-0.396-0.279-0.805-0.564-1.2-0.85c-0.226-0.162-0.441-0.318-0.666-0.469
		c-0.564-0.397-1.151-0.805-1.688-1.247c-1.347-1.095-1.71-2.37-1.151-4.024c0.022-0.062,0.051-0.128,0.084-0.201
		c0.034-0.078,0.067-0.151,0.101-0.235c0.174-0.464,0.156-0.844-0.045-1.129c-0.128-0.19-0.396-0.414-0.944-0.414
		c-1.336,0-2.347,0.112-3.286,0.347c-1.224,0.307-2.19,0.899-2.861,1.755c-0.453,0.576-0.766,1.246-0.956,1.699
		c-0.224,0.514-0.408,1.051-0.587,1.56c-0.095,0.274-0.195,0.553-0.296,0.827c-0.229,0.615-0.492,1.313-0.899,1.889
		c-0.71,0.989-1.599,1.827-2.448,2.593c-0.559,0.497-1.207,0.743-2.034,0.771c-0.341,0.011-0.643,0.039-0.923,0.084
		c-1.335,0.218-2.363,0.732-3.146,1.576c-0.15,0.162-0.307,0.33-0.464,0.492c-0.402,0.419-0.811,0.855-1.19,1.308
		c-0.268,0.319-0.587,0.498-1.045,0.582l-0.106,0.022c-0.469,0.084-0.955,0.173-1.419,0.358c-1.067,0.425-1.845,1.218-2.314,2.347
		c-0.027,0.084-0.039,0.084-0.095,0.101c-0.279,0.079-0.525,0.19-0.737,0.33c-1.258,0.833-1.951,1.966-2.057,3.37
		c-0.112,1.486-0.096,3.035,0.061,4.605l0.006,0.032c0,0.052,0.006,0.106,0.012,0.151c-0.051,0.011-0.112,0.028-0.168,0.039
		c-0.525,0.118-1.196,0.313-1.761,0.821c-0.665,0.604-0.983,1.414-0.973,2.477c0.018,1.553,0.039,3.124,0.062,4.646
		c0.012,0.838,0.022,1.671,0.034,2.509c0.022,1.884,0.044,3.768,0.066,5.645c0.006,0.414,0.012,0.828,0.018,1.241
		c0.017,1.13,0.033,2.291,0.027,3.438c-0.006,0.553,0.146,1.056,0.458,1.535c0.587,0.896,1.437,1.561,2.594,2.047
		c0.776,0.324,1.554,0.479,2.358,0.479h0.022c0.179,0,0.357,0,0.531,0c0.631,0,1.279,0.007,1.905,0.013h0.632
		c4.493,0.021,8.987,0.05,13.48,0.071l1.369,0.007h0.156l1.353-0.007c1.845-0.006,3.688-0.017,5.533-0.026
		c1.045-0.006,2.096-0.012,3.141-0.019c2.537-0.011,5.152-0.026,7.734-0.039c0.827,0,1.608-0.155,2.381-0.479
		c1.174-0.486,2.028-1.168,2.61-2.079c0.229-0.357,0.464-0.8,0.441-1.341c-0.012-0.313,0-0.633,0-0.945
		c0.006-0.111,0.006-0.225,0.006-0.335c0.017-1.246,0.033-2.487,0.043-3.733c0.035-2.543,0.063-5.086,0.09-7.629v-0.162
		c0.023-1.738,0.039-3.531,0.033-5.304c-0.004-0.683-0.279-1.33-0.805-1.878C52.273,47.204,51.508,46.98,50.832,46.846z
		 M15.784,37.34c0.498-0.095,0.939-0.196,1.353-0.302c0.414-0.106,0.783-0.341,1.096-0.688c0.302-0.33,0.609-0.665,0.911-0.989
		c0.291-0.313,0.593-0.643,0.883-0.967c0.581-0.643,1.369-1.018,2.409-1.151c0.246-0.034,0.497-0.056,0.76-0.073
		c0.151-0.011,0.308-0.022,0.458-0.039c0.749-0.073,1.426-0.335,2.001-0.788c1.308-1.028,2.358-2.113,3.208-3.314
		c0.492-0.693,0.794-1.498,1.034-2.146c0.123-0.324,0.24-0.654,0.353-0.973c0.15-0.436,0.307-0.889,0.48-1.319
		c0.162-0.402,0.357-0.793,0.581-1.151c0.257-0.408,0.643-0.743,1.185-1.028c0.682-0.363,1.437-0.486,2.085-0.564
		c0.251-0.028,0.509-0.039,0.776-0.056c-0.341,1.157-0.313,2.274,0.09,3.331c0.357,0.934,0.989,1.738,1.878,2.392
		c0.838,0.615,1.704,1.224,2.543,1.811c0.485,0.347,0.987,0.699,1.479,1.051c0.564,0.402,1.23,0.883,1.867,1.369
		c0.973,0.749,1.67,1.755,2.219,2.644c0.441,0.704,0.637,1.509,0.812,2.342c0.084,0.391,0.123,0.811,0.11,1.336H14.449
		C14.823,37.681,15.258,37.44,15.784,37.34z M11.157,42.079c0.027-0.587,0.257-1.04,0.709-1.38c0.258-0.19,0.447-0.353,0.615-0.521
		c0.252-0.24,0.576-0.341,1.123-0.352c0.353-0.005,0.727-0.011,1.18-0.011c0.318,0,0.632,0.006,0.944,0.006
		c0.414,0,0.827,0.005,1.235,0c1.252,0,2.51-0.006,3.762-0.011c2.096-0.011,4.264-0.017,6.398-0.017
		c0.56-0.005,1.112-0.005,1.672-0.005c3.309,0,6.673,0.011,9.931,0.017h0.196c1.671,0.006,3.371,0.011,5.014,0.017
		c0.832,0.005,1.66,0.011,2.491,0.011h0.013c0.051,0,0.104,0,0.162,0c0.071-0.006,0.145-0.006,0.213-0.006
		c0.508,0.034,0.858,0.173,1.145,0.447c0.123,0.117,0.246,0.224,0.363,0.324c0.246,0.207,0.479,0.402,0.609,0.654
		c0.213,0.391,0.258,0.85,0.278,1.279c0.067,1.543,0.033,2.891-0.104,4.125c-0.006,0.027-0.006,0.062-0.013,0.101
		c-0.284,0-0.575,0-0.86,0c-0.172,0.007-0.346,0.007-0.525,0.007c-3.246,0.016-6.494,0.027-9.747,0.038l-1.38,0.011
		c-1.526,0.006-3.052,0.013-4.583,0.019c-0.224,0-0.453,0-0.677,0h-0.715v-0.039h-0.447c-1.14,0-2.28,0-3.42,0
		c-2.7,0-5.399,0-8.093-0.006c-1.772,0-3.566-0.013-5.305-0.019c-0.709-0.004-1.414-0.004-2.123-0.011
		c-0.012-0.218-0.028-0.437-0.051-0.653c-0.033-0.42-0.067-0.811-0.067-1.213C11.089,43.99,11.112,43.046,11.157,42.079z
		 M51.928,54.369c-0.006,0.973-0.012,1.973-0.023,2.956c-0.021,2.034-0.049,4.108-0.071,6.108c-0.021,1.426-0.039,2.851-0.056,4.281
		c0,0.201-0.063,0.385-0.19,0.575c-0.407,0.593-0.987,1.022-1.896,1.403c-0.657,0.272-1.356,0.302-2.084,0.307
		c-2.979,0.018-5.957,0.034-8.937,0.045c-1.939,0.012-3.884,0.021-5.823,0.028l-2.152,0.011c-0.033,0-0.066,0-0.095,0v-0.039h-0.452
		c-0.806,0-1.61,0-2.421,0c-1.844,0.006-3.688,0.006-5.538,0c-1.845-0.006-3.717-0.018-5.533-0.027
		c-0.85-0.006-1.704-0.012-2.554-0.012c-0.207,0-0.42,0-0.626,0c-0.151,0-0.308,0-0.459,0c-0.341,0-0.598-0.006-0.838-0.011
		c-1.431-0.067-2.526-0.582-3.348-1.571c-0.201-0.244-0.291-0.503-0.296-0.844c-0.034-3.532-0.079-7.126-0.123-10.602l-0.051-3.875
		c-0.011-0.871-0.017-1.754-0.027-2.631c0-0.246,0.005-0.492,0.021-0.738c0.028-0.465,0.369-0.871,0.895-1.051
		c0.431-0.15,0.911-0.219,1.521-0.219h0.056c1.867,0.012,3.767,0.023,5.605,0.028l1.693,0.006c0.905,0.005,1.812,0.005,2.717,0.011
		c1.76,0.006,3.521,0.012,5.281,0.022c0.637,0,1.269,0.011,1.906,0.011c0.916,0.012,1.866,0.023,2.8,0.023h0.263
		c1.291-0.006,2.593-0.019,3.861-0.028c0.923-0.006,1.878-0.011,2.817-0.017c1.788-0.013,3.571-0.019,5.354-0.022
		c1.99-0.011,3.984-0.017,5.975-0.028c0.084,0,0.168,0,0.252,0c0.521,0,1.078,0.019,1.609,0.174c0.67,0.207,1.023,0.676,1.012,1.357
		C51.949,51.463,51.939,52.938,51.928,54.369z"/>
	<path fill="#A78627" d="M51.943,26.369c1.313,1.341,3.086,2.096,4.986,2.124c0.038,0,0.071,0,0.104,0
		c3.739,0,6.829-3.063,6.893-6.83c0.056-3.896-3.02-7.109-6.858-7.17c-0.039,0-0.072,0-0.111,0c-1.861,0-3.609,0.71-4.924,1.99
		c-1.313,1.285-2.057,3.012-2.078,4.868C49.926,23.245,50.631,25.027,51.943,26.369z M56.918,16.213h0.012
		c2.906,0,5.275,2.364,5.275,5.282c0,2.906-2.33,5.276-5.191,5.282h-0.012c-1.436,0-2.783-0.559-3.783-1.565
		c-1-1-1.549-2.342-1.543-3.772C51.688,18.555,54.041,16.213,56.918,16.213z"/>
	<path fill="#A78627" d="M69.516,20.724c-1.258-0.005-2.51-0.005-3.768-0.005c-0.262,0.005-0.496,0.095-0.664,0.268
		c-0.156,0.162-0.24,0.375-0.24,0.609c0.012,0.486,0.396,0.844,0.922,0.844c0.258,0,0.508,0,0.767,0h1.096c0.185,0,0.363,0,0.541,0
		c0.187,0,0.363,0,0.543,0c0.269,0,0.537,0,0.806,0c0.246,0,0.475-0.095,0.643-0.263c0.156-0.162,0.24-0.38,0.24-0.609
		C70.389,21.087,70.008,20.724,69.516,20.724z"/>
	<path fill="#A78627" d="M44.311,22.518c0.062,0.005,0.123,0.005,0.172,0.005h1.31v0.022h0.653c0.033,0,0.072,0,0.111,0
		c0.162,0,0.33,0,0.492,0.005c0.33,0,0.67,0.006,1.012,0.006h0.078c0.48,0,0.855-0.358,0.871-0.827
		c0.012-0.453-0.33-0.833-0.799-0.883c-0.057-0.005-0.105-0.005-0.15-0.005L45.5,20.813c-0.117,0-0.234-0.006-0.352-0.006
		c-0.265-0.005-0.537-0.011-0.806-0.005c-0.475,0.005-0.844,0.357-0.86,0.827C43.471,22.104,43.818,22.479,44.311,22.518z"/>
	<path fill="#A78627" d="M66.381,29.767l-0.029-0.028c-0.754-0.749-1.508-1.503-2.262-2.252c-0.029-0.028-0.051-0.05-0.074-0.078
		c-0.078-0.073-0.149-0.151-0.24-0.224c-0.262-0.224-0.612-0.263-0.928-0.112c-0.307,0.151-0.463,0.431-0.475,0.827l-0.006,0.134
		l0.072,0.117c0.006,0.011,0.012,0.022,0.018,0.034c0.039,0.073,0.105,0.201,0.219,0.307c0.373,0.392,0.766,0.777,1.139,1.151
		l0.433,0.431c0.346,0.346,0.696,0.698,1.058,1.045c0.178,0.173,0.396,0.269,0.625,0.269c0.219,0,0.424-0.084,0.586-0.235
		c0.342-0.33,0.358-0.838,0.034-1.213C66.492,29.878,66.432,29.817,66.381,29.767z"/>
	<path fill="#A78627" d="M50.139,27.302c-0.065,0.05-0.123,0.095-0.174,0.14l-0.441,0.38c-0.436,0.369-0.864,0.738-1.301,1.105
		c-0.309,0.263-0.66,0.564-1.002,0.861c-0.295,0.257-0.385,0.621-0.25,0.973c0.09,0.234,0.307,0.52,0.832,0.553l0.141,0.011
		l0.117-0.073c0.01-0.006,0.027-0.017,0.045-0.022c0.078-0.044,0.189-0.101,0.295-0.19c0.666-0.564,1.336-1.135,1.979-1.688
		l0.524-0.447c0.029-0.022,0.058-0.051,0.084-0.073c0.085-0.067,0.169-0.14,0.253-0.218c0.34-0.324,0.375-0.833,0.077-1.185
		c-0.161-0.196-0.396-0.308-0.647-0.308C50.48,27.123,50.301,27.185,50.139,27.302z"/>
	<path fill="#A78627" d="M57.824,32.315c-0.012-0.185-0.018-0.369-0.023-0.559c-0.016-0.453-0.033-0.917-0.049-1.38
		c-0.029-0.492-0.414-0.855-0.9-0.833c-0.465,0.022-0.815,0.402-0.815,0.895c0,0.089,0.006,0.167,0.006,0.251
		c0.006,0.044,0.006,0.089,0.006,0.134c0.013,0.335,0.021,0.665,0.033,1c0.026,0.783,0.051,1.565,0.078,2.348
		c0.022,0.525,0.375,0.894,0.86,0.894c0.01,0,0.027,0,0.045,0c0.496-0.022,0.832-0.419,0.812-0.961
		c-0.013-0.425-0.028-0.849-0.039-1.274l-0.006-0.067h0.006L57.824,32.315z"/>
	<path fill="#A78627" d="M63.391,16.264l0.135-0.089c0.011-0.011,0.027-0.022,0.043-0.033c0.084-0.05,0.214-0.129,0.32-0.246
		c0.676-0.727,1.353-1.464,2.012-2.18l0.386-0.425c0.063-0.067,0.141-0.156,0.207-0.263c0.219-0.352,0.146-0.805-0.168-1.084
		c-0.156-0.134-0.357-0.212-0.563-0.212c-0.179,0-0.357,0.062-0.503,0.167c-0.09,0.062-0.155,0.134-0.207,0.196L65.045,12.1
		c-0.615,0.665-1.23,1.336-1.844,2.006l-0.152,0.162c-0.168,0.179-0.34,0.369-0.502,0.553c-0.24,0.274-0.285,0.626-0.129,0.95
		c0.219,0.447,0.664,0.475,0.816,0.486L63.391,16.264z"/>
	<path fill="#A78627" d="M56.975,13.52c0.101,0,0.195-0.017,0.291-0.05c0.363-0.134,0.57-0.447,0.57-0.872v-1.615l-0.006-0.419
		v-0.067c0-0.391,0-0.782,0-1.168c-0.006-0.498-0.348-0.866-0.816-0.889c-0.486-0.022-0.867,0.335-0.9,0.833
		c-0.006,0.067-0.006,0.129-0.006,0.179v0.022c-0.006,0.173-0.006,0.347-0.006,0.52c0,0.419-0.004,0.855-0.004,1.286
		c0.004,0.542,0.01,0.989,0.027,1.408C56.146,13.162,56.51,13.52,56.975,13.52z"/>
	<path fill="#A78627" d="M47.625,13.514l0.01,0.011c0.498,0.492,1,0.978,1.504,1.47l0.146,0.14c0.225,0.218,0.452,0.442,0.682,0.66
		c0.175,0.167,0.382,0.257,0.601,0.257c0.123,0,0.246-0.033,0.363-0.083c0.323-0.151,0.489-0.431,0.502-0.838l0.006-0.14
		l-0.078-0.123c-0.006-0.006-0.012-0.022-0.021-0.034c-0.045-0.078-0.113-0.201-0.219-0.307c-0.631-0.626-1.273-1.258-1.9-1.867
		l-0.313-0.308c-0.072-0.067-0.156-0.145-0.258-0.218c-0.146-0.101-0.313-0.157-0.492-0.157c-0.223,0-0.436,0.089-0.598,0.251
		c-0.302,0.296-0.336,0.766-0.084,1.112C47.523,13.414,47.58,13.469,47.625,13.514z"/>
	<path fill="#A78627" d="M33.987,20.143h0.017c0.481-0.011,0.839-0.386,0.845-0.894c0.005-0.392,0.005-0.783,0.005-1.163
		c0-0.011,0-0.022,0-0.034h0.034v-0.917c0-0.38,0-0.754,0-1.129c-0.006-0.553-0.358-0.939-0.861-0.939H34.01
		c-0.491,0.005-0.838,0.391-0.844,0.928v0.302c-0.006,0.212-0.011,0.43-0.011,0.643l-0.006,0.542
		c-0.006,0.581-0.012,1.185-0.017,1.771c0,0.251,0.089,0.475,0.251,0.643C33.545,20.053,33.758,20.143,33.987,20.143z"/>
	<path fill="#A78627" d="M13.805,26.095c0.129,0,0.258-0.017,0.369-0.062c0.151-0.056,0.497-0.24,0.497-0.81
		c0.006-0.397,0.006-0.794,0.006-1.19h0.034v-0.447c0-0.157,0-0.319,0-0.475c0-0.375,0-0.766,0-1.146
		c-0.006-0.486-0.291-0.838-0.738-0.905c-0.045-0.005-0.084-0.011-0.129-0.011c-0.475,0-0.844,0.38-0.854,0.883
		c-0.006,0.357-0.006,0.721-0.012,1.079c0,0.167,0,0.335-0.005,0.503l-0.006,0.347c0,0.453-0.006,0.911-0.012,1.369
		c-0.005,0.397,0.185,0.699,0.509,0.816C13.571,26.078,13.688,26.095,13.805,26.095z"/>
	<path fill="#A78627" d="M60.418,46.686c-0.012,0-0.023,0-0.029,0c-0.469,0.017-0.826,0.385-0.832,0.865
		c-0.006,0.396-0.006,0.799,0,1.19c0,0.011,0,0.028,0,0.039h-0.039v0.905c0,0.379,0,0.76,0,1.141c0,0.541,0.346,0.928,0.844,0.938
		h0.019c0.476,0,0.838-0.373,0.854-0.889c0.012-0.186,0.012-0.368,0.012-0.548c0-0.078,0-0.156,0-0.234l0.033-2.393
		c0-0.062,0-0.123-0.006-0.185C61.232,47.037,60.875,46.686,60.418,46.686z"/>
	<path fill="#A78627" d="M35.943,14.883c0.168,0,0.336,0,0.503,0h0.833h0.743c0.196,0,0.392,0,0.587,0
		c0.526,0,0.905-0.341,0.922-0.827c0.012-0.24-0.072-0.458-0.229-0.62c-0.168-0.173-0.409-0.269-0.682-0.269
		c-0.878-0.005-1.732-0.005-2.688,0c-0.263,0-0.503,0.095-0.665,0.263c-0.156,0.157-0.24,0.375-0.24,0.604
		C35.033,14.526,35.417,14.883,35.943,14.883z"/>
	<path fill="#A78627" d="M15.779,20.869h0.514h0.805c0.117,0,0.24,0,0.358,0c0.117,0,0.24,0,0.363,0c0.24,0,0.441,0,0.62-0.005
		c0.212-0.006,0.43-0.079,0.592-0.19c0.302-0.218,0.408-0.598,0.274-0.967c-0.134-0.352-0.447-0.559-0.855-0.559h-0.553
		c-0.704,0-1.426,0-2.136,0.005c-0.273,0-0.514,0.101-0.682,0.274c-0.156,0.162-0.234,0.38-0.229,0.615
		C14.868,20.528,15.248,20.869,15.779,20.869z"/>
	<path fill="#A78627" d="M65,44.784c-0.318,0-0.637,0-0.949,0c-0.555,0-1.135,0-1.723,0.005c-0.273,0-0.514,0.096-0.682,0.27
		c-0.156,0.162-0.24,0.379-0.234,0.614c0.016,0.486,0.396,0.827,0.928,0.827h0.514h2.135c0.544,0,0.929-0.348,0.935-0.844
		c0.007-0.229-0.084-0.447-0.233-0.604C65.52,44.879,65.273,44.784,65,44.784z"/>
	<path fill="#A78627" d="M33.255,11.737c0,0.391,0.224,0.699,0.592,0.816c0.096,0.034,0.19,0.05,0.285,0.05
		c0.263,0,0.503-0.123,0.648-0.341c0.117-0.173,0.185-0.397,0.185-0.615c0.006-0.604,0-1.224-0.006-1.816
		c0-0.235,0-0.469-0.006-0.704c0-0.542-0.346-0.928-0.844-0.934h-0.017c-0.492,0-0.85,0.386-0.855,0.922c0,0.302,0,0.604,0,0.9
		c0,0.128,0,0.257,0,0.38v0.447h0.012C33.25,11.139,33.25,11.435,33.255,11.737z"/>
	<path fill="#A78627" d="M13.643,18.533c0.101,0.033,0.201,0.056,0.302,0.056c0.464,0,0.839-0.391,0.85-0.883
		c0.006-0.313,0-0.626,0-0.928c0-0.134,0-0.262,0-0.396v-0.447h-0.017c0.006-0.285,0.006-0.581,0-0.872
		c-0.006-0.503-0.369-0.883-0.854-0.883h-0.012c-0.48,0-0.844,0.38-0.844,0.877c-0.006,0.944,0,1.878,0.011,2.671
		C13.079,18.103,13.292,18.404,13.643,18.533z"/>
	<path fill="#A78627" d="M61.355,41.564h-0.01c0-0.285,0-0.575,0-0.865c-0.007-0.503-0.375-0.889-0.861-0.889h-0.006
		c-0.486,0.005-0.851,0.386-0.851,0.877c0,0.967,0.006,1.938,0.013,2.678c0.006,0.373,0.217,0.676,0.569,0.805
		c0.095,0.033,0.194,0.05,0.295,0.05c0.472,0,0.845-0.386,0.851-0.878c0.006-0.313,0.006-0.625,0.006-0.934
		c-0.006-0.128-0.006-0.256-0.006-0.391V41.564z"/>
	<path fill="#A78627" d="M29.03,14.951h0.017c0.967-0.017,1.777-0.028,2.599-0.045c0.196-0.005,0.414-0.084,0.57-0.207
		c0.296-0.229,0.396-0.598,0.257-0.961c-0.134-0.341-0.436-0.548-0.81-0.548c-0.19,0-0.375,0-0.564,0H29.89v0.039
		c-0.279,0-0.564-0.005-0.85,0c-0.273,0.006-0.514,0.101-0.682,0.274c-0.156,0.157-0.24,0.369-0.234,0.604
		C28.13,14.593,28.515,14.951,29.03,14.951z"/>
	<path fill="#A78627" d="M8.848,20.936H8.86c0.877-0.011,1.782-0.028,2.576-0.044c0.257,0,0.475-0.084,0.643-0.235
		c0.185-0.162,0.279-0.391,0.273-0.643c-0.011-0.498-0.396-0.844-0.938-0.844H9.708v0.045H9.29H8.86
		c-0.504,0-0.732,0.296-0.822,0.475c-0.134,0.268-0.123,0.576,0.028,0.821C8.228,20.774,8.518,20.936,8.848,20.936z"/>
	<path fill="#A78627" d="M57.986,44.807h-0.019c-0.844,0.018-1.692,0.027-2.536,0.039c-0.543,0.012-0.923,0.369-0.923,0.866
		s0.392,0.854,0.929,0.854c0.174,0,0.34,0,0.514,0h1.197v-0.039c0.283,0,0.567,0.006,0.854,0c0.275-0.006,0.516-0.101,0.682-0.273
		c0.158-0.162,0.236-0.38,0.236-0.609C58.902,45.152,58.521,44.807,57.986,44.807z"/>
</g>
</svg>
