<?xml version="1.0" encoding="utf-8"?>
<!-- Generator: Adobe Illustrator 16.0.0, SVG Export Plug-In . SVG Version: 6.00 Build 0)  -->
<!DOCTYPE svg PUBLIC "-//W3C//DTD SVG 1.1//EN" "http://www.w3.org/Graphics/SVG/1.1/DTD/svg11.dtd">
<svg version="1.1" id="Layer_1" xmlns="http://www.w3.org/2000/svg" xmlns:xlink="http://www.w3.org/1999/xlink" x="0px" y="0px"
	 width="77px" height="80px" viewBox="0 0 77 80" enable-background="new 0 0 77 80" xml:space="preserve">
<g>
	<path fill="#A78627" d="M76.516,40.144c-0.092-0.006-0.184-0.006-0.281,0c-0.262,0.013-0.523,0.03-0.78,0.049
		c-0.628,0.037-1.274,0.079-1.91,0.141c-2.246,0.201-4.649,0.695-7.349,1.52c-0.316,0.099-0.629,0.195-0.939,0.293
		c-1.141,0.354-2.318,0.721-3.497,0.982c-0.067-0.482-0.134-0.952-0.226-1.422c-0.104-0.523-0.215-1.057-0.323-1.574
		c-0.099-0.452-0.194-0.922-0.287-1.386c-0.116-0.574-0.226-1.159-0.329-1.728c-0.072-0.396-0.146-0.799-0.22-1.196
		c-0.056-0.274-0.116-0.573-0.202-0.872c1.575-2.43,3.145-4.864,4.719-7.294l1.135-1.757c1.397-2.167,2.802-4.334,4.205-6.5
		c0.08-0.122,0.152-0.238,0.231-0.36c0.142-0.214,0.281-0.428,0.415-0.647c0.313-0.481,0.208-1.049-0.244-1.342
		c-0.152-0.098-0.328-0.153-0.5-0.153c-0.313,0-0.604,0.165-0.806,0.439c-0.031,0.043-0.056,0.08-0.086,0.122l-3.265,5.06
		c-0.99,1.526-1.973,3.058-2.968,4.59l-0.774,1.196c-1.244,1.929-2.526,3.918-3.803,5.871c-0.287,0.445-0.312,0.879-0.066,1.288
		c0.007,0.006,0.007,0.018,0.007,0.03c0.188,0.928,0.384,1.916,0.579,2.917c0.049,0.232,0.086,0.464,0.129,0.696
		c0.042,0.22,0.079,0.439,0.122,0.659c0.079,0.384,0.151,0.769,0.226,1.153c0.135,0.671,0.27,1.36,0.396,2.044
		c0.055,0.281,0.098,0.574,0.141,0.854c0.061,0.379,0.116,0.765,0.195,1.143c0.244,1.166,0.207,2.398-0.11,3.876
		c-0.299,1.379-0.854,2.66-1.495,4.083c-0.104,0.23-0.312,0.439-0.664,0.665c-0.574,0.366-1.222,0.677-2.052,0.994l-0.024,0.013
		c-0.83,0.313-1.678,0.641-2.403,1.251c-0.366,0.312-0.696,0.659-1.015,0.995l-0.108,0.116c-0.3,0.317-0.586,0.487-0.909,0.543
		c-0.471,0.085-0.886,0.128-1.275,0.146c-0.146,0.006-0.287,0.006-0.428,0.012c-0.908,0.031-1.85,0.056-2.783,0.209
		c0-0.008,0.006-0.014,0.006-0.02c0.093-0.354,0.189-0.72,0.232-1.104c0.116-1.057,0.207-2.197,0.293-3.584
		c0.043-0.676,0.061-1.366,0.079-2.025c0.013-0.293,0.019-0.592,0.03-0.885c0.007-0.085,0.007-0.178,0.013-0.264
		c0.006-0.213,0.019-0.438,0.019-0.657c-0.006-0.531-0.414-0.94-0.928-0.94c-0.158,0-0.312,0.037-0.451,0.116
		c-0.306,0.165-0.471,0.444-0.494,0.849c-0.03,0.573-0.049,1.153-0.063,1.721c-0.023,0.947-0.049,1.93-0.171,2.882
		c-0.056,0.433-0.073,0.866-0.091,1.286c-0.02,0.397-0.037,0.775-0.08,1.154c-0.178,1.482-0.727,2.674-1.684,3.645
		c-1.18,1.195-2.681,2.166-4.584,2.984c-0.514,0.213-1.068,0.285-1.654,0.2c-0.359-0.049-0.652-0.25-0.805-0.55
		c-0.141-0.286-0.135-0.604,0.024-0.902c0.22-0.408,0.481-0.8,0.757-1.209c0.115-0.164,0.226-0.336,0.335-0.507
		c0.201-0.311,0.421-0.628,0.635-0.928c0.519-0.75,1.056-1.521,1.446-2.386c0.099,0.019,0.185,0.072,0.251,0.152
		c0.213,0.25,0.434,0.524,0.701,0.891c0.214,0.287,0.507,0.445,0.813,0.445c0.178,0,0.354-0.056,0.506-0.152
		c0.215-0.141,0.361-0.354,0.41-0.598c0.049-0.25-0.014-0.514-0.172-0.738c-0.257-0.379-0.481-0.678-0.707-0.94
		c-0.379-0.45-0.817-0.737-1.301-0.866c0-0.043,0.006-0.092,0.006-0.141c0.014-0.402,0.03-0.816,0.03-1.232l-0.006-0.086
		c-0.006-1.66-0.019-3.369-0.317-5.053c-0.188-1.063-0.354-2.204-0.312-3.345c0.019-0.478,0.129-0.923,0.329-1.361
		c0.135-0.287,0.287-0.567,0.445-0.866c0.063-0.109,0.123-0.22,0.178-0.33l2.35-4.425c1.05-1.989,2.105-3.973,3.162-5.956
		c0.872-1.648,1.745-3.296,2.611-4.944c0.861-1.623,1.722-3.24,2.582-4.864c0.965-1.813,1.922-3.631,2.887-5.443
		c0.775-1.465,1.557-2.93,2.332-4.395c0.279-0.524,0.14-1.074-0.336-1.337c-0.141-0.079-0.293-0.122-0.452-0.122
		c-0.349,0-0.665,0.202-0.86,0.556c-0.012,0.024-0.023,0.043-0.035,0.067L49.12,22.458c-1.629,3.076-3.253,6.146-4.882,9.222
		c-1.436,2.703-2.875,5.413-4.311,8.123l-1.715,3.241c-0.152,0.286-0.342,0.642-0.342,1.116c0.006,0.33-0.019,0.666-0.036,1.02
		c-0.019,0.281-0.037,0.58-0.043,0.873c-0.006,0.274,0.012,0.549,0.03,0.817c-0.019,0-0.036,0-0.055,0.006
		c-0.293,0.024-0.567,0.056-0.842,0.056c-2.143-0.007-4.059-0.013-5.872-0.037c-0.945-0.012-1.91-0.035-2.838-0.061
		c-0.305-0.007-0.61-0.014-0.909-0.023c0.013-0.093,0.024-0.185,0.037-0.275c0.055-0.396,0.109-0.793,0.164-1.189
		c0.104-0.812,0.208-1.63,0.317-2.447c0.227-1.738,0.458-3.54,0.702-5.31c0.128-0.959,0.33-2.082,0.812-3.125
		c0.336-0.738,0.678-1.471,1.014-2.21c0.524-1.141,1.05-2.288,1.58-3.43c0.702-1.538,1.416-3.076,2.124-4.607
		c0.586-1.276,1.178-2.552,1.764-3.827c1.02-2.215,2.039-4.425,3.058-6.634l1.36-2.96c0.025-0.056,0.05-0.104,0.074-0.159
		c0.066-0.134,0.146-0.286,0.194-0.451c0.165-0.488-0.043-0.971-0.493-1.172c-0.123-0.055-0.258-0.079-0.386-0.079
		c-0.329,0-0.629,0.171-0.806,0.457c-0.098,0.165-0.165,0.33-0.231,0.482c-0.024,0.062-0.056,0.122-0.08,0.177l-0.586,1.27
		c-0.445,0.977-0.896,1.953-1.349,2.93l-2.417,5.255c-0.86,1.855-1.715,3.711-2.575,5.572c-1.166,2.532-2.331,5.06-3.497,7.599
		c-0.067,0.146-0.141,0.286-0.214,0.439c-0.195,0.391-0.391,0.793-0.524,1.232c-0.214,0.714-0.482,1.666-0.623,2.648
		c-0.274,1.893-0.524,3.82-0.769,5.683c-0.104,0.806-0.208,1.604-0.312,2.41c-0.073,0.55-0.152,1.104-0.231,1.647
		c-0.616-0.036-1.221-0.079-1.739-0.109c0.066-0.434,0.134-0.879,0.183-1.33c0.062-0.629,0.086-1.251,0.098-1.775
		c0.013-0.477-0.293-0.836-0.744-0.879c-0.024,0-0.056,0-0.08,0c-0.311,0-0.684,0.184-0.806,0.695
		c-0.079,0.323-0.134,0.622-0.171,0.915c-0.391,2.881-0.976,5.365-1.781,7.604c-0.22,0.592-0.471,1.215-0.873,1.771
		c-0.25,0.349-0.488,0.592-0.818,0.658c-0.726,0.146-1.33,0.067-1.879-0.257c-0.195-0.115-0.238-0.231-0.251-0.328
		c-0.122-0.989-0.201-1.807-0.061-2.645c0.238-1.365,0.476-2.722,0.708-4.021c0.231-1.318,0.019-2.558-0.647-3.681
		c-0.158-0.27-0.329-0.537-0.494-0.787c-0.116-0.178-0.238-0.36-0.348-0.543c-0.201-0.323-0.513-0.514-0.843-0.514
		c-0.152,0-0.299,0.037-0.445,0.11c-0.226,0.122-0.385,0.323-0.451,0.562c-0.073,0.256-0.031,0.524,0.109,0.774
		c0.22,0.372,0.421,0.688,0.623,0.971c0.226,0.329,0.402,0.685,0.537,1.08c-1.996-0.401-3.985-0.873-5.92-1.33
		c-0.458-0.11-0.922-0.214-1.38-0.323c0.024-0.062,0.055-0.123,0.086-0.184c0.524-0.995,1.153-1.959,1.77-2.893
		c0.183-0.275,0.366-0.556,0.549-0.837c0.415-0.646,0.94-1.385,1.643-1.935l0.177-0.14c1.044-0.813,2.117-1.654,3.216-2.405
		c1.025-0.702,1.85-1.336,2.588-1.983c0.714-0.635,1.215-1.313,1.526-2.063c0.079-0.184,0.152-0.366,0.226-0.55
		c0.061-0.158,0.128-0.317,0.189-0.476l0.195-0.477c0.592-1.428,1.178-2.862,1.77-4.296c1.099-2.661,2.197-5.322,3.296-7.978
		l1.696-4.107c0.477-1.159,0.958-2.325,1.435-3.49c0.109-0.263,0.116-0.544,0.019-0.781c-0.098-0.227-0.275-0.403-0.507-0.495
		c-0.116-0.049-0.238-0.073-0.36-0.073c-0.378,0-0.72,0.244-0.885,0.642c-0.159,0.378-0.312,0.757-0.47,1.135
		c-0.08,0.195-0.165,0.396-0.244,0.592l-0.982,2.374c-0.642,1.557-1.288,3.113-1.929,4.676c-0.666,1.604-1.325,3.21-1.99,4.814
		c-0.616,1.496-1.232,2.997-1.849,4.492c-0.129,0.312-0.263,0.629-0.391,0.934c-0.275,0.647-0.562,1.313-0.813,1.99
		c-0.244,0.652-0.536,1.123-0.921,1.477c-0.653,0.592-1.245,1.093-1.825,1.526c-0.482,0.359-0.995,0.72-1.489,1.063
		c-0.439,0.305-0.891,0.622-1.33,0.946l-0.141,0.098c-0.909,0.671-1.855,1.367-2.588,2.313c-0.433,0.562-0.823,1.153-1.208,1.728
		c-0.086,0.134-0.171,0.263-0.263,0.396c-0.727,1.093-1.489,2.271-2.075,3.54c-0.098-0.023-0.189-0.049-0.286-0.072
		c-0.373-0.099-0.727-0.185-1.068-0.307c-0.958-0.335-1.929-0.695-2.875-1.037c-0.335-0.121-0.677-0.25-1.013-0.371
		c-0.11-0.043-0.226-0.063-0.342-0.063c-0.336,0-0.635,0.171-0.806,0.458c-0.257,0.434-0.128,0.981,0.287,1.245
		c0.231,0.146,0.47,0.263,0.714,0.354c0.977,0.354,1.788,0.643,2.545,0.903c0.122,0.043,0.244,0.086,0.366,0.129
		c0.531,0.183,1.074,0.372,1.636,0.506c1.392,0.324,2.801,0.647,4.162,0.952c0.952,0.214,1.929,0.434,2.893,0.659
		c0.184,0.043,0.366,0.086,0.544,0.128c0.812,0.189,1.642,0.391,2.502,0.495c-0.03,0.183-0.055,0.358-0.079,0.543
		c-0.086,0.653-0.171,1.274-0.324,1.886c-0.384,1.501-0.457,2.99-0.237,4.547c0.104,0.758,0.476,1.337,1.099,1.721
		c0.53,0.324,1.116,0.531,1.739,0.6c1.611,0.189,2.844-0.385,3.662-1.697c0.671-1.066,1.073-2.245,1.349-3.148
		c0.226-0.731,0.415-1.482,0.598-2.209c0.055-0.227,0.11-0.451,0.171-0.678c0.171,0.012,0.342,0.024,0.513,0.036
		c0.903,0.067,1.837,0.142,2.765,0.171c1.551,0.055,3.192,0.092,5.17,0.11c0.457,0.006,0.928,0.012,1.385,0.024
		c0.684,0.012,1.386,0.023,2.088,0.023c1.116,0,2.044-0.037,2.898-0.109c0.013,0.066,0.024,0.135,0.03,0.194
		c0.049,0.323,0.098,0.623,0.116,0.929c0.062,1.104,0.104,2.232,0.141,3.325l0.012,0.336c0.013,0.329,0.007,0.659-0.006,0.994
		c-0.03,0.946-0.451,1.765-1.062,2.698c-0.379,0.572-0.77,1.152-1.153,1.715c-0.306,0.451-0.629,0.915-0.935,1.386
		c-0.195,0.286-0.359,0.599-0.488,0.915c-0.464,1.11-0.03,2.594,0.952,3.309c0.568,0.408,1.221,0.609,2.002,0.609
		c0.257,0,0.531-0.023,0.836-0.066c0.983-0.135,1.837-0.567,2.63-1c0.947-0.521,1.947-1.1,2.826-1.855
		c0.793-0.684,1.594-1.453,2.137-2.454c0.121,0,0.238-0.006,0.365-0.012c0.215-0.006,0.439-0.019,0.666-0.037
		c0.176-0.012,0.354-0.036,0.524-0.062c0.195-0.023,0.378-0.049,0.562-0.062c0.445-0.019,0.896-0.036,1.336-0.055
		c0.396-0.013,0.807-0.03,1.209-0.05c1.281-0.066,2.302-0.556,3.033-1.459c0.52-0.646,1.215-1.129,2.125-1.477
		c0.944-0.365,2.02-0.781,2.971-1.41c0.673-0.451,1.13-0.97,1.398-1.599c0.268-0.636,0.586-1.373,0.866-2.13
		c0.915-2.381,1.185-4.438,0.849-6.445c1.27-0.329,2.355-0.609,3.437-0.915c0.513-0.141,1.021-0.293,1.515-0.438
		c0.67-0.195,1.366-0.403,2.057-0.58c1.738-0.458,3.363-0.732,4.943-0.85c0.731-0.055,1.477-0.104,2.19-0.146l0.323-0.024
		c0.556-0.029,0.945-0.433,0.938-0.951C77.455,40.553,77.053,40.162,76.516,40.144z"/>
	<path fill="#A78627" d="M42.167,65.936c-0.287-0.043-0.524,0.067-0.685,0.152c-1.531,0.854-3.111,1.172-4.705,0.946
		c-0.739-0.099-1.489-0.317-2.24-0.653c-0.903-0.396-1.471-0.977-1.733-1.77c-0.098-0.313-0.409-0.537-0.653-0.61
		c-0.335-0.104-0.701,0.006-0.928,0.269c-0.213,0.25-0.286,0.599-0.188,0.935c0.207,0.702,0.616,1.33,1.214,1.874
		c1.014,0.928,2.301,1.508,3.943,1.775h0.006h0.006c1.63,0.213,3.102,0.099,4.511-0.354c0.646-0.207,1.251-0.488,1.781-0.83
		c0.306-0.195,0.481-0.52,0.471-0.859c-0.013-0.324-0.194-0.61-0.487-0.771C42.381,65.984,42.271,65.947,42.167,65.936z"/>
	<path fill="#A78627" d="M22.588,56.744c-0.299-0.036-0.592,0.079-0.799,0.313c-0.251,0.279-0.599,0.493-1.087,0.67
		c-0.727,0.258-1.52,0.385-2.441,0.379c-0.421,0-0.83-0.023-1.208-0.066c-0.787-0.098-1.495-0.287-2.154-0.58
		c-0.507-0.23-0.837-0.477-1.05-0.793c-0.189-0.27-0.445-0.434-0.727-0.471c-0.214-0.023-0.434,0.031-0.622,0.158
		c-0.452,0.307-0.537,0.867-0.214,1.361c0.323,0.494,0.781,0.891,1.44,1.251c0.934,0.507,1.965,0.8,3.448,0.978h0.012h0.007
		c1,0.104,2.521,0.108,4.064-0.422c0.543-0.188,1.343-0.52,1.929-1.228c0.335-0.401,0.299-0.964-0.073-1.306
		C22.967,56.854,22.783,56.77,22.588,56.744z"/>
	<path fill="#A78627" d="M37.748,69.964h-0.019c-0.677-0.024-1.379-0.049-2.063-0.092c-0.189-0.013-0.396-0.049-0.665-0.108
		c-0.879-0.215-1.77-0.574-2.71-1.104c-0.158-0.093-0.317-0.142-0.482-0.146c-0.354-0.024-0.671,0.146-0.848,0.45
		c-0.129,0.226-0.165,0.481-0.098,0.72c0.066,0.244,0.231,0.452,0.47,0.586c1.172,0.653,2.752,1.416,4.565,1.526
		c0.104,0.006,0.213,0.013,0.317,0.013h0.024c0.152,0,0.305-0.007,0.457-0.013c0.36-0.006,0.739-0.013,1.111-0.037
		c0.28-0.012,0.519-0.128,0.684-0.317c0.152-0.176,0.226-0.407,0.207-0.658C38.657,70.307,38.285,69.982,37.748,69.964z"/>
	<path fill="#A78627" d="M55.766,34.748c-0.306,0.287-0.679,0.501-1.129,0.666c-0.771,0.269-1.576,0.408-2.394,0.408
		c-0.438,0-0.892-0.042-1.349-0.122c-0.074-0.012-0.146-0.018-0.221-0.018c-0.482,0-0.859,0.305-0.939,0.763
		c-0.049,0.256,0.007,0.513,0.152,0.714c0.158,0.214,0.402,0.348,0.695,0.391c0.354,0.049,0.714,0.092,1.057,0.128
		c0.146,0.013,0.293,0.031,0.438,0.049h0.036h0.037c0.879-0.024,1.66-0.128,2.387-0.317c1.068-0.28,1.861-0.684,2.496-1.275
		c0.22-0.201,0.342-0.458,0.354-0.72c0.008-0.238-0.085-0.477-0.256-0.659c-0.177-0.189-0.415-0.293-0.665-0.293
		S55.973,34.565,55.766,34.748z"/>
	<path fill="#A78627" d="M26.378,33.076c-1.153-0.744-2.423-1.147-3.882-1.232l-0.061-0.007l-0.062,0.013
		c-0.042,0.006-0.091,0.019-0.146,0.024c-0.158,0.024-0.378,0.067-0.598,0.122c-0.256,0.067-0.464,0.226-0.592,0.445
		c-0.122,0.214-0.152,0.464-0.086,0.708c0.116,0.415,0.477,0.684,0.928,0.684c0.073,0,0.146-0.006,0.226-0.024
		c0.189-0.036,0.385-0.073,0.556-0.067c0.574,0.019,1.153,0.159,1.722,0.409c0.317,0.141,0.622,0.323,0.945,0.513l0.135,0.079
		c0.183,0.104,0.372,0.165,0.562,0.165c0.286,0,0.543-0.128,0.72-0.348c0.312-0.403,0.257-0.952-0.141-1.313
		C26.524,33.18,26.451,33.125,26.378,33.076z"/>
	<path fill="#A78627" d="M19.463,61.383c-0.183-0.023-0.354-0.006-0.5,0.012c-0.037,0.008-0.073,0.008-0.104,0.014
		c-0.708,0.066-1.349,0.061-1.959-0.014c-0.684-0.078-1.307-0.244-1.904-0.506c-0.086-0.037-0.178-0.062-0.269-0.072
		c-0.391-0.049-0.757,0.151-0.94,0.506c-0.226,0.451-0.073,0.965,0.366,1.227c0.141,0.086,0.287,0.159,0.445,0.221
		c0.574,0.22,1.185,0.365,1.868,0.445c0.269,0.036,0.556,0.055,0.854,0.066c0.787,0.031,1.428-0.062,2.014-0.299
		c0.22-0.092,0.672-0.274,0.873-0.781l0.122-0.323l-0.257-0.231C19.896,61.499,19.695,61.407,19.463,61.383z"/>
</g>
</svg>
