<?xml version="1.0" encoding="utf-8"?>
<!-- Generator: Adobe Illustrator 16.0.0, SVG Export Plug-In . SVG Version: 6.00 Build 0)  -->
<!DOCTYPE svg PUBLIC "-//W3C//DTD SVG 1.1//EN" "http://www.w3.org/Graphics/SVG/1.1/DTD/svg11.dtd">
<svg version="1.1" id="Layer_1" xmlns="http://www.w3.org/2000/svg" xmlns:xlink="http://www.w3.org/1999/xlink" x="0px" y="0px"
	 width="77px" height="80px" viewBox="0 0 77 80" enable-background="new 0 0 77 80" xml:space="preserve">
<path fill="#A78627" d="M69.215,12.124c-0.16-1.06-0.494-1.907-1.016-2.595c-0.648-0.854-1.463-1.297-2.428-1.324
	c-0.287-0.012-0.576-0.012-0.793-0.012c-0.115,0-0.238,0-0.354,0c-0.104,0-0.211,0.006-0.315,0.006c-1.394,0-2.783,0-4.175,0
	c-1.979,0-3.965,0.006-5.942,0.006c-1.324,0-2.646,0-3.963,0h-6.638v0.011h-3.907c-0.882,0-1.764,0-2.65,0.005
	c-1.74,0-3.481,0-5.222,0c-1.164,0.006-2.328,0.006-3.493,0.006c-0.377,0-0.754,0-1.131,0.006c-0.427,0-0.848,0-1.274,0
	c-0.599,0-1.098,0-1.563-0.012c-0.145,0-0.283,0-0.427,0c-0.915,0-1.669,0.057-2.373,0.184c-0.715,0.127-1.624,0.371-2.328,1.142
	c-0.609,0.66-0.976,1.431-1.104,2.296c-0.055,0.382-0.044,0.759-0.033,1.131c0,0.105,0.006,0.205,0.006,0.311
	c0.022,1.939,0.05,3.875,0.072,5.814c0.017,1.303,0.033,2.605,0.05,3.908c0.006,0.471,0.05,1.087,0.321,1.691
	c0.466,1.025,1.336,1.613,2.39,1.613c0.438,0,0.864-0.105,1.241-0.311c0.478-0.256,0.871-0.633,1.17-1.12
	c0.388-0.632,0.698-1.192,0.948-1.724c0.177-0.372,0.621-0.644,1.064-0.644c0.232,0,0.449,0.072,0.643,0.21
	c0.433,0.311,0.599,0.61,0.588,1.043c-0.017,0.609-0.006,1.23,0.006,1.829c0.005,0.306,0.011,0.621,0.011,0.932
	c0.006,0.576,0.006,1.153,0.006,1.735c0.005,0.688,0.005,1.38,0.011,2.067c0,0.238,0.011,0.487,0.078,0.731
	c0.26,0.92,0.897,1.536,1.901,1.824c0.26,0.078,0.537,0.116,0.825,0.116c0.826,0,1.613-0.315,2.162-0.864
	c0.511-0.51,0.782-1.203,0.782-1.99c0-1.148-0.006-2.295-0.006-3.443c0-1.146-0.006-2.295-0.006-3.441
	c0-0.012,0.006-0.033,0.022-0.095c0.145-0.487,0.638-0.698,1.042-0.731c0.045-0.006,0.089-0.006,0.128-0.006
	c0.726,0,1.313,0.555,1.363,1.286c0.033,0.46,0.033,0.942,0.033,1.402c0,0.133,0,0.267,0,0.394c0,2.896,0.006,5.782,0.012,8.676
	v3.221c-0.527,0.012-1.054,0.022-1.586,0.033c-1.508,0.033-3.06,0.066-4.596,0.133c-1.807,0.072-3.77,0.262-6.17,0.582
	c-3.637,0.482-6.53,1.126-9.108,2.013c-1.43,0.487-2.55,1.009-3.525,1.63c-0.76,0.482-1.303,0.977-1.696,1.535
	c-0.449,0.654-0.632,1.369-0.526,2.129c0.061,0.477,0.11,0.871,0.133,1.275c0.144,3.016,0.776,5.953,1.885,8.736
	c1.075,2.698,2.583,5.184,4.474,7.385c1.818,2.117,3.941,3.908,6.303,5.322c3.205,1.911,6.697,3.082,10.384,3.475
	c0.926,0.1,1.856,0.15,2.771,0.15c2.39,0,4.778-0.339,7.102-1.015c4.189-1.215,7.928-3.396,11.098-6.478
	c2.074-2.012,3.81-4.352,5.156-6.957c0.998-1.93,1.762-3.979,2.277-6.098c0.35-1.436,0.588-2.904,0.705-4.379
	c0.049-0.705,0.094-1.536,0.006-2.367c-0.123-1.108-0.805-1.836-1.314-2.283c-0.977-0.871-2.123-1.393-3.211-1.835
	c-1.352-0.549-2.854-0.998-4.717-1.414c-2.871-0.643-6.037-1.08-9.662-1.342l0.055-8.275c0.023-3.632,0.045-7.379,0.066-11.076
	c1.547-0.012,3.111-0.023,4.629-0.039c0.693-0.006,1.387-0.018,2.086-0.022c1.053-0.006,2.105-0.017,3.158-0.028
	c1.221-0.011,2.434-0.021,3.654-0.033c3.426-0.027,6.857-0.061,10.283-0.1h0.045c0.043,0,0.088,0,0.133,0.006
	c0.043,0,0.094,0,0.145,0c0.16,0,0.354-0.006,0.549-0.05c0.697-0.155,1.346-0.516,1.935-1.069c0.295-0.283,0.633-0.627,0.825-1.088
	C69.227,14.613,69.402,13.354,69.215,12.124z M66.027,16.148c-0.355,0.166-0.744,0.205-1.254,0.211
	c-2.943,0.039-5.938,0.066-8.83,0.094c-1.025,0.006-2.051,0.018-3.072,0.028c-2.367,0.022-4.734,0.044-7.1,0.066l-4.297,0.044
	c0.012-0.027,0.021-0.05,0.039-0.077c0.35-0.588,0.676-1.098,0.991-1.558c1.048-1.502,1.662-2.756,1.99-4.053
	c0.075-0.305,0.121-0.604,0.178-0.92c0.005-0.022,0.005-0.045,0.011-0.066h0.389l11.227-0.012C58.932,9.9,61.648,9.9,64.324,9.9h0.4
	c0.358,0,0.729,0.023,1.086,0.051c0.537,0.033,0.932,0.332,1.235,0.937c0.692,1.358,0.722,2.794,0.084,4.274
	C66.959,15.561,66.609,15.871,66.027,16.148z M31.452,70c-2.894-0.268-5.688-1.055-8.294-2.34c-3.364-1.652-6.236-4.02-8.537-7.029
	c-1.596-2.09-2.844-4.436-3.714-6.98c-0.615-1.789-1.025-3.674-1.226-5.608c1.015,0.709,2.135,1.176,3.005,1.502
	c1.785,0.666,3.775,1.192,6.259,1.642c3.459,0.627,7.141,0.992,11.254,1.125c1.064,0.033,2.134,0.051,3.188,0.051
	c3.281,0,6.552-0.166,9.716-0.504c3.332-0.351,6.222-0.859,8.826-1.547c1.424-0.377,3.287-0.933,5.039-1.869
	c0.488-0.26,0.904-0.521,1.27-0.793c-0.204,1.83-0.6,3.615-1.182,5.321c-1.668,4.892-4.563,8.953-8.604,12.068
	c-2.871,2.213-6.131,3.731-9.695,4.508c-1.675,0.371-3.388,0.556-5.095,0.556C32.931,70.1,32.189,70.066,31.452,70z M57.795,45.785
	c-0.6,0.615-1.342,1.02-1.99,1.336c-1.856,0.908-3.842,1.436-5.361,1.796c-2.307,0.549-4.815,0.959-7.672,1.259
	c-3.026,0.315-6.053,0.471-9.529,0.482h-0.127c-2.434,0-5.056-0.111-7.573-0.328c-2.91-0.249-5.493-0.621-7.904-1.143
	c-1.924-0.414-3.465-0.875-4.856-1.44c-0.976-0.394-1.713-0.792-2.323-1.253c-0.438-0.326-0.698-0.6-0.876-0.914
	c-0.21-0.366-0.222-0.699-0.027-1.049c0.327-0.604,0.887-1.008,1.392-1.33c0.804-0.516,1.724-0.942,2.982-1.387
	c2.628-0.926,5.371-1.431,7.467-1.763c1.852-0.299,3.809-0.521,5.987-0.682c2.301-0.172,4.662-0.261,7.013-0.261
	c0.188,0,0.377,0,0.565,0v0.454c0,0.693-0.006,1.414,0,2.119c0.006,0.486,0.194,0.947,0.56,1.368
	c0.638,0.726,1.497,1.126,2.556,1.181c0.084,0,0.167,0.006,0.25,0.006c0.427,0,0.809-0.065,1.158-0.193
	c1.031-0.389,1.623-1.264,1.623-2.4c0-0.326,0-0.658,0.007-0.992c0-0.426,0-0.863,0-1.297c0.473,0.045,0.948,0.095,1.42,0.139
	c0.94,0.09,1.918,0.184,2.871,0.289c1.541,0.172,3.139,0.449,4.885,0.832c2.237,0.498,3.896,1.025,5.377,1.713
	c0.703,0.326,1.515,0.748,2.146,1.402C58.51,44.443,58.504,45.064,57.795,45.785z M30.686,22.861
	c-0.044,0.311-0.044,0.621-0.038,0.921c0,0.089,0,0.172,0,0.255c0,0.959,0,1.918,0,2.877c0,0.953,0,1.912,0,2.871
	c0,0.039,0,0.072,0,0.111c0,0.172,0.005,0.333-0.022,0.466c-0.044,0.205-0.1,0.354-0.166,0.449c-0.211,0.3-0.61,0.482-1.037,0.482
	c-0.36,0-0.693-0.134-0.903-0.354c-0.145-0.15-0.205-0.316-0.2-0.555c0.012-0.998,0.012-1.984,0-2.994
	c0-0.432-0.011-0.875-0.017-1.297c-0.011-0.781-0.027-1.586-0.017-2.373c0.012-0.698-0.21-1.308-0.665-1.818
	c-0.654-0.726-1.441-1.108-2.272-1.108c-0.644,0-1.286,0.239-1.863,0.688c-0.321,0.249-0.532,0.61-0.704,0.897
	c-0.149,0.244-0.282,0.506-0.41,0.749c-0.133,0.261-0.26,0.499-0.404,0.737c-0.1,0.166-0.249,0.344-0.443,0.51
	c-0.178,0.156-0.383,0.238-0.594,0.238c-0.388,0-0.704-0.254-0.804-0.648c-0.127-0.504-0.193-0.942-0.199-1.353
	c-0.056-2.849-0.089-5.632-0.116-8.709v-0.038c-0.006-0.561-0.012-1.143,0.05-1.691c0.039-0.294,0.149-0.632,0.327-1.004
	c0.261-0.549,0.709-0.887,1.33-1.02c0.682-0.139,1.309-0.211,1.918-0.211c0.056,0,0.111,0,0.167,0.006
	c0.271,0.006,0.56,0.006,0.887,0.006c0.394,0,0.787-0.006,1.175-0.006c0.355-0.006,0.721-0.012,1.081-0.012
	c1.863,0,3.72,0,5.577-0.005h3.049c2.528,0,5.061-0.005,7.588-0.011c-0.127,0.787-0.414,1.574-0.902,2.527
	c-0.289,0.565-0.643,1.076-1.02,1.613c-0.162,0.228-0.328,0.466-0.488,0.704c-0.4,0.599-0.871,1.419-0.992,2.434
	c-0.018,0.177-0.018,0.344-0.022,0.511v0.061c-0.004,1.075-0.004,2.15-0.011,3.227c-0.012,1.618-0.018,3.236-0.026,4.855
	c-0.013,2.023-0.022,4.041-0.033,6.064c-0.012,1.852-0.022,3.698-0.034,5.544c-0.005,0.378,0,0.755,0,1.12c0,0.36,0,0.737,0,1.104
	c-0.005,0.698-0.011,1.385-0.033,2.072c-0.004,0.322-0.144,0.526-0.443,0.66c-0.166,0.078-0.41,0.122-0.671,0.122
	c-0.615,0-1.169-0.229-1.475-0.604c-0.1-0.121-0.139-0.256-0.139-0.443l-0.011-6.568c0-0.527,0-1.049,0-1.569v-1.153h-0.022
	c0-0.637,0-1.275,0-1.906c-0.005-2.047-0.005-4.158,0.006-6.237c0.006-0.921-0.282-1.708-0.843-2.334
	c-0.565-0.632-1.386-0.992-2.25-0.992c-0.472,0-0.954,0.105-1.387,0.311C31.28,21.459,30.797,22.059,30.686,22.861z"/>
</svg>
